<svg id="Group_4128" data-name="Group 4128" xmlns="http://www.w3.org/2000/svg" xmlns:xlink="http://www.w3.org/1999/xlink" width="15.865" height="16.002" viewBox="0 0 15.865 16.002">
  <defs>
    <clipPath id="clip-path">
      <rect id="Rectangle_2012" data-name="Rectangle 2012" width="15.865" height="16.002" fill="#0f2a55"/>
    </clipPath>
  </defs>
  <g id="Group_4127" data-name="Group 4127" clip-path="url(#clip-path)">
    <path id="Path_10427" data-name="Path 10427" d="M84.1,78.157a3.678,3.678,0,0,1,3.329-1.395,3.532,3.532,0,0,1,2.528.94,4.166,4.166,0,0,1,1.094,2.359,13.978,13.978,0,0,1,.15,2.416q0,2.262,0,4.525c0,.466-.17.64-.626.64h-2.2c-.469,0-.637-.162-.637-.625q0-2.312,0-4.625a4.932,4.932,0,0,0-.182-1.58,1.492,1.492,0,0,0-1.292-1.124,1.64,1.64,0,0,0-1.749.791,3.114,3.114,0,0,0-.432,1.645c0,1.608,0,3.216,0,4.825,0,.545-.15.692-.7.692q-1.035,0-2.071,0c-.413,0-.6-.182-.6-.591q0-4.774,0-9.549c0-.4.179-.575.583-.576q1.11,0,2.22,0a.5.5,0,0,1,.575.563c.006.223,0,.446,0,.669" transform="translate(-75.338 -71.64)" fill="#0f2a55"/>
    <path id="Path_10428" data-name="Path 10428" d="M7.375,84.486q0-2.349,0-4.7c0-.479.183-.663.665-.665q1.023,0,2.046,0c.474,0,.662.191.662.672q0,4.686,0,9.373c0,.49-.193.677-.681.678H8.1c-.549,0-.721-.169-.721-.71q0-2.325,0-4.649" transform="translate(-6.883 -73.843)" fill="#0f2a55"/>
    <path id="Path_10429" data-name="Path 10429" d="M4.352,2.2A2.176,2.176,0,0,1,0,2.176,2.176,2.176,0,1,1,4.352,2.2" transform="translate(0 0.001)" fill="#0f2a55"/>
  </g>
</svg>
