<svg id="Group_4987" data-name="Group 4987" xmlns="http://www.w3.org/2000/svg" xmlns:xlink="http://www.w3.org/1999/xlink" width="36.043" height="36.033" viewBox="0 0 36.043 36.033">
  <defs>
    <clipPath id="clip-path">
      <rect id="Rectangle_2313" data-name="Rectangle 2313" width="36.043" height="36.033" fill="#fff"/>
    </clipPath>
  </defs>
  <g id="Group_4986" data-name="Group 4986" clip-path="url(#clip-path)">
    <path id="Path_11596" data-name="Path 11596" d="M49.117,17.5c.847-1.258,1.751-2.479,2.59-3.742a1.144,1.144,0,0,1,1.1-.585c3.467.024,6.935.006,10.4.016a1.843,1.843,0,0,0,1.87-1.1,1.82,1.82,0,0,0-.5-2.176C63.949,9.3,63.338,8.663,62.7,8.056a6.956,6.956,0,0,0-4.735-2.005c-1.465-.037-2.934-.037-4.4-.011a.887.887,0,0,1-.892-.5c-.57-.961-1.277-1.851-1.745-2.857a2.31,2.31,0,0,0-2.706-1.473c-.882.111-1.07.264-.853,1.149.262,1.059.509,2.119.81,3.167.117.41.036.513-.374.5-1.04-.018-2.084-.071-3.118.013-.922.076-1.3-.2-1.559-1.147A29.719,29.719,0,0,0,41.569,0H38.046a1.044,1.044,0,0,0-.379.987c.006,1.734.013,3.469,0,5.2a1.436,1.436,0,0,0,.45,1.138c1.147,1.117,2.269,2.259,3.4,3.385a8.678,8.678,0,0,0,4.123,2.3c.617.153,1.583-.174,1.774.392.156.466-.443,1.187-.709,1.795-.977,2.241-1.054,1.864,1.252,2.686a.878.878,0,0,0,1.158-.386m-1.387-.943c-.416-.149-.154-.378-.076-.558.474-1.1,1-2.176,1.435-3.287A.921.921,0,0,1,50.206,12a10.058,10.058,0,0,0,1.287.01c-1.08,1.55-2.082,2.984-3.074,4.425-.206.3-.419.22-.689.122m9.6-9.361A5.379,5.379,0,0,1,61.02,8.429c-1.165,0-2.33.014-3.5-.006-.43-.008-.664.024-.671.577-.01.586.242.622.7.615,1.494-.022,2.987-.01,4.481-.008a3.194,3.194,0,0,1,1.991,1.6c.091.591-.255.807-.8.807-1.653,0-3.307,0-4.96,0H53.09c-.054-.323.32-.631.014-.951s-.693-.217-1.051-.223c-.906-.018-1.814.013-2.719-.013a.823.823,0,0,0-.958.641c-.121.49-.438.558-.889.554a7,7,0,0,1-4.981-2c-.916-.877-1.8-1.79-2.821-2.813h.924c5.574,0,11.147.01,16.721-.008M49.613,2.839c.6,1.044,1.266,2.052,1.979,3.191-.667,0-1.189-.014-1.708,0-.357.011-.428-.2-.495-.484-.243-1.027-.508-2.047-.767-3.074a.7.7,0,0,1,.99.362m-10.77.713c0-.586.029-1.173-.008-1.756-.031-.464.076-.648.6-.646,1.364.006,1.367-.024,1.756,1.276.3,1.015.556,2.049.908,3.046.193.541-.008.594-.44.558-.106-.01-.214,0-.32,0-.815-.048-1.907.35-2.365-.164-.4-.442-.082-1.517-.082-2.31Z" transform="translate(-31.612)" fill="#fff"/>
    <path id="Path_11597" data-name="Path 11597" d="M15.5,122.707c-.627-.31-1.017-.966-1.711-1.117-.435-.095-.46-.255-.313-.646.638-1.714,1.237-3.443,1.853-5.166.461-1.3.46-1.334-.829-1.735a1.093,1.093,0,0,1-.9-1.017c-.238-1.628-.575-3.241-.882-4.859-.219-1.147-.227-1.146-1.367-1.147-.532,0-1.192.185-1.563-.061-.416-.278-.109-.983-.143-1.5-.035-.538-.223-.855-.815-.842q-1,.022-2,0c-.548-.014-.752.265-.778.778s.249,1.258-.119,1.518-1.072.092-1.626.108a.731.731,0,0,1-.159,0c-.784-.132-1.1.264-1.21.993-.2,1.313-.493,2.611-.668,3.927-.154,1.144-.312,2.209-1.783,2.325-.159.013-.3.185-.455.283v.479q1.1,3.008,2.2,6.014c.059.165.17.41-.093.46-.85.161-1.292,1.006-2.1,1.213a3.252,3.252,0,0,1-.009.718c-.116.506.225.4.49.4a6.633,6.633,0,0,0,1.411-.93.942.942,0,0,1,1.3-.071c.435.328.861.667,1.29,1H5.795a9.963,9.963,0,0,0,1.39-.967.98.98,0,0,1,1.311-.021c.44.32.868.657,1.3.988h1.12a6.478,6.478,0,0,0,1.419-.914.97.97,0,0,1,1.422-.006,8.687,8.687,0,0,0,1.321.921h.48c.048-.392.227-.987-.061-1.128M7.779,107.016c-.522.143-.551-.154-.572-.6-.022-.53.153-.646.662-.663.614-.022.578.3.614.729.047.581-.28.581-.7.532M6.857,121.69a2.231,2.231,0,0,0-.469.294c-1.228.979-2.3.675-2.844-.815-.66-1.817-1.3-3.639-1.976-5.452-.142-.381-.113-.559.3-.693,1.761-.566,3.514-1.16,5.362-1.774,0,2.688-.006,5.268.01,7.847a.559.559,0,0,1-.386.591m.264-9.661c-1.252.44-2.515.85-3.908,1.319.191-1.118.358-2.145.543-3.167.358-1.991.363-1.991,2.418-1.991,1.6,0,3.2.019,4.8-.013a.567.567,0,0,1,.676.556c.259,1.488.529,2.974.821,4.616-1.412-.472-2.7-.882-3.967-1.338a1.94,1.94,0,0,0-1.385.018m4.912,9.338a1.624,1.624,0,0,1-2.662.781,2.411,2.411,0,0,1-.969-2.24c.034-2.187.011-4.374.011-6.663,1.891.627,3.673,1.221,5.458,1.806.307.1.4.207.268.559-.712,1.917-1.3,3.882-2.106,5.757" transform="translate(0 -87.808)" fill="#fff"/>
    <path id="Path_11598" data-name="Path 11598" d="M123.076,142.986c-.562-1.89-1.734-2.518-3.667-2.267-1.424.185-1.462.035-1.459-1.4,0-.643-.162-.987-.9-.982-3.808.022-7.616.016-11.422,0-.6,0-.877.22-.876.839q.015,5.155,0,10.309c0,.58.262.839.806.85.612.011,1.224,0,1.836.006.178,0,.437-.072.5.135.243.8.91,1.191,1.506,1.657h1.281a2.8,2.8,0,0,0,1.69-1.523c.111-.313.344-.272.578-.272.8,0,1.6.035,2.389-.01.863-.048,1.661-.082,2.036.943.159.435.763.45.988.861h1.281a2.746,2.746,0,0,0,1.747-1.562c.148-.4.495-.188.754-.228.622-.1,1.353.259,1.82-.453v-5.283a3.933,3.933,0,0,1-.89-1.628m-2.744-.763c.045-.227.122-.326.352-.321.262.006.516-.037.665.286.318.693.668,1.371,1.019,2.081a1.762,1.762,0,0,1-.273.066c-1.775.082-2.106-.321-1.763-2.111m-10.163,8.733a1.267,1.267,0,0,1-1.224-1.231,1.279,1.279,0,0,1,1.166-1.208,1.22,1.22,0,0,1,.058,2.439m6.607-2.42c0,.411-.045.62-.543.6-1.091-.04-2.185-.029-3.279,0a.61.61,0,0,1-.659-.415,2.231,2.231,0,0,0-2.162-1.364,2.4,2.4,0,0,0-2.155,1.406c-.427.768-1.187.3-1.782.329-.5.029-.256-.5-.257-.762-.022-2.72,0-5.442-.024-8.162,0-.514.122-.686.662-.673,1.6.037,3.2.013,4.8.013,1.573,0,3.146.016,4.719-.01.482-.006.694.067.688.635-.032,2.8-.022,5.6-.006,8.4m2.363,2.42a1.273,1.273,0,0,1-1.189-1.264,1.3,1.3,0,0,1,1.2-1.176,1.22,1.22,0,1,1-.01,2.441m3.379-1.849c-.379-.019-.831.259-1.146-.236-.977-1.534-1.612-1.767-3.432-1.274,0-1.75.022-3.43-.013-5.109-.013-.545.217-.593.662-.594s.614.093.59.567c-.04.746,0,1.494-.014,2.241-.013.575.254.831.819.824.773-.006,1.546.014,2.319-.006.381-.011.517.116.506.5-.024.827,0,1.655-.014,2.481,0,.228.154.627-.276.6" transform="translate(-87.924 -116.112)" fill="#fff"/>
    <path id="Path_11599" data-name="Path 11599" d="M83.047,53.531c.437,0,.6-.106.572-.566-.021-.413,0-.774-.572-.612-.5-.116-.625.095-.636.583-.013.521.175.6.636.594" transform="translate(-69.169 -43.908)" fill="#fff"/>
    <path id="Path_11600" data-name="Path 11600" d="M97.994,53.527c.511.133.633-.091.61-.573-.018-.4-.043-.628-.541-.6-.419.022-.7.024-.657.578.029.426.026.76.588.6" transform="translate(-81.752 -43.938)" fill="#fff"/>
    <path id="Path_11601" data-name="Path 11601" d="M112.957,53.527c.513.135.633-.091.611-.573-.018-.4-.04-.628-.54-.6-.419.022-.694.024-.654.578.031.421.018.76.583.6" transform="translate(-94.315 -43.938)" fill="#fff"/>
    <path id="Path_11602" data-name="Path 11602" d="M127.773,53.541c.336-.051.811.141.683-.492.018-.386.095-.761-.514-.707-.4.035-.739-.006-.659.566.047.324-.095.723.49.633" transform="translate(-106.822 -43.928)" fill="#fff"/>
    <path id="Path_11603" data-name="Path 11603" d="M142.8,53.561c.548.019.623-.228.538-.715.225-.54-.185-.455-.548-.492-.49-.051-.617.122-.625.611-.01.521.182.582.635.6" transform="translate(-119.32 -43.935)" fill="#fff"/>
    <path id="Path_11604" data-name="Path 11604" d="M38.693,135.009c.014-.4-.08-.58-.524-.553-.611.035-1.224.008-1.836.008-.639,0-1.28.031-1.918-.01-.453-.029-.53.164-.508.553.019.353-.058.665.5.647,1.25-.043,2.5-.037,3.755,0,.53.014.516-.262.529-.643" transform="translate(-28.455 -112.85)" fill="#fff"/>
  </g>
</svg>
