<svg id="Group_4621" data-name="Group 4621" xmlns="http://www.w3.org/2000/svg" xmlns:xlink="http://www.w3.org/1999/xlink" width="29.479" height="29.59" viewBox="0 0 29.479 29.59">
  <defs>
    <clipPath id="clip-path">
      <rect id="Rectangle_396" data-name="Rectangle 396" width="29.479" height="29.59" fill="#24315f"/>
    </clipPath>
  </defs>
  <g id="Group_1291" data-name="Group 1291" clip-path="url(#clip-path)">
    <path id="Path_6288" data-name="Path 6288" d="M37.9,43.492a2.751,2.751,0,0,1,2.72-2.733,2.791,2.791,0,0,1,2.739,2.779,2.73,2.73,0,0,1-2.783,2.712A2.69,2.69,0,0,1,37.9,43.492" transform="translate(-31.794 -34.2)" fill="#24315f"/>
    <path id="Path_6289" data-name="Path 6289" d="M35.548,88.666c0,.629-.006,1.26,0,1.889,0,.217-.071.3-.3.319a9.5,9.5,0,0,1-8.683-3.653.86.86,0,0,1-.19-.764,4.593,4.593,0,0,1,6.986-3.2A4.456,4.456,0,0,1,35.545,87.1c.016.523,0,1.046,0,1.569" transform="translate(-22.12 -69.256)" fill="#24315f"/>
    <path id="Path_6290" data-name="Path 6290" d="M85.908,51.987a2.294,2.294,0,0,1-.661-2.551A2.26,2.26,0,0,1,87.5,48.025,2.223,2.223,0,0,1,89.5,49.777a1.781,1.781,0,0,1-.1,1.254,1.45,1.45,0,0,1-.8,1.043,2.21,2.21,0,0,1-2.68-.087" transform="translate(-71.405 -40.291)" fill="#24315f"/>
    <path id="Path_6291" data-name="Path 6291" d="M83.208,89.836c.011-.6,0-1.207,0-1.972a13.327,13.327,0,0,0-.111-2.282,5.368,5.368,0,0,0-.913-2.076c-.211-.283-.135-.431.093-.624a3.92,3.92,0,0,1,6.285,2.078,5.224,5.224,0,0,1,.114,1.275.573.573,0,0,1-.13.369,9.7,9.7,0,0,1-5.012,3.491c-.258.077-.335,0-.33-.258" transform="translate(-68.856 -68.791)" fill="#24315f"/>
    <path id="Path_6292" data-name="Path 6292" d="M1.687,15.454c-.262.1-.521.209-.779.317-.225.095-.332.031-.4-.214A12.04,12.04,0,0,1,.6,8.329,11.793,11.793,0,0,1,4.916,2.347,11.675,11.675,0,0,1,10.587.1C11.094.045,11.6.026,12.115,0a11.979,11.979,0,0,1,9.83,5.295c.245.352.46.721.673,1.091.117.206.077.325-.132.406-.037.014-.077.021-.114.037-.914.426-.908.423-1.434-.42a10.042,10.042,0,0,0-4.991-4.164A10.283,10.283,0,0,0,5.833,3.484,10.222,10.222,0,0,0,1.84,9.236a10.337,10.337,0,0,0,.035,5.784c.068.237.026.351-.188.433" transform="translate(0)" fill="#24315f"/>
    <path id="Path_6293" data-name="Path 6293" d="M35.884,72.739a2.3,2.3,0,0,1-3.272-.085c-1.107-1.107-2.207-2.223-3.317-3.327a2.357,2.357,0,0,1-.742-1.877.625.625,0,0,0-.217-.525c-.48-.468-.964-.93-1.41-1.429-.2-.222-.322-.187-.523-.032A11.993,11.993,0,0,1,13,66.221a11.945,11.945,0,0,1-4.421-4.593c-.161-.288-.109-.4.185-.528.927-.389.913-.393,1.463.455a10.17,10.17,0,0,0,7.355,4.78,10.111,10.111,0,0,0,9.93-4.02,10.121,10.121,0,0,0,1.817-9.183c-.1-.37-.092-.584.349-.739.884-.309.885-.349,1.112.552a10.144,10.144,0,0,1,.364,2.443A12.271,12.271,0,0,1,28.8,63c-.237.32-.285.521.061.811a17.518,17.518,0,0,1,1.31,1.3.641.641,0,0,0,.534.2A2.268,2.268,0,0,1,32.483,66c1.131,1.139,2.281,2.263,3.4,3.415a2.293,2.293,0,0,1,0,3.327" transform="translate(-7.12 -43.793)" fill="#24315f"/>
    <path id="Path_6294" data-name="Path 6294" d="M35.884,72.739a2.3,2.3,0,0,1-3.272-.085c-1.107-1.107-2.207-2.223-3.317-3.327a2.357,2.357,0,0,1-.742-1.877.625.625,0,0,0-.217-.525c-.48-.468-.964-.93-1.41-1.429-.2-.222-.322-.187-.523-.032A11.993,11.993,0,0,1,13,66.221a11.945,11.945,0,0,1-4.421-4.593c-.161-.288-.109-.4.185-.528.927-.389.913-.393,1.463.455a10.17,10.17,0,0,0,7.355,4.78,10.111,10.111,0,0,0,9.93-4.02,10.121,10.121,0,0,0,1.817-9.183c-.1-.37-.092-.584.349-.739.884-.309.885-.349,1.112.552a10.144,10.144,0,0,1,.364,2.443A12.271,12.271,0,0,1,28.8,63c-.237.32-.285.521.061.811a17.518,17.518,0,0,1,1.31,1.3.641.641,0,0,0,.534.2A2.268,2.268,0,0,1,32.483,66c1.131,1.139,2.281,2.263,3.4,3.415a2.293,2.293,0,0,1,0,3.327" transform="translate(-7.12 -43.793)" fill="#24315f"/>
    <path id="Path_6295" data-name="Path 6295" d="M35.551,90.555c0,.217-.071.3-.3.319a9.5,9.5,0,0,1-8.683-3.653.86.86,0,0,1-.19-.764,4.593,4.593,0,0,1,6.986-3.2A4.456,4.456,0,0,1,35.545,87.1c.016.523,0,1.046,0,1.569,0,.629-.006,1.26,0,1.889" transform="translate(-22.12 -69.256)" fill="#24315f"/>
    <path id="Path_6296" data-name="Path 6296" d="M22.486,6.792c-.037.014-.077.021-.114.037-.914.426-.908.423-1.434-.42a10.042,10.042,0,0,0-4.991-4.164A10.283,10.283,0,0,0,5.833,3.484,10.222,10.222,0,0,0,1.84,9.236a10.337,10.337,0,0,0,.035,5.784c.068.237.026.351-.188.433-.262.1-.521.209-.779.317-.225.095-.332.031-.4-.214A12.04,12.04,0,0,1,.6,8.329,11.793,11.793,0,0,1,4.916,2.347,11.675,11.675,0,0,1,10.587.1C11.094.045,11.6.026,12.115,0a11.979,11.979,0,0,1,9.83,5.295c.245.352.46.721.673,1.091.117.206.077.325-.132.406" transform="translate(0)" fill="#24315f"/>
    <path id="Path_6297" data-name="Path 6297" d="M88.68,86.234a.573.573,0,0,1-.13.369,9.7,9.7,0,0,1-5.012,3.491c-.258.077-.335,0-.33-.258.011-.6,0-1.207,0-1.972a13.327,13.327,0,0,0-.111-2.282,5.368,5.368,0,0,0-.913-2.076c-.211-.283-.135-.431.093-.624a3.92,3.92,0,0,1,6.285,2.078,5.224,5.224,0,0,1,.114,1.275" transform="translate(-68.856 -68.791)" fill="#24315f"/>
    <path id="Path_6298" data-name="Path 6298" d="M43.357,43.539a2.73,2.73,0,0,1-2.783,2.712A2.69,2.69,0,0,1,37.9,43.492a2.751,2.751,0,0,1,2.72-2.733,2.791,2.791,0,0,1,2.739,2.779" transform="translate(-31.794 -34.2)" fill="#24315f"/>
    <path id="Path_6299" data-name="Path 6299" d="M89.392,51.031a2.4,2.4,0,0,1-.8,1.043,2.21,2.21,0,0,1-2.68-.087,2.294,2.294,0,0,1-.661-2.551A2.26,2.26,0,0,1,87.5,48.025,2.223,2.223,0,0,1,89.5,49.777a1.781,1.781,0,0,1-.1,1.254" transform="translate(-71.405 -40.291)" fill="#24315f"/>
    <path id="Path_6300" data-name="Path 6300" d="M107.569,66.73a1.45,1.45,0,0,1-.8,1.043q.4-.521.8-1.043" transform="translate(-89.581 -55.99)" fill="#24315f"/>
  </g>
</svg>
