<svg id="Group_4934" data-name="Group 4934" xmlns="http://www.w3.org/2000/svg" xmlns:xlink="http://www.w3.org/1999/xlink" width="36.847" height="39.837" viewBox="0 0 36.847 39.837">
  <defs>
    <clipPath id="clip-path">
      <rect id="Rectangle_2295" data-name="Rectangle 2295" width="36.847" height="39.837" fill="#fcfdfe"/>
    </clipPath>
  </defs>
  <g id="Group_4933" data-name="Group 4933" clip-path="url(#clip-path)">
    <path id="Path_11497" data-name="Path 11497" d="M32.589,24.775a12.457,12.457,0,0,0,12.238-12.3,12.353,12.353,0,1,0-24.7-.069A12.446,12.446,0,0,0,32.589,24.775m.069-23.369A10.943,10.943,0,1,1,21.587,12.29,10.931,10.931,0,0,1,32.658,1.406" transform="translate(-14.057 0)" fill="#fcfdfe"/>
    <path id="Path_11498" data-name="Path 11498" d="M88.011,81.562A4.183,4.183,0,0,0,92.24,85.74a4.21,4.21,0,1,0-.084-8.419,4.148,4.148,0,0,0-4.145,4.241m6.945-.121a2.729,2.729,0,0,1-2.662,2.821,2.694,2.694,0,0,1-2.833-2.65,2.636,2.636,0,0,1,2.646-2.8,2.71,2.71,0,0,1,2.848,2.625" transform="translate(-61.482 -54.015)" fill="#fcfdfe"/>
    <path id="Path_11499" data-name="Path 11499" d="M10.333,84.657a4.208,4.208,0,0,0,.31-8.41,4.208,4.208,0,1,0-.31,8.41m.22-6.96a2.754,2.754,0,0,1-.136,5.507,2.754,2.754,0,1,1,.136-5.507" transform="translate(-4.367 -53.263)" fill="#fcfdfe"/>
    <path id="Path_11500" data-name="Path 11500" d="M47.142,92.213a4.212,4.212,0,1,0,4.184-4.241,4.225,4.225,0,0,0-4.184,4.241m6.954-.093a2.75,2.75,0,1,1-5.5.13,2.842,2.842,0,0,1,2.689-2.857A2.807,2.807,0,0,1,54.1,92.119" transform="translate(-32.932 -61.455)" fill="#fcfdfe"/>
    <path id="Path_11501" data-name="Path 11501" d="M50.533,118.977A7.593,7.593,0,0,0,47,118.5c-.6,0-1.206-.045-1.8.006a4.891,4.891,0,0,0-4.172,2.764c-.22.422-.316.889.166,1.2.521.332.832-.006,1.064-.446.488-.919,1.148-1.8,2.2-1.863,2.64-.154,5.594-1.212,7.3,2.053a.6.6,0,0,0,.877.307.716.716,0,0,0,.329-1.019,4.642,4.642,0,0,0-2.439-2.52" transform="translate(-28.538 -82.766)" fill="#fcfdfe"/>
    <path id="Path_11502" data-name="Path 11502" d="M8.5,107.051a27.892,27.892,0,0,0-4.787.015,4.4,4.4,0,0,0-3.551,2.665c-.211.425-.3.892.214,1.173.531.292.829-.051,1.058-.488a3.077,3.077,0,0,1,2.5-1.914c2.544-.087,5.417-1.034,6.993,2.143a.638.638,0,0,0,.9.268.689.689,0,0,0,.344-.763c-.075-1.242-1.989-2.966-3.68-3.1" transform="translate(0 -74.717)" fill="#fcfdfe"/>
    <path id="Path_11503" data-name="Path 11503" d="M93.767,110.863a7.155,7.155,0,0,0-.82-1.251c-1.332-1.616-3.159-1.745-4.862-1.607-.9,0-1.6-.051-2.3.012a4.569,4.569,0,0,0-3.894,2.653c-.232.461-.395,1,.223,1.287.521.238.787-.136,1.016-.585a3.548,3.548,0,0,1,3.439-1.965c.6,0,1.2.03,1.8-.009,1.793-.115,3.267.371,4.105,2.107a.732.732,0,0,0,1.1.416c.437-.235.383-.69.193-1.058" transform="translate(-57.062 -75.421)" fill="#fcfdfe"/>
    <path id="Path_11504" data-name="Path 11504" d="M41.483,34.65a2.7,2.7,0,0,0,1.007.2,2.4,2.4,0,0,0,1.781-.714c2.032-2,4.084-3.988,6.041-6.062a2.729,2.729,0,0,0-.036-3.925,2.834,2.834,0,0,0-3.952-.042c-.754.651-1.429,1.4-2.131,2.113-1.57,1.6-1.567,1.6-3.319.2a2.641,2.641,0,0,0-3.451-.223c-1.13.808-1.736,2.026-1.031,3.27a16.7,16.7,0,0,0,5.091,5.181m-3.7-6.764a1.357,1.357,0,0,1,1.224-.735c.844.06,1.287.714,1.812,1.236,1.655,1.643,1.649,1.649,3.319-.042.949-.962,1.92-1.9,2.857-2.873.684-.714,1.474-.977,2.225-.262.793.751.428,1.555-.235,2.228-1.727,1.739-3.472,3.46-5.194,5.2a1.6,1.6,0,0,1-2.674-.015c-.983-1.067-2.056-2.047-3.068-3.087a1.333,1.333,0,0,1-.265-1.652" transform="translate(-25.211 -16.299)" fill="#fcfdfe"/>
  </g>
</svg>
