<svg id="Group_4130" data-name="Group 4130" xmlns="http://www.w3.org/2000/svg" xmlns:xlink="http://www.w3.org/1999/xlink" width="9.913" height="19.107" viewBox="0 0 9.913 19.107">
  <defs>
    <clipPath id="clip-path">
      <rect id="Rectangle_2013" data-name="Rectangle 2013" width="9.913" height="19.107" fill="#0f2a55"/>
    </clipPath>
  </defs>
  <g id="Group_4129" data-name="Group 4129" clip-path="url(#clip-path)">
    <path id="Path_10430" data-name="Path 10430" d="M9.914.314c0-.163-.057-.193-.2-.2-.5-.025-.99-.073-1.485-.093A8.224,8.224,0,0,0,6.17.115,3.906,3.906,0,0,0,4.061,1.248a4.275,4.275,0,0,0-1.109,2.87c-.034.894-.017,1.79-.013,2.685,0,.159-.046.194-.2.193-.857-.007-1.713,0-2.57-.007-.141,0-.173.038-.172.176Q.01,8.7,0,10.224c0,.148.046.17.177.168.85-.005,1.7,0,2.55-.007.175,0,.212.049.212.216q-.008,4.159-.007,8.319c0,.136.022.188.176.187q1.573-.012,3.147,0c.143,0,.185-.032.185-.182-.007-1.387,0-2.773,0-4.16s0-2.785,0-4.178c0-.17.046-.2.206-.2.845.008,1.689,0,2.532.007.14,0,.191-.037.208-.176C9.5,9.2,9.63,8.183,9.769,7.168,9.793,7,9.733,6.99,9.6,6.99c-1,0-2,0-3,0-.084,0-.17.027-.167-.12.009-.789-.006-1.579.016-2.368A1.233,1.233,0,0,1,7.717,3.2c.67-.055,1.34-.019,2.01-.025.135,0,.188-.022.186-.177Q9.9,1.656,9.914.314" transform="translate(0 0)" fill="#0f2a55"/>
  </g>
</svg>
