<svg id="Group_3296" data-name="Group 3296" xmlns="http://www.w3.org/2000/svg" xmlns:xlink="http://www.w3.org/1999/xlink" width="43.997" height="41.78" viewBox="0 0 43.997 41.78">
  <defs>
    <clipPath id="clip-path">
      <rect id="Rectangle_1533" data-name="Rectangle 1533" width="43.997" height="41.78" fill="none"/>
    </clipPath>
  </defs>
  <g id="Group_3295" data-name="Group 3295" clip-path="url(#clip-path)">
    <path id="Path_9424" data-name="Path 9424" d="M43.992,40.01c0-.816,0-.84-.816-.805-.4.015-.482-.1-.482-.487.014-7.055.007-14.11.019-21.167,0-.36-.088-.441-.442-.437q-2.875.028-5.754,0c-.361,0-.437.091-.435.442.014,3.306,0,6.613.017,9.918,0,.329-.086.4-.4.392-1.275-.021-2.548-.017-3.822,0a.889.889,0,0,1-.712-.287c-1.163-1.184-2.351-2.345-3.512-3.533a.982.982,0,0,0-.786-.317c-1.289.017-2.576.021-3.865,0-.367-.007-.5.057-.5.47.017,4.866.009,9.732.017,14.6,0,.3-.04.411-.382.408-2.234-.019-4.467-.015-6.7,0-.311,0-.4-.062-.4-.392q.015-13.868,0-27.735c0-.317.065-.427.394-.4s.795.124.993-.048c.232-.2.077-.673.067-1.022-.009-.3.072-.379.377-.379q6.5.015,13.012,0c.308,0,.375.088.37.38-.015,1.174,0,2.347-.012,3.521,0,.241.06.317.306.31.644-.017,1.289-.021,1.932,0,.28.01.354-.071.351-.351-.017-1.144.005-2.289-.014-3.435-.007-.323.062-.43.413-.427,1.974.019,3.947.009,6.026.009-.12-.129-.174-.191-.231-.248q-3.593-3.6-7.179-7.213a.9.9,0,0,0-.711-.284q-6.786.013-13.57.005c-.341,0-.786.108-.993-.062s-.088-.645-.059-.979c.031-.385-.122-.427-.456-.425-3.034.012-6.069.005-9.1.009C6.6.036,6.138-.079,5.925.1s-.074.671-.062,1.022c.01.294-.059.384-.368.38C3.949,1.485,2.4,1.5.857,1.488c-.256,0-.337.05-.336.323Q.54,5.356.522,8.9c0,.3.095.346.36.344,1.5-.012,3.006.005,4.51-.015.358-.005.514.053.473.456-.031.318-.151.766.057.94s.626.081.95.055c.346-.028.449.06.449.432q-.018,13.824,0,27.649c0,.348-.065.451-.434.447-2.175-.019-4.352,0-6.528-.015-.28,0-.36.071-.349.351A17.161,17.161,0,0,1,0,41.3c-.026.4.1.48.485.48q21.516-.015,43.03-.009a1.5,1.5,0,0,1,.215,0c.2.029.27-.052.263-.26-.014-.5-.005-1-.005-1.5M28.335,6.265q.983-.989,1.974-1.974c.1-.1.17-.231.341-.062.783.785,1.578,1.559,2.455,2.423H28.024c.053-.184.2-.274.311-.387M26.874,4.083c-.835.833-1.617,1.607-2.394,2.39-.132.132-.189.034-.267-.043-.767-.761-1.533-1.521-2.364-2.347ZM16.722,4.068c.444.009.888.01,1.33,0a.416.416,0,0,1,.323.176L20.8,6.658c-1.442,0-2.767,0-4.094,0-.181,0-.208-.077-.206-.231.005-.716.007-1.43,0-2.146,0-.169.055-.22.22-.217M5.58,6.661c-.37-.01-.742,0-1.113,0-.356,0-.714-.01-1.07,0-.206.009-.3-.028-.3-.272.017-.685.014-1.37,0-2.055,0-.2.041-.274.256-.268.742.012,1.485.01,2.227,0,.188,0,.28.022.275.248-.014.7-.015,1.4,0,2.1.005.232-.095.253-.28.248m4.3,4.31c0-.212.036-.3.275-.294.685.017,1.371.014,2.056,0,.2,0,.27.053.263.262-.015.456-.005.912-.005,1.37,0,.413-.012.828.005,1.241.01.231-.04.323-.3.317-.671-.019-1.342-.015-2.013,0-.222.005-.289-.057-.286-.284q.018-1.3,0-2.61M12.176,39.2q-1.007-.026-2.015,0c-.236.005-.279-.076-.279-.291q.013-2.679,0-5.357c0-.219.048-.294.28-.289.671.015,1.344.017,2.015,0,.251-.007.3.079.3.313-.012.9-.005,1.8-.005,2.7,0,.872-.007,1.743.007,2.614,0,.237-.055.318-.3.311m.3-8.786c0,.227-.064.287-.286.284-.671-.014-1.344-.019-2.015,0-.26.007-.3-.093-.294-.32.012-.871.005-1.741.005-2.614s.009-1.743-.005-2.614c-.005-.244.067-.31.308-.3.657.015,1.315.014,1.972,0,.227,0,.318.04.317.3q-.018,2.635,0,5.271m-.005-11.059c0,.871-.007,1.741.005,2.614,0,.231-.045.322-.3.315-.671-.019-1.344-.017-2.015,0-.231.005-.284-.065-.282-.287q.013-2.635,0-5.271c0-.213.04-.3.277-.293q1.007.026,2.015,0c.246-.007.308.071.3.31-.014.871-.007,1.741-.007,2.614M30.426,36.442c0,.2-.048.272-.26.267-.687-.012-1.375-.019-2.06,0-.262.009-.267-.114-.265-.3.007-.587,0-1.174,0-1.76,0-.571.007-1.144-.005-1.716,0-.2.048-.27.26-.267q1.03.018,2.06,0c.2,0,.268.05.267.26q-.015,1.76,0,3.519m7.645.267c-.687-.014-1.375-.012-2.061,0-.2,0-.27-.045-.268-.258q.015-1.76,0-3.519c0-.2.043-.274.256-.268.687.014,1.375.019,2.061,0,.258-.009.268.108.265.3-.007.587,0,1.174,0,1.76,0,.571-.009,1.144,0,1.716.005.2-.043.274-.256.268" transform="translate(0 0)" fill="#4E6CD9"/>
  </g>
</svg>