<svg id="Group_4949" data-name="Group 4949" xmlns="http://www.w3.org/2000/svg" xmlns:xlink="http://www.w3.org/1999/xlink" width="40.931" height="37.408" viewBox="0 0 40.931 37.408">
  <defs>
    <clipPath id="clip-path">
      <rect id="Rectangle_2300" data-name="Rectangle 2300" width="40.931" height="37.408" fill="#fff"/>
    </clipPath>
  </defs>
  <g id="Group_4948" data-name="Group 4948" clip-path="url(#clip-path)">
    <path id="Path_11526" data-name="Path 11526" d="M38.638,6.875c-.389.048-.567-.049-.374-.468a2.475,2.475,0,0,0,.123-.424,1.951,1.951,0,0,0-1.94-2.625c-.426-.013-.463-.173-.468-.524A2.6,2.6,0,0,0,33.1,0Q25.575,0,18.055,0,10.406,0,2.761,0A2.581,2.581,0,0,0,.005,2.718q-.011,11.6,0,23.194c0,.794.224,1.012,1.009,1.013,2.3,0,4.593.02,6.89-.013.559-.008.855.072.828.716-.027.677.34,1.015,1.04,1.08.774.072,1.536.255,2.308.35.55.067.572.249.255.653-.494.63-.935,1.3-1.43,1.926A.959.959,0,0,0,10.9,33a13.988,13.988,0,0,0,2.187,2.181.919.919,0,0,0,1.3-.005c.663-.517,1.376-.972,2.035-1.495.419-.331.511-.159.57.253.123.833.291,1.659.386,2.5a.914.914,0,0,0,.936.9,14.926,14.926,0,0,0,3.089,0,.938.938,0,0,0,.922-.927c.111-.792.24-1.581.372-2.369.113-.672.121-.673.7-.259.665.479,1.335.955,1.989,1.451a.827.827,0,0,0,1.139.008,12.155,12.155,0,0,0,2.317-2.312.886.886,0,0,0,0-1.2c-.521-.688-1.009-1.4-1.535-2.085-.273-.355-.2-.5.226-.558.728-.1,1.458-.212,2.183-.338,1.122-.192,1.134-.2,1.27-1.338.042-.36.148-.494.537-.483,1.1.032,2.19.011,3.287.01.948,0,1.012-.046,1.273-.948,1.568-5.413,3.107-10.835,4.721-16.235a2.064,2.064,0,0,0-2.168-2.867M1.573,21.747l-.094-.028v-.611q0-9.071,0-18.142c0-1.162.335-1.495,1.5-1.495q15.044,0,30.089,0c1.086,0,1.5.449,1.453,1.5-.015.32-.133.4-.417.378s-.548,0-.822,0H6.294c-1.893,0-2.763.769-3.051,2.633C2.9,8.2,2.527,10.424,2.168,12.647c-.029.187-.046.377-.08.563-.095.518.067.911.613.979.51.064.751-.262.826-.749.2-1.29.412-2.577.617-3.866C4.33,8.409,4.5,7.243,4.7,6.081c.173-1.023.479-1.271,1.523-1.271H29.1q3.54,0,7.079,0c.788,0,.94.2.732.955-.306,1.108-.306,1.108-1.421,1.108-2.613,0-5.225.013-7.838-.009a2.065,2.065,0,0,0-1.333.446c-1.329,1-2.687,1.961-4.01,2.967a1.774,1.774,0,0,1-1.16.368q-6.635-.017-13.273-.006A2.717,2.717,0,0,0,4.86,12.771Q3.3,17.037,1.744,21.3c-.054.148-.114.295-.171.443M28.11,27.5a3.848,3.848,0,0,1-.809.123c-1.067-.063-1.453.63-1.735,1.478a.845.845,0,0,0,.159.823c.5.679.975,1.373,1.491,2.039.211.273.178.436-.039.688-1.088,1.26-1.08,1.267-2.39.322a7.162,7.162,0,0,1-.761-.561,1.446,1.446,0,0,0-1.875-.24,1.25,1.25,0,0,0-.816,1.064c-.086.773-.243,1.538-.368,2.305-.01.063.006.152-.03.185-.518.472-1.143.178-1.722.226-.343.029-.469-.149-.513-.478-.109-.813-.239-1.624-.382-2.432a1.591,1.591,0,0,0-2.237-.917c-.688.486-1.375.972-2.044,1.482-.233.176-.4.187-.589-.032a.857.857,0,0,0-.094-.085c-1.222-1.065-1.222-1.064-.276-2.346a6.688,6.688,0,0,1,.526-.709,1.512,1.512,0,0,0,.259-1.99,1.237,1.237,0,0,0-.979-.759q-1.187-.163-2.369-.372c-.737-.129-.4-.737-.4-1.109s-.341-.983.4-1.113,1.454-.238,2.181-.35a1.835,1.835,0,0,0,1.472-1.736,1.012,1.012,0,0,0-.279-.62c-.482-.664-.951-1.338-1.453-1.987-.181-.234-.157-.363.025-.579,1.122-1.342,1.115-1.347,2.489-.348a3.844,3.844,0,0,1,.61.448,1.659,1.659,0,0,0,2.317.172.832.832,0,0,0,.436-.649c.124-.811.278-1.617.373-2.432.046-.393.209-.516.588-.554,1.519-.152,1.6-.1,1.834,1.366.075.457.185.911.223,1.371a1.214,1.214,0,0,0,.771,1.031,1.52,1.52,0,0,0,1.984-.254c.468-.42,1.024-.74,1.515-1.134.271-.216.438-.176.687.043,1.258,1.105,1.266,1.1.278,2.441a6.059,6.059,0,0,1-.484.663,1.5,1.5,0,0,0-.25,1.983,1.227,1.227,0,0,0,.976.752c.792.11,1.578.258,2.371.363.288.038.42.152.393.439a.267.267,0,0,0,.005.063c.14,1.655.14,1.655-1.471,1.917M39.389,9.29q-2.269,7.849-4.536,15.7c-.1.343-.214.526-.627.508-.9-.038-1.812-.027-2.716,0-.339.009-.472-.086-.52-.434-.164-1.194-.178-1.2-1.353-1.395-.685-.116-1.372-.226-2.06-.315-.445-.057-.563-.186-.255-.583.516-.665.984-1.367,1.5-2.032a.931.931,0,0,0-.028-1.305,13.609,13.609,0,0,0-2.187-2.18.933.933,0,0,0-1.305,0c-.65.5-1.334.957-1.988,1.453-.355.271-.551.347-.615-.228-.092-.836-.258-1.663-.382-2.5a.908.908,0,0,0-.888-.883,12.69,12.69,0,0,0-3.211.011.835.835,0,0,0-.819.794c-.123.875-.282,1.745-.411,2.62-.059.4-.175.516-.545.23-.682-.527-1.4-1.009-2.088-1.53a.909.909,0,0,0-1.253.014,12.7,12.7,0,0,0-2.262,2.28.842.842,0,0,0-.014,1.146c.531.707,1.029,1.438,1.572,2.136.292.376.167.484-.235.543-.79.114-1.579.248-2.369.374-.854.138-1.034.269-1.062,1.115-.019.579-.235.674-.756.665-1.874-.032-3.75-.02-5.625-.006-.388,0-.575,0-.395-.494,1.475-4.006,2.921-8.023,4.381-12.034A1.248,1.248,0,0,1,7.652,12.1c2.36.014,4.72.005,7.079.005,2.338,0,4.677-.005,7.015.006a1.541,1.541,0,0,0,.99-.321c1.414-1.061,2.842-2.1,4.257-3.163a1.342,1.342,0,0,1,.86-.306c3.6.011,7.206.006,10.807.009.766,0,.94.226.728.961" transform="translate(0 0)" fill="#fff"/>
    <path id="Path_11527" data-name="Path 11527" d="M58.745,55.8c2.107-.009,4.212,0,6.319,0s4.212-.006,6.318.005c.521,0,.94-.107.994-.707.043-.462-.331-.751-.95-.751q-6.351-.006-12.7,0c-.64,0-.983.264-.956.741.035.615.455.717.975.715" transform="translate(-50.463 -47.47)" fill="#fff"/>
    <path id="Path_11528" data-name="Path 11528" d="M133.063,179.765a3.475,3.475,0,1,0,0,6.949,3.475,3.475,0,0,0,0-6.949m-.068,5.469a2.022,2.022,0,0,1-1.972-1.987,2.006,2.006,0,1,1,1.972,1.987" transform="translate(-113.184 -157.032)" fill="#fff"/>
  </g>
</svg>
