<svg xmlns="http://www.w3.org/2000/svg" xmlns:xlink="http://www.w3.org/1999/xlink" width="34.216" height="37.262" viewBox="0 0 34.216 37.262">
  <defs>
    <clipPath id="clip-path">
      <rect id="Rectangle_2390" data-name="Rectangle 2390" width="34.216" height="37.262" fill="#fff"/>
    </clipPath>
  </defs>
  <g id="Group_5331" data-name="Group 5331" transform="translate(0 0)">
    <g id="Group_5331-2" data-name="Group 5331" transform="translate(0 0)" clip-path="url(#clip-path)">
      <path id="Path_11758" data-name="Path 11758" d="M20.822,30.167c0-1.292.007-1.311-1.236-1.677a2.493,2.493,0,0,1-1.352-.93c-.6-.8-1.251-1.561-1.9-2.32a3.957,3.957,0,0,0-2.477-1.37,14.524,14.524,0,0,0-2.346-.06,18.825,18.825,0,0,1-5.543-.5,2.313,2.313,0,0,1-1.692-1.464c-.415-1.121-.837-2.241-1.289-3.347a1.536,1.536,0,0,0-1.976-.882,1.557,1.557,0,0,0-.911,2c.448,1.218.893,2.435,1.4,3.627a4.91,4.91,0,0,0,3.463,2.977c1.031.254,2.077.471,3.123.669.336.064.422.187.4.519-.086,1.546-.127,3.1-.232,4.643a21.176,21.176,0,0,1-.213,3.037Q6.869,40.5,5.709,45.915a1.762,1.762,0,0,0,1.356,2.238,1.744,1.744,0,0,0,2.021-1.476q.762-3.126,1.52-6.249c.374-1.528.751-3.052,1.139-4.624a1.29,1.29,0,0,1,.108.642c.049,1.464.09,2.932.138,4.4.064,1.916.123,3.832.2,5.749a1.693,1.693,0,0,0,1.427,1.621,1.671,1.671,0,0,0,1.875-1.15,2.842,2.842,0,0,0,.108-.986c-.03-5.633.12-11.269-.116-16.943.355.433.717.862,1.072,1.3a1.837,1.837,0,0,0,.833.613c1.042.34,2.088.669,3.126,1.02.265.086.314,0,.31-.243-.011-.553,0-1.1,0-1.651" transform="translate(0 -10.97)" fill="#fff"/>
      <path id="Path_11759" data-name="Path 11759" d="M71.26,13.1c-.411-.628-.8-1.27-1.218-1.886a.509.509,0,0,1,.007-.657q.65-1,1.259-2.036a.656.656,0,0,0-.452-1.031,2.163,2.163,0,0,0-.493-.037h-3.8c-.844,0-.844,0-.855-.855-.007-.71-.22-.93-.926-.934-.982-.007-1.965,0-2.951,0-1.087,0-1.087,0-1.1-1.106,0-.557-.247-.878-.661-.878-.4,0-.624.3-.624.855q-.006,17.072,0,34.148c0,.572.232.87.661.878s.665-.288.676-.859c0-.116,0-.235,0-.351v-12.5c0-4.269.007-8.535-.011-12.8,0-.456.127-.549.549-.53.728.037,1.464.011,2.2.011.9,0,.9,0,.908.9,0,.676.22.9.893.9,1.752,0,3.5,0,5.248,0a.812.812,0,0,0,.807-.388.777.777,0,0,0-.116-.84" transform="translate(-37.241 -2.3)" fill="#fff"/>
      <path id="Path_11760" data-name="Path 11760" d="M25.9,13.422a3.472,3.472,0,1,0,3.519,3.44,3.467,3.467,0,0,0-3.519-3.44" transform="translate(-14.073 -8.408)" fill="#fff"/>
      <path id="Path_11761" data-name="Path 11761" d="M37.085,5.855a.549.549,0,0,0,.8-.1c.463-.728.9-1.472,1.307-2.237a.665.665,0,0,0-.613-.911.647.647,0,0,0-.519.261c-.441.725-.885,1.446-1.285,2.193-.179.329.015.62.306.8" transform="translate(-22.997 -1.63)" fill="#fff"/>
      <path id="Path_11762" data-name="Path 11762" d="M21.527,5.723a.553.553,0,0,0,.71.2.692.692,0,0,0,.445-.687.622.622,0,0,0-.045-.213c-.415-.713-.818-1.438-1.266-2.129a.606.606,0,0,0-.848-.172.622.622,0,0,0-.258.867c.388.728.822,1.434,1.263,2.133" transform="translate(-12.642 -1.643)" fill="#fff"/>
      <path id="Path_11763" data-name="Path 11763" d="M30.651,3.658a.633.633,0,0,0,.646-.68c.011-.385,0-.769,0-1.15s.011-.766,0-1.15A.624.624,0,0,0,30.651,0a.644.644,0,0,0-.676.7q-.022,1.126,0,2.249a.649.649,0,0,0,.676.706" transform="translate(-18.771 0)" fill="#fff"/>
    </g>
  </g>
</svg>
