<svg xmlns="http://www.w3.org/2000/svg" width="38.319" height="26.533" viewBox="0 0 38.319 26.533">
  <g id="Group_4624" data-name="Group 4624" transform="translate(0 0)">
    <g id="Group_4626" data-name="Group 4626" transform="translate(0 0)">
      <path id="Path_10524" data-name="Path 10524" d="M37.779,13.841c-1.015.6-2.038,1.205-3.045,1.824-.4.246-.777.42-1.11-.1-.063-.1-.135-.119-.246-.016a.813.813,0,0,0-.214.254.67.67,0,0,0,.309.888,2.2,2.2,0,0,1,.507.428,2.4,2.4,0,0,1-.167,3.393,2.342,2.342,0,0,1-2.7.373c-.309-.159-.389-.119-.476.206a2.563,2.563,0,0,1-.246.65,2.383,2.383,0,0,1-3.235.928c-.285-.135-.381-.174-.476.2a2.388,2.388,0,0,1-3.433,1.6c-.333-.159-.4-.143-.492.23a2.253,2.253,0,0,1-.293.7,2.4,2.4,0,0,1-3.306.777,15.122,15.122,0,0,1-1.245-.864c-.246-.174-.4-.182-.587.1a2.3,2.3,0,0,1-2.513,1.07,2.3,2.3,0,0,1-1.863-1.76c-.071-.254-.151-.349-.444-.341a2.356,2.356,0,0,1-2.624-1.879c-.071-.222-.143-.278-.389-.254a2.364,2.364,0,0,1-2.632-1.784c-.063-.214-.087-.4-.4-.365A2.261,2.261,0,0,1,4.027,18.86a2.36,2.36,0,0,1,.341-2.807c.008-.048.016-.087.024-.135a1.545,1.545,0,0,1-.92-.325C2.52,15.014,1.561,14.451.61,13.881-.1,13.452-.151,13.294.261,12.6q3.045-5.1,6.105-10.2C6.754,1.75,7.151,1.1,7.547.442c.293-.484.507-.555.975-.278C9.648.822,10.758,1.5,11.876,2.17c.206.111.42.254.373.507-.071.4.143.412.436.412q6.494,0,12.987.008c.293,0,.444-.032.389-.389-.04-.27.19-.428.4-.555C27.559,1.5,28.637.838,29.732.2c.555-.325.745-.262,1.094.309q2.64,4.424,5.3,8.856c.65,1.086,1.308,2.172,1.95,3.267h-.008c.4.658.349.833-.285,1.213" transform="translate(0 0)" fill="#24315f"/>
      <path id="Path_10525" data-name="Path 10525" d="M4.653,11.891a12.335,12.335,0,0,0-1.205-.714.478.478,0,0,0-.618.246v.008a.477.477,0,0,0,.087.666.041.041,0,0,0,.032.016,6.507,6.507,0,0,0,1.1.674.564.564,0,0,0,.254.056.4.4,0,0,0,.1-.016.447.447,0,0,0,.1-.032.189.189,0,0,0,.087-.048.491.491,0,0,0,.19-.23.552.552,0,0,0,.04-.2V12.3a.434.434,0,0,0-.167-.412m30.787-.531a.317.317,0,0,0-.079-.1.444.444,0,0,0-.515-.079,13.047,13.047,0,0,0-1.15.7.415.415,0,0,0-.087.079.3.3,0,0,0-.071.1.225.225,0,0,0-.032.1H33.5a.452.452,0,0,0,0,.206c0,.016.008.024.008.04a.134.134,0,0,0,.024.079.237.237,0,0,0,.032.063c.008.008.008.016.016.024s.008.024.016.04.016.016.016.024.008,0,.008,0l.04.04s0,.016.008.016,0,.008.008,0l.016.016c.008,0,.024.016.04.032,0,0,.008-.008.008,0a.105.105,0,0,0,.063.024.025.025,0,0,0,.016.008c.008,0,.016.008.024.008a.505.505,0,0,0,.056.016.612.612,0,0,0,.119.016,1.171,1.171,0,0,0,.167.008A3.891,3.891,0,0,0,35.5,11.97c.174-.19.1-.42-.056-.611m0,0a.317.317,0,0,0-.079-.1.444.444,0,0,0-.515-.079,13.047,13.047,0,0,0-1.15.7.415.415,0,0,0-.087.079.3.3,0,0,0-.071.1.234.234,0,0,0-.04.1.452.452,0,0,0,0,.206c0,.016.008.024.008.04a.134.134,0,0,0,.024.079.237.237,0,0,0,.032.063c.011.021.02.044.032.063s.016.016.016.024a.367.367,0,0,0,.056.056s0,.008.008,0l.016.016c.008,0,.024.016.04.032,0,0,.008-.008.008,0a.105.105,0,0,0,.063.024.025.025,0,0,0,.016.008.029.029,0,0,0,.024.008l.063.024c.032,0,.071.008.111.008a1.171,1.171,0,0,0,.167.008A3.891,3.891,0,0,0,35.5,11.97c.174-.19.1-.42-.056-.611m-30.787.531a12.335,12.335,0,0,0-1.205-.714.478.478,0,0,0-.618.246v.008a.477.477,0,0,0,.087.666.041.041,0,0,0,.032.016,6.507,6.507,0,0,0,1.1.674.564.564,0,0,0,.254.056.4.4,0,0,0,.1-.016.447.447,0,0,0,.1-.032.189.189,0,0,0,.087-.048.491.491,0,0,0,.19-.23.552.552,0,0,0,.04-.2V12.3a.434.434,0,0,0-.167-.412m0,0a12.335,12.335,0,0,0-1.205-.714.478.478,0,0,0-.618.246v.008a.477.477,0,0,0,.087.666.041.041,0,0,0,.032.016,6.507,6.507,0,0,0,1.1.674.564.564,0,0,0,.254.056.4.4,0,0,0,.1-.016.447.447,0,0,0,.1-.032.189.189,0,0,0,.087-.048.491.491,0,0,0,.19-.23.552.552,0,0,0,.04-.2V12.3a.434.434,0,0,0-.167-.412m30.787-.531a.317.317,0,0,0-.079-.1.444.444,0,0,0-.515-.079,13.047,13.047,0,0,0-1.15.7.415.415,0,0,0-.087.079.3.3,0,0,0-.071.1.225.225,0,0,0-.032.1H33.5a.452.452,0,0,0,0,.206c0,.016.008.024.008.04a.134.134,0,0,0,.024.079.237.237,0,0,0,.032.063c.008.008.008.016.016.024s.008.024.016.04.016.016.016.024.008,0,.008,0l.04.04s0,.016.008.016,0,.008.008,0l.016.016c.008,0,.024.016.04.032,0,0,.008-.008.008,0a.105.105,0,0,0,.063.024.025.025,0,0,0,.016.008c.008,0,.016.008.024.008a.505.505,0,0,0,.056.016.612.612,0,0,0,.119.016,1.171,1.171,0,0,0,.167.008A3.891,3.891,0,0,0,35.5,11.97c.174-.19.1-.42-.056-.611m0,0a.317.317,0,0,0-.079-.1.444.444,0,0,0-.515-.079,13.047,13.047,0,0,0-1.15.7.415.415,0,0,0-.087.079.3.3,0,0,0-.071.1.234.234,0,0,0-.04.1.452.452,0,0,0,0,.206c0,.016.008.024.008.04a.134.134,0,0,0,.024.079.237.237,0,0,0,.032.063c.011.021.02.044.032.063s.016.016.016.024a.367.367,0,0,0,.056.056s0,.008.008,0l.016.016c.008,0,.024.016.04.032,0,0,.008-.008.008,0a.105.105,0,0,0,.063.024.025.025,0,0,0,.016.008.029.029,0,0,0,.024.008l.063.024c.032,0,.071.008.111.008a1.171,1.171,0,0,0,.167.008A3.891,3.891,0,0,0,35.5,11.97c.174-.19.1-.42-.056-.611m-30.787.531a12.335,12.335,0,0,0-1.205-.714.478.478,0,0,0-.618.246v.008a.477.477,0,0,0,.087.666.041.041,0,0,0,.032.016,6.507,6.507,0,0,0,1.1.674.564.564,0,0,0,.254.056.4.4,0,0,0,.1-.016.447.447,0,0,0,.1-.032.189.189,0,0,0,.087-.048.491.491,0,0,0,.19-.23.552.552,0,0,0,.04-.2V12.3a.434.434,0,0,0-.167-.412m0,0a12.335,12.335,0,0,0-1.205-.714.478.478,0,0,0-.618.246v.008a.477.477,0,0,0,.087.666.041.041,0,0,0,.032.016,6.507,6.507,0,0,0,1.1.674.564.564,0,0,0,.254.056.4.4,0,0,0,.1-.016.447.447,0,0,0,.1-.032.189.189,0,0,0,.087-.048.491.491,0,0,0,.19-.23.552.552,0,0,0,.04-.2V12.3a.434.434,0,0,0-.167-.412m30.787-.531a.317.317,0,0,0-.079-.1.444.444,0,0,0-.515-.079,13.047,13.047,0,0,0-1.15.7.415.415,0,0,0-.087.079.3.3,0,0,0-.071.1.234.234,0,0,0-.04.1.452.452,0,0,0,0,.206c0,.016.008.024.008.04a.134.134,0,0,0,.024.079.237.237,0,0,0,.032.063c.008.008.008.016.016.024s.008.024.016.04.016.016.016.024.008,0,.008,0l.04.04c.008,0,.008.008.016.016l.016.016c.008,0,.024.016.04.032,0,0,.008-.008.008,0l.063.024a.025.025,0,0,0,.016.008c.008,0,.016.008.024.008a.505.505,0,0,0,.056.016c.008,0,.008,0,.008.008.032,0,.071.008.111.008a1.171,1.171,0,0,0,.167.008A3.891,3.891,0,0,0,35.5,11.97c.174-.19.1-.42-.056-.611m0,0a.317.317,0,0,0-.079-.1.444.444,0,0,0-.515-.079,13.047,13.047,0,0,0-1.15.7.415.415,0,0,0-.087.079.3.3,0,0,0-.071.1.234.234,0,0,0-.04.1.452.452,0,0,0,0,.206c0,.016.008.024.008.04a.134.134,0,0,0,.024.079.237.237,0,0,0,.032.063c.011.021.02.044.032.063s.016.016.016.024a.367.367,0,0,0,.056.056s0,.008.008,0l.016.016c.008,0,.024.016.04.032,0,0,.008-.008.008,0a.105.105,0,0,0,.063.024.025.025,0,0,0,.016.008.029.029,0,0,0,.024.008l.063.024c.032,0,.071.008.111.008a1.171,1.171,0,0,0,.167.008A3.891,3.891,0,0,0,35.5,11.97c.174-.19.1-.42-.056-.611m-30.787.531a12.335,12.335,0,0,0-1.205-.714.478.478,0,0,0-.618.246v.008a.477.477,0,0,0,.087.666.041.041,0,0,0,.032.016,6.507,6.507,0,0,0,1.1.674.564.564,0,0,0,.254.056.4.4,0,0,0,.1-.016.447.447,0,0,0,.1-.032.189.189,0,0,0,.087-.048.491.491,0,0,0,.19-.23.552.552,0,0,0,.04-.2V12.3a.434.434,0,0,0-.167-.412m33.411.737h.008c-.642-1.094-1.3-2.18-1.95-3.267Q33.47,4.937,30.826.505c-.349-.571-.539-.634-1.094-.309C28.637.838,27.559,1.5,26.465,2.154c-.214.127-.444.285-.4.555.056.357-.1.389-.389.389q-6.494-.012-12.987-.008c-.293,0-.507-.008-.436-.412.048-.254-.167-.4-.373-.507C10.758,1.5,9.648.822,8.522.164c-.468-.278-.682-.206-.975.278-.4.658-.793,1.308-1.181,1.966Q3.309,7.5.261,12.6c-.412.69-.365.848.349,1.277.951.571,1.911,1.134,2.862,1.713a1.545,1.545,0,0,0,.92.325c-.008.048-.016.087-.024.135a2.36,2.36,0,0,0-.341,2.807,2.261,2.261,0,0,0,2.434,1.229c.309-.032.333.151.4.365A2.364,2.364,0,0,0,9.49,22.237c.246-.024.317.032.389.254A2.356,2.356,0,0,0,12.5,24.37c.293-.008.373.087.444.341a2.3,2.3,0,0,0,1.863,1.76,2.3,2.3,0,0,0,2.513-1.07c.19-.278.341-.27.587-.1a15.122,15.122,0,0,0,1.245.864,2.4,2.4,0,0,0,3.306-.777,2.253,2.253,0,0,0,.293-.7c.1-.373.159-.389.492-.23a2.388,2.388,0,0,0,3.433-1.6c.1-.373.19-.333.476-.2a2.383,2.383,0,0,0,3.235-.928,2.563,2.563,0,0,0,.246-.65c.087-.325.167-.365.476-.206a2.342,2.342,0,0,0,2.7-.373,2.4,2.4,0,0,0,.167-3.393,2.2,2.2,0,0,0-.507-.428.67.67,0,0,1-.309-.888.813.813,0,0,1,.214-.254c.111-.1.182-.087.246.016.333.523.706.349,1.11.1,1.007-.618,2.03-1.221,3.045-1.824.634-.381.682-.555.285-1.213M16.99,4.216h4.686V4.208c1.53,0,3.06.016,4.591-.008a.858.858,0,0,1,.872.484q2.712,4.6,5.479,9.158a.732.732,0,0,1-.04.809c-.515,1.031-.5,1.031-1.4.373-1.982-1.435-3.98-2.854-5.962-4.289a1.1,1.1,0,0,0-.682-.19c-.579,0-1.15.016-1.721-.008a3.129,3.129,0,0,1-3.076-3c-.032-.507-.27-.65-.753-.722A2.318,2.318,0,0,0,16.1,8.394a6.967,6.967,0,0,1-.8,1.34,2.979,2.979,0,0,1-3.092,1.261c-.333-.071-.4-.2-.214-.5,1.078-1.776,2.133-3.576,3.227-5.352a1.98,1.98,0,0,1,1.768-.928M4.225,14.174c-.087.135-.127.325-.365.341-.063-.04-.143-.079-.214-.127C2.988,14,2.338,13.6,1.672,13.23c-.27-.159-.317-.3-.159-.571Q4.8,7.189,8.063,1.718c.167-.285.317-.373.611-.182.642.412,1.292.809,1.958,1.189.27.151.285.285.135.531q-2.153,3.556-4.3,7.12-1.13,1.891-2.244,3.8M7.444,17.71a1.325,1.325,0,0,1-1.332,1.308H6.1a1.339,1.339,0,0,1-1.277-1.324,1.319,1.319,0,0,1,1.316-1.269,1.284,1.284,0,0,1,1.3,1.269Zm2.815,2.87a1.3,1.3,0,0,1-1.792.357,1.271,1.271,0,0,1-.389-1.752.109.109,0,0,1,.024-.032,17.649,17.649,0,0,1,1.134-1.6,1.25,1.25,0,0,1,1.419-.349,1.316,1.316,0,0,1,.84,1.2,1.285,1.285,0,0,1-.254.777c-.325.468-.642.944-.983,1.4m3.021,2.165a1.131,1.131,0,0,1-.983.531,1.3,1.3,0,0,1-1.2-.666,1.242,1.242,0,0,1,.048-1.34c.745-1.086,1.5-2.172,2.276-3.235a1.291,1.291,0,0,1,2.117,1.475c-.729,1.094-1.5,2.165-2.268,3.235Zm4.17.476a11.612,11.612,0,0,1-1.237,1.792,1.24,1.24,0,0,1-1.007.4A1.278,1.278,0,0,1,13.977,24.1a1.207,1.207,0,0,1,.19-.618,14.154,14.154,0,0,1,1.166-1.657,1.288,1.288,0,0,1,1.808-.127,1.274,1.274,0,0,1,.309,1.522m15.9-3.885a1.31,1.31,0,0,1-.515.523h-.008a1.329,1.329,0,0,1-1.546-.174q-3.544-2.486-7.088-4.963c-.349-.238-.706-.6-1.126-.119-.27.317-.111.618.515,1.055q2.688,1.879,5.376,3.766a1.3,1.3,0,0,1,.444,1.792,1.282,1.282,0,0,1-.84.6,1.478,1.478,0,0,1-1.253-.373Q24.7,19.625,22.1,17.8a1.322,1.322,0,0,1-.127-.1c-.333-.214-.682-.507-1.047-.048-.238.3-.1.6.4.959,1.213.84,2.418,1.689,3.631,2.537a1.348,1.348,0,0,1,.492,1.839.237.237,0,0,1-.032.063,1.319,1.319,0,0,1-1.839.309.352.352,0,0,1-.087-.063c-1.284-.88-2.577-1.76-3.853-2.656-.3-.214-.587-.262-.817.04-.246.317-.135.618.182.848.674.468,1.34.936,2.006,1.4a1.32,1.32,0,0,1,.563,1.784.857.857,0,0,1-.087.143,1.341,1.341,0,0,1-1.879.278,1,1,0,0,1-.1-.087c-.325-.222-.65-.46-.983-.682-.206-.135-.238-.27-.127-.515a2.358,2.358,0,0,0-.84-3.235,2.257,2.257,0,0,0-.769-.285c-.333-.1-.262-.222-.159-.444A2.429,2.429,0,0,0,12.7,17.108c-.246.238-.357.182-.547-.071a2.32,2.32,0,0,0-3.227-.658c-.056.032-.111.071-.167.111-.349.262-.444.167-.642-.135a2.2,2.2,0,0,0-1.673-1.031A1.134,1.134,0,0,1,5.7,13.9c0-.008.008-.016.008-.024.9-1.522,1.824-3.045,2.735-4.559.888-1.491,1.792-2.973,2.656-4.48a1,1,0,0,1,1.11-.626,7.015,7.015,0,0,0,.817,0c.389.071.872-.111,1.34.087-.23.4-.444.817-.682,1.213-1,1.681-2.014,3.37-3.013,5.051-.373.626-.3.848.349,1.189a4.118,4.118,0,0,0,5.352-1.6c.373-.611.769-1.205,1.086-1.839.222-.444.563-.373.92-.373.373,0,.309.309.365.523a4.306,4.306,0,0,0,3.837,3.179,1.393,1.393,0,0,0,.365.016,3.878,3.878,0,0,1,3.076,1.015c2.236,1.689,4.535,3.282,6.8,4.916a1.294,1.294,0,0,1,.523,1.752m3.29-6.105v.008c-.626.365-1.269.722-1.871,1.118-.317.206-.468.159-.65-.151C32.9,12.144,31.658,10.1,30.437,8.045q-1.451-2.426-2.886-4.836c-.063-.23.1-.373.214-.531.642-.381,1.284-.761,1.927-1.15.246-.159.381-.111.531.143Q33.506,7.165,36.8,12.652c.174.293.1.436-.159.579m-1.277-1.966a.444.444,0,0,0-.515-.079,13.047,13.047,0,0,0-1.15.7.415.415,0,0,0-.087.079.3.3,0,0,0-.071.1.234.234,0,0,0-.04.1.452.452,0,0,0,0,.206c0,.016.008.024.008.04a.134.134,0,0,0,.024.079.237.237,0,0,0,.032.063c.011.021.02.044.032.063s.016.016.016.024a.367.367,0,0,0,.056.056s0,.008.008,0l.016.016c.008,0,.024.016.04.032,0,0,.008-.008.008,0a.105.105,0,0,0,.063.024.025.025,0,0,0,.016.008.029.029,0,0,0,.024.008l.063.024c.032,0,.071.008.111.008a1.171,1.171,0,0,0,.167.008A3.891,3.891,0,0,0,35.5,11.97c.174-.19.1-.42-.056-.611a.317.317,0,0,0-.079-.1M3.448,11.177a.478.478,0,0,0-.618.246v.008a.477.477,0,0,0,.087.666.041.041,0,0,0,.032.016,6.507,6.507,0,0,0,1.1.674.564.564,0,0,0,.254.056.4.4,0,0,0,.1-.016.447.447,0,0,0,.1-.032.189.189,0,0,0,.087-.048.491.491,0,0,0,.19-.23.552.552,0,0,0,.04-.2V12.3a.434.434,0,0,0-.167-.412,12.335,12.335,0,0,0-1.205-.714m1.205.714a12.335,12.335,0,0,0-1.205-.714.478.478,0,0,0-.618.246v.008a.477.477,0,0,0,.087.666.041.041,0,0,0,.032.016,6.507,6.507,0,0,0,1.1.674.564.564,0,0,0,.254.056.4.4,0,0,0,.1-.016.447.447,0,0,0,.1-.032.189.189,0,0,0,.087-.048.491.491,0,0,0,.19-.23.552.552,0,0,0,.04-.2V12.3a.434.434,0,0,0-.167-.412m30.787-.531a.317.317,0,0,0-.079-.1.444.444,0,0,0-.515-.079,13.047,13.047,0,0,0-1.15.7.415.415,0,0,0-.087.079.3.3,0,0,0-.071.1.225.225,0,0,0-.032.1H33.5a.452.452,0,0,0,0,.206c0,.016.008.024.008.04a.134.134,0,0,0,.024.079.237.237,0,0,0,.032.063c.008.008.008.016.016.024s.008.024.016.04.016.016.016.024.008,0,.008,0l.04.04s0,.016.008.016,0,.008.008,0l.016.016c.008,0,.024.016.04.032,0,0,.008-.008.008,0a.105.105,0,0,0,.063.024.025.025,0,0,0,.016.008c.008,0,.016.008.024.008a.505.505,0,0,0,.056.016.612.612,0,0,0,.119.016,1.171,1.171,0,0,0,.167.008A3.891,3.891,0,0,0,35.5,11.97c.174-.19.1-.42-.056-.611m0,0a.317.317,0,0,0-.079-.1.444.444,0,0,0-.515-.079,13.047,13.047,0,0,0-1.15.7.415.415,0,0,0-.087.079.3.3,0,0,0-.071.1.234.234,0,0,0-.04.1.452.452,0,0,0,0,.206c0,.016.008.024.008.04a.134.134,0,0,0,.024.079.237.237,0,0,0,.032.063c.011.021.02.044.032.063s.016.016.016.024a.367.367,0,0,0,.056.056s0,.008.008,0l.016.016c.008,0,.024.016.04.032,0,0,.008-.008.008,0a.105.105,0,0,0,.063.024.025.025,0,0,0,.016.008.029.029,0,0,0,.024.008l.063.024c.032,0,.071.008.111.008a1.171,1.171,0,0,0,.167.008A3.891,3.891,0,0,0,35.5,11.97c.174-.19.1-.42-.056-.611m-30.787.531a12.335,12.335,0,0,0-1.205-.714.478.478,0,0,0-.618.246v.008a.477.477,0,0,0,.087.666.041.041,0,0,0,.032.016,6.507,6.507,0,0,0,1.1.674.564.564,0,0,0,.254.056.4.4,0,0,0,.1-.016.447.447,0,0,0,.1-.032.189.189,0,0,0,.087-.048.491.491,0,0,0,.19-.23.552.552,0,0,0,.04-.2V12.3a.434.434,0,0,0-.167-.412m0,0a12.335,12.335,0,0,0-1.205-.714.478.478,0,0,0-.618.246v.008a.477.477,0,0,0,.087.666.041.041,0,0,0,.032.016,6.507,6.507,0,0,0,1.1.674.564.564,0,0,0,.254.056.4.4,0,0,0,.1-.016.447.447,0,0,0,.1-.032.189.189,0,0,0,.087-.048.491.491,0,0,0,.19-.23.552.552,0,0,0,.04-.2V12.3a.434.434,0,0,0-.167-.412m30.787-.531a.317.317,0,0,0-.079-.1.444.444,0,0,0-.515-.079,13.047,13.047,0,0,0-1.15.7.415.415,0,0,0-.087.079.3.3,0,0,0-.071.1.225.225,0,0,0-.032.1H33.5a.452.452,0,0,0,0,.206c0,.016.008.024.008.04a.134.134,0,0,0,.024.079.237.237,0,0,0,.032.063c.008.008.008.016.016.024s.008.024.016.04.016.016.016.024.008,0,.008,0l.04.04s0,.016.008.016,0,.008.008,0l.016.016c.008,0,.024.016.04.032,0,0,.008-.008.008,0a.105.105,0,0,0,.063.024.025.025,0,0,0,.016.008c.008,0,.016.008.024.008a.505.505,0,0,0,.056.016.612.612,0,0,0,.119.016,1.171,1.171,0,0,0,.167.008A3.891,3.891,0,0,0,35.5,11.97c.174-.19.1-.42-.056-.611m0,0a.317.317,0,0,0-.079-.1.444.444,0,0,0-.515-.079,13.047,13.047,0,0,0-1.15.7.415.415,0,0,0-.087.079.3.3,0,0,0-.071.1.234.234,0,0,0-.04.1.452.452,0,0,0,0,.206c0,.016.008.024.008.04a.134.134,0,0,0,.024.079.237.237,0,0,0,.032.063c.011.021.02.044.032.063s.016.016.016.024a.367.367,0,0,0,.056.056s0,.008.008,0l.016.016c.008,0,.024.016.04.032,0,0,.008-.008.008,0a.105.105,0,0,0,.063.024.025.025,0,0,0,.016.008.029.029,0,0,0,.024.008l.063.024c.032,0,.071.008.111.008a1.171,1.171,0,0,0,.167.008A3.891,3.891,0,0,0,35.5,11.97c.174-.19.1-.42-.056-.611m-30.787.531a12.335,12.335,0,0,0-1.205-.714.478.478,0,0,0-.618.246v.008a.477.477,0,0,0,.087.666.041.041,0,0,0,.032.016,6.507,6.507,0,0,0,1.1.674.564.564,0,0,0,.254.056.4.4,0,0,0,.1-.016.447.447,0,0,0,.1-.032.189.189,0,0,0,.087-.048.491.491,0,0,0,.19-.23.552.552,0,0,0,.04-.2V12.3a.434.434,0,0,0-.167-.412m30.787-.531a.317.317,0,0,0-.079-.1.444.444,0,0,0-.515-.079,13.047,13.047,0,0,0-1.15.7.415.415,0,0,0-.087.079.3.3,0,0,0-.071.1.225.225,0,0,0-.032.1H33.5a.452.452,0,0,0,0,.206c0,.016.008.024.008.04a.134.134,0,0,0,.024.079.237.237,0,0,0,.032.063c.008.008.008.016.016.024s.008.024.016.04.016.016.016.024.008,0,.008,0l.04.04s0,.016.008.016,0,.008.008,0l.016.016c.008,0,.024.016.04.032,0,0,.008-.008.008,0a.105.105,0,0,0,.063.024.025.025,0,0,0,.016.008c.008,0,.016.008.024.008a.505.505,0,0,0,.056.016.612.612,0,0,0,.119.016,1.171,1.171,0,0,0,.167.008A3.891,3.891,0,0,0,35.5,11.97c.174-.19.1-.42-.056-.611m0,0a.317.317,0,0,0-.079-.1.444.444,0,0,0-.515-.079,13.047,13.047,0,0,0-1.15.7.415.415,0,0,0-.087.079.3.3,0,0,0-.071.1.234.234,0,0,0-.04.1.452.452,0,0,0,0,.206c0,.016.008.024.008.04a.134.134,0,0,0,.024.079.237.237,0,0,0,.032.063c.011.021.02.044.032.063s.016.016.016.024a.367.367,0,0,0,.056.056s0,.008.008,0l.016.016c.008,0,.024.016.04.032,0,0,.008-.008.008,0a.105.105,0,0,0,.063.024.025.025,0,0,0,.016.008.029.029,0,0,0,.024.008l.063.024c.032,0,.071.008.111.008a1.171,1.171,0,0,0,.167.008A3.891,3.891,0,0,0,35.5,11.97c.174-.19.1-.42-.056-.611" transform="translate(0 0)" fill="#fff"/>
      <path id="Path_10527" data-name="Path 10527" d="M5.539,15.216a.529.529,0,0,1-.77.484,6.845,6.845,0,0,1-1.1-.67.543.543,0,0,1,.5-.936,12.434,12.434,0,0,1,1.2.71.433.433,0,0,1,.17.412Z" transform="translate(-0.719 -2.915)" fill="#e4e8f7"/>
      <path id="Path_10528" data-name="Path 10528" d="M34.948,3.373c-.109.163-.274.3-.213.536-.166-.274.038-.4.213-.536" transform="translate(-7.182 -0.698)" fill="#e4e8f7"/>
      <path id="Path_10529" data-name="Path 10529" d="M44.252,14.881a3.932,3.932,0,0,1-1.322.854c-.37.013-.565-.1-.642-.335a.494.494,0,0,1,.159-.609A12.928,12.928,0,0,1,43.6,14.1a.47.47,0,0,1,.6.167.457.457,0,0,1,.056.618Z" transform="translate(-8.75 -2.91)" fill="#e4e8f7"/>
      <path id="Path_10530" data-name="Path 10530" d="M34.7,3.909c-.278-.317-.259-.362.213-.536-.109.163-.274.3-.213.536" transform="translate(-7.151 -0.698)" fill="#e4e8f7"/>
      <path id="Path_10531" data-name="Path 10531" d="M5.539,15.216a.529.529,0,0,1-.77.484,6.845,6.845,0,0,1-1.1-.67.543.543,0,0,1,.5-.936,12.434,12.434,0,0,1,1.2.71.433.433,0,0,1,.17.412Z" transform="translate(-0.719 -2.915)" fill="#e4e8f7"/>
      <path id="Path_10532" data-name="Path 10532" d="M44.252,14.881a3.932,3.932,0,0,1-1.322.854c-.37.013-.565-.1-.642-.335a.494.494,0,0,1,.159-.609A12.928,12.928,0,0,1,43.6,14.1a.47.47,0,0,1,.6.167.457.457,0,0,1,.056.618Z" transform="translate(-8.75 -2.91)" fill="#e4e8f7"/>
    </g>
  </g>
</svg>
