<svg id="Group_4963" data-name="Group 4963" xmlns="http://www.w3.org/2000/svg" xmlns:xlink="http://www.w3.org/1999/xlink" width="36.339" height="31.565" viewBox="0 0 36.339 31.565">
  <defs>
    <clipPath id="clip-path">
      <rect id="Rectangle_2307" data-name="Rectangle 2307" width="36.339" height="31.565" transform="translate(0 0)" fill="#516ddd"/>
    </clipPath>
  </defs>
  <g id="Group_4962" data-name="Group 4962" transform="translate(0 0)" clip-path="url(#clip-path)">
    <path id="Path_11562" data-name="Path 11562" d="M57.719,27.966a9.433,9.433,0,0,0-8.825,6.364A9.222,9.222,0,0,0,52.123,44.8a4.242,4.242,0,0,1,1.9,3.919c-.081,2.812.9,3.742,3.7,3.742,2.888,0,3.835-.9,3.757-3.81a4.157,4.157,0,0,1,1.852-3.82,9.209,9.209,0,0,0,3.3-10.452,9.453,9.453,0,0,0-8.919-6.417M58.967,50.5a5.069,5.069,0,0,1-2.352.025c-.743-.152-.768-.793-.733-1.395.043-.72.616-.354.96-.412a5.971,5.971,0,0,1,1-.013,5.567,5.567,0,0,1,.872.01c.346.053.912-.278.92.457.005.556,0,1.147-.664,1.326m6.266-12.7a7.154,7.154,0,0,1-3.09,5.6,5.841,5.841,0,0,0-2.289,2.873c-.422,1.215-1.47.22-1.806.427-1.6.414-2.42.091-2.82-1.294-.283-.983-1.241-1.516-2.034-2.132A7.476,7.476,0,1,1,65.233,37.8" transform="translate(-36.158 -20.9)" fill="#516ddd"/>
    <path id="Path_11563" data-name="Path 11563" d="M127.355,29.957a25.07,25.07,0,0,0-3.431,1.993.848.848,0,0,0,.116,1.531c.659.4,4.54-1.872,4.591-2.754-.136-.616-.551-1.119-1.276-.771" transform="translate(-92.292 -22.303)" fill="#516ddd"/>
    <path id="Path_11564" data-name="Path 11564" d="M106.753,11.872c.366,0,.632-.04.768-.27.71-1.208,1.43-2.413,2.084-3.651a.777.777,0,0,0-.432-1.041.857.857,0,0,0-1.2.318c-.662,1.094-1.352,2.18-1.9,3.33a.84.84,0,0,0,.682,1.314" transform="translate(-79.176 -5.074)" fill="#516ddd"/>
    <path id="Path_11565" data-name="Path 11565" d="M23.119,39.03c-.588.158-.595.644-.62,1.121a8.324,8.324,0,0,1-10.237,7.663,7.694,7.694,0,0,1-4.125-2.475c1.064-.352,2.023-.669,2.982-.987.5-.169.969-.419.769-1.051s-.707-.582-1.22-.409c-1.3.438-2.594.892-3.9,1.3a1.086,1.086,0,0,0-.848,1.22c.03,1.267.015,2.536.007,3.8,0,.533.047,1.068.709,1.084.7.017.806-.521.8-1.1-.008-.724,0-1.45,0-2.283V46.84l.06.049c.181.146.258.206.332.268a9.787,9.787,0,0,0,16.056-5.618c.054-.268-.07-.62.258-.809v-.992c-.261-.348-.406-.87-1.017-.707" transform="translate(-4.421 -29.146)" fill="#516ddd"/>
    <path id="Path_11566" data-name="Path 11566" d="M10.517,2.318a8.12,8.12,0,0,1,5.389,2.66c-1.125.375-2.135.711-3.144,1.051-.513.173-.83.515-.613,1.063.2.5.63.533,1.111.37q2.024-.691,4.061-1.349a1.014,1.014,0,0,0,.781-1.1c-.022-1.267-.023-2.536,0-3.8A1.736,1.736,0,0,0,17.732,0H17.07a1.263,1.263,0,0,0-.488,1.153c.028.705.008,1.414.007,2.262V3.5l-.064-.055c-.243-.211-.387-.344-.538-.461A9.43,9.43,0,0,0,5.761,1.664,9.394,9.394,0,0,0,.007,10.229c-.032.54.025,1.053.7,1.078s.786-.483.806-1.017a8.315,8.315,0,0,1,9-7.971" transform="translate(0 0)" fill="#516ddd"/>
  </g>
</svg>
