<svg id="Group_4693" data-name="Group 4693" xmlns="http://www.w3.org/2000/svg" xmlns:xlink="http://www.w3.org/1999/xlink" width="37.131" height="32.945" viewBox="0 0 37.131 32.945">
  <defs>
    <clipPath id="clip-path">
      <rect id="Rectangle_2262" data-name="Rectangle 2262" width="37.131" height="32.945" fill="#fff"/>
    </clipPath>
  </defs>
  <g id="Group_4693-2" data-name="Group 4693" clip-path="url(#clip-path)">
    <path id="Path_11401" data-name="Path 11401" d="M28.246,88.082q0-3.139.007-6.277c0-.248-.062-.3-.3-.3q-6.907.012-13.815.007T.294,81.509c-.216,0-.294.03-.294.275q.012,9.377,0,18.756c0,.206.048.254.254.254q10.087-.01,20.172,0a9.252,9.252,0,0,1,7.819-12.711M16.761,95.906q-1.293,1.3-2.58,2.607c-.072.073-.111.057-.174-.006-.324-.326-.649-.652-.98-.97-.091-.086-.083-.139,0-.219.22-.207.434-.42.7-.681a5.733,5.733,0,0,1-2.2-.648,5.513,5.513,0,0,1-2.752-6.075c.053-.229.116-.325.372-.228A9.13,9.13,0,0,0,10.205,90c.188.048.242.1.192.311a3.838,3.838,0,0,0,2.984,4.6.448.448,0,0,0,.267-.029c-.2-.195-.4-.392-.609-.585-.085-.078-.119-.135-.014-.234.326-.311.644-.63.959-.951.083-.084.133-.09.219,0q1.275,1.3,2.559,2.589c.078.078.072.126,0,.2M19.473,92.4c-.059.25-.144.3-.382.214a10.489,10.489,0,0,0-1.079-.318c-.183-.045-.2-.111-.158-.285a3.843,3.843,0,0,0-3.1-4.64,1.952,1.952,0,0,0-.2,0c.255.246.454.448.663.637.1.09.1.147.006.242-.347.354-.685.715-.987,1.032-.935-.913-1.828-1.788-2.726-2.658-.1-.1-.082-.15.007-.239q1.275-1.28,2.541-2.569c.09-.092.134-.073.212.006q.474.482.958.953c.087.083.088.139,0,.221-.223.2-.44.414-.711.673a6.706,6.706,0,0,1,1.457.316,5.522,5.522,0,0,1,3.5,6.416m1.376,4.88a8.144,8.144,0,0,0,.77,3.477c.052-.038.065-.106.064-.221-.008-2.025,0-4.051-.01-6.077,0-.21.054-.253.256-.252,2.013.008,4.027,0,6.039.01.231,0,.283-.056.282-.284q0-2.369-.006-4.74a8.147,8.147,0,0,0-7.4,8.086" transform="translate(0 -72.499)" fill="#fff"/>
    <path id="Path_11402" data-name="Path 11402" d="M.337,28.028q13.794-.013,27.587-.008a1.17,1.17,0,0,1,.165,0c.14.02.165-.048.164-.172q-.008-2.291-.009-4.583c-.073-.057-.159-.031-.24-.031q-2.177,0-4.354,0c-.212,0-.287.01-.314.122v0a.952.952,0,0,0-.017.206c-.007.58,0,1.159,0,1.74a.5.5,0,0,1-.057.329.125.125,0,0,1-.011.014.473.473,0,0,1-.363.063,3.482,3.482,0,0,1-1.043-.059.105.105,0,0,1-.018-.021.474.474,0,0,1-.057-.316c0-.6,0-1.192,0-1.788a.458.458,0,0,0-.029-.2c-.028-.057-.084-.1-.2-.094-1.253.01-2.507-.011-3.76.012l-.015.017-.015.017a0,0,0,0,1,0,0,.551.551,0,0,0-.062.354c-.006.6,0,1.194,0,1.791,0,.189-.065.292-.271.288-.321,0-.641,0-.963,0a.244.244,0,0,1-.252-.128.222.222,0,0,1-.017-.032.752.752,0,0,1-.038-.317c0-.56,0-1.121,0-1.681a1.169,1.169,0,0,0-.009-.169v0c-.023-.132-.09-.144-.3-.144q-1.693,0-3.384,0c-.217,0-.285.012-.307.14v0a1.1,1.1,0,0,0-.011.168c-.007.56,0,1.121,0,1.68a.776.776,0,0,1-.038.322h0c0,.009-.009.019-.014.029-.06.137-.186.13-.3.133-.274.006-.548,0-.822,0-.334,0-.358-.027-.361-.359,0-.576,0-1.153,0-1.729a.5.5,0,0,0-.069-.349.126.126,0,0,1-.012-.012h0a.113.113,0,0,0-.02-.02c-1.2-.015-2.4,0-3.6-.007-.218,0-.311,0-.349.087a.846.846,0,0,0-.03.3c0,.569,0,1.138,0,1.709a.445.445,0,0,1-.057.3.148.148,0,0,1-.012.015,2.877,2.877,0,0,1-.987.062.6.6,0,0,1-.42-.057A.127.127,0,0,1,5,25.633a.472.472,0,0,1-.057-.319c0-.578,0-1.157,0-1.735a1.17,1.17,0,0,0-.013-.2c-.024-.132-.1-.143-.329-.143q-2.159,0-4.316,0c-.088,0-.183-.029-.266.031,0,1.472,0,2.945-.013,4.417,0,.264.044.345.333.345" transform="translate(-0.004 -20.661)" fill="#fff"/>
    <path id="Path_11403" data-name="Path 11403" d="M44.343,2.667a.467.467,0,0,0,.12.015c.393.009.787.006,1.182,0a.339.339,0,0,0,.126-.022c.078-.033.113-.107.111-.232-.009-.523,0-1.047-.006-1.57a3.207,3.207,0,0,0-.028-.79L44.26.077c-.01.014-.029.03-.03.045-.01.789,0,1.577-.006,2.366a.158.158,0,0,0,.118.179" transform="translate(-39.337 -0.063)" fill="#fff"/>
    <path id="Path_11404" data-name="Path 11404" d="M95.219,2.6a.4.4,0,0,0,.135.022c.386,0,.772,0,1.157,0a.5.5,0,0,0,.13-.014.206.206,0,0,0,.1-.063c0-.787,0-1.575.008-2.362,0-.144-.039-.186-.182-.182-.475.01-.951.006-1.426.007a.171.171,0,0,0-.03.1c0,.755,0,1.51,0,2.265,0,.126.038.193.114.224" transform="translate(-84.593 0.001)" fill="#fff"/>
    <path id="Path_11405" data-name="Path 11405" d="M145.774,2.608a.705.705,0,0,0,.181.014c.349,0,.7,0,1.048,0a.436.436,0,0,0,.178-.025c.091-.036.133-.12.127-.28-.017-.57,0-1.142-.007-1.712a1.962,1.962,0,0,0-.029-.6c-.475,0-.951,0-1.425-.007-.145,0-.185.038-.183.182.009.787.007,1.575.008,2.362a.215.215,0,0,0,.1.064" transform="translate(-129.564 0.001)" fill="#fff"/>
    <path id="Path_11406" data-name="Path 11406" d="M196.514,2.663a.467.467,0,0,0,.155.022c.376,0,.752,0,1.126,0a.375.375,0,0,0,.151-.024c.085-.035.122-.115.118-.256-.011-.632,0-1.266-.007-1.9a.878.878,0,0,0-.032-.431L196.438.071a.178.178,0,0,0-.029.075c0,.77,0,1.541,0,2.311,0,.122.042.179.109.206" transform="translate(-174.696 -0.063)" fill="#fff"/>
    <path id="Path_11407" data-name="Path 11407" d="M196.776,150.718q-.38,0-.749.034a8.139,8.139,0,1,0,.749-.034m3.474,10.551a.546.546,0,0,1-.382.464.605.605,0,0,1-.6-.133q-1.25-1.006-2.506-2.006c-.626-.5-.565-.423-.565-1.18q0-.945,0-1.891h0q0-1.162,0-2.322a.577.577,0,0,1,.905-.47.59.59,0,0,1,.253.533c0,1.325.007,2.651-.009,3.976a.626.626,0,0,0,.276.561c.807.628,1.6,1.273,2.4,1.912a.567.567,0,0,1,.234.556" transform="translate(-167.781 -134.059)" fill="#fff"/>
  </g>
</svg>
