<svg id="Group_4983" data-name="Group 4983" xmlns="http://www.w3.org/2000/svg" xmlns:xlink="http://www.w3.org/1999/xlink" width="38.47" height="33.04" viewBox="0 0 38.47 33.04">
  <defs>
    <clipPath id="clip-path">
      <rect id="Rectangle_2311" data-name="Rectangle 2311" width="38.47" height="33.04" fill="#fff"/>
    </clipPath>
  </defs>
  <g id="Group_4982" data-name="Group 4982" clip-path="url(#clip-path)">
    <path id="Path_11594" data-name="Path 11594" d="M38.384,9.956a5.524,5.524,0,0,0-5.216-4.44c-2.389,0-4.779-.005-7.168.007-.277,0-.368-.067-.353-.351.024-.487.017-.976,0-1.461A3.662,3.662,0,0,0,22.065.017C20.177-.007,18.288,0,16.4.017a3.63,3.63,0,0,0-3.447,2.721,8.731,8.731,0,0,0-.126,2.394c0,.334-.1.392-.4.391-2.347-.014-4.693-.009-7.041-.007A5.475,5.475,0,0,0,0,10.9V27.28a5.5,5.5,0,0,0,5.738,5.76H32.693a5.5,5.5,0,0,0,5.776-5.765q0-8.1,0-16.209a6.672,6.672,0,0,0-.086-1.11M14.655,5.144c.028-.47,0-.943.009-1.416a1.8,1.8,0,0,1,1.812-1.881q2.765-.039,5.531,0A1.789,1.789,0,0,1,23.8,3.7c.01.5-.017,1,.01,1.5.015.287-.1.32-.341.318-1.416-.01-2.831-.005-4.246-.005s-2.8-.01-4.2.009c-.3,0-.386-.083-.37-.38M1.976,10.092a3.575,3.575,0,0,1,3.26-2.7c.143-.009.286-.019.429-.019q13.563,0,27.123,0a3.633,3.633,0,0,1,3.37,1.878,3.421,3.421,0,0,1,.453,1.759c0,.687.015,1.375-.01,2.062a3.576,3.576,0,0,1-3.489,3.445c-2.389.033-4.779.005-7.168.017-.262,0-.3-.095-.294-.322.012-.759.01-1.52,0-2.279a.96.96,0,0,0-1.088-1.081c-1.788-.007-3.576,0-5.364,0q-2.6,0-5.194,0c-.864,0-1.188.327-1.189,1.2,0,.73-.009,1.461,0,2.193,0,.215-.043.294-.279.293-2.4-.01-4.807.021-7.209-.019a3.556,3.556,0,0,1-3.459-3.468,11.3,11.3,0,0,1,.1-2.952m21.838,9.76c0,.287-.083.36-.361.356C22.036,20.2,20.62,20.2,19.2,20.2c-1.387,0-2.776-.009-4.163.007-.294,0-.387-.071-.386-.377q.023-2.385,0-4.772c0-.312.093-.37.384-.37q4.205.018,8.412,0c.263,0,.367.046.363.344q-.023,2.409,0,4.815m12.827,7.516A3.673,3.673,0,0,1,33.827,31.1a4.341,4.341,0,0,1-1.064.114q-13.522,0-27.046,0a3.687,3.687,0,0,1-3.891-3.874c-.005-3.425,0-6.851,0-10.369A5.827,5.827,0,0,0,4.6,18.286a6.887,6.887,0,0,0,1.112.065q3.049.005,6.1,0c1.009,0,1.009,0,1.009,1.031,0,.516-.005,1.031,0,1.547a.965.965,0,0,0,1.108,1.1q5.3,0,10.6,0c.776,0,1.117-.341,1.122-1.127,0-.716.017-1.434-.007-2.15-.01-.318.071-.41.4-.408,2.046.017,4.094-.026,6.139.019a5.973,5.973,0,0,0,4.37-1.342c.139.069.088.167.088.241q.005,5.052,0,10.106" transform="translate(0 0)" fill="#fff"/>
  </g>
</svg>
