<svg id="Group_4957" data-name="Group 4957" xmlns="http://www.w3.org/2000/svg" xmlns:xlink="http://www.w3.org/1999/xlink" width="38.301" height="38.31" viewBox="0 0 38.301 38.31">
  <defs>
    <clipPath id="clip-path">
      <rect id="Rectangle_2304" data-name="Rectangle 2304" width="38.301" height="38.31" fill="#506bd9"/>
    </clipPath>
  </defs>
  <g id="Group_4956" data-name="Group 4956" clip-path="url(#clip-path)">
    <path id="Path_11548" data-name="Path 11548" d="M38.3,129.652a2.044,2.044,0,0,0-.172-.871,1.739,1.739,0,0,0-3.314.752c0,2.392,0,4.785,0,7.177a4.855,4.855,0,0,1-5,4.986q-10.662,0-21.323,0a4.855,4.855,0,0,1-5-4.983q0-3.526,0-7.054a1.758,1.758,0,0,0-1.713-1.887A1.766,1.766,0,0,0,0,129.649q-.007,3.588,0,7.177a7.929,7.929,0,0,0,1.072,4.085,8.191,8.191,0,0,0,7.386,4.265c3.561.033,7.121.008,10.682.008q5.28,0,10.559,0a9.181,9.181,0,0,0,1.422-.088,8.324,8.324,0,0,0,7.162-8.3c.021-2.379,0-4.757,0-7.136" transform="translate(0 -106.884)" fill="#506bd9"/>
    <path id="Path_11549" data-name="Path 11549" d="M45.794,13.323q3.509-3.494,7.008-7c.1-.1.17-.242.373-.283V27.4c0,.2,0,.409.01.611a1.737,1.737,0,1,0,3.456-.353q0-10.581,0-21.161V6.061l.11-.069c.095.114.181.237.286.342q3.485,3.489,6.972,6.979a1.745,1.745,0,0,0,1.537.579,1.656,1.656,0,0,0,1.426-1.177,1.713,1.713,0,0,0-.494-1.855q-5.105-5.1-10.206-10.2a1.751,1.751,0,0,0-2.743.016L45.4,8.8q-1.052,1.052-2.1,2.106a1.671,1.671,0,0,0-.489,1.676,1.733,1.733,0,0,0,2.987.741" transform="translate(-35.76 0)" fill="#506bd9"/>
  </g>
</svg>
