<svg xmlns="http://www.w3.org/2000/svg" xmlns:xlink="http://www.w3.org/1999/xlink" width="33.843" height="38.294" viewBox="0 0 33.843 38.294">
  <defs>
    <clipPath id="clip-path">
      <rect id="Rectangle_2388" data-name="Rectangle 2388" width="33.843" height="38.294" fill="#fff"/>
    </clipPath>
  </defs>
  <g id="Group_5329" data-name="Group 5329" transform="translate(0 0)">
    <g id="Group_5329-2" data-name="Group 5329" transform="translate(0 0)" clip-path="url(#clip-path)">
      <path id="Path_11741" data-name="Path 11741" d="M51.866,24.435h0q-.1-3.727-.2-7.458c-.01-.472-.01-.472-.5-.407a3.46,3.46,0,0,0-3.081,3.25c-.179,2.4-.278,4.8-.412,7.2a.411.411,0,0,0,.109.358,2.352,2.352,0,0,1,.04,3.533c-1.356,1.535-2.718,3.061-4.079,4.591-.407.457-.691.542-.959.288-.248-.238-.189-.522.2-.959L47.191,30.1a1.336,1.336,0,0,0,.368-1.173,1.3,1.3,0,0,0-.959-1.063,1.269,1.269,0,0,0-1.4.422c-.745.85-1.51,1.684-2.211,2.569a2.01,2.01,0,0,1-1.5.765,5.371,5.371,0,0,0-1.958.5,5.263,5.263,0,0,0-2.455,2.971,16.919,16.919,0,0,0-.84,6.792c.01.248.169.184.3.184h6.5a.532.532,0,0,0,.442-.2q4.181-4.71,8.382-9.406a.738.738,0,0,0,.2-.571c-.07-2.484-.129-4.969-.194-7.453" transform="translate(-18.218 -8.322)" fill="#fff"/>
      <path id="Path_11742" data-name="Path 11742" d="M8.969,42.071q3.309,0,6.618,0c.164,0,.234-.03.238-.209a18.411,18.411,0,0,0-.527-5.853c-.711-2.5-2.1-4.278-4.944-4.417a1.631,1.631,0,0,1-1.212-.666c-.74-.9-1.52-1.774-2.3-2.653a1.265,1.265,0,0,0-1.406-.4,1.288,1.288,0,0,0-.934,1.038,1.443,1.443,0,0,0,.457,1.3Q7.1,32.6,9.232,35.01c.258.293.273.611.03.8a.489.489,0,0,1-.74-.084c-1.515-1.7-3.051-3.4-4.541-5.133a2.288,2.288,0,0,1,.174-3.086.7.7,0,0,0,.238-.621c-.134-2.335-.248-4.671-.4-7.006A3.522,3.522,0,0,0,.88,16.566c-.328-.04-.482-.015-.487.4C.348,19.468.269,21.962.2,24.462h0C.13,26.946.07,29.43,0,31.915a.716.716,0,0,0,.189.537Q4.4,37.162,8.6,41.887a.45.45,0,0,0,.373.184" transform="translate(0 -8.328)" fill="#fff"/>
      <path id="Path_11743" data-name="Path 11743" d="M28.851,30.182q-1.8-.015-3.592,0A5.2,5.2,0,0,0,20.4,33.661a8.512,8.512,0,0,0-.3,2.917c0,.656.06.73.711.785a5.835,5.835,0,0,1,5.068,3.572,13.023,13.023,0,0,1,1.093,4.223c.184-.079.139-.219.154-.328a13.6,13.6,0,0,1,.855-3.428,6.044,6.044,0,0,1,3.8-3.756,8.394,8.394,0,0,1,1.645-.293c.378-.04.571-.209.552-.621-.025-.5,0-1.009-.01-1.515a5.205,5.205,0,0,0-5.113-5.033" transform="translate(-10.113 -15.182)" fill="#fff"/>
      <path id="Path_11744" data-name="Path 11744" d="M33.921,70.317c0-.308-.07-.4-.393-.4-3.309.015-6.618.01-9.927.01s-6.623,0-9.932-.01c-.318,0-.4.084-.393.393.02.944.015,1.888,0,2.832,0,.268.079.328.333.328q9.995-.007,19.984,0c.253,0,.343-.055.338-.323-.02-.944-.025-1.888,0-2.832" transform="translate(-6.677 -35.179)" fill="#fff"/>
      <path id="Path_11745" data-name="Path 11745" d="M30.247,21.918a3.749,3.749,0,1,0-3.736-3.766,3.758,3.758,0,0,0,3.736,3.766" transform="translate(-13.339 -7.255)" fill="#fff"/>
      <path id="Path_11746" data-name="Path 11746" d="M46.08,27.776a3.039,3.039,0,0,0-1.819.964,6.46,6.46,0,0,1,2.986,5.739c.432-.492.79-.914,1.163-1.332a2.378,2.378,0,0,1,1.928-.86c.243,0,.283-.075.293-.283.05-1.033.1-2.067.174-3.1.065-.889.065-.964-.835-1.1a15.219,15.219,0,0,0-3.89-.025" transform="translate(-22.269 -13.919)" fill="#fff"/>
      <path id="Path_11747" data-name="Path 11747" d="M11.067,32.337a2.464,2.464,0,0,1,2.077.969c.323.388.661.765,1.014,1.173.03-.065.05-.089.05-.109a6.283,6.283,0,0,1,2.812-5.451c.214-.149.1-.214-.02-.313a3.315,3.315,0,0,0-2.057-.84c-.984-.025-1.968-.01-2.946,0a3.259,3.259,0,0,0-1.158.273.311.311,0,0,0-.229.358q.119,1.848.214,3.7c.01.164.025.253.243.248" transform="translate(-5.338 -13.963)" fill="#fff"/>
      <path id="Path_11748" data-name="Path 11748" d="M13.739,22.012a2.6,2.6,0,0,0,2.574-2.6,2.6,2.6,0,0,0-5.192-.01,2.62,2.62,0,0,0,2.618,2.609" transform="translate(-5.595 -8.463)" fill="#fff"/>
      <path id="Path_11749" data-name="Path 11749" d="M46.541,19.409A2.6,2.6,0,1,0,49.11,16.82a2.567,2.567,0,0,0-2.569,2.589" transform="translate(-23.416 -8.463)" fill="#fff"/>
      <path id="Path_11750" data-name="Path 11750" d="M31.7,4.7A2.34,2.34,0,0,0,34.027,2.36,2.333,2.333,0,1,0,31.7,4.7" transform="translate(-14.772 0)" fill="#fff"/>
      <path id="Path_11751" data-name="Path 11751" d="M40.921,6.192A8.126,8.126,0,0,1,44.24,9.084c.179.278.268.706.517.82s.616-.089.934-.149c.04-.01.079-.015.179-.03a9.4,9.4,0,0,0-5-4.775,4.063,4.063,0,0,1-.154.8c-.094.253-.01.333.209.437" transform="translate(-20.464 -2.491)" fill="#fff"/>
      <path id="Path_11752" data-name="Path 11752" d="M18.243,9.7a8.179,8.179,0,0,1,3.225-3.274c.229-.129.547-.189.681-.378s-.089-.492-.1-.75c-.01-.1-.02-.209-.035-.373A9.428,9.428,0,0,0,17,9.695a5.359,5.359,0,0,1,.8.2c.248.1.333.01.442-.194" transform="translate(-8.554 -2.481)" fill="#fff"/>
    </g>
  </g>
</svg>
