<svg id="Group_3989" data-name="Group 3989" xmlns="http://www.w3.org/2000/svg" xmlns:xlink="http://www.w3.org/1999/xlink" width="17.533" height="17.534" viewBox="0 0 17.533 17.534">
  <defs>
    <clipPath id="clip-path">
      <rect id="Rectangle_1879" data-name="Rectangle 1879" width="17.533" height="17.534" fill="#0f2a55"/>
    </clipPath>
  </defs>
  <g id="Group_3988" data-name="Group 3988" clip-path="url(#clip-path)">
    <path id="Path_10295" data-name="Path 10295" d="M17.531,8.773q0-2.149,0-4.3a4.469,4.469,0,0,0-.213-1.431A4.392,4.392,0,0,0,13.094,0Q8.764,0,4.433,0a4.283,4.283,0,0,0-1.4.216A4.391,4.391,0,0,0,0,4.464q0,4.3,0,8.61a4.4,4.4,0,0,0,4.42,4.456q4.347.01,8.7,0a4.174,4.174,0,0,0,2.172-.569,4.333,4.333,0,0,0,2.241-3.927c.008-1.421,0-2.842,0-4.262m-1.465.011h-.007c0,1.518.016,3.035,0,4.553a2.906,2.906,0,0,1-2.422,2.692,4.2,4.2,0,0,1-.579.039q-4.288,0-8.575,0a2.871,2.871,0,0,1-2.75-1.711A2.777,2.777,0,0,1,1.465,13.1c0-2.887,0-5.774,0-8.662a2.9,2.9,0,0,1,2.3-2.9,3.079,3.079,0,0,1,.714-.066q4.288,0,8.575,0a2.918,2.918,0,0,1,2.859,1.98,3.08,3.08,0,0,1,.154,1.042q0,2.149,0,4.3" transform="translate(0 0)" fill="#0f2a55"/>
    <path id="Path_10296" data-name="Path 10296" d="M68.259,63.9a4.382,4.382,0,1,0,4.39,4.379,4.391,4.391,0,0,0-4.39-4.379m.012,7.3a2.918,2.918,0,1,1,2.913-2.915A2.915,2.915,0,0,1,68.271,71.2" transform="translate(-59.501 -59.515)" fill="#0f2a55"/>
    <path id="Path_10297" data-name="Path 10297" d="M182.155,42.6a1.093,1.093,0,1,0,1.1,1.088,1.1,1.1,0,0,0-1.1-1.088" transform="translate(-168.64 -39.677)" fill="#0f2a55"/>
  </g>
</svg>
