<svg id="Group_4135" data-name="Group 4135" xmlns="http://www.w3.org/2000/svg" xmlns:xlink="http://www.w3.org/1999/xlink" width="63.146" height="47.619" viewBox="0 0 63.146 47.619">
  <defs>
    <clipPath id="clip-path">
      <rect id="Rectangle_2244" data-name="Rectangle 2244" width="50.939" height="33.858" fill="#fafafb"/>
    </clipPath>
  </defs>
  <path id="Path_10446" data-name="Path 10446" d="M2.513,60.966s-27.413-.457-31.5-.457c-5.209,0-9.449-3.846-9.449-8.57V32.915c0-4.724,4.24-8.568,9.449-8.568H-6.937c5.209,0,9.449,3.845,9.449,8.568Z" transform="translate(38.435 -24.347)" fill="#fff" opacity="0.21"/>
  <g id="Group_4553" data-name="Group 4553" transform="translate(12.207 13.761)">
    <g id="Group_4552" data-name="Group 4552" clip-path="url(#clip-path)">
      <path id="Path_11325" data-name="Path 11325" d="M238.087,10.615c2.717,2.47,5.33,2.837,7.669,1.192A5.5,5.5,0,0,0,241.593,1.9a5.393,5.393,0,0,0-3.682,2.528,6.059,6.059,0,0,0-.707,4.442,14.186,14.186,0,0,0-1.671-1.758c-.277-.228-.176-.522-.147-.794a7.276,7.276,0,1,1,8.7,8.113,7.174,7.174,0,0,1-4.907-.688.812.812,0,0,1-.515-.751,8.752,8.752,0,0,0-.579-2.375" transform="translate(-204.376 -0.036)" fill="#fafafb"/>
      <path id="Path_11326" data-name="Path 11326" d="M52.718,11.264a14.34,14.34,0,0,0-.362,2.153c-.013.381-.362.411-.6.52A7.276,7.276,0,1,1,56.018,6a.864.864,0,0,1-.371,1A13.283,13.283,0,0,0,54.4,8.163c-.044-3.68-1.621-6.056-5.433-6.363a5.321,5.321,0,0,0-5.3,3.65,5.492,5.492,0,0,0,1.831,6.185c2.086,1.607,4.535,1.5,7.227-.371" transform="translate(-36.107 0)" fill="#fafafb"/>
      <path id="Path_11327" data-name="Path 11327" d="M263.118,123.77c-.446.186-.571-.139-.7-.573-.316-1.1-.331-1.074.769-1.213a17.216,17.216,0,0,0,8.384-3.328.874.874,0,0,0,.371-1.113,13.082,13.082,0,0,0-1.554-3.316,1.87,1.87,0,0,0-2.648-.772,16.033,16.033,0,0,1-10.588.96c-.461-.111-.613-.219-.419-.729.407-1.074.371-1.082,1.505-.859a14.142,14.142,0,0,0,8.789-1,3.624,3.624,0,0,1,4.813,1.372,13.7,13.7,0,0,1,1.813,3.915,2.3,2.3,0,0,1-.922,2.876,18.819,18.819,0,0,1-9.617,3.778" transform="translate(-222.882 -96.76)" fill="#fafafb"/>
      <path id="Path_11328" data-name="Path 11328" d="M12.7,114.771a16.128,16.128,0,0,1-6.561-1.423,1.884,1.884,0,0,0-2.74.81,13.1,13.1,0,0,0-1.514,3.264.877.877,0,0,0,.38,1.112,16.966,16.966,0,0,0,8.585,3.325c.528.054.543.216.4.639-.408,1.191-.394,1.186-1.659.986A18.492,18.492,0,0,1,1.1,119.869a2.281,2.281,0,0,1-.957-2.811,13.739,13.739,0,0,1,2.024-4.247,3.544,3.544,0,0,1,4.377-1.217,14.439,14.439,0,0,0,9.417,1.025c.378-.082.484.009.587.354.4,1.324.409,1.32-.976,1.542a16.861,16.861,0,0,1-2.877.256" transform="translate(0 -96.63)" fill="#fafafb"/>
      <path id="Path_11329" data-name="Path 11329" d="M120.818,168.912a4.021,4.021,0,0,0-.168-.951,13.558,13.558,0,0,0-1.717-3.745,3.648,3.648,0,0,0-5.048-1.459,13.454,13.454,0,0,1-4.616,1.182,14.508,14.508,0,0,1-7.285-1.309,3.55,3.55,0,0,0-4.519,1.269,13.688,13.688,0,0,0-1.779,3.584l-.034.1c-.014.045-.03.09-.044.135-.02.063-.036.123-.054.184s-.04.126-.059.19a2.241,2.241,0,0,0,.9,2.771,18.527,18.527,0,0,0,11.186,3.917,19.424,19.424,0,0,0,12.175-3.9,2.2,2.2,0,0,0,1.062-1.97" transform="translate(-82.796 -140.924)" fill="#fafafb"/>
      <path id="Path_11330" data-name="Path 11330" d="M144.017,65.515a7.274,7.274,0,0,0,7.033-5.092,7.189,7.189,0,0,0,.356-2.18,7.289,7.289,0,0,0-14.578-.1,7.15,7.15,0,0,0,.149,1.495,7.262,7.262,0,0,0,7.041,5.877" transform="translate(-118.823 -44.214)" fill="#fafafb"/>
    </g>
  </g>
</svg>
