<svg id="Group_4614" data-name="Group 4614" xmlns="http://www.w3.org/2000/svg" xmlns:xlink="http://www.w3.org/1999/xlink" width="64.621" height="60.269" viewBox="0 0 64.621 60.269">
  <defs>
    <clipPath id="clip-path">
      <rect id="Rectangle_2293" data-name="Rectangle 2293" width="47.346" height="47.299" fill="#506bd9"/>
    </clipPath>
  </defs>
  <path id="Path_10446" data-name="Path 10446" d="M2.513,60.966s-27.413-.457-31.5-.457c-5.209,0-9.449-3.846-9.449-8.57V32.915c0-4.724,4.24-8.568,9.449-8.568H-6.937c5.209,0,9.449,3.845,9.449,8.568Z" transform="translate(38.435 -24.347)" fill="#516ddd" opacity="0.2"/>
  <g id="Group_4925" data-name="Group 4925" transform="translate(17.275 12.97)">
    <g id="Group_4924" data-name="Group 4924" transform="translate(0 0)" clip-path="url(#clip-path)">
      <path id="Path_11492" data-name="Path 11492" d="M46.973,44.034c-3.038-3.349-5.672-7.255-9.864-9.241-2.219-1.051-2.469-1.766-1.045-3.679a17.976,17.976,0,0,0,3.52-11.435A19.794,19.794,0,1,0,7.643,35.46a19.524,19.524,0,0,0,23.549.513c1.656-1.167,2.646-1.247,3.392.623,1.785,4.456,5.965,6.766,8.954,10.133a1.976,1.976,0,0,0,2.793-.018c.85-.7,1.43-1.809.642-2.677M19.861,37.428A17.6,17.6,0,1,1,37.475,19.789,17.563,17.563,0,0,1,19.861,37.428" transform="translate(0 0)" fill="#506bd9"/>
      <path id="Path_11493" data-name="Path 11493" d="M35.147,34.5a8.209,8.209,0,0,0-7.463-6.527A8.391,8.391,0,0,0,19.342,33.4c-.886,2.555-.507,5.226-.507,7.854,0,.605.257,1.265,1.033,1.241.727-.024,1.008-.617,1.021-1.259.043-1.626-.012-3.251.043-4.871.134-3.747,2.866-6.479,6.332-6.387a6.338,6.338,0,0,1,6.063,6.375,12.3,12.3,0,0,0,.037,2.127c.293,1.351-.911,3.832,1.015,3.814s.55-2.524,1.094-3.82a34.949,34.949,0,0,0-.324-3.967" transform="translate(-7.292 -10.872)" fill="#506bd9"/>
      <path id="Path_11494" data-name="Path 11494" d="M29.391,19.944A4.838,4.838,0,0,0,34.207,15.1a4.856,4.856,0,1,0-9.712.086,4.788,4.788,0,0,0,4.9,4.755m-.226-7.585c1.956.043,3.007,1.131,2.989,2.811a2.626,2.626,0,0,1-2.9,2.781,2.613,2.613,0,0,1-2.72-2.665,2.656,2.656,0,0,1,2.634-2.928" transform="translate(-9.524 -4)" fill="#506bd9"/>
    </g>
  </g>
</svg>
