<svg id="Group_4942" data-name="Group 4942" xmlns="http://www.w3.org/2000/svg" xmlns:xlink="http://www.w3.org/1999/xlink" width="26.123" height="30.076" viewBox="0 0 26.123 30.076">
  <defs>
    <clipPath id="clip-path">
      <rect id="Rectangle_2299" data-name="Rectangle 2299" width="26.123" height="30.076" fill="#516bda"/>
    </clipPath>
  </defs>
  <g id="Group_4941" data-name="Group 4941" clip-path="url(#clip-path)">
    <path id="Path_11523" data-name="Path 11523" d="M24.879,23.326c-1.737-1.779-3.468-3.563-5.221-5.323-.469-.473-.728-.712.077-1.206a5.012,5.012,0,0,0,2.455-5.111,5.16,5.16,0,0,0-3.6-4.5,1.387,1.387,0,0,1-.98-1.013A9.065,9.065,0,0,0,8.756,0,10.878,10.878,0,0,0,7.42.131a9.027,9.027,0,1,0,4.254,17.511c.722-.218.938.006,1.251.54,1.947,3.325,3.92,6.637,5.892,9.949a3.723,3.723,0,0,0,3.727,1.928A3.67,3.67,0,0,0,25.871,27.5a3.806,3.806,0,0,0-.992-4.173M1.544,12.149A8.152,8.152,0,0,1,6.357,1.355a8.051,8.051,0,0,1,10.43,5.483,5.713,5.713,0,0,0-3.574,1.413c-.135.125-.315.392-.486.11a8.908,8.908,0,0,1-1.283-2.1c-.158-.562.251-.874.652-1.175.647-.488,1.529-.9,1.168-1.938s-1.316-.807-2.125-.811c-1.552-.008-3.107,0-4.659-.008-.733,0-1.525-.085-1.841.778-.334.909.286,1.4.963,1.818.2.127.394.276.589.419A.967.967,0,0,1,6.481,6.78C6,7.575,5.535,8.378,5.1,9.2a4.755,4.755,0,0,0,.741,5.46,4.5,4.5,0,0,0,5.412.886c1-.594,1.274-.143,1.617.587a8.085,8.085,0,0,1-11.321-3.98M11.58,13.585a.755.755,0,0,1-.438.992A3.7,3.7,0,0,1,5.8,9.918C6.32,8.837,6.917,7.791,7.529,6.759c.361-.61,1.015-.066,1.471-.272,1.054-.264,1.567.228,2.121,1.087.693,1.075,1.266,1.959.527,3.281a3.62,3.62,0,0,0-.068,2.729M5.651,3.8a.257.257,0,0,1-.135-.344.6.6,0,0,1,.548-.21c1,.006,1.992,0,2.988,0v0c.93,0,1.857,0,2.785,0,.218,0,.457.031.54.218.1.228-.139.361-.3.484a5.041,5.041,0,0,0-1.476,1.407c-.251.442-.76.125-1.131.232C7.679,6.1,6.865,4.518,5.651,3.8M12.3,12.311a4.507,4.507,0,1,1,9.013,0,4.6,4.6,0,0,1-4.4,4.478A4.6,4.6,0,0,1,12.3,12.311M25.136,26.1a2.932,2.932,0,0,1-2.094,2.947,2.98,2.98,0,0,1-3.4-1.339c-1.137-1.843-2.216-3.725-3.318-5.591-.909-1.538-1.824-3.073-2.719-4.62-.1-.17-.407-.374-.106-.608.174-.135.378-.06.573.058a5.21,5.21,0,0,0,3.47.708.951.951,0,0,1,.874.409c1.928,1.972,3.868,3.931,5.8,5.9a2.7,2.7,0,0,1,.919,2.131" transform="translate(0)" fill="#516bda"/>
    <path id="Path_11524" data-name="Path 11524" d="M70.765,50.958a6.521,6.521,0,0,0-.73.726c-.257.247-.384.535-.1.8.241.22.508.091.724-.127a10.594,10.594,0,0,0,.878-.876c.388-.49.708-.558,1.117-.021a10.582,10.582,0,0,0,.872.882c.249.253.537.374.8.085.226-.245.091-.506-.131-.72-.274-.264-.519-.558-.811-.8-.527-.434-.637-.816-.01-1.27a6.362,6.362,0,0,0,.88-.874c.2-.224.278-.5.021-.726a.47.47,0,0,0-.656.06,5.771,5.771,0,0,0-.733.726c-.515.677-.969.847-1.554.046a2.255,2.255,0,0,0-1.119-.944c-.1.039-.257.058-.334.147a.448.448,0,0,0,.008.573,6.427,6.427,0,0,0,.853.892c.581.479.739.911.023,1.415" transform="translate(-55.293 -37.983)" fill="#516bda"/>
    <path id="Path_11525" data-name="Path 11525" d="M38.113,40.072c-1.295-.49-.886-1.336-.9-2.223a.608.608,0,0,1,.579.459c.114.384.448.351.67.235.371-.2.068-.469-.025-.7-.253-.6-.959-.6-1.388-.99-.264-.245-.419.318-.737.369a1.338,1.338,0,0,0-1.141,1.39,1.44,1.44,0,0,0,1.1,1.55.553.553,0,0,1,.461.656c-.017.5,0,.994,0,1.54-.479-.079-.71-.295-.784-.6-.1-.411-.295-.677-.7-.442-.357.208-.091.533,0,.824.251.849,1.511.635,1.65,1.588.085-.035.253-.077.253-.1-.075-.668.531-.6.867-.814,1.023-.65,1.162-2.339.1-2.739M36.731,38.5a7.432,7.432,0,0,1,.012,1.038c-.658-.145-.9-.5-.818-1.06.05-.33.264-.643.587-.631.44.017.185.428.218.654m1.276,2.957c-.033.5-.224.83-.8.884V40.466c.641.147.834.479.8.992" transform="translate(-27.79 -29.158)" fill="#516bda"/>
  </g>
</svg>
