<svg xmlns="http://www.w3.org/2000/svg" xmlns:xlink="http://www.w3.org/1999/xlink" width="35.001" height="31.58" viewBox="0 0 35.001 31.58">
  <defs>
    <clipPath id="clip-path">
      <rect id="Rectangle_2310" data-name="Rectangle 2310" width="35.001" height="31.58" fill="#516ddd"/>
    </clipPath>
  </defs>
  <g id="Group_4970" data-name="Group 4970" transform="translate(0 0)">
    <g id="Group_4969" data-name="Group 4969" transform="translate(0 0)" clip-path="url(#clip-path)">
      <path id="Path_11586" data-name="Path 11586" d="M74.141,46.067a1.844,1.844,0,0,0-.2.04,0,0,0,0,1,0,0,.644.644,0,0,0,.109.089,5.119,5.119,0,0,0,1.224.558c.141-.182.279-.368.408-.558a3.447,3.447,0,0,0-1.055-.174,2.865,2.865,0,0,0-.493.04" transform="translate(-44.064 -27.429)" fill="#516ddd"/>
      <path id="Path_11587" data-name="Path 11587" d="M59.744,21.036a1.7,1.7,0,0,0-2.053.012c-.788.55-1.277,1.5-.715,2.231.917,1.2.784,2.465.836,3.77.024.582.251,1.034.869,1.071a1.525,1.525,0,0,0,.36-.057.826.826,0,0,0,.574-.675,1.608,1.608,0,0,0,.036-.348,6.065,6.065,0,0,1,.861-3.774c.521-.739.044-1.677-.768-2.231" transform="translate(-33.809 -12.334)" fill="#516ddd"/>
      <path id="Path_11588" data-name="Path 11588" d="M20.728,32.269c.044,0,.153-.008.358-.014a1.413,1.413,0,0,0,.024-2.825c-2.61-.04-1.176-.032-3.782-.008a1.421,1.421,0,1,0-.024,2.841c1.144.022,2.284.011,3.425.006" transform="translate(-9.448 -17.521)" fill="#516ddd"/>
      <path id="Path_11589" data-name="Path 11589" d="M28.268,36.491l-.386,0c-.242.018,1.518,0,.386,0" transform="translate(-16.602 -21.745)" fill="#516ddd"/>
      <path id="Path_11590" data-name="Path 11590" d="M5.551,29.411c.623-.012-.449-.015,0,0" transform="translate(-3.241 -17.521)" fill="#516ddd"/>
      <path id="Path_11591" data-name="Path 11591" d="M7.415,36.491l-.389,0c-.223.017,1.517-.005.389,0" transform="translate(-4.175 -21.745)" fill="#516ddd"/>
      <path id="Path_11592" data-name="Path 11592" d="M3.236,29.444c-.512-.008-.788-.014-.925-.019-.156,0-.417.006-.836.011a1.421,1.421,0,1,0-.024,2.841c1.114.021.678.011,1.4.006.042,0,.151-.008.361-.014a1.413,1.413,0,0,0,.024-2.824" transform="translate(0 -17.535)" fill="#516ddd"/>
      <path id="Path_11593" data-name="Path 11593" d="M39.605,21.354c-.642-.267-1.321-.449-1.964-.711a5.471,5.471,0,0,1-1.034-.537,1.9,1.9,0,0,1-.554-.554,1.736,1.736,0,0,1-.218-1.329c.162-.82.812-1.063,1.5-1.176a5.075,5.075,0,0,1,.812-.065,5.4,5.4,0,0,1,1.891.388c.121.044.238.1.356.15.4.182.954.642,1.212-.04a1.375,1.375,0,0,0-.364-1.754,3.235,3.235,0,0,0-.307-.182A15.625,15.625,0,0,0,41.5,14.02,24.712,24.712,0,0,0,42.442,4.6,1.3,1.3,0,0,0,40.9,3.211,10.469,10.469,0,0,1,33.532.488c-.865-.744-1.475-.574-2.255.085a9.1,9.1,0,0,1-6.19,2.554c-2.241-.1-2.827.835-2.674,2.761a1.653,1.653,0,0,0-.483-.079c-2.61-.04-5.217-.032-7.823-.008a1.321,1.321,0,0,0-1.471,1.507A1.318,1.318,0,0,0,14.083,8.64c1.273.025,2.542.008,3.81,0,1.337,0,2.679.028,4.012-.012a1.8,1.8,0,0,0,.512-.088A17.5,17.5,0,0,0,25.216,18l0,0q-3.343-.035-6.681,0a1.322,1.322,0,0,0-1.471,1.507,1.319,1.319,0,0,0,1.447,1.333c1.273.024,2.542.008,3.81,0,1.323,0,3.835.027,5.18-.011a23.6,23.6,0,0,0,3.409,2.9,2.227,2.227,0,0,0,3,.061c.194-.129.384-.263.574-.4a5.914,5.914,0,0,1-1.544-1.3,1.638,1.638,0,0,1-1.7-.4C26.016,17.823,24,12.566,24.27,6.234c.036-.853.287-1.156,1.148-1.208A11.454,11.454,0,0,0,31.548,2.7c.78-.574,1.257-.368,1.915.085a12.617,12.617,0,0,0,4.57,2.028c2.671.546,2.667.554,2.477,4.178a12.9,12.9,0,0,1-.2,2.78,13.041,13.041,0,0,1-.905,2.95,1.238,1.238,0,0,1,.02-.626c.133-.574.214-1.216-.768-1.265-.954-.044-1.22.388-1.16,1.22.048.642-.145.954-.885,1.107a3.551,3.551,0,0,0-3.164,3.309,3.441,3.441,0,0,0,.828,2.715,4.9,4.9,0,0,0,1.608,1.135c.048.024.1.044.15.069.881.388,1.806.679,2.683,1.071.905.408,1.6,1.043,1.362,2.15a2.021,2.021,0,0,1-2.049,1.56A6.059,6.059,0,0,1,34.3,26.43c-.8-.465-1.075-.125-1.156.679-.137,1.354.836,1.6,1.794,1.814.719.162,1.236.388.9,1.188.024.667-.327,1.414.772,1.467.941.044,1.241-.4,1.16-1.236s.234-1.148,1.115-1.289a3.976,3.976,0,0,0,3.621-3.629c.166-1.9-.756-3.172-2.905-4.069" transform="translate(-7.528 0)" fill="#516ddd"/>
    </g>
  </g>
</svg>
