<svg id="Group_4622" data-name="Group 4622" xmlns="http://www.w3.org/2000/svg" xmlns:xlink="http://www.w3.org/1999/xlink" width="29.477" height="29.238" viewBox="0 0 29.477 29.238">
  <defs>
    <clipPath id="clip-path">
      <rect id="Rectangle_400" data-name="Rectangle 400" width="29.477" height="29.238" fill="#24315f"/>
    </clipPath>
  </defs>
  <g id="Group_1302" data-name="Group 1302" clip-path="url(#clip-path)">
    <path id="Path_6335" data-name="Path 6335" d="M74.908,67.584a6.382,6.382,0,1,0-6.376,6.424,6.432,6.432,0,0,0,6.376-6.424m-7.079,4.532c.028.4-.113.438-.464.339a4.979,4.979,0,0,1-3.643-3.576c-.141-.469-.063-.6.414-.557a.709.709,0,0,0,.8-.477.659.659,0,0,0-.2-.734.918.918,0,0,0-.758-.184c-.311.026-.377-.079-.317-.385a5.17,5.17,0,0,1,3.782-3.78c.407-.079.393.122.378.391a.765.765,0,0,0,.533.9c.481.141.861-.221.862-.886,0-.426.112-.471.5-.359a4.987,4.987,0,0,1,3.641,3.662c.1.358.048.49-.343.463-.5-.035-.929.117-.923.706s.444.713.941.694c.246-.011.424-.023.36.347a5.154,5.154,0,0,1-3.823,3.815l-.148.027c-.3.009-.191-.237-.191-.381,0-.5-.109-.936-.7-.941s-.744.42-.707.921" transform="translate(-53.787 -53.007)" fill="#24315f"/>
    <path id="Path_6336" data-name="Path 6336" d="M8.9,167.46a2.167,2.167,0,0,0-1.76-2.477L2.575,165A2.182,2.182,0,0,0,.927,167.5c0,1.209,0,2.418,0,3.627,0,.763.136.893.913.9,2.06,0,4.119-.008,6.18.007.623,0,.9-.242.886-.878-.022-1.231-.005-2.462-.007-3.694" transform="translate(-0.802 -142.795)" fill="#24315f"/>
    <path id="Path_6337" data-name="Path 6337" d="M167.82,43.585a2.163,2.163,0,0,0-1.768-2.472H161.62a2.154,2.154,0,0,0-1.773,2.468c0,1.253.012,2.508,0,3.762-.008.566.239.824.8.824q3.191,0,6.381,0c.561,0,.808-.26.8-.823-.013-1.253,0-2.507,0-3.76" transform="translate(-138.347 -35.584)" fill="#24315f"/>
    <path id="Path_6338" data-name="Path 6338" d="M24.429,22.793c.66-.052.726-.538.721-1.071a8.924,8.924,0,0,1,.414-2.57,10.158,10.158,0,0,1,8.811-7.147c-.077.284-.34.407-.507.609a.68.68,0,0,0,0,1.017.651.651,0,0,0,1-.044c.6-.6,1.212-1.193,1.806-1.8a.693.693,0,0,0,.019-1.069c-.609-.625-1.224-1.245-1.855-1.849a.692.692,0,1,0-.964.994,4.764,4.764,0,0,0,.694.5l-.171.208A11.543,11.543,0,0,0,23.75,21.643c-.028.785.194,1.189.679,1.15" transform="translate(-20.554 -7.483)" fill="#24315f"/>
    <path id="Path_6339" data-name="Path 6339" d="M109.82,103.542c-.811.071-.709.715-.726,1.268a10.175,10.175,0,0,1-9.293,9.532c.215-.233.4-.422.568-.619a.669.669,0,0,0,0-1.014.652.652,0,0,0-1,.044c-.605.6-1.212,1.194-1.8,1.8a.672.672,0,0,0-.048,1.017q.926.972,1.9,1.9a.646.646,0,0,0,.963,0,.653.653,0,0,0,.035-.962c-.19-.237-.414-.444-.7-.744a11.573,11.573,0,0,0,10.779-10.877c.056-.967-.139-1.4-.666-1.35" transform="translate(-84.214 -89.614)" fill="#24315f"/>
    <path id="Path_6340" data-name="Path 6340" d="M160.788,2.206c.984.02,1.969.008,2.953-.011.328-.007.538.022.59.429a15.587,15.587,0,0,0,.35,1.635c.032.139-.017.343.2.378s.3-.153.391-.3a3.191,3.191,0,0,0,.473-1.516,2.539,2.539,0,0,0-2.3-2.792C162.1-.025,160.757.017,159.415,0c-.4,0-.5.176-.48.537a1.828,1.828,0,0,0,1.853,1.669" transform="translate(-137.559 0)" fill="#24315f"/>
    <path id="Path_6341" data-name="Path 6341" d="M1.887,125.988q1.477.024,2.953-.015c.36-.011.51.093.563.464.083.572.239,1.134.363,1.7.079.364.266.418.475.116a2.971,2.971,0,0,0,.327-2.933,2.273,2.273,0,0,0-2.1-1.521c-.646-.035-1.3-.007-1.945-.007v-.012c-.65,0-1.3.024-1.946-.008-.5-.024-.617.2-.569.646a1.851,1.851,0,0,0,1.877,1.571" transform="translate(0 -107.125)" fill="#24315f"/>
    <path id="Path_6342" data-name="Path 6342" d="M172.565,21.935c-.78.031-1.564.046-2.344,0-.526-.028-.479.226-.367.557a2.777,2.777,0,0,0,1.841,1.8,3.027,3.027,0,0,0,1.487,0c.132-.117.471-.02.324-.42a9.128,9.128,0,0,1-.362-1.487c-.063-.35-.219-.467-.58-.452" transform="translate(-146.948 -18.984)" fill="#24315f"/>
    <path id="Path_6343" data-name="Path 6343" d="M13.486,145.731c-.956.023-1.912.008-2.891.008A2.739,2.739,0,0,0,12.55,148.1a3.871,3.871,0,0,0,1.487,0c.094-.136.484-.02.331-.355a9.006,9.006,0,0,1-.4-1.617c-.071-.285-.169-.4-.485-.4" transform="translate(-9.17 -126.132)" fill="#24315f"/>
    <path id="Path_6344" data-name="Path 6344" d="M93.532,92.4c.543-.559,1.1-1.107,1.656-1.657a1.02,1.02,0,0,0,.309-.588.769.769,0,0,0-.346-.608.642.642,0,0,0-.753.023,6.809,6.809,0,0,0-.585.549c-.335.327-.616.819-1.013.943-.438.137-.861-.343-1.3-.527l-.121-.055a.672.672,0,0,0-.97.284c-.231.446-.038.768.377.982.554.285,1.112.559,1.664.845a.831.831,0,0,0,1.084-.19" transform="translate(-78.164 -77.411)" fill="#24315f"/>
  </g>
</svg>
