<svg xmlns="http://www.w3.org/2000/svg" xmlns:xlink="http://www.w3.org/1999/xlink" width="32.537" height="32.562" viewBox="0 0 32.537 32.562">
  <defs>
    <clipPath id="clip-path">
      <rect id="Rectangle_2090" data-name="Rectangle 2090" width="32.537" height="32.562" fill="#24315f"/>
    </clipPath>
  </defs>
  <g id="Group_4625" data-name="Group 4625" transform="translate(0 0)">
    <g id="Group_4411" data-name="Group 4411" transform="translate(0 0)" clip-path="url(#clip-path)">
      <path id="Path_10469" data-name="Path 10469" d="M2.187,8.39a2.171,2.171,0,1,0,2.156,2.194A2.166,2.166,0,0,0,2.187,8.39m.737,2.947a1.034,1.034,0,0,1-1.295.155,1.057,1.057,0,0,1-.52-1.14A1.072,1.072,0,0,1,3.1,10.018a1.03,1.03,0,0,1-.178,1.318" transform="translate(0 -1.884)" fill="#24315f"/>
      <path id="Path_10470" data-name="Path 10470" d="M4.4,15.615c.3,1.155.613,2.3.915,3.458.016.078.031.155.039.2a.523.523,0,0,1-.465.558.513.513,0,0,1-.6-.4v-.016c-.078-.287-.147-.566-.225-.845s-.147-.574-.225-.853c-.155-.6-.318-1.21-.481-1.822a.545.545,0,0,1,.155-.644.078.078,0,0,1,.054-.031.22.22,0,0,1,.085-.062.182.182,0,0,1,.062-.016l.008-.008a.5.5,0,0,1,.318.016.508.508,0,0,1,.217.171.344.344,0,0,1,.062.085.846.846,0,0,1,.085.209" transform="translate(-0.743 -3.394)" fill="#24315f"/>
      <path id="Path_10471" data-name="Path 10471" d="M8.59,32.008a3.726,3.726,0,0,1-.054,1.21,1.308,1.308,0,0,1-1.225.977c-1.31.008-2.613,0-3.924,0a.951.951,0,0,1-.481-.109A1.456,1.456,0,0,1,2.084,32.7a3.515,3.515,0,0,1,1.031-2.885c.147-.14.31-.248.473-.38a1.1,1.1,0,0,1,1.086-.209,2.228,2.228,0,0,0,1.52-.054.567.567,0,0,1,.45.023,3.072,3.072,0,0,1,1.148.861,3.042,3.042,0,0,1,.8,1.954" transform="translate(-0.463 -6.542)" fill="#24315f"/>
      <path id="Path_10472" data-name="Path 10472" d="M12.494,39.987l.062.023v.008c-.1.039-.209.085-.31.132h-.008v-.008H12.23v-.008a.461.461,0,0,1,.031-.062v-.008c.016-.023.023-.039.047-.047.005-.007.016-.007.023-.012a.136.136,0,0,1,.023-.019h.012a.211.211,0,0,1,.128,0" transform="translate(-2.746 -8.977)" fill="#24315f"/>
      <path id="Path_10473" data-name="Path 10473" d="M14.6,5.126a.73.73,0,0,1-.171.093Q11.8,6.417,9.19,7.631c-.613.287-1.225.574-1.838.845a.982.982,0,0,1-.178.062.527.527,0,0,1-.31,0,.429.429,0,0,1-.233-.155,1.125,1.125,0,0,1-.078-.14c-.14-.31-.023-.574.349-.744H6.91c2.365-1.093,4.715-2.179,7.072-3.272a.758.758,0,0,1,.558-.047.435.435,0,0,1,.155.093.486.486,0,0,1,.155.341v.008a.6.6,0,0,1-.248.5" transform="translate(-1.459 -0.931)" fill="#24315f"/>
      <path id="Path_10474" data-name="Path 10474" d="M20.382,0a2.171,2.171,0,1,0,2.14,2.2V2.171A2.171,2.171,0,0,0,20.382,0M21.1,2.947a.989.989,0,0,1-1.225.171,1.021,1.021,0,0,1-.6-1.093,1.119,1.119,0,0,1,.931-.938,1.031,1.031,0,0,1,1.1.6.992.992,0,0,1-.2,1.256" transform="translate(-4.082 0)" fill="#24315f"/>
      <path id="Path_10475" data-name="Path 10475" d="M21.895,21.3a3.254,3.254,0,0,1-1.21.527,3.288,3.288,0,0,1-3.831-2.613,3.051,3.051,0,0,1-.047-.372,3.239,3.239,0,0,1,3-3.443,2.981,2.981,0,0,1,.372,0,3.084,3.084,0,0,1,2.512,1.4,3.234,3.234,0,0,1-.8,4.505" transform="translate(-3.773 -3.456)" fill="#24315f"/>
      <path id="Path_10476" data-name="Path 10476" d="M25.734,28.976a.384.384,0,0,1,.031.1v.016a.5.5,0,0,1-.008.24.26.26,0,0,1-.039.109v.016a.578.578,0,0,1-.054.093v.008a.3.3,0,0,1-.07.07s-.012,0-.016.009a.547.547,0,0,1-.119.067.555.555,0,0,1-.095.036l-.01,0a.389.389,0,0,1-.093.016.377.377,0,0,1-.093.008.442.442,0,0,1-.1.008h-.023c-.45,0-.9,0-1.349-.008h-.062a.458.458,0,0,1-.109-.016.384.384,0,0,1-.1-.031.268.268,0,0,1-.093-.054.592.592,0,0,1-.085-.062V29.6c-.016-.023-.039-.047-.062-.078a.521.521,0,0,1-.054-.085v-.008a.445.445,0,0,1-.031-.109.378.378,0,0,1-.008-.093v-.031a.215.215,0,0,1,.008-.07v-.016a.059.059,0,0,1,.008-.031.144.144,0,0,1,.016-.054c0-.008.008-.016.008-.023a.027.027,0,0,1,.008-.016.067.067,0,0,1,.023-.047s-.008-.008,0-.008.008-.016.016-.031l.016-.016c0-.008.008-.016.016-.023s.008-.016.016-.016a.09.09,0,0,1,.047-.047.008.008,0,0,1,.008-.008c.008-.016.023-.023.031-.031h.008c.008-.016.023-.016.031-.023s.023-.016.039-.023.008-.008.016-.008.016-.008.023-.008l.008-.008a.24.24,0,0,0,.062-.016h.016a.115.115,0,0,1,.054-.008.047.047,0,0,1,.031-.008.378.378,0,0,1,.093.008c.129-.009.257,0,.386-.007.078,0,.158-.009.234-.009.028,0,.056,0,.084,0,.154,0,.306.008.458.018.119.008.235.022.353.035s.247.017.369.037l.031.031v.008a.275.275,0,0,1,.078.093.578.578,0,0,1,.054.093Z" transform="translate(-5.185 -6.433)" fill="#24315f"/>
      <path id="Path_10477" data-name="Path 10477" d="M32.188,8.48c-.962-.465-1.939-.892-2.908-1.342L25.17,5.246,25.077,5.2a.568.568,0,0,1-.364-.713.378.378,0,0,0,.023-.054.337.337,0,0,1,.093-.132.555.555,0,0,1,.644-.116c.016.008.023.016.039.023.768.349,1.535.706,2.3,1.062C29.4,6,31,6.735,32.591,7.472a.9.9,0,0,1,.31.2.459.459,0,0,1,.14.333.556.556,0,0,1-.558.558.519.519,0,0,1-.295-.085" transform="translate(-5.544 -0.927)" fill="#24315f"/>
      <path id="Path_10478" data-name="Path 10478" d="M36.347,24.235a1.623,1.623,0,0,1-2.272,2.319c-.016-.016-.031-.039-.047-.054a1.58,1.58,0,0,1,.016-2.233l.008-.008a1.619,1.619,0,0,1,2.3-.023" transform="translate(-7.539 -5.338)" fill="#24315f"/>
      <path id="Path_10479" data-name="Path 10479" d="M38.042,15.763c0,.008,0,.016-.008.016-.31,1.233-.636,2.458-.969,3.683a.5.5,0,0,1-.5.38.528.528,0,0,1-.551-.5,1.166,1.166,0,0,1,.016-.155c.31-1.225.636-2.458.977-3.676a.515.515,0,0,1,.636-.372.525.525,0,0,1,.4.628" transform="translate(-8.086 -3.394)" fill="#24315f"/>
      <path id="Path_10480" data-name="Path 10480" d="M38.562,8.39a2.171,2.171,0,1,0,2.14,2.2v-.031a2.171,2.171,0,0,0-2.14-2.171m.744,2.916a1,1,0,0,1-1.248.2,1.032,1.032,0,0,1-.6-1.062,1.108,1.108,0,0,1,.837-.946,1.072,1.072,0,0,1,1.171.52,1.023,1.023,0,0,1-.155,1.287" transform="translate(-8.165 -1.884)" fill="#24315f"/>
      <path id="Path_10481" data-name="Path 10481" d="M2.187,8.39a2.171,2.171,0,1,0,2.156,2.194A2.166,2.166,0,0,0,2.187,8.39m.737,2.947a1.034,1.034,0,0,1-1.295.155,1.057,1.057,0,0,1-.52-1.14A1.072,1.072,0,0,1,3.1,10.018a1.03,1.03,0,0,1-.178,1.318" transform="translate(0 -1.884)" fill="#24315f"/>
      <path id="Path_10482" data-name="Path 10482" d="M5.357,19.276a.523.523,0,0,1-.465.558.513.513,0,0,1-.6-.4v-.016c-.078-.287-.147-.566-.225-.845s-.147-.574-.225-.853c-.155-.6-.318-1.21-.481-1.822a.545.545,0,0,1,.155-.644.078.078,0,0,1,.054-.031.32.32,0,0,1,.085-.054.124.124,0,0,1,.062-.023.468.468,0,0,1,.326.008.508.508,0,0,1,.217.171.344.344,0,0,1,.062.085.846.846,0,0,1,.085.209c.3,1.155.613,2.3.915,3.458.016.078.031.155.039.2" transform="translate(-0.743 -3.394)" fill="#24315f"/>
      <path id="Path_10483" data-name="Path 10483" d="M14.851,4.616v.008a.6.6,0,0,1-.248.5.7.7,0,0,1-.171.085Q11.8,6.423,9.19,7.633c-.613.287-1.225.574-1.838.845a.982.982,0,0,1-.178.062.7.7,0,0,1-.31,0,.476.476,0,0,1-.233-.155,1.125,1.125,0,0,1-.078-.14c-.14-.31-.023-.574.349-.744H6.91q3.536-1.64,7.08-3.265a.78.78,0,0,1,.551-.054.634.634,0,0,1,.155.093.486.486,0,0,1,.155.341" transform="translate(-1.459 -0.933)" fill="#24315f"/>
      <path id="Path_10484" data-name="Path 10484" d="M20.382,0a2.171,2.171,0,1,0,2.14,2.2V2.171A2.171,2.171,0,0,0,20.382,0M21.1,2.947a.989.989,0,0,1-1.225.171,1.021,1.021,0,0,1-.6-1.093,1.119,1.119,0,0,1,.931-.938,1.031,1.031,0,0,1,1.1.6.992.992,0,0,1-.2,1.256" transform="translate(-4.082 0)" fill="#24315f"/>
      <path id="Path_10485" data-name="Path 10485" d="M33.041,8.007a.556.556,0,0,1-.558.558.519.519,0,0,1-.295-.085c-.962-.465-1.939-.892-2.908-1.342L25.17,5.246,25.077,5.2a.568.568,0,0,1-.364-.713.378.378,0,0,0,.023-.054h.008a.768.768,0,0,1,.085-.132.555.555,0,0,1,.644-.116c.016.008.023.016.039.023.768.349,1.535.706,2.3,1.062C29.4,6,31,6.735,32.591,7.472a.9.9,0,0,1,.31.2.459.459,0,0,1,.14.333" transform="translate(-5.544 -0.927)" fill="#24315f"/>
      <path id="Path_10486" data-name="Path 10486" d="M38.042,15.763c0,.008,0,.016-.008.016-.31,1.233-.636,2.458-.969,3.683a.5.5,0,0,1-.5.38.528.528,0,0,1-.551-.5,1.166,1.166,0,0,1,.016-.155c.31-1.225.636-2.458.977-3.676a.515.515,0,0,1,.636-.372.525.525,0,0,1,.4.628" transform="translate(-8.086 -3.394)" fill="#24315f"/>
      <path id="Path_10487" data-name="Path 10487" d="M25.726,28.991v-.008a.268.268,0,0,0-.054-.093v-.008a.406.406,0,0,0-.078-.085v-.016h-.008l-.016-.023v-.008a7.716,7.716,0,0,0-1.264-.1c-.2,0-.411.008-.62.023a.348.348,0,0,0-.085-.008h-.039c-.016,0-.023.008-.039.008h-.031a.534.534,0,0,0-.062.023h-.008c-.008.008-.016.008-.023.016s-.023.008-.031.016-.016.008-.023.016-.016,0-.023.016c0,0-.008-.008-.008,0a.169.169,0,0,0-.039.031.008.008,0,0,0-.008.008v.008a.206.206,0,0,0-.047.039c-.008,0-.008.008-.016.016s0,.008,0,.008c-.016.008-.016.016-.016.016s-.008.008-.008.016a.107.107,0,0,0-.023.031c-.008,0,0,.008,0,.008s-.016.016-.008.023c-.008.008-.016.016-.016.023a.027.027,0,0,0-.008.016c0,.008-.008.016-.008.023a.144.144,0,0,0-.016.054V29.1a.008.008,0,0,0-.008.008v.016a.215.215,0,0,0-.008.07v.031a.378.378,0,0,0,.008.093.445.445,0,0,0,.031.109v.008a.521.521,0,0,0,.054.085c.023.031.047.054.062.078V29.6a.592.592,0,0,0,.085.062.268.268,0,0,0,.093.054.384.384,0,0,0,.1.031.458.458,0,0,0,.109.016h.062c.45.008.9.008,1.349.008h.023a.442.442,0,0,0,.1-.008.377.377,0,0,0,.093-.008.389.389,0,0,0,.093-.016l.009,0a.539.539,0,0,0,.1-.036.547.547,0,0,0,.119-.067s.012,0,.016-.009a.3.3,0,0,0,.07-.07V29.55a.578.578,0,0,0,.054-.093v-.016a.26.26,0,0,0,.039-.109.5.5,0,0,0,.008-.24v-.008c-.016-.031-.023-.062-.039-.093" transform="translate(-5.185 -6.433)" fill="#24315f"/>
      <path id="Path_10488" data-name="Path 10488" d="M25.726,28.991v-.016a.32.32,0,0,0-.054-.085v-.016a.368.368,0,0,0-.078-.078v-.023l-.023-.016v-.008a7.716,7.716,0,0,0-1.264-.1c-.2,0-.411.008-.62.023a.348.348,0,0,0-.085-.008h-.039c-.016,0-.023.008-.039.008h-.031a.534.534,0,0,0-.062.023h-.008c-.008.008-.016.008-.023.016s-.023.008-.031.016a.028.028,0,0,0-.023.008l-.023.023s-.008-.008-.008,0a.169.169,0,0,0-.039.031.008.008,0,0,0-.008.008v.008a.206.206,0,0,0-.047.039c-.008,0-.008.008-.016.016s0,.008,0,.008c-.016.008-.016.016-.016.016s-.008.008-.008.016a.107.107,0,0,0-.023.031c-.008,0,0,.008,0,.008s-.016.016-.008.023c-.008.008-.016.016-.016.023a.027.027,0,0,0-.008.016c0,.008-.008.016-.008.023a.144.144,0,0,0-.016.054V29.1a.008.008,0,0,0-.008.008v.016a.215.215,0,0,0-.008.07v.031a.1.1,0,0,0,.008.047v.047a.445.445,0,0,0,.031.109v.008a.278.278,0,0,0,.054.078c-.008.008,0,.008,0,.008.023.031.047.054.062.078V29.6a.592.592,0,0,0,.085.062.268.268,0,0,0,.093.054.384.384,0,0,0,.1.031.458.458,0,0,0,.109.016c.016,0,.039-.008.062-.008.45.008.9.008,1.349.016h.023a.442.442,0,0,0,.1-.008.377.377,0,0,0,.093-.008.389.389,0,0,0,.093-.016.278.278,0,0,0,.085-.031.527.527,0,0,0,.141-.079s.01,0,.014-.006a.3.3,0,0,0,.07-.07V29.55a.578.578,0,0,0,.054-.093v-.016a.26.26,0,0,0,.039-.109.5.5,0,0,0,.008-.24v-.008c-.016-.031-.023-.062-.039-.093" transform="translate(-5.185 -6.433)" fill="#24315f"/>
      <path id="Path_10489" data-name="Path 10489" d="M25.726,28.991v-.016a.579.579,0,0,0-.054-.093v-.008a.406.406,0,0,0-.078-.085v-.016l-.023-.016v-.008a7.716,7.716,0,0,0-1.264-.1c-.2,0-.411.008-.62.023a.348.348,0,0,0-.085-.008h-.039c-.016,0-.023.008-.039.008h-.031a.534.534,0,0,0-.062.023h-.008c-.008.008-.016.008-.023.016s-.023.008-.031.016-.016.008-.023.016-.016,0-.023.016c0,0-.008-.008-.008,0a.169.169,0,0,0-.039.031.008.008,0,0,0-.008.008v.008a.206.206,0,0,0-.047.039c-.008,0-.008.008-.016.016s0,.008,0,.008c-.016.008-.016.016-.016.016s-.008.008-.008.016a.107.107,0,0,0-.023.031c-.008,0,0,.008,0,.008s-.016.016-.008.023c-.008.008-.016.016-.016.023a.027.027,0,0,0-.008.016c0,.008-.008.016-.008.023a.144.144,0,0,0-.016.054V29.1a.008.008,0,0,0-.008.008v.016a.215.215,0,0,0-.008.07v.031a.1.1,0,0,0,.008.047v.047a.445.445,0,0,0,.031.109v.008a.278.278,0,0,0,.054.078c-.008.008,0,.008,0,.008.023.031.047.054.062.078.031.023.054.047.085.07a.261.261,0,0,0,.093.047.39.39,0,0,0,.1.039c.031,0,.07.008.109.008h.062c.45.008.9.008,1.349.008h.124v-.008h.093a.389.389,0,0,0,.093-.016.278.278,0,0,0,.085-.031.492.492,0,0,0,.225-.155v-.016a.32.32,0,0,0,.054-.085v-.016a.26.26,0,0,0,.039-.109.5.5,0,0,0,.008-.24v-.008c-.016-.031-.023-.062-.039-.093" transform="translate(-5.185 -6.433)" fill="#24315f"/>
      <path id="Path_10490" data-name="Path 10490" d="M25.734,28.976v-.008h-.008a.32.32,0,0,0-.054-.085v-.008a.406.406,0,0,0-.078-.085v-.023l-.023-.016v-.008c-.122-.02-.246-.023-.369-.037s-.234-.027-.353-.035c-.153-.01-.3-.016-.458-.018-.028,0-.056,0-.084,0-.076,0-.157.006-.234.009-.129,0-.257,0-.386.007a.378.378,0,0,0-.093-.008.047.047,0,0,0-.031.008.115.115,0,0,0-.054.008h-.016a.24.24,0,0,1-.062.016l-.008.008c-.008,0-.016.008-.023.008s-.008.008-.016.008-.023.016-.039.023-.023.008-.031.023h-.008c-.008.008-.023.016-.031.031a.008.008,0,0,0-.008.008.09.09,0,0,0-.047.047c-.008,0-.008.008-.016.016s-.016.016-.016.023-.008.008-.008.016h-.008c-.008.016-.016.023-.016.031s0,.008,0,.008a.067.067,0,0,0-.023.047.027.027,0,0,0-.008.016c0,.008-.008.016-.008.023a.144.144,0,0,0-.016.054v.008a.028.028,0,0,0-.008.023v.016a.215.215,0,0,0-.008.07v.031a.1.1,0,0,0,.008.047v.047a.445.445,0,0,0,.031.109c.016.016.016.031.031.039,0,.016.016.031.023.047-.008.008,0,.008,0,.008.023.031.047.054.062.078a.382.382,0,0,0,.116.078.433.433,0,0,0,.062.039c.031.008.062.023.1.031h.023a.459.459,0,0,0,.147.008H23.7c.45.008.892.008,1.342.016h.023a.477.477,0,0,0,.1-.008l.186-.023c.031-.008.062-.016.085-.023a.492.492,0,0,0,.225-.155v-.016a.32.32,0,0,0,.054-.085v-.016a.608.608,0,0,0,.039-.109.5.5,0,0,0,.008-.24v-.016a.384.384,0,0,0-.031-.1" transform="translate(-5.185 -6.433)" fill="#24315f"/>
      <path id="Path_10491" data-name="Path 10491" d="M25.68,28.875a.275.275,0,0,0-.078-.093h-.008v-.008l-.023-.016v-.008a7.716,7.716,0,0,0-1.264-.1c-.2,0-.411.008-.62.023a.348.348,0,0,0-.085-.008h-.039c-.016,0-.023.008-.039.008h-.031a.534.534,0,0,0-.062.023h-.008c-.008.008-.016.008-.023.016s-.023.008-.031.016-.016.008-.023.016-.016,0-.023.016c0,0-.008-.008-.008,0a.169.169,0,0,0-.039.031.008.008,0,0,0-.008.008v.008a.206.206,0,0,0-.047.039c-.008,0-.008.008-.016.016s0,.008,0,.008c-.016.008-.016.016-.016.016s-.008.008-.008.016a.107.107,0,0,0-.023.031c-.008,0,0,.008,0,.008s-.016.016-.008.023c-.008.008-.016.016-.016.023a.027.027,0,0,0-.008.016.028.028,0,0,0-.008.023.144.144,0,0,0-.016.054V29.1a.008.008,0,0,0-.008.008v.016a.215.215,0,0,0-.008.07v.031a.1.1,0,0,0,.008.047v.047a.445.445,0,0,0,.031.109v.008a.278.278,0,0,0,.054.078c-.008.008,0,.008,0,.008a.2.2,0,0,0,.062.078c.031.023.054.047.085.07a.261.261,0,0,0,.093.047.39.39,0,0,0,.1.039c.031,0,.07.008.109.008h.062c.45.008.9.008,1.349.008h.124v-.008h.093a.389.389,0,0,0,.093-.016.278.278,0,0,0,.085-.031.492.492,0,0,0,.225-.155v-.016a.32.32,0,0,0,.054-.085v-.016a.608.608,0,0,0,.039-.109.5.5,0,0,0,.008-.24v-.016a.384.384,0,0,0-.031-.1v-.008h-.008l-.047-.093" transform="translate(-5.185 -6.433)" fill="#24315f"/>
      <path id="Path_10492" data-name="Path 10492" d="M25.6,28.78a.275.275,0,0,1,.078.093l.047.093h.008v.008a.384.384,0,0,1,.031.1v.016a.5.5,0,0,1-.008.24.608.608,0,0,1-.039.109v.016a.32.32,0,0,1-.054.085v.016a.492.492,0,0,1-.225.155c-.023.008-.054.016-.085.023l-.186.023a.477.477,0,0,1-.1.008h-.023c-.45-.008-.892-.008-1.342-.016h-.008c-.023,0-.039.008-.062.008a.153.153,0,0,1-.085-.016h-.023c-.039-.008-.07-.023-.1-.031a.433.433,0,0,1-.062-.039.382.382,0,0,1-.116-.078c-.016-.023-.039-.047-.062-.078,0,0-.008,0,0-.008-.008-.016-.023-.031-.023-.047-.016-.008-.016-.023-.031-.039a.445.445,0,0,1-.031-.109v-.047a.1.1,0,0,1-.008-.047v-.031a.215.215,0,0,1,.008-.07v-.016a.028.028,0,0,1,.008-.023v-.008a.144.144,0,0,1,.016-.054A.028.028,0,0,1,23.129,29c0-.008,0-.008.008-.016a.067.067,0,0,1,.023-.047s-.008-.008,0-.008.008-.016.016-.031h.008c0-.008,0-.016.008-.016s.008-.016.016-.023,0-.008.016-.016a.09.09,0,0,1,.047-.047.008.008,0,0,1,.008-.008.061.061,0,0,1,.031-.031h.008a.183.183,0,0,1,.07-.047c.008,0,.008-.008.016-.008s.016-.008.023-.008l.008-.008a.24.24,0,0,0,.062-.016h.016a.115.115,0,0,1,.054-.008.047.047,0,0,1,.031-.008.378.378,0,0,1,.093.008,8.064,8.064,0,0,1,1.884.078v.008l.023.016v.008H25.6Z" transform="translate(-5.185 -6.431)" fill="#24315f"/>
      <path id="Path_10493" data-name="Path 10493" d="M25.68,28.875a.275.275,0,0,0-.078-.093h-.008v-.008l-.023-.016v-.008a7.716,7.716,0,0,0-1.264-.1c-.2,0-.411.008-.62.023a.348.348,0,0,0-.085-.008h-.039c-.016,0-.023.008-.039.008h-.031a.534.534,0,0,0-.062.023h-.008c-.008.008-.016.008-.023.016s-.023.008-.031.016-.016.008-.023.016-.016,0-.023.016c0,0-.008-.008-.008,0a.169.169,0,0,0-.039.031.008.008,0,0,0-.008.008v.008a.206.206,0,0,0-.047.039c-.008,0-.008.008-.016.016s0,.008,0,.008c-.016.008-.016.016-.016.016s-.008.008-.008.016a.107.107,0,0,0-.023.031c-.008,0,0,.008,0,.008s-.016.016-.008.023c-.008.008-.016.016-.016.023a.027.027,0,0,0-.008.016.028.028,0,0,0-.008.023.144.144,0,0,0-.016.054V29.1a.008.008,0,0,0-.008.008v.016a.215.215,0,0,0-.008.07v.031a.1.1,0,0,0,.008.047v.047a.445.445,0,0,0,.031.109v.008a.278.278,0,0,0,.054.078c-.008.008,0,.008,0,.008a.2.2,0,0,0,.062.078c.031.023.054.047.085.07a.261.261,0,0,0,.093.047.39.39,0,0,0,.1.039c.031,0,.07.008.109.008h.062c.45.008.9.008,1.349.008h.124v-.008h.093a.389.389,0,0,0,.093-.016.278.278,0,0,0,.085-.031.492.492,0,0,0,.225-.155v-.016a.32.32,0,0,0,.054-.085v-.016a.608.608,0,0,0,.039-.109.5.5,0,0,0,.008-.24v-.016a.384.384,0,0,0-.031-.1v-.008h-.008l-.047-.093" transform="translate(-5.185 -6.433)" fill="#24315f"/>
      <path id="Path_10494" data-name="Path 10494" d="M25.6,28.78a.275.275,0,0,1,.078.093l.047.093h.008v.008a.384.384,0,0,1,.031.1v.016a.5.5,0,0,1-.008.24.608.608,0,0,1-.039.109v.016a.32.32,0,0,1-.054.085v.016a.492.492,0,0,1-.225.155c-.023.008-.054.016-.085.023l-.186.023a.477.477,0,0,1-.1.008h-.023c-.45-.008-.892-.008-1.342-.016h-.008c-.023,0-.039.008-.062.008a.153.153,0,0,1-.085-.016h-.023c-.039-.008-.07-.023-.1-.031a.433.433,0,0,1-.062-.039.382.382,0,0,1-.116-.078c-.016-.023-.039-.047-.062-.078,0,0-.008,0,0-.008-.008-.016-.023-.031-.023-.047-.016-.008-.016-.023-.031-.039a.445.445,0,0,1-.031-.109v-.047a.1.1,0,0,1-.008-.047v-.031a.215.215,0,0,1,.008-.07v-.016a.028.028,0,0,1,.008-.023v-.008a.144.144,0,0,1,.016-.054A.028.028,0,0,1,23.129,29c0-.008,0-.008.008-.016a.067.067,0,0,1,.023-.047s-.008-.008,0-.008.008-.016.016-.031h.008c0-.008,0-.016.008-.016s.008-.016.016-.023,0-.008.016-.016a.09.09,0,0,1,.047-.047.008.008,0,0,1,.008-.008.061.061,0,0,1,.031-.031h.008a.183.183,0,0,1,.07-.047c.008,0,.008-.008.016-.008s.016-.008.023-.008l.008-.008a.24.24,0,0,0,.062-.016h.016a.115.115,0,0,1,.054-.008.047.047,0,0,1,.031-.008.378.378,0,0,1,.093.008,8.064,8.064,0,0,1,1.884.078v.008l.023.016v.008H25.6Z" transform="translate(-5.185 -6.431)" fill="#24315f"/>
      <path id="Path_10495" data-name="Path 10495" d="M25.571,28.749v.008l.023.016v.008H25.6a.275.275,0,0,1,.078.093l.047.093h.008v.008a.384.384,0,0,1,.031.1v.016a.5.5,0,0,1-.008.24.608.608,0,0,1-.039.109v.016a.32.32,0,0,1-.054.085v.016a.492.492,0,0,1-.225.155c-.023.008-.054.016-.085.023l-.186.023a.477.477,0,0,1-.1.008h-.023c-.45-.008-.892-.008-1.342-.016h-.008c-.023,0-.039.008-.062.008a.153.153,0,0,1-.085-.016h-.023c-.039-.008-.07-.023-.1-.031a.433.433,0,0,1-.062-.039.382.382,0,0,1-.116-.078c-.016-.023-.039-.047-.062-.078,0,0-.008,0,0-.008-.008-.016-.023-.031-.023-.047-.016-.008-.016-.023-.031-.039a.445.445,0,0,1-.031-.109v-.047a.1.1,0,0,1-.008-.047v-.031a.215.215,0,0,1,.008-.07v-.016a.028.028,0,0,1,.008-.023v-.008a.144.144,0,0,1,.016-.054A.028.028,0,0,1,23.129,29c0-.008,0-.008.008-.016a.067.067,0,0,1,.023-.047s-.008-.008,0-.008.008-.016.016-.031h.008c0-.008,0-.016.008-.016s.008-.016.016-.023,0-.008.016-.016a.09.09,0,0,1,.047-.047.008.008,0,0,1,.008-.008.061.061,0,0,1,.031-.031h.008a.183.183,0,0,1,.07-.047c.008,0,.008-.008.016-.008s.016-.008.023-.008l.008-.008a.24.24,0,0,0,.062-.016h.016a.115.115,0,0,1,.054-.008.047.047,0,0,1,.031-.008.378.378,0,0,1,.093.008,8.064,8.064,0,0,1,1.884.078Z" transform="translate(-5.185 -6.431)" fill="#24315f"/>
      <path id="Path_10496" data-name="Path 10496" d="M37.905,33.188A1.218,1.218,0,0,1,36.649,34.2c-1.287.016-2.574,0-3.862,0a.92.92,0,0,1-.512-.132,1.152,1.152,0,0,1-.791-1.039,3.765,3.765,0,0,1,.6-2.737,3.4,3.4,0,0,1,1.1-.969A.913.913,0,0,1,34,29.21a2.269,2.269,0,0,0,1.551-.031.567.567,0,0,1,.45.016,3.088,3.088,0,0,1,1.217.938,3.542,3.542,0,0,1,.682,3.047Z" transform="translate(-7.058 -6.543)" fill="#24315f"/>
      <path id="Path_10497" data-name="Path 10497" d="M34.044,24.266a1.58,1.58,0,0,0-.016,2.233c.016.016.031.039.047.054a1.623,1.623,0,1,0-.023-2.3Z" transform="translate(-7.539 -5.338)" fill="#24315f"/>
      <path id="Path_10498" data-name="Path 10498" d="M25.99,35.8c0-1.582-.008-3.164,0-4.746a7.574,7.574,0,0,0-.147-1.512,6.784,6.784,0,0,0-2.1-3.738,5.847,5.847,0,0,0-1.962-1.295c-.186-.085-.38-.279-.582-.155a5.45,5.45,0,0,1-1.8.62,4.546,4.546,0,0,1-2.691-.613.24.24,0,0,0-.217-.039,3.49,3.49,0,0,0-1.132.582c-.1-.016-.171.054-.24.1a6.845,6.845,0,0,0-3.21,5.606c-.078,1.752-.023,3.52-.016,5.273a.864.864,0,0,0,.256.729l.008.008v.008h.008a.5.5,0,0,0,.318.217,1.776,1.776,0,0,0,1.062-.047l7.3-1.97c.713-.194,1.435-.372,2.148-.582a1.127,1.127,0,0,0-.458-2.2c-1.365.326-2.722.7-4.079,1.055-.085.016-.178.023-.264.047q-1.977.512-3.955,1.016c-.008,0-.008,0-.016.008a.528.528,0,0,1-.675-.326.378.378,0,0,1-.023-.054.508.508,0,0,1,.326-.636.28.28,0,0,0,.2-.326V31.042c.008-.4.2-.636.543-.636s.543.225.543.628c.008.512.008,1.016,0,1.528,0,.171.039.248.233.194l5.2-1.349c.69-.116,1.342-.388,2.039-.458.124-.016.124-.109.163-.186a.515.515,0,0,1,.62-.333.492.492,0,0,1,.426.558.434.434,0,0,0,.186.4,2.1,2.1,0,0,1,.868,2.1,2.144,2.144,0,0,1-1.605,1.822c-.38.109-.768.2-1.14.31-.326.085-.651.178-.977.271,1.179.372,2.334.7,3.5.977.853.209,1.334-.209,1.334-1.078Z" transform="translate(-2.665 -5.46)" fill="#24315f"/>
      <path id="Path_10499" data-name="Path 10499" d="M21.895,21.3a3.234,3.234,0,0,0,.8-4.505,3.084,3.084,0,0,0-2.512-1.4,2.981,2.981,0,0,0-.372,0,3.239,3.239,0,0,0-3,3.443,3.051,3.051,0,0,0,.047.372,3.288,3.288,0,0,0,3.831,2.613,3.254,3.254,0,0,0,1.21-.527" transform="translate(-3.773 -3.456)" fill="#24315f"/>
      <path id="Path_10500" data-name="Path 10500" d="M2.906,34.086A1.456,1.456,0,0,1,2.084,32.7a3.515,3.515,0,0,1,1.031-2.885c.147-.14.31-.248.473-.38a1.1,1.1,0,0,1,1.086-.209,2.228,2.228,0,0,0,1.52-.054.567.567,0,0,1,.45.023,3.072,3.072,0,0,1,1.148.861,3.042,3.042,0,0,1,.8,1.954,3.726,3.726,0,0,1-.054,1.21,1.308,1.308,0,0,1-1.225.977c-1.31.008-2.613,0-3.924,0a.951.951,0,0,1-.481-.109" transform="translate(-0.463 -6.542)" fill="#24315f"/>
      <path id="Path_10501" data-name="Path 10501" d="M5.084,23.97a1.441,1.441,0,0,1,1.752.209,1.568,1.568,0,0,1,.295,2.194,1.821,1.821,0,0,1-.357.333,1.516,1.516,0,0,1-1.683.124A1.6,1.6,0,0,1,4.2,25.4a1.558,1.558,0,0,1,.171-.713,1.605,1.605,0,0,1,.713-.721Z" transform="translate(-0.943 -5.336)" fill="#24315f"/>
      <path id="Path_10502" data-name="Path 10502" d="M32.145,27.345h-.008a4.219,4.219,0,0,0-1.977-3.606c-.233-.155-.256-.233-.093-.465A2.707,2.707,0,0,0,25.546,20.3a2.222,2.222,0,0,0-.2.38,2.6,2.6,0,0,0,.24,2.668c.062.1.209.186-.008.31a4.266,4.266,0,0,0-1.349,1.256A8.691,8.691,0,0,0,23.5,23.2a.334.334,0,0,1,.023-.45,1.374,1.374,0,0,0,.209-1.4,1.964,1.964,0,0,1,1.031-2.528,1.372,1.372,0,0,0,.822-1.086,6.236,6.236,0,0,0,.047-1.318,1.531,1.531,0,0,0-.931-1.481,1.946,1.946,0,0,1-.993-2.435,1.393,1.393,0,0,0-.171-1.435,5.777,5.777,0,0,0-1.155-1.186,1.436,1.436,0,0,0-1.466-.2A1.964,1.964,0,0,1,18.5,8.642a1.419,1.419,0,0,0-1.179-.892,5.732,5.732,0,0,0-1.784,0,1.417,1.417,0,0,0-1.2.915,1.966,1.966,0,0,1-2.4,1.024,1.412,1.412,0,0,0-1.435.178,5.236,5.236,0,0,0-1.233,1.248,1.383,1.383,0,0,0-.155,1.349,1.951,1.951,0,0,1-1.016,2.5,1.333,1.333,0,0,0-.822,1.039,5.465,5.465,0,0,0-.039,1.59,1.474,1.474,0,0,0,.985,1.295,1.982,1.982,0,0,1,.946,2.3,1.505,1.505,0,0,0,.178,1.621.226.226,0,0,1,.047.3,8.43,8.43,0,0,0-.783,1.8,4.088,4.088,0,0,0-1.233-1.186c-.217-.132-.248-.209-.1-.442a2.7,2.7,0,0,0-.752-3.745,2.654,2.654,0,0,0-1.466-.45A2.7,2.7,0,0,0,2.8,23.313c.147.217.093.279-.093.388a4.14,4.14,0,0,0-1.016.892,4.785,4.785,0,0,0-1.008,3.35A2.468,2.468,0,0,0,3.1,30.462h3.11a3.284,3.284,0,0,0,2.086-.426c0,.768-.016,1.466,0,2.163a1.946,1.946,0,0,0,1.776,2.039,3.373,3.373,0,0,0,1.272-.124l4.823-1.3a.9.9,0,0,1,.5,0c.752.209,1.5.411,2.249.6,1.047.271,2.078.62,3.141.814a1.987,1.987,0,0,0,2.412-1.4,3.052,3.052,0,0,0,.093-.837V30.059a2.57,2.57,0,0,0,1.295.4c1.3.008,2.6.008,3.9,0a2.428,2.428,0,0,0,2.35-1.97,4.731,4.731,0,0,0,.047-1.148M8.626,17.877v.008a.406.406,0,0,1-.31-.4c-.023-.256-.023-.52-.031-.775a.81.81,0,0,1,.535-.892,2.94,2.94,0,0,0,1.5-2.288,1.981,1.981,0,0,0-.132-1.318.511.511,0,0,1,.1-.644c.14-.155.287-.31.434-.473a.874.874,0,0,1,1.148-.295,3.112,3.112,0,0,0,3.4-1.574c.085-.256.225-.442.535-.4a3.681,3.681,0,0,1,1.427.008.327.327,0,0,1,.264.233,2.5,2.5,0,0,0,.977,1.241,5.253,5.253,0,0,0,1.535.574h.008c.078.008.147.008.225.016h.008a2.349,2.349,0,0,0,1.055-.2.377.377,0,0,1,.434.07,4.572,4.572,0,0,1,.9.915.415.415,0,0,1,.047.442,3.062,3.062,0,0,0,1.582,3.823.393.393,0,0,1,.24.295,4.647,4.647,0,0,1,.047.806A.855.855,0,0,1,24,18a2.9,2.9,0,0,0-1.473,2.226,2.088,2.088,0,0,0,.132,1.388.438.438,0,0,1,.031.4,10.082,10.082,0,0,0-1.807-1.636l-.938-.512c-.147-.054-.287-.085-.124-.287a4.318,4.318,0,0,0-.512-5.909.3.3,0,0,1-.062-.078,4.432,4.432,0,0,0-2.807-1.024,4.16,4.16,0,0,0-3.893,2.412,4.115,4.115,0,0,0,.4,4.5c.155.225.163.295-.1.419a7.855,7.855,0,0,0-2.474,1.853c-.062.078-.132.147-.225.248a.344.344,0,0,1,.023-.364,3.131,3.131,0,0,0-1.543-3.761" transform="translate(-0.15 -1.724)" fill="#24315f"/>
      <path id="Path_10503" data-name="Path 10503" d="M25.68,28.875a.275.275,0,0,0-.078-.093h-.008v-.008l-.023-.016v-.008a7.716,7.716,0,0,0-1.264-.1c-.2,0-.411.008-.62.023a.348.348,0,0,0-.085-.008h-.039c-.016,0-.023.008-.039.008h-.031a.534.534,0,0,0-.062.023h-.008c-.008.008-.016.008-.023.016s-.023.008-.031.016-.016.008-.023.016-.016,0-.023.016c0,0-.008-.008-.008,0a.169.169,0,0,0-.039.031.008.008,0,0,0-.008.008v.008a.206.206,0,0,0-.047.039c-.008,0-.008.008-.016.016s0,.008,0,.008c-.016.008-.016.016-.016.016s-.008.008-.008.016a.107.107,0,0,0-.023.031c-.008,0,0,.008,0,.008s-.016.016-.008.023c-.008.008-.016.016-.016.023a.027.027,0,0,0-.008.016.028.028,0,0,0-.008.023.144.144,0,0,0-.016.054V29.1a.008.008,0,0,0-.008.008v.016a.215.215,0,0,0-.008.07v.031a.1.1,0,0,0,.008.047v.047a.445.445,0,0,0,.031.109v.008a.278.278,0,0,0,.054.078c-.008.008,0,.008,0,.008a.2.2,0,0,0,.062.078c.031.023.054.047.085.07a.261.261,0,0,0,.093.047.39.39,0,0,0,.1.039c.031,0,.07.008.109.008h.062c.45.008.9.008,1.349.008h.124v-.008h.093a.389.389,0,0,0,.093-.016.278.278,0,0,0,.085-.031.492.492,0,0,0,.225-.155v-.016a.32.32,0,0,0,.054-.085v-.016a.608.608,0,0,0,.039-.109.5.5,0,0,0,.008-.24v-.016a.384.384,0,0,0-.031-.1v-.008h-.008l-.047-.093" transform="translate(-5.185 -6.433)" fill="#24315f"/>
      <path id="Path_10504" data-name="Path 10504" d="M25.6,28.78a.275.275,0,0,1,.078.093l.047.093h.008v.008a.384.384,0,0,1,.031.1v.016a.5.5,0,0,1-.008.24.608.608,0,0,1-.039.109v.016a.32.32,0,0,1-.054.085v.016a.492.492,0,0,1-.225.155c-.023.008-.054.016-.085.023l-.186.023a.477.477,0,0,1-.1.008h-.023c-.45-.008-.892-.008-1.342-.016h-.008c-.023,0-.039.008-.062.008a.153.153,0,0,1-.085-.016h-.023c-.039-.008-.07-.023-.1-.031a.433.433,0,0,1-.062-.039.382.382,0,0,1-.116-.078c-.016-.023-.039-.047-.062-.078,0,0-.008,0,0-.008-.008-.016-.023-.031-.023-.047-.016-.008-.016-.023-.031-.039a.445.445,0,0,1-.031-.109v-.047a.1.1,0,0,1-.008-.047v-.031a.215.215,0,0,1,.008-.07v-.016a.028.028,0,0,1,.008-.023v-.008a.144.144,0,0,1,.016-.054A.028.028,0,0,1,23.129,29c0-.008,0-.008.008-.016a.067.067,0,0,1,.023-.047s-.008-.008,0-.008.008-.016.016-.031h.008c0-.008,0-.016.008-.016s.008-.016.016-.023,0-.008.016-.016a.09.09,0,0,1,.047-.047.008.008,0,0,1,.008-.008.061.061,0,0,1,.031-.031h.008a.183.183,0,0,1,.07-.047c.008,0,.008-.008.016-.008s.016-.008.023-.008l.008-.008a.24.24,0,0,0,.062-.016h.016a.115.115,0,0,1,.054-.008.047.047,0,0,1,.031-.008.378.378,0,0,1,.093.008,8.064,8.064,0,0,1,1.884.078v.008l.023.016v.008H25.6Z" transform="translate(-5.185 -6.431)" fill="#24315f"/>
      <path id="Path_10505" data-name="Path 10505" d="M25.68,28.875a.275.275,0,0,0-.078-.093h-.008v-.008l-.023-.016v-.008a7.716,7.716,0,0,0-1.264-.1c-.2,0-.411.008-.62.023a.348.348,0,0,0-.085-.008h-.039c-.016,0-.023.008-.039.008h-.031a.534.534,0,0,0-.062.023h-.008c-.008.008-.016.008-.023.016s-.023.008-.031.016-.016.008-.023.016-.016,0-.023.016c0,0-.008-.008-.008,0a.169.169,0,0,0-.039.031.008.008,0,0,0-.008.008v.008a.206.206,0,0,0-.047.039c-.008,0-.008.008-.016.016s0,.008,0,.008c-.016.008-.016.016-.016.016s-.008.008-.008.016a.107.107,0,0,0-.023.031c-.008,0,0,.008,0,.008s-.016.016-.008.023c-.008.008-.016.016-.016.023a.027.027,0,0,0-.008.016.028.028,0,0,0-.008.023.144.144,0,0,0-.016.054V29.1a.008.008,0,0,0-.008.008v.016a.215.215,0,0,0-.008.07v.031a.1.1,0,0,0,.008.047v.047a.445.445,0,0,0,.031.109v.008a.278.278,0,0,0,.054.078c-.008.008,0,.008,0,.008a.2.2,0,0,0,.062.078c.031.023.054.047.085.07a.261.261,0,0,0,.093.047.39.39,0,0,0,.1.039c.031,0,.07.008.109.008h.062c.45.008.9.008,1.349.008h.124v-.008h.093a.389.389,0,0,0,.093-.016.278.278,0,0,0,.085-.031.492.492,0,0,0,.225-.155v-.016a.32.32,0,0,0,.054-.085v-.016a.608.608,0,0,0,.039-.109.5.5,0,0,0,.008-.24v-.016a.384.384,0,0,0-.031-.1v-.008h-.008l-.047-.093" transform="translate(-5.185 -6.433)" fill="#24315f"/>
      <path id="Path_10506" data-name="Path 10506" d="M25.6,28.78a.275.275,0,0,1,.078.093l.047.093h.008v.008a.384.384,0,0,1,.031.1v.016a.5.5,0,0,1-.008.24.608.608,0,0,1-.039.109v.016a.32.32,0,0,1-.054.085v.016a.492.492,0,0,1-.225.155c-.023.008-.054.016-.085.023l-.186.023a.477.477,0,0,1-.1.008h-.023c-.45-.008-.892-.008-1.342-.016h-.008c-.023,0-.039.008-.062.008a.153.153,0,0,1-.085-.016h-.023c-.039-.008-.07-.023-.1-.031a.433.433,0,0,1-.062-.039.382.382,0,0,1-.116-.078c-.016-.023-.039-.047-.062-.078,0,0-.008,0,0-.008-.008-.016-.023-.031-.023-.047-.016-.008-.016-.023-.031-.039a.445.445,0,0,1-.031-.109v-.047a.1.1,0,0,1-.008-.047v-.031a.215.215,0,0,1,.008-.07v-.016a.028.028,0,0,1,.008-.023v-.008a.144.144,0,0,1,.016-.054A.028.028,0,0,1,23.129,29c0-.008,0-.008.008-.016a.067.067,0,0,1,.023-.047s-.008-.008,0-.008.008-.016.016-.031h.008c0-.008,0-.016.008-.016s.008-.016.016-.023,0-.008.016-.016a.09.09,0,0,1,.047-.047.008.008,0,0,1,.008-.008.061.061,0,0,1,.031-.031h.008a.183.183,0,0,1,.07-.047c.008,0,.008-.008.016-.008s.016-.008.023-.008l.008-.008a.24.24,0,0,0,.062-.016h.016a.115.115,0,0,1,.054-.008.047.047,0,0,1,.031-.008.378.378,0,0,1,.093.008,8.064,8.064,0,0,1,1.884.078v.008l.023.016v.008H25.6Z" transform="translate(-5.185 -6.431)" fill="#24315f"/>
      <path id="Path_10507" data-name="Path 10507" d="M25.68,28.875a.275.275,0,0,0-.078-.093h-.008v-.008l-.023-.016v-.008a7.716,7.716,0,0,0-1.264-.1c-.2,0-.411.008-.62.023a.348.348,0,0,0-.085-.008h-.039c-.016,0-.023.008-.039.008h-.031a.534.534,0,0,0-.062.023h-.008c-.008.008-.016.008-.023.016s-.023.008-.031.016-.016.008-.023.016-.016,0-.023.016c0,0-.008-.008-.008,0a.169.169,0,0,0-.039.031.008.008,0,0,0-.008.008v.008a.206.206,0,0,0-.047.039c-.008,0-.008.008-.016.016s0,.008,0,.008c-.016.008-.016.016-.016.016s-.008.008-.008.016a.107.107,0,0,0-.023.031c-.008,0,0,.008,0,.008s-.016.016-.008.023c-.008.008-.016.016-.016.023a.027.027,0,0,0-.008.016.028.028,0,0,0-.008.023.144.144,0,0,0-.016.054V29.1a.008.008,0,0,0-.008.008v.016a.215.215,0,0,0-.008.07v.031a.1.1,0,0,0,.008.047v.047a.445.445,0,0,0,.031.109v.008a.278.278,0,0,0,.054.078c-.008.008,0,.008,0,.008a.2.2,0,0,0,.062.078c.031.023.054.047.085.07a.261.261,0,0,0,.093.047.39.39,0,0,0,.1.039c.031,0,.07.008.109.008h.062c.45.008.9.008,1.349.008h.124v-.008h.093a.389.389,0,0,0,.093-.016.278.278,0,0,0,.085-.031.492.492,0,0,0,.225-.155v-.016a.32.32,0,0,0,.054-.085v-.016a.608.608,0,0,0,.039-.109.5.5,0,0,0,.008-.24v-.016a.384.384,0,0,0-.031-.1v-.008h-.008l-.047-.093" transform="translate(-5.185 -6.433)" fill="#24315f"/>
      <path id="Path_10508" data-name="Path 10508" d="M25.6,28.78a.275.275,0,0,1,.078.093l.047.093h.008v.008a.384.384,0,0,1,.031.1v.016a.5.5,0,0,1-.008.24.608.608,0,0,1-.039.109v.016a.32.32,0,0,1-.054.085v.016a.492.492,0,0,1-.225.155c-.023.008-.054.016-.085.023l-.186.023a.477.477,0,0,1-.1.008h-.023c-.45-.008-.892-.008-1.342-.016h-.008c-.023,0-.039.008-.062.008a.153.153,0,0,1-.085-.016h-.023c-.039-.008-.07-.023-.1-.031a.433.433,0,0,1-.062-.039.382.382,0,0,1-.116-.078c-.016-.023-.039-.047-.062-.078,0,0-.008,0,0-.008-.008-.016-.023-.031-.023-.047-.016-.008-.016-.023-.031-.039a.445.445,0,0,1-.031-.109v-.047a.1.1,0,0,1-.008-.047v-.031a.215.215,0,0,1,.008-.07v-.016a.028.028,0,0,1,.008-.023v-.008a.144.144,0,0,1,.016-.054A.028.028,0,0,1,23.129,29c0-.008,0-.008.008-.016a.067.067,0,0,1,.023-.047s-.008-.008,0-.008.008-.016.016-.031h.008c0-.008,0-.016.008-.016s.008-.016.016-.023,0-.008.016-.016a.09.09,0,0,1,.047-.047.008.008,0,0,1,.008-.008.061.061,0,0,1,.031-.031h.008a.183.183,0,0,1,.07-.047c.008,0,.008-.008.016-.008s.016-.008.023-.008l.008-.008a.24.24,0,0,0,.062-.016h.016a.115.115,0,0,1,.054-.008.047.047,0,0,1,.031-.008.378.378,0,0,1,.093.008,8.064,8.064,0,0,1,1.884.078v.008l.023.016v.008H25.6Z" transform="translate(-5.185 -6.431)" fill="#24315f"/>
      <path id="Path_10509" data-name="Path 10509" d="M25.68,28.875a.275.275,0,0,0-.078-.093h-.008v-.008l-.023-.016v-.008a7.716,7.716,0,0,0-1.264-.1c-.2,0-.411.008-.62.023a.348.348,0,0,0-.085-.008h-.039c-.016,0-.023.008-.039.008h-.031a.534.534,0,0,0-.062.023h-.008c-.008.008-.016.008-.023.016s-.023.008-.031.016-.016.008-.023.016-.016,0-.023.016c0,0-.008-.008-.008,0a.169.169,0,0,0-.039.031.008.008,0,0,0-.008.008v.008a.206.206,0,0,0-.047.039c-.008,0-.008.008-.016.016s0,.008,0,.008c-.016.008-.016.016-.016.016s-.008.008-.008.016a.107.107,0,0,0-.023.031c-.008,0,0,.008,0,.008s-.016.016-.008.023c-.008.008-.016.016-.016.023a.027.027,0,0,0-.008.016.028.028,0,0,0-.008.023.144.144,0,0,0-.016.054V29.1a.008.008,0,0,0-.008.008v.016a.215.215,0,0,0-.008.07v.031a.1.1,0,0,0,.008.047v.047a.445.445,0,0,0,.031.109v.008a.278.278,0,0,0,.054.078c-.008.008,0,.008,0,.008a.2.2,0,0,0,.062.078c.031.023.054.047.085.07a.261.261,0,0,0,.093.047.39.39,0,0,0,.1.039c.031,0,.07.008.109.008h.062c.45.008.9.008,1.349.008h.124v-.008h.093a.389.389,0,0,0,.093-.016.278.278,0,0,0,.085-.031.492.492,0,0,0,.225-.155v-.016a.32.32,0,0,0,.054-.085v-.016a.608.608,0,0,0,.039-.109.5.5,0,0,0,.008-.24v-.016a.384.384,0,0,0-.031-.1v-.008h-.008l-.047-.093" transform="translate(-5.185 -6.433)" fill="#24315f"/>
      <path id="Path_10510" data-name="Path 10510" d="M25.6,28.78a.275.275,0,0,1,.078.093l.047.093h.008v.008a.384.384,0,0,1,.031.1v.016a.5.5,0,0,1-.008.24.608.608,0,0,1-.039.109v.016a.32.32,0,0,1-.054.085v.016a.492.492,0,0,1-.225.155c-.023.008-.054.016-.085.023l-.186.023a.477.477,0,0,1-.1.008h-.023c-.45-.008-.892-.008-1.342-.016h-.008c-.023,0-.039.008-.062.008a.153.153,0,0,1-.085-.016h-.023c-.039-.008-.07-.023-.1-.031a.433.433,0,0,1-.062-.039.382.382,0,0,1-.116-.078c-.016-.023-.039-.047-.062-.078,0,0-.008,0,0-.008-.008-.016-.023-.031-.023-.047-.016-.008-.016-.023-.031-.039a.445.445,0,0,1-.031-.109v-.047a.1.1,0,0,1-.008-.047v-.031a.215.215,0,0,1,.008-.07v-.016a.028.028,0,0,1,.008-.023v-.008a.144.144,0,0,1,.016-.054A.028.028,0,0,1,23.129,29c0-.008,0-.008.008-.016a.067.067,0,0,1,.023-.047s-.008-.008,0-.008.008-.016.016-.031h.008c0-.008,0-.016.008-.016s.008-.016.016-.023,0-.008.016-.016a.09.09,0,0,1,.047-.047.008.008,0,0,1,.008-.008.061.061,0,0,1,.031-.031h.008a.183.183,0,0,1,.07-.047c.008,0,.008-.008.016-.008s.016-.008.023-.008l.008-.008a.24.24,0,0,0,.062-.016h.016a.115.115,0,0,1,.054-.008.047.047,0,0,1,.031-.008.378.378,0,0,1,.093.008,8.064,8.064,0,0,1,1.884.078v.008l.023.016v.008H25.6Z" transform="translate(-5.185 -6.431)" fill="#24315f"/>
      <path id="Path_10511" data-name="Path 10511" d="M38.562,8.39a2.171,2.171,0,1,0,2.14,2.2v-.031a2.171,2.171,0,0,0-2.14-2.171m.744,2.916a1,1,0,0,1-1.248.2,1.032,1.032,0,0,1-.6-1.062,1.108,1.108,0,0,1,.837-.946,1.072,1.072,0,0,1,1.171.52,1.023,1.023,0,0,1-.155,1.287" transform="translate(-8.165 -1.884)" fill="#24315f"/>
      <path id="Path_10512" data-name="Path 10512" d="M20.382,0a2.171,2.171,0,1,0,2.14,2.2V2.171A2.171,2.171,0,0,0,20.382,0M21.1,2.947a.989.989,0,0,1-1.225.171,1.021,1.021,0,0,1-.6-1.093,1.119,1.119,0,0,1,.931-.938,1.031,1.031,0,0,1,1.1.6.992.992,0,0,1-.2,1.256" transform="translate(-4.082 0)" fill="#24315f"/>
      <path id="Path_10513" data-name="Path 10513" d="M2.187,8.39a2.171,2.171,0,1,0,2.156,2.194A2.166,2.166,0,0,0,2.187,8.39m.737,2.947a1.034,1.034,0,0,1-1.295.155,1.057,1.057,0,0,1-.52-1.14A1.072,1.072,0,0,1,3.1,10.018a1.03,1.03,0,0,1-.178,1.318" transform="translate(0 -1.884)" fill="#24315f"/>
      <path id="Path_10514" data-name="Path 10514" d="M38.562,8.39a2.171,2.171,0,1,0,2.14,2.2v-.031a2.171,2.171,0,0,0-2.14-2.171m.744,2.916a1,1,0,0,1-1.248.2,1.032,1.032,0,0,1-.6-1.062,1.108,1.108,0,0,1,.837-.946,1.072,1.072,0,0,1,1.171.52,1.023,1.023,0,0,1-.155,1.287" transform="translate(-8.165 -1.884)" fill="#24315f"/>
      <path id="Path_10515" data-name="Path 10515" d="M14.851,4.614v.008a.6.6,0,0,1-.248.5.73.73,0,0,1-.171.093Q11.8,6.417,9.19,7.631c-.613.287-1.225.574-1.838.845a.982.982,0,0,1-.178.062.527.527,0,0,1-.31,0,.429.429,0,0,1-.233-.155,1.125,1.125,0,0,1-.078-.14c-.14-.31-.023-.574.349-.744H6.91c2.365-1.093,4.715-2.179,7.072-3.272a.758.758,0,0,1,.558-.047.435.435,0,0,1,.155.093.486.486,0,0,1,.155.341" transform="translate(-1.459 -0.931)" fill="#24315f"/>
      <path id="Path_10516" data-name="Path 10516" d="M33.041,8.007a.556.556,0,0,1-.558.558.519.519,0,0,1-.295-.085c-.962-.465-1.939-.892-2.908-1.342L25.17,5.246,25.077,5.2a.568.568,0,0,1-.364-.713.378.378,0,0,0,.023-.054.337.337,0,0,1,.093-.132.555.555,0,0,1,.644-.116c.016.008.023.016.039.023.768.349,1.535.706,2.3,1.062C29.4,6,31,6.735,32.591,7.472a.9.9,0,0,1,.31.2.52.52,0,0,1,.132.333Z" transform="translate(-5.544 -0.927)" fill="#24315f"/>
      <path id="Path_10517" data-name="Path 10517" d="M38.042,15.763c0,.008,0,.016-.008.016-.31,1.233-.636,2.458-.969,3.683a.5.5,0,0,1-.5.38.528.528,0,0,1-.551-.5,1.166,1.166,0,0,1,.016-.155c.31-1.225.636-2.458.977-3.676a.515.515,0,0,1,.636-.372.525.525,0,0,1,.4.628" transform="translate(-8.086 -3.394)" fill="#24315f"/>
      <path id="Path_10518" data-name="Path 10518" d="M5.359,19.275a.523.523,0,0,1-.465.558.513.513,0,0,1-.6-.4v-.016c-.078-.287-.147-.566-.225-.845s-.14-.574-.217-.853c-.163-.6-.326-1.217-.489-1.822a.571.571,0,0,1,.155-.644.078.078,0,0,1,.054-.031.22.22,0,0,1,.085-.062.182.182,0,0,1,.062-.016l.008-.008a.5.5,0,0,1,.318.016.508.508,0,0,1,.217.171.344.344,0,0,1,.062.085.846.846,0,0,1,.085.209c.3,1.155.613,2.3.915,3.458.016.078.031.155.039.2" transform="translate(-0.745 -3.394)" fill="#24315f"/>
      <path id="Path_10519" data-name="Path 10519" d="M25.6,28.774H25.6v.008h-.008l-.008.008h-.008c-.543-.039-1.086-.023-1.621-.031-.093,0-.186,0-.271.008-.295.031-.465.194-.465.434a.436.436,0,0,0,.458.442c.279.023.566,0,.845.008a1.554,1.554,0,0,1,.465.039.2.2,0,0,1,.078.054.024.024,0,0,1,.008.016h-.023c-.45,0-.892,0-1.342-.008H23.7a.459.459,0,0,1-.147-.008h-.008a.437.437,0,0,1-.093-.031.287.287,0,0,1-.085-.039.522.522,0,0,1-.2-.209.568.568,0,0,1-.062-.194v-.093a.264.264,0,0,1,.008-.078v-.023a.144.144,0,0,1,.016-.054c0-.008.008-.016.008-.023a.027.027,0,0,1,.008-.016c0-.008.008-.016.016-.023-.008-.008,0-.016.008-.023a.17.17,0,0,1,.023-.039c0-.008,0-.016.008-.016s0-.008.016-.016c0,0-.008,0,0-.008s.008-.016.016-.016a.09.09,0,0,1,.047-.047.008.008,0,0,1,.008-.008c.008-.016.023-.023.031-.031h.008c0-.008.008,0,.008,0,.008-.016.016-.016.023-.016v-.008a.028.028,0,0,1,.023-.008l.016-.016c.008,0,.008-.008.016-.008s.016-.008.023-.008h.008a.534.534,0,0,1,.062-.023h.016a.115.115,0,0,1,.054-.008.047.047,0,0,1,.031-.008.378.378,0,0,1,.093.008c.128-.009.257,0,.386-.007.078,0,.158-.009.234-.009.028,0,.056,0,.084,0,.154,0,.306.008.458.018.119.008.235.022.353.035s.247.018.369.037Z" transform="translate(-5.187 -6.433)" fill="#24315f"/>
      <path id="Path_10520" data-name="Path 10520" d="M26.333,29.1v.016a.5.5,0,0,1-.008.24.608.608,0,0,1-.039.109v.008c-.016.031-.039.062-.054.093v.008a.536.536,0,0,1-.31.186l-.186.023H25.62c0-.016,0-.016.008-.016a.231.231,0,0,1,.155-.078c.434-.116.543-.318.4-.737a.29.29,0,0,1-.039-.14H26.14V28.77l.023.023V28.8h.008v.008a.275.275,0,0,1,.078.093l.047.093V29H26.3a.384.384,0,0,1,.031.1" transform="translate(-5.753 -6.46)" fill="#24315f"/>
      <path id="Path_10521" data-name="Path 10521" d="M12.56,40.012v.008h-.008c-.1.039-.2.085-.3.116,0-.023.016-.047.016-.062h.008v-.008c.016-.016.023-.031.039-.039,0-.008,0-.008.008-.008A.043.043,0,0,1,12.359,40v-.008a.418.418,0,0,1,.14,0l.062.023" transform="translate(-2.751 -8.978)" fill="#24315f"/>
      <path id="Path_10522" data-name="Path 10522" d="M12.56,40.012v.008h-.008c-.1.039-.2.085-.3.116,0-.023.016-.047.016-.062h.008v-.008c.016-.016.023-.031.039-.039,0-.008,0-.008.008-.008A.043.043,0,0,1,12.359,40v-.008a.418.418,0,0,1,.14,0l.062.023" transform="translate(-2.751 -8.978)" fill="#24315f"/>
      <path id="Path_10523" data-name="Path 10523" d="M25.765,29.076v.016a.5.5,0,0,1-.008.24.608.608,0,0,1-.039.109v.008c-.016.031-.039.062-.054.093v.008a.536.536,0,0,1-.31.186l-.186.023h-.124c-.45,0-.892,0-1.342-.008h-.008a.459.459,0,0,1-.147-.008h-.023a.324.324,0,0,1-.078-.031.287.287,0,0,1-.085-.039.522.522,0,0,1-.2-.209.568.568,0,0,1-.062-.194.1.1,0,0,1-.008-.047v-.031a.215.215,0,0,1,.008-.07v-.016a.059.059,0,0,1,.008-.031.144.144,0,0,1,.016-.054c0-.008.008-.016.008-.023a.027.027,0,0,1,.008-.016.067.067,0,0,1,.023-.047s-.008-.008,0-.008.008-.016.016-.031l.016-.016s0-.008.016-.016c0,0-.008,0,0-.008s.008-.016.016-.016a.09.09,0,0,1,.047-.047.008.008,0,0,1,.008-.008c.008-.016.023-.023.031-.031h.008c.008-.016.023-.016.031-.023s.023-.016.039-.023.008-.008.016-.008.016-.008.023-.008h.008v-.008a.24.24,0,0,0,.062-.016h.016a.115.115,0,0,1,.054-.008.047.047,0,0,1,.031-.008.378.378,0,0,1,.093.008c.128-.009.257,0,.386-.007.078,0,.158-.009.234-.009.028,0,.056,0,.084,0,.154,0,.306.008.458.018.118.008.235.022.353.035s.247.017.369.037v.008l.023.016v.008H25.6v.008a.275.275,0,0,1,.078.093.578.578,0,0,1,.054.093v.008a.384.384,0,0,1,.031.1" transform="translate(-5.185 -6.433)" fill="#24315f"/>
    </g>
  </g>
</svg>
