<svg id="Group_4985" data-name="Group 4985" xmlns="http://www.w3.org/2000/svg" xmlns:xlink="http://www.w3.org/1999/xlink" width="42.67" height="42.071" viewBox="0 0 42.67 42.071">
  <defs>
    <clipPath id="clip-path">
      <rect id="Rectangle_2312" data-name="Rectangle 2312" width="42.67" height="42.071" fill="#fff"/>
    </clipPath>
  </defs>
  <g id="Group_4984" data-name="Group 4984" clip-path="url(#clip-path)">
    <path id="Path_11595" data-name="Path 11595" d="M42.656,28.508a1.227,1.227,0,0,0-.736-1.074c-.22-.114-.578.07-.666-.25a3.1,3.1,0,0,1-.013-.788c0-.165.008-.334-.007-.5a1.151,1.151,0,0,0-1.144-1.1c-.292-.01-.584-.013-.875,0a.627.627,0,0,1-.514-.2q-2.377-2.4-4.771-4.774a.559.559,0,0,1-.184-.436c.005-2.124.008-4.25,0-6.375,0-.26.072-.322.324-.319,1.055.015,2.111,0,3.166.008a.725.725,0,0,0,.74-.357.709.709,0,0,0-.16-.8c-.755-.96-1.511-1.919-2.246-2.894a1.007,1.007,0,0,0-.913-.451,3.624,3.624,0,0,1-1.511-.155Q24.2,4.471,15.247.926a7.382,7.382,0,0,0-3.66-.9c-.695.083-.862.182-.92.887-.194,2.324-.4,4.647-.6,6.971-.02.229-.078.334-.346.331-1.207-.017-2.415-.01-3.624,0-.207,0-.309-.028-.357-.274A1.453,1.453,0,0,0,4.3,6.735c-.943-.018-1.889-.023-2.832,0A1.48,1.48,0,0,0,.008,8.248q-.015,2.252,0,4.5a1.44,1.44,0,0,0,1.386,1.485c1,.038,2,.035,3,0A1.4,1.4,0,0,0,5.752,13c.037-.259.134-.307.367-.3,1.084.012,2.167.017,3.25,0,.322-.005.412.07.4.406-.129,3.984-.239,7.969-.356,11.953s-.247,8-.352,11.994c-.01.406-.109.524-.531.516a2.194,2.194,0,0,0-2.313,2.167c-.028.554-.02,1.11,0,1.667a.613.613,0,0,0,.683.665c.332.008.666.008,1,0a.624.624,0,0,0,.693-.611.6.6,0,0,0-.666-.631c-.407.028-.5-.13-.453-.486a2.107,2.107,0,0,0,0-.291c.005-.9.342-1.239,1.227-1.239,2.361,0,4.722.033,7.082-.014,1.384-.027,1.7.391,1.646,1.643-.013.314-.085.382-.391.381-2.151-.015-4.3-.01-6.456-.005a.648.648,0,0,0-.73.63.629.629,0,0,0,.688.621q3.727.01,7.456,0a.61.61,0,0,0,.671-.675c.008-.541.008-1.084,0-1.625a2.224,2.224,0,0,0-1.707-2.142,5.042,5.042,0,0,0-1.408-.058c-.311.008-.384-.073-.392-.386-.109-4.013-.235-8.023-.356-12.036h-.1c0-1.055.023-2.111-.005-3.164q-.118-4.478-.276-8.955c-.008-.264.068-.326.321-.321q1.435.02,2.874,0c.24,0,.3.073.3.3-.012.917-.008,1.833,0,2.75a1.625,1.625,0,0,0,1.73,1.713q2.292.005,4.582,0a1.642,1.642,0,0,0,1.77-1.765c0-.889.013-1.779-.007-2.667-.007-.281.082-.339.347-.337q2.916.017,5.831,0c.281,0,.337.083.336.347q-.015,3.123,0,6.25a.582.582,0,0,1-.192.466c-1.381,1.367-2.784,2.717-4.115,4.133a2.365,2.365,0,0,1-2.144.924A1.1,1.1,0,0,0,24.84,26a6.972,6.972,0,0,0,.005.915c.035.346-.073.437-.424.436a1.2,1.2,0,0,0-1.358,1.358c0,.334-.007.668,0,1a1.164,1.164,0,0,0,1.166,1.212c.554.03,1.11.022,1.667.007a.635.635,0,0,0,.675-.641.65.65,0,0,0-.7-.618c-.319-.014-.64,0-.958-.005-.594,0-.564,0-.6-.578-.03-.412.107-.488.5-.488q8.018.023,16.037.01c.561,0,.531,0,.571.573.028.406-.1.5-.494.494-4.041-.017-8.08-.012-12.121-.01-.665,0-.974.207-.967.643s.307.625.984.625q6.167,0,12.33,0a3.485,3.485,0,0,0,.458-.022,1.185,1.185,0,0,0,1.052-1.156c.015-.416.018-.833,0-1.249M4.526,10.5c0,.693-.01,1.388,0,2.08.007.3-.1.421-.411.416-.818-.015-1.636-.014-2.455,0-.309,0-.411-.124-.409-.422q.013-2.081,0-4.163c0-.3.117-.426.417-.422.818.008,1.636.01,2.455,0,.314-.005.407.137.4.431-.012.693,0,1.386,0,2.081M33.749,21.558,36.98,24.8c-.979,0-2,0-3.021,0-.165,0-.214-.058-.212-.217.005-1.022,0-2.042,0-3.026M11.358,7.376c.169-1.823.322-3.65.483-5.476.012-.123.033-.249.037-.372,0-.169.065-.241.249-.236s.2.094.209.234c.107,1.287.22,2.573.332,3.859.07.8.125,1.606.217,2.406.035.306.012.479-.356.421a2.635,2.635,0,0,0-.416,0c-.845,0-.832,0-.755-.833m-1.045,29.68c.047-1.658.094-3.315.14-4.954.1-.078.149-.022.2.017.706.513,1.411,1.029,2.124,1.533.162.117.219.187.067.374-.823,1.009-1.633,2.031-2.446,3.047l-.087-.017M13.134,24.84c-.574-.411-1.144-.832-1.718-1.244-.134-.1-.235-.155-.092-.349.676-.912,1.336-1.839,2.077-2.864.047,1.631.092,3.137.135,4.656-.2.023-.287-.119-.4-.2m.483,2.7c.053,1.807.1,3.5.157,5.278-.922-.666-1.762-1.274-2.6-1.879-.125-.09-.155-.158-.047-.292.81-1,1.611-2.005,2.495-3.108m-.354-9.67c-.573-.414-1.161-.842-1.752-1.261-.129-.092-.1-.163-.018-.269q.827-1.087,1.648-2.181l.122.04Zm-2.234-3c0-.711,0-1.363,0-2.016,0-.13.085-.154.192-.154h1.439l-1.633,2.169m1.631,4.118c.14.1.068.177,0,.269-.608.838-1.216,1.676-1.813,2.5V17.686c.676.488,1.242.9,1.812,1.306m.205,7.209c.175.127.045.21-.027.3q-1.1,1.38-2.209,2.76l-.083-.017c.043-1.518.089-3.034.135-4.625.758.551,1.469,1.069,2.184,1.581m.751,11.36c-.633-.023-1.267-.007-1.99-.007.741-.927,1.439-1.8,2.139-2.677l.147.027c0,.773-.008,1.548.005,2.321,0,.232-.017.347-.3.336M24.741,15.672c.005.391-.167.548-.553.544q-2.244-.012-4.492,0c-.359,0-.539-.133-.534-.514q.018-1.353,0-2.705c0-.235.063-.3.3-.3.832.013,1.663.005,2.495.005s1.636.007,2.455-.005c.235,0,.344.032.337.311-.02.887-.013,1.775-.005,2.662M6.191,11.457c-.332,0-.434-.09-.411-.417a8.228,8.228,0,0,0,0-1.166c-.022-.317.063-.417.4-.416,2.944.015,5.886.008,8.829.008q1.728,0,3.458,0a.639.639,0,0,0,.651-.421.582.582,0,0,0-.144-.65.752.752,0,0,0-.615-.187c-1.277,0-2.555-.009-3.832.008-.284,0-.364-.07-.387-.357-.169-2.059-.357-4.118-.546-6.235L29.988,8.134c-.007.025-.012.05-.018.075h-8.6a3.527,3.527,0,0,0-.376.007.583.583,0,0,0-.564.564.6.6,0,0,0,.5.666,1.972,1.972,0,0,0,.456.018q6.415,0,12.828-.005a.679.679,0,0,1,.621.3c.4.548.825,1.077,1.239,1.61-.094.137-.215.077-.314.077q-14.786.005-29.57.012m26.28,9.979c.082.037.022.149.022.231.005.927-.005,1.855.008,2.782,0,.249-.03.364-.327.357-1.009-.022-2.017-.008-3.066-.008l3.363-3.362m6.646,5.9H33.039c-2.177,0-4.357-.007-6.534.007-.316,0-.429-.063-.421-.406.023-.89.005-.89.877-.89q6.287,0,12.572-.007c.342,0,.479.047.463.439-.037.855-.01.857-.878.857" transform="translate(0 0)" fill="#fff"/>
  </g>
</svg>
