<svg id="Group_1326" data-name="Group 1326" xmlns="http://www.w3.org/2000/svg" xmlns:xlink="http://www.w3.org/1999/xlink" width="42" height="72.02" viewBox="0 0 42 72.02">
  <defs>
    <clipPath id="clip-path">
      <rect id="Rectangle_412" data-name="Rectangle 412" width="42" height="72.02" fill="#19296a"/>
    </clipPath>
  </defs>
  <g id="Group_1325" data-name="Group 1325" clip-path="url(#clip-path)">
    <path id="Path_6425" data-name="Path 6425" d="M35.71.029c-3.126,0-6.253.08-9.374-.025a6.5,6.5,0,0,0-6.161,3.254,1.676,1.676,0,0,0-.735,1.065,8.02,8.02,0,0,0-.3,2.466V8.4c0,.083,0,.163,0,.245q0,2.994,0,5.988v.4q0,6.374-.008,12.751a22.218,22.218,0,0,1-.057,3.129c-.538.178-.7-.32-.973-.58-1.643-1.591-3.224-3.246-4.877-4.83-.05-.05-.1-.1-.15-.145a.115.115,0,0,0-.018-.018c-1.07-.28-1.986.373-2.661,1.893a.538.538,0,0,0,.025.068v0a.113.113,0,0,1,.008.028,3.774,3.774,0,0,0,.978,1.146c2.609,2.631,5.247,5.232,7.851,7.869.2.2.388.388.578.583l.02.02c1.123.963,1.263.98,2.261-.01q4.386-4.356,8.739-8.741c.935-.94.91-1.163-.043-2.143-1.1-1.131-1.418-1.188-2.354-.283-1.523,1.476-3,3-4.517,4.487-.273.265-.45.74-.983.645a2.071,2.071,0,0,1-.115-1.085V27.632c0-.18,0-.36,0-.543,0,0,0,0,0,0q-.008-9.578,0-19.164c0-.22-.005-.438-.008-.658v0c-.008-.475-.01-.95,0-1.428,0-.045,0-.09.008-.133A2.486,2.486,0,0,1,23.2,4.614a.5.5,0,0,1-.262-.17c.765-.35,1.191-1.281,2.168-1.268l.083.07a.779.779,0,0,0-.168.075,1.589,1.589,0,0,0-.308.1,1.324,1.324,0,0,1,.2-.038,2.443,2.443,0,0,1,.275-.025h0a3.637,3.637,0,0,1,.49.018c3.379.01,6.758,0,10.142,0h.5a2.319,2.319,0,0,1,2.309,2.2q.019,26.134,0,52.271c0,.183.005.368.005.55v.005a2.528,2.528,0,0,1-.228,1.158s0,0,0,.005A2.347,2.347,0,0,1,36.741,61h0a.012.012,0,0,1-.01.005,4.313,4.313,0,0,1-1.6.155q-14.144.008-28.285,0a5.165,5.165,0,0,1-1.571-.158c-.088-.028-.178-.06-.265-.1s-.173-.073-.25-.11c-.053-.028-.1-.053-.15-.083a2.223,2.223,0,0,1-.493-.363l0,0a2.13,2.13,0,0,1-.5-.7c0-.005-.005-.008-.005-.01a3.582,3.582,0,0,1-.27-1.5c.023-4.895-.008-9.792.015-14.689,0-.14,0-.28,0-.42q-.015-2.454,0-4.907V37.111c0-.085,0-.173,0-.258v0c0-2.369-.008-4.737,0-7.106V28.93c0-7.793-.013-15.589,0-23.383A2.322,2.322,0,0,1,4.377,3.821a1.744,1.744,0,0,1,.565-.308,2.909,2.909,0,0,1,.811-.13c.13-.005.263-.008.4-.008,2.619,0,5.24.008,7.859-.005a3.975,3.975,0,0,0,1.266-.083,1.274,1.274,0,0,0,.315-.145l.1-.125c.013-.018.028-.035.04-.053V2.951a17.03,17.03,0,0,1,.04-1.858c.113-.878-.2-1.1-1.075-1.085-2.834.063-5.668.018-8.5.025A6,6,0,0,0,0,6.242Q0,35.989,0,65.734A5.989,5.989,0,0,0,6.24,72.016q14.747,0,29.5,0A6,6,0,0,0,42,65.754Q42,36.01,42,6.265A6.009,6.009,0,0,0,35.71.029m-14.7,68.683a1.947,1.947,0,1,1,.05-3.894,2.109,2.109,0,0,1,1.881,1.973,2.073,2.073,0,0,1-1.931,1.921" transform="translate(0 0.001)" fill="#19296a"/>
  </g>
</svg>
