<svg id="Group_4989" data-name="Group 4989" xmlns="http://www.w3.org/2000/svg" xmlns:xlink="http://www.w3.org/1999/xlink" width="34.916" height="34.952" viewBox="0 0 34.916 34.952">
  <defs>
    <clipPath id="clip-path">
      <rect id="Rectangle_2314" data-name="Rectangle 2314" width="34.916" height="34.952" fill="#4E6CD9"/>
    </clipPath>
  </defs>
  <g id="Group_4988" data-name="Group 4988" clip-path="url(#clip-path)">
    <path id="Path_11605" data-name="Path 11605" d="M145.264,130.184a5.5,5.5,0,0,0-.676-1.551,1.273,1.273,0,0,0-.815-.568,2.862,2.862,0,0,0-2.718,1.113,1.687,1.687,0,0,0-.365,1.176c.008.113.011.227.023.34a2.033,2.033,0,0,0,1.766,1.949,3.33,3.33,0,0,0,1.81-.362,1.748,1.748,0,0,0,.975-2.1m-1.411.987a2.458,2.458,0,0,1-1.236.328c-.26.026-.493-.2-.636-.539a1.029,1.029,0,0,1,.033-1.124,1.9,1.9,0,0,1,1.19-.662.391.391,0,0,1,.466.191,5.762,5.762,0,0,1,.473,1.123.549.549,0,0,1-.288.684" transform="translate(-121.471 -110.529)" fill="#4E6CD9"/>
    <path id="Path_11606" data-name="Path 11606" d="M26.645,10.3a18.526,18.526,0,0,0-6.037-5.365.6.6,0,0,1-.369-.475A.606.606,0,0,0,19.962,4c-.356-.191-.222-.4-.093-.66a1.659,1.659,0,0,0-.21-2.021A4.62,4.62,0,0,0,17.512.214a1.225,1.225,0,0,0-.574.027A1.808,1.808,0,0,0,15.66,1.364c-.089.208-.165.347-.443.231a.723.723,0,0,0-.63.049.57.57,0,0,1-.568-.011A18.88,18.88,0,0,0,7.722,0c-3.3,0-5.1.515-6.7,1.647a3.323,3.323,0,0,0-.777.658A1.079,1.079,0,0,0,.111,3.464a1.217,1.217,0,0,0,1.16.691A27.152,27.152,0,0,1,11.34,6.775c.239.113.451.221.483.535a.578.578,0,0,0,.275.418c.275.16.232.322.108.57q-4.382,8.746-8.752,17.5a2.487,2.487,0,0,0-.263,1.713,2.316,2.316,0,0,0,4.339.539c.639-1.251,1.262-2.51,1.89-3.767q3.479-6.963,6.952-13.929c.105-.213.186-.355.46-.24a.779.779,0,0,0,.661-.063.418.418,0,0,1,.434.031A27.333,27.333,0,0,1,26.278,16.7a1.148,1.148,0,0,0,1.36.415,1.208,1.208,0,0,0,.736-1.2,9.124,9.124,0,0,0-1.73-5.627M16.634,2.019c.074-.112.116-.244.187-.359a.54.54,0,0,1,.729-.238c.37.167.729.356,1.09.544a.589.589,0,0,1,.307.5,1.909,1.909,0,0,1-.275.686c-.057.12-.145.052-.227.011-.574-.288-1.149-.578-1.726-.859-.146-.071-.179-.143-.086-.284m-4.4,3.625c-.1.2-.18.187-.351.105A28.6,28.6,0,0,0,3.228,3.164c-.638-.086-1.28-.135-1.993-.208A7.131,7.131,0,0,1,4.3,1.435a13.03,13.03,0,0,1,6.128.231,21.233,21.233,0,0,1,3,.979c.172.071.254.113.145.322-.458.885-.905,1.777-1.337,2.675m3.144,4.118Q12,16.491,8.643,23.229C7.949,24.618,7.251,26,6.563,27.4A1.167,1.167,0,1,1,4.457,26.4c.685-1.393,1.389-2.778,2.083-4.168q3.355-6.724,6.706-13.453c.138-.279.251-.311.515-.163.483.272.985.514,1.487.748.212.1.235.176.126.393m1.815-1.022c-.1.206-.183.223-.38.123q-1.829-.934-3.675-1.84c-.2-.1-.213-.182-.116-.373q.932-1.834,1.84-3.681c.1-.2.172-.221.366-.122,1.22.623,2.446,1.231,3.67,1.845.083.042.2.045.216.175-.03.067-.057.13-.087.191-.612,1.226-1.231,2.45-1.833,3.681M27.213,15.8c0,.04-.006.081-.014.178-.24-.268-.443-.493-.646-.716a28.164,28.164,0,0,0-7.878-6.094c-.276-.143-.3-.251-.158-.516.442-.843.856-1.7,1.28-2.554.064-.13.105-.232.292-.117a17.17,17.17,0,0,1,5.87,5.433A7.69,7.69,0,0,1,27.213,15.8" transform="translate(0)" fill="#4E6CD9"/>
    <path id="Path_11607" data-name="Path 11607" d="M104.026,226.885a2.822,2.822,0,0,1-.851.865.659.659,0,0,1-.213.064.611.611,0,0,1-.538-.328.516.516,0,0,1,.056-.606,6.268,6.268,0,0,1,.672-.675.529.529,0,0,1,.718.008.5.5,0,0,1,.156.672" transform="translate(-88.373 -195.193)" fill="#4E6CD9"/>
    <path id="Path_11608" data-name="Path 11608" d="M140.638,211.572a1,1,0,0,0-1.155-.452,11.532,11.532,0,0,0-1.325.414,1.109,1.109,0,0,0-.673,1.359c.111.4.231.806.37,1.2a1.131,1.131,0,0,0,1.388.733c.4-.108.806-.229,1.2-.369a1.2,1.2,0,0,0,.783-1.181,5.942,5.942,0,0,0-.587-1.7m-.777,1.855c-.234.082-.473.146-.707.227-.139.048-.209.031-.268-.127-.35-.929-.328-.979.634-1.216.079-.02.18-.087.224.049.1.3.191.6.27.856.046.191-.082.184-.153.21" transform="translate(-118.67 -182.254)" fill="#4E6CD9"/>
    <path id="Path_11609" data-name="Path 11609" d="M175.917,196.846c.011.171.007.341,0,.512a.583.583,0,0,1-.6.635.575.575,0,0,1-.56-.636c0-.079,0-.16,0-.239s0-.182,0-.273a.578.578,0,1,1,1.157,0" transform="translate(-150.89 -169.456)" fill="#4E6CD9"/>
    <path id="Path_11610" data-name="Path 11610" d="M197.972,204.1c-.373-.132-.75-.254-1.131-.359a1.154,1.154,0,0,0-1.448.742c-.137.384-.259.773-.362,1.166a1.141,1.141,0,0,0,.746,1.415c.395.138.795.26,1.2.371a1.073,1.073,0,0,0,1.218-.455,6.759,6.759,0,0,0,.572-1.677,1.193,1.193,0,0,0-.793-1.2m-.407,1.224a.351.351,0,0,0-.016.066c-.234.967-.283.99-1.206.641-.148-.056-.193-.116-.138-.268.089-.243.165-.492.242-.74.023-.081.037-.158.171-.132.28.087.582.182.882.277.082.026.1.081.066.157" transform="translate(-168.358 -175.868)" fill="#4E6CD9"/>
    <path id="Path_11611" data-name="Path 11611" d="M227.54,180.092a.629.629,0,0,1,.049.179.6.6,0,0,1-.331.537.483.483,0,0,1-.572-.041,7.178,7.178,0,0,1-.722-.718.518.518,0,0,1,.012-.69.5.5,0,0,1,.666-.169,2.538,2.538,0,0,1,.9.9" transform="translate(-194.995 -154.659)" fill="#4E6CD9"/>
    <path id="Path_11612" data-name="Path 11612" d="M70.949,42.843a4.4,4.4,0,0,0-2.177,1.927.721.721,0,0,1-.564.4,2.961,2.961,0,0,0-1.811.994.939.939,0,0,0-.115,1.175,8.558,8.558,0,0,1,.52,7.146,1.175,1.175,0,0,0,.052,1,2.554,2.554,0,0,1-.828,3.483,1.592,1.592,0,0,0-.6.746,2.365,2.365,0,0,1-2.673,1.506,6.272,6.272,0,0,1-2.031-.834.955.955,0,0,0-.608-.171,7.642,7.642,0,0,0-6.464,4.3.277.277,0,0,1-.361.182,3.426,3.426,0,0,0-3.75,1.719.332.332,0,0,1-.346.2,6.757,6.757,0,0,0-1.454.139,5.691,5.691,0,0,0-4.828,4.138c-.2.7.011.978.74.978H70.507c.967,0,1.4-.427,1.4-1.385v-27c0-.641-.37-.888-.956-.638m-.6,27.864q-12.884-.016-25.766-.008h-.376a4.132,4.132,0,0,1,1.276-1.76,5.66,5.66,0,0,1,3.346-1.169,7.676,7.676,0,0,1,.886.007.583.583,0,0,0,.639-.4,2.462,2.462,0,0,1,3.246-1.4c.425.178.672.016.879-.479A6.434,6.434,0,0,1,59.1,61.529a1.99,1.99,0,0,1,1.65.182,5,5,0,0,0,2.319.713,3.552,3.552,0,0,0,3.388-2.133.877.877,0,0,1,.261-.384A3.706,3.706,0,0,0,68,55.2a.764.764,0,0,1-.019-.578,9.894,9.894,0,0,0-.489-7.491c-.117-.251-.1-.374.143-.505a2.581,2.581,0,0,1,1.185-.38.767.767,0,0,0,.788-.563,2.832,2.832,0,0,1,1.132-1.39V44.7q0,12.8.008,25.6c0,.324-.067.406-.4.406" transform="translate(-36.989 -36.909)" fill="#4E6CD9"/>
    <path id="Path_11613" data-name="Path 11613" d="M26.645,10.3a18.526,18.526,0,0,0-6.037-5.365.6.6,0,0,1-.369-.475A.606.606,0,0,0,19.962,4c-.356-.191-.222-.4-.093-.66a1.659,1.659,0,0,0-.21-2.021A4.62,4.62,0,0,0,17.512.214a1.225,1.225,0,0,0-.574.027A1.808,1.808,0,0,0,15.66,1.364c-.089.208-.165.347-.443.231a.723.723,0,0,0-.63.049.57.57,0,0,1-.568-.011A18.88,18.88,0,0,0,7.722,0c-3.3,0-5.1.515-6.7,1.647a3.323,3.323,0,0,0-.777.658A1.079,1.079,0,0,0,.111,3.464a1.217,1.217,0,0,0,1.16.691A27.152,27.152,0,0,1,11.34,6.775c.239.113.451.221.483.535a.578.578,0,0,0,.275.418c.275.16.232.322.108.57q-4.382,8.746-8.752,17.5a2.487,2.487,0,0,0-.263,1.713,2.316,2.316,0,0,0,4.339.539c.639-1.251,1.262-2.51,1.89-3.767q3.479-6.963,6.952-13.929c.105-.213.186-.355.46-.24a.779.779,0,0,0,.661-.063.418.418,0,0,1,.434.031A27.333,27.333,0,0,1,26.278,16.7a1.148,1.148,0,0,0,1.36.415,1.208,1.208,0,0,0,.736-1.2,9.124,9.124,0,0,0-1.73-5.627M16.634,2.019c.074-.112.116-.244.187-.359a.54.54,0,0,1,.729-.238c.37.167.729.356,1.09.544a.589.589,0,0,1,.307.5,1.909,1.909,0,0,1-.275.686c-.057.12-.145.052-.227.011-.574-.288-1.149-.578-1.726-.859-.146-.071-.179-.143-.086-.284m-4.4,3.625c-.1.2-.18.187-.351.105A28.6,28.6,0,0,0,3.228,3.164c-.638-.086-1.28-.135-1.993-.208A7.131,7.131,0,0,1,4.3,1.435a13.03,13.03,0,0,1,6.128.231,21.233,21.233,0,0,1,3,.979c.172.071.254.113.145.322-.458.885-.905,1.777-1.337,2.675m3.144,4.118Q12,16.491,8.643,23.229C7.949,24.618,7.251,26,6.563,27.4A1.167,1.167,0,1,1,4.457,26.4c.685-1.393,1.389-2.778,2.083-4.168q3.355-6.724,6.706-13.453c.138-.279.251-.311.515-.163.483.272.985.514,1.487.748.212.1.235.176.126.393m1.815-1.022c-.1.206-.183.223-.38.123q-1.829-.934-3.675-1.84c-.2-.1-.213-.182-.116-.373q.932-1.834,1.84-3.681c.1-.2.172-.221.366-.122,1.22.623,2.446,1.231,3.67,1.845.083.042.2.045.216.175-.03.067-.057.13-.087.191-.612,1.226-1.231,2.45-1.833,3.681M27.213,15.8c0,.04-.006.081-.014.178-.24-.268-.443-.493-.646-.716a28.164,28.164,0,0,0-7.878-6.094c-.276-.143-.3-.251-.158-.516.442-.843.856-1.7,1.28-2.554.064-.13.105-.232.292-.117a17.17,17.17,0,0,1,5.87,5.433A7.69,7.69,0,0,1,27.213,15.8" transform="translate(0)" fill="#4E6CD9"/>
    <path id="Path_11614" data-name="Path 11614" d="M104.026,226.885a2.822,2.822,0,0,1-.851.865.659.659,0,0,1-.213.064.611.611,0,0,1-.538-.328.516.516,0,0,1,.056-.606,6.268,6.268,0,0,1,.672-.675.529.529,0,0,1,.718.008.5.5,0,0,1,.156.672" transform="translate(-88.373 -195.193)" fill="#4E6CD9"/>
    <path id="Path_11615" data-name="Path 11615" d="M140.638,211.572a1,1,0,0,0-1.155-.452,11.532,11.532,0,0,0-1.325.414,1.109,1.109,0,0,0-.673,1.359c.111.4.231.806.37,1.2a1.131,1.131,0,0,0,1.388.733c.4-.108.806-.229,1.2-.369a1.2,1.2,0,0,0,.783-1.181,5.942,5.942,0,0,0-.587-1.7m-.777,1.855c-.234.082-.473.146-.707.227-.139.048-.209.031-.268-.127-.35-.929-.328-.979.634-1.216.079-.02.18-.087.224.049.1.3.191.6.27.856.046.191-.082.184-.153.21" transform="translate(-118.67 -182.254)" fill="#4E6CD9"/>
    <path id="Path_11616" data-name="Path 11616" d="M175.917,196.846c.011.171.007.341,0,.512a.583.583,0,0,1-.6.635.575.575,0,0,1-.56-.636c0-.079,0-.16,0-.239s0-.182,0-.273a.578.578,0,1,1,1.157,0" transform="translate(-150.89 -169.456)" fill="#4E6CD9"/>
    <path id="Path_11617" data-name="Path 11617" d="M197.972,204.1c-.373-.132-.75-.254-1.131-.359a1.154,1.154,0,0,0-1.448.742c-.137.384-.259.773-.362,1.166a1.141,1.141,0,0,0,.746,1.415c.395.138.795.26,1.2.371a1.073,1.073,0,0,0,1.218-.455,6.759,6.759,0,0,0,.572-1.677,1.193,1.193,0,0,0-.793-1.2m-.407,1.224a.351.351,0,0,0-.016.066c-.234.967-.283.99-1.206.641-.148-.056-.193-.116-.138-.268.089-.243.165-.492.242-.74.023-.081.037-.158.171-.132.28.087.582.182.882.277.082.026.1.081.066.157" transform="translate(-168.358 -175.868)" fill="#4E6CD9"/>
    <path id="Path_11618" data-name="Path 11618" d="M227.588,180.271a.6.6,0,0,1-.331.537.483.483,0,0,1-.572-.041,7.178,7.178,0,0,1-.722-.718.518.518,0,0,1,.012-.69.5.5,0,0,1,.666-.169,2.538,2.538,0,0,1,.9.9.632.632,0,0,1,.049.179" transform="translate(-194.994 -154.659)" fill="#4E6CD9"/>
    <path id="Path_11619" data-name="Path 11619" d="M70.949,42.843a4.4,4.4,0,0,0-2.177,1.927.721.721,0,0,1-.564.4,2.961,2.961,0,0,0-1.811.994.939.939,0,0,0-.115,1.175,8.558,8.558,0,0,1,.52,7.146,1.175,1.175,0,0,0,.052,1,2.554,2.554,0,0,1-.828,3.483,1.592,1.592,0,0,0-.6.746,2.365,2.365,0,0,1-2.673,1.506,6.272,6.272,0,0,1-2.031-.834.955.955,0,0,0-.608-.171,7.642,7.642,0,0,0-6.464,4.3.277.277,0,0,1-.361.182,3.426,3.426,0,0,0-3.75,1.719.332.332,0,0,1-.346.2,6.757,6.757,0,0,0-1.454.139,5.691,5.691,0,0,0-4.828,4.138c-.2.7.011.978.74.978H70.507c.967,0,1.4-.427,1.4-1.385v-27c0-.641-.37-.888-.956-.638m-.6,27.864q-12.884-.016-25.766-.008h-.376a4.132,4.132,0,0,1,1.276-1.76,5.66,5.66,0,0,1,3.346-1.169,7.676,7.676,0,0,1,.886.007.583.583,0,0,0,.639-.4,2.462,2.462,0,0,1,3.246-1.4c.425.178.672.016.879-.479A6.434,6.434,0,0,1,59.1,61.529a1.99,1.99,0,0,1,1.65.182,5,5,0,0,0,2.319.713,3.552,3.552,0,0,0,3.388-2.133.877.877,0,0,1,.261-.384A3.706,3.706,0,0,0,68,55.2a.764.764,0,0,1-.019-.578,9.894,9.894,0,0,0-.489-7.491c-.117-.251-.1-.374.143-.505a2.581,2.581,0,0,1,1.185-.38.767.767,0,0,0,.788-.563,2.832,2.832,0,0,1,1.132-1.39V44.7q0,12.8.008,25.6c0,.324-.067.406-.4.406" transform="translate(-36.989 -36.909)" fill="#4E6CD9"/>
    <path id="Path_11620" data-name="Path 11620" d="M145.264,130.184a5.5,5.5,0,0,0-.676-1.551,1.273,1.273,0,0,0-.815-.568,2.862,2.862,0,0,0-2.718,1.113,1.687,1.687,0,0,0-.365,1.176c.008.113.011.227.023.34a2.033,2.033,0,0,0,1.766,1.949,3.33,3.33,0,0,0,1.81-.362,1.748,1.748,0,0,0,.975-2.1m-1.411.987a2.458,2.458,0,0,1-1.236.328c-.26.026-.493-.2-.636-.539a1.029,1.029,0,0,1,.033-1.124,1.9,1.9,0,0,1,1.19-.662.391.391,0,0,1,.466.191,5.762,5.762,0,0,1,.473,1.123.549.549,0,0,1-.288.684" transform="translate(-121.471 -110.529)" fill="#4E6CD9"/>
    <path id="Path_11621" data-name="Path 11621" d="M104.026,226.885a2.822,2.822,0,0,1-.851.865.659.659,0,0,1-.213.064.611.611,0,0,1-.538-.328.516.516,0,0,1,.056-.606,6.268,6.268,0,0,1,.672-.675.529.529,0,0,1,.718.008.5.5,0,0,1,.156.672" transform="translate(-88.373 -195.193)" fill="#4E6CD9"/>
    <path id="Path_11622" data-name="Path 11622" d="M140.638,211.572a1,1,0,0,0-1.155-.452,11.532,11.532,0,0,0-1.325.414,1.109,1.109,0,0,0-.673,1.359c.111.4.231.806.37,1.2a1.131,1.131,0,0,0,1.388.733c.4-.108.806-.229,1.2-.369a1.2,1.2,0,0,0,.783-1.181,5.942,5.942,0,0,0-.587-1.7m-.777,1.855c-.234.082-.473.146-.707.227-.139.048-.209.031-.268-.127-.35-.929-.328-.979.634-1.216.079-.02.18-.087.224.049.1.3.191.6.27.856.046.191-.082.184-.153.21" transform="translate(-118.67 -182.254)" fill="#4E6CD9"/>
    <path id="Path_11623" data-name="Path 11623" d="M175.917,196.846c.011.171.007.341,0,.512a.583.583,0,0,1-.6.635.575.575,0,0,1-.56-.636c0-.079,0-.16,0-.239s0-.182,0-.273a.578.578,0,1,1,1.157,0" transform="translate(-150.89 -169.456)" fill="#4E6CD9"/>
    <path id="Path_11624" data-name="Path 11624" d="M197.972,204.1c-.373-.132-.75-.254-1.131-.359a1.154,1.154,0,0,0-1.448.742c-.137.384-.259.773-.362,1.166a1.141,1.141,0,0,0,.746,1.415c.395.138.795.26,1.2.371a1.073,1.073,0,0,0,1.218-.455,6.759,6.759,0,0,0,.572-1.677,1.193,1.193,0,0,0-.793-1.2m-.407,1.224a.351.351,0,0,0-.016.066c-.234.967-.283.99-1.206.641-.148-.056-.193-.116-.138-.268.089-.243.165-.492.242-.74.023-.081.037-.158.171-.132.28.087.582.182.882.277.082.026.1.081.066.157" transform="translate(-168.358 -175.868)" fill="#4E6CD9"/>
    <path id="Path_11625" data-name="Path 11625" d="M227.588,180.271a.6.6,0,0,1-.331.537.483.483,0,0,1-.572-.041,7.178,7.178,0,0,1-.722-.718.518.518,0,0,1,.012-.69.5.5,0,0,1,.666-.169,2.538,2.538,0,0,1,.9.9.632.632,0,0,1,.049.179" transform="translate(-194.994 -154.659)" fill="#4E6CD9"/>
    <path id="Path_11626" data-name="Path 11626" d="M140.638,211.572a1,1,0,0,0-1.155-.452,11.532,11.532,0,0,0-1.325.414,1.109,1.109,0,0,0-.673,1.359c.111.4.231.806.37,1.2a1.131,1.131,0,0,0,1.388.733c.4-.108.806-.229,1.2-.369a1.2,1.2,0,0,0,.783-1.181,5.942,5.942,0,0,0-.587-1.7m-.777,1.855c-.234.082-.473.146-.707.227-.139.048-.209.031-.268-.127-.35-.929-.328-.979.634-1.216.079-.02.18-.087.224.049.1.3.191.6.27.856.046.191-.082.184-.153.21" transform="translate(-118.67 -182.254)" fill="#4E6CD9"/>
    <path id="Path_11627" data-name="Path 11627" d="M197.972,204.1c-.373-.132-.75-.254-1.131-.359a1.154,1.154,0,0,0-1.448.742c-.137.384-.259.773-.362,1.166a1.141,1.141,0,0,0,.746,1.415c.395.138.795.26,1.2.371a1.073,1.073,0,0,0,1.218-.455,6.759,6.759,0,0,0,.572-1.677,1.193,1.193,0,0,0-.793-1.2m-.407,1.224a.351.351,0,0,0-.016.066c-.234.967-.283.99-1.206.641-.148-.056-.193-.116-.138-.268.089-.243.165-.492.242-.74.023-.081.037-.158.171-.132.28.087.582.182.882.277.082.026.1.081.066.157" transform="translate(-168.358 -175.868)" fill="#4E6CD9"/>
    <path id="Path_11628" data-name="Path 11628" d="M227.588,180.271a.6.6,0,0,1-.331.537.483.483,0,0,1-.572-.041,7.178,7.178,0,0,1-.722-.718.518.518,0,0,1,.012-.69.5.5,0,0,1,.666-.169,2.538,2.538,0,0,1,.9.9.632.632,0,0,1,.049.179" transform="translate(-194.994 -154.659)" fill="#4E6CD9"/>
    <path id="Path_11629" data-name="Path 11629" d="M104.026,226.885a2.822,2.822,0,0,1-.851.865.659.659,0,0,1-.213.064.611.611,0,0,1-.538-.328.516.516,0,0,1,.056-.606,6.268,6.268,0,0,1,.672-.675.529.529,0,0,1,.718.008.5.5,0,0,1,.156.672" transform="translate(-88.373 -195.193)" fill="#4E6CD9"/>
    <path id="Path_11630" data-name="Path 11630" d="M175.918,197.358a.583.583,0,0,1-.6.635.575.575,0,0,1-.56-.636c0-.079,0-.16,0-.239s0-.182,0-.273a.578.578,0,1,1,1.157,0c.011.171.007.341,0,.512" transform="translate(-150.89 -169.456)" fill="#4E6CD9"/>
  </g>
</svg>
