<svg id="Group_4910" data-name="Group 4910" xmlns="http://www.w3.org/2000/svg" xmlns:xlink="http://www.w3.org/1999/xlink" width="71.021" height="75.641" viewBox="0 0 71.021 75.641">
  <defs>
    <clipPath id="clip-path">
      <rect id="Rectangle_2290" data-name="Rectangle 2290" width="71.02" height="75.641" fill="#516ddd"/>
    </clipPath>
  </defs>
  <g id="Group_4909" data-name="Group 4909" transform="translate(0 0)" clip-path="url(#clip-path)">
    <path id="Path_11483" data-name="Path 11483" d="M69.045,48.324c-.586-.256-.677-.5-.421-1.083A28.084,28.084,0,0,0,70.984,34.6a21.25,21.25,0,0,0-1.579-7.067c-.18,1.579-.331,3.007-.511,4.421a45.216,45.216,0,0,1-4.1,13.773c-.15.316-.256.391-.586.226Q57.73,42.768,51.242,39.6c-.241-.105-.406-.226-.376-.526a4.316,4.316,0,0,0-1.128-3.112,29.449,29.449,0,0,1-4.075-7.217c-1.579-3.939-2.737-8.044-4.3-11.984a7.292,7.292,0,0,0-3.834-4.075,35.891,35.891,0,0,0-9.683-2.947,20.211,20.211,0,0,0-9.142.481A16.838,16.838,0,0,0,8.616,18.854a7.384,7.384,0,0,0-1.083,2.8A4.173,4.173,0,0,0,10.1,25.74a3.094,3.094,0,0,0,4.015-1.113c.12-.226.271-.211.481-.12q3.721,1.849,7.473,3.669c.241.105.346.211.226.5A60.806,60.806,0,0,1,18.4,37C14.48,43.468,9.638,49.271,4.751,55.045a58.442,58.442,0,0,0-4.12,4.917A3.521,3.521,0,0,0,3.5,65.48a4.578,4.578,0,0,0,3.774-1.925c4.736-5.473,9.5-10.916,13.728-16.81.2-.256.316-.421.692-.21q5.458,3,10.931,5.969c.331.18.376.331.226.677-.5,1.037-.947,2.105-1.413,3.158-1.458,3.233-3.263,6.255-5.007,9.337a3.413,3.413,0,0,0,2.285,5.082c1.789.451,3.353-.271,4.556-2.06a62.746,62.746,0,0,0,4.872-9.082,69.046,69.046,0,0,0,3.022-7.022,3.291,3.291,0,0,0-1.113-3.834c-2.646-1.955-5.278-3.954-8.044-5.744-.361-.241-.361-.406-.2-.752C33,39.919,34.1,37.543,35.094,35.108c.15-.391.316-.451.692-.256,1.519.767,3.022,1.564,4.571,2.225A5.152,5.152,0,0,1,43.168,39.6a11.251,11.251,0,0,0,1.278,1.8c1.368,1.834,3.173,2.045,4.962.571a.531.531,0,0,1,.692-.12q6.473,3.18,12.961,6.33c.331.15.376.286.18.6-.466.767-.887,1.579-1.353,2.361A128.288,128.288,0,0,1,51.874,65.1c-.21.271-.421.541-.707.917.241-.09.361-.135.466-.18.331-.18.662-.331.977-.526a37.884,37.884,0,0,0,14.149-14.3c.376-.647.647-.782,1.323-.391,1.007.571,1.037.526,1.549-.541.6-1.2.616-1.248-.586-1.759m-43.3-30.553c-.647,2.556-1.4,5.067-2.21,7.563-.15.421-.226.662-.782.376-2.255-1.143-4.526-2.24-6.811-3.338-.421-.2-.481-.346-.226-.767a15.677,15.677,0,0,1,1.834-2.5,8.039,8.039,0,0,1,6.315-2.436c.256.03.722.075,1.188.135.917.105.917.12.692.962M36.567,32.446c-.15-.075-.361-.12-.256-.421.466-1.278.917-2.571,1.413-4,.857,2.12,1.639,4.09,2.5,6.195-1.323-.647-2.481-1.2-3.654-1.774" transform="translate(0 4.752)" fill="#516ddd"/>
    <path id="Path_11484" data-name="Path 11484" d="M20.912,5.548c.616.045.571.376.421.842a5.813,5.813,0,0,0,.361,4.511A6.267,6.267,0,0,0,33.452,9.623c.105-.451.256-.466.647-.346,1.007.316,2.03.571,3.037.872.436.12.677.165.842-.406.15-.556-.015-.737-.511-.842-.586-.135-1.173-.361-1.774-.466-.647-.12-.842-.406-.812-1.083A7.325,7.325,0,0,0,28.746.135a.06.06,0,0,1-.03-.06A.136.136,0,0,1,28.73,0H26.37c0,.015.015.03.015.045a.161.161,0,0,1-.03.09A7.3,7.3,0,0,0,20.6,4.842c-.165.391-.2.662.316.707" transform="translate(10.318 0)" fill="#516ddd"/>
  </g>
</svg>
