<svg id="Group_4955" data-name="Group 4955" xmlns="http://www.w3.org/2000/svg" xmlns:xlink="http://www.w3.org/1999/xlink" width="42.133" height="44.433" viewBox="0 0 42.133 44.433">
  <defs>
    <clipPath id="clip-path">
      <rect id="Rectangle_2303" data-name="Rectangle 2303" width="42.133" height="44.433" fill="#506bd9"/>
    </clipPath>
  </defs>
  <g id="Group_4954" data-name="Group 4954" clip-path="url(#clip-path)">
    <path id="Path_11545" data-name="Path 11545" d="M12.565,109.751c3.166.024,6.332.054,9.5.009a10.487,10.487,0,0,1,6.6,2,1.578,1.578,0,0,0,1.361.287,1.641,1.641,0,0,0,1.306-1.329,1.668,1.668,0,0,0-.726-1.766,13.163,13.163,0,0,0-7.91-2.6c-2.952-.013-5.9,0-8.858,0a22.235,22.235,0,0,0-3.245.188,11.416,11.416,0,0,0-8.458,5.232,14.126,14.126,0,0,0-2.021,9.4,7.009,7.009,0,0,0,4,5.955A9.5,9.5,0,0,0,8.2,128c2.633.017,5.266.006,7.9.006v0q4.107,0,8.218,0a1.949,1.949,0,0,0,1.068-.263,1.7,1.7,0,0,0,.745-1.9,1.719,1.719,0,0,0-1.762-1.261q-7.764,0-15.529,0a13.3,13.3,0,0,1-1.7-.1,3.8,3.8,0,0,1-3.566-3.318,12.537,12.537,0,0,1-.173-2.019,9.038,9.038,0,0,1,9.171-9.406" transform="translate(0 -83.581)" fill="#506bd9"/>
    <path id="Path_11546" data-name="Path 11546" d="M47.028,19.355a9.678,9.678,0,1,0-9.715-9.563,9.661,9.661,0,0,0,9.715,9.563M46.966,3.417A6.258,6.258,0,1,1,40.73,9.676a6.258,6.258,0,0,1,6.236-6.259" transform="translate(-29.325 0)" fill="#506bd9"/>
    <path id="Path_11547" data-name="Path 11547" d="M149.045,153.6c-.764-.011-1.528-.024-2.293.006-.366.015-.45-.113-.439-.454.024-.745.013-1.492.006-2.239a1.711,1.711,0,1,0-3.412-.021c-.011.766-.017,1.531,0,2.295.011.321-.066.43-.407.42-.781-.028-1.563-.021-2.344-.006a1.693,1.693,0,0,0-1.787,1.713,1.673,1.673,0,0,0,1.783,1.7c.764.011,1.531.026,2.293-.006.39-.017.475.124.465.484-.026.764-.019,1.528,0,2.293a1.727,1.727,0,0,0,1.713,1.8,1.707,1.707,0,0,0,1.7-1.8c.011-.8.013-1.6,0-2.4,0-.274.073-.383.36-.37.443.019.888,0,1.334,0,.338,0,.674,0,1.013,0a1.713,1.713,0,1,0,.024-3.414" transform="translate(-108.752 -117.151)" fill="#506bd9"/>
  </g>
</svg>
