<svg id="Group_4936" data-name="Group 4936" xmlns="http://www.w3.org/2000/svg" xmlns:xlink="http://www.w3.org/1999/xlink" width="40.816" height="31.054" viewBox="0 0 40.816 31.054">
  <defs>
    <clipPath id="clip-path">
      <rect id="Rectangle_2296" data-name="Rectangle 2296" width="40.816" height="31.054" fill="none"/>
    </clipPath>
  </defs>
  <g id="Group_4935" data-name="Group 4935" transform="translate(0 0)" clip-path="url(#clip-path)">
    <path id="Path_11505" data-name="Path 11505" d="M40.347,25.587a14.3,14.3,0,0,1-3.715-10.312,15.4,15.4,0,0,0-.317-4.574A9.287,9.287,0,0,0,30.8,4.369c-.483-.212-.978-.317-.879-1.044A3.048,3.048,0,0,0,27.947,0H26.493a3.035,3.035,0,0,0-1.97,3.312c.1.727-.383.846-.873,1.051a9.215,9.215,0,0,0-5.281,5.572,2.257,2.257,0,0,0-2.743-.106c-.866.516-1.329.324-1.639-.661a2.094,2.094,0,0,0-1.712-1.7H9.855c-.82.41-1.534.965-1.507,1.963.02.74-.555.661-.925.9s-.588.093-.886-.165a2.017,2.017,0,0,0-2.869.112q-.436.416-.853.853A2.019,2.019,0,0,0,2.7,14.006c.251.291.4.522.165.879s-.165.906-.9.939A1.979,1.979,0,0,0,0,17.992v1.031a2,2,0,0,0,2.016,2.221c.694.04.608.549.826.892a.643.643,0,0,1-.106.892,2.009,2.009,0,0,0,.112,2.928q.387.407.793.793a2.013,2.013,0,0,0,2.928.1.655.655,0,0,1,.892-.1c.344.218.853.139.892.833a2,2,0,0,0,2.221,2.009c.37,0,.747.013,1.124,0a2.077,2.077,0,0,0,2.089-1.8,1.6,1.6,0,0,1,.185-.535,1.919,1.919,0,0,0,1.17.185c2.261-.007,4.521.02,6.775-.02a.978.978,0,0,1,1.11.76,4.274,4.274,0,0,0,4.211,2.875,4.247,4.247,0,0,0,4.184-2.908.979.979,0,0,1,1.13-.727c2.578.033,5.162.013,7.747.007.04-.033.079-.066.112-.1.013-.013.026-.02.04-.033s.013-.02.02-.026l.02-.02a1.047,1.047,0,0,0,.324-.707,1.485,1.485,0,0,0-.469-.952M27.18,1.864c.7-.033.919.469.985,1.1.086.787-.4.72-1.025.661-.271-.059-.912.317-.859-.568.033-.628.192-1.163.9-1.2M12.466,27.53c.079.489-.291.727-.747.76-.377.026-.754.013-1.124.013-.687,0-1.038-.33-.945-1.018a1.181,1.181,0,0,0-1.11-1.514,1.8,1.8,0,0,1-.707-.3,1.279,1.279,0,0,0-2,.291c-.39.522-.866.5-1.322.026-.178-.192-.364-.37-.549-.549-.707-.727-.707-.906-.007-1.639.231-.238.549-.436.555-.912-.344-.8-.654-1.692-1.1-2.525-.178-.344-.681-.231-1.044-.2-.787.046-1.124-.317-1.077-1.084a6.038,6.038,0,0,0,0-.773c-.02-.668.264-1.077.972-.991a1.216,1.216,0,0,0,1.56-1.15,1.207,1.207,0,0,1,.225-.555,1.38,1.38,0,0,0-.317-2.2.7.7,0,0,1-.02-1.13c.2-.212.4-.41.608-.615.76-.754.958-.773,1.686,0a1.039,1.039,0,0,0,1.573.225,1.666,1.666,0,0,1,.628-.271c1.025-.225,1.666-.7,1.448-1.884a.591.591,0,0,1,.5-.707,5.171,5.171,0,0,1,1.8,0c.509.1.575.535.516.952a1.185,1.185,0,0,0,1.117,1.507,1.858,1.858,0,0,1,.707.3,1.279,1.279,0,0,0,2-.291c.39-.516.873-.489,1.322-.02.106.106.212.218.317.33a13.584,13.584,0,0,0-.152,2.261c0,.344.007.687.013,1.031.007.284.013.568.013.853a14.2,14.2,0,0,1-3.622,9.743c-.033.033-.059.066-.1.106a.8.8,0,0,1-.165.053c-1.031.218-1.652.7-1.454,1.884m14.905,1.686a2.626,2.626,0,0,1-2.684-1.732h5.03a2.474,2.474,0,0,1-2.347,1.732m-7.806-3.629h-2.9a1,1,0,0,1,.04-.337,15.365,15.365,0,0,0,1.157-1.93,16,16,0,0,0,1.249-3.331,17.437,17.437,0,0,0,.476-2.829c.059-.648.086-1.3.086-1.957,0-.165,0-.317-.007-.483-.007-.2-.007-.41-.013-.615a12.68,12.68,0,0,1,.172-2.651,6.766,6.766,0,0,1,.337-1.157,7.618,7.618,0,0,1,8.494-4.7,7.5,7.5,0,0,1,6.094,7.159c.059,3.074-.046,6.141,1.15,9.069a22.911,22.911,0,0,0,2.036,3.761Z" transform="translate(0 0)" fill="#fff"/>
    <path id="Path_11506" data-name="Path 11506" d="M19.087,25.512a4.819,4.819,0,1,0-4.8,4.872,4.851,4.851,0,0,0,4.8-4.872M14.3,29.055a3.5,3.5,0,1,1,3.47-3.523,3.461,3.461,0,0,1-3.47,3.523" transform="translate(-3.204 -7.031)" fill="#fff"/>
  </g>
</svg>
