<svg id="Group_4961" data-name="Group 4961" xmlns="http://www.w3.org/2000/svg" xmlns:xlink="http://www.w3.org/1999/xlink" width="34.992" height="26.911" viewBox="0 0 34.992 26.911">
  <defs>
    <clipPath id="clip-path">
      <rect id="Rectangle_2306" data-name="Rectangle 2306" width="34.992" height="26.911" fill="#516ddd"/>
    </clipPath>
  </defs>
  <g id="Group_4960" data-name="Group 4960" clip-path="url(#clip-path)">
    <path id="Path_11557" data-name="Path 11557" d="M21.3,21.749c.429,0,.6-.081.573-.551a19,19,0,0,1,0-2.386c.04-.563-.17-.652-.678-.651q-8.978.025-17.957.011c-1.22,0-1.394-.178-1.4-1.429V3.237c0-1.17.171-1.342,1.337-1.342H28.852c.114,0,.227,0,.341,0a.8.8,0,0,1,.922.916c-.005.66,0,1.319,0,1.978,0,1.505,0,1.493,1.5,1.4.321-.021.363-.136.36-.408-.011-1.546,0-3.093-.008-4.639,0-.455-.125-.859-.644-.992-.005-.038-.01-.077-.014-.115H.713Q-.147-.147.031.713V21.18a1.223,1.223,0,0,0,1.194.571c2.3-.027,4.6-.011,6.9-.011,4.393,0,8.784-.007,13.177.008M16.01,18.857a1.069,1.069,0,0,1,1.1,1.115,1.112,1.112,0,1,1-2.223-.038,1.05,1.05,0,0,1,1.127-1.077" transform="translate(0 0)" fill="#516ddd"/>
    <path id="Path_11558" data-name="Path 11558" d="M182.621,55.631c-2.361.016-4.724-.011-7.087.011a1.9,1.9,0,0,0-2.03,2.05q-.01,7.524,0,15.048a1.909,1.909,0,0,0,1.646,2.072.189.189,0,0,0,.016.11h7.921c.014,0,.029-.012.042-.036a.042.042,0,0,0,0-.044c.885-.06,1.248-.4,1.6-1.422V57.184a2.15,2.15,0,0,0-2.107-1.553m-3.542,18.438a.783.783,0,0,1-.788-.834.763.763,0,0,1,.8-.814.81.81,0,0,1,.841.79.85.85,0,0,1-.853.857m-4.193-2.276c-.415,0-.579-.064-.577-.54q.033-6.207,0-12.412c0-.4.082-.547.522-.542q4.265.031,8.531,0c.492,0,.542.188.54.6-.016,2.068-.008,4.137-.008,6.2,0,2.046-.014,4.093.011,6.138.005.447-.112.563-.559.559q-4.23-.031-8.463,0" transform="translate(-149.735 -48.011)" fill="#516ddd"/>
    <path id="Path_11559" data-name="Path 11559" d="M83.2,167.8c-.01-.325-.238-.268-.431-.268q-3.546,0-7.09,0c-.159,0-.375-.084-.384.226a4.378,4.378,0,0,1-2.008,3.274h11.9A4.035,4.035,0,0,1,83.2,167.8" transform="translate(-63.245 -144.58)" fill="#516ddd"/>
    <path id="Path_11560" data-name="Path 11560" d="M123.282,79.511c-1-.592-1.023-.645-.477-1.627.01-.018,0-.045,0-.133-1,.195-1.994.386-2.985.575-.2.037-.175.181-.151.311.179.979.366,1.959.551,2.939.4-.8.844-.816,1.594-.49a3.169,3.169,0,0,0,3.913-1.227,3.343,3.343,0,0,1-2.448-.348" transform="translate(-103.267 -67.101)" fill="#516ddd"/>
    <path id="Path_11561" data-name="Path 11561" d="M196.427,95.361c-.095.071-.168.1-.19.151-.271.618-.586.726-1.27.415a3.23,3.23,0,0,0-4.054,1.16,3.975,3.975,0,0,1,2.385.342c1.1.642,1.13.692.44,1.809,1-.19,1.927-.373,2.859-.545.31-.058.456-.133.362-.529-.218-.911-.353-1.841-.53-2.8" transform="translate(-164.764 -82.299)" fill="#516ddd"/>
  </g>
</svg>
