<svg xmlns="http://www.w3.org/2000/svg" width="20.124" height="22.999" viewBox="0 0 20.124 22.999">
  <path id="_8541611_calendar_schedule_event_date_icon" data-name="8541611_calendar_schedule_event_date_icon" d="M0,20.843A2.157,2.157,0,0,0,2.156,23H17.968a2.157,2.157,0,0,0,2.156-2.156V8.625H0Zm14.375-8.8a.541.541,0,0,1,.539-.539h1.8a.541.541,0,0,1,.539.539v1.8a.541.541,0,0,1-.539.539h-1.8a.541.541,0,0,1-.539-.539Zm0,5.75a.541.541,0,0,1,.539-.539h1.8a.541.541,0,0,1,.539.539v1.8a.541.541,0,0,1-.539.539h-1.8a.541.541,0,0,1-.539-.539Zm-5.75-5.75a.541.541,0,0,1,.539-.539h1.8a.541.541,0,0,1,.539.539v1.8a.541.541,0,0,1-.539.539h-1.8a.541.541,0,0,1-.539-.539Zm0,5.75a.541.541,0,0,1,.539-.539h1.8a.541.541,0,0,1,.539.539v1.8a.541.541,0,0,1-.539.539h-1.8a.541.541,0,0,1-.539-.539Zm-5.75-5.75a.541.541,0,0,1,.539-.539h1.8a.541.541,0,0,1,.539.539v1.8a.541.541,0,0,1-.539.539h-1.8a.541.541,0,0,1-.539-.539Zm0,5.75a.541.541,0,0,1,.539-.539h1.8a.541.541,0,0,1,.539.539v1.8a.541.541,0,0,1-.539.539h-1.8a.541.541,0,0,1-.539-.539ZM17.968,2.875H15.812V.719A.721.721,0,0,0,15.093,0H13.656a.721.721,0,0,0-.719.719V2.875H7.187V.719A.721.721,0,0,0,6.469,0H5.031a.721.721,0,0,0-.719.719V2.875H2.156A2.157,2.157,0,0,0,0,5.031V7.187H20.124V5.031A2.157,2.157,0,0,0,17.968,2.875Z" fill="#19296a" opacity="0.4"/>
</svg>
