<svg id="Group_3292" data-name="Group 3292" xmlns="http://www.w3.org/2000/svg" xmlns:xlink="http://www.w3.org/1999/xlink" width="48.787" height="48.761" viewBox="0 0 48.787 48.761">
  <defs>
    <clipPath id="clip-path">
      <rect id="Rectangle_1531" data-name="Rectangle 1531" width="48.787" height="48.761" fill="none"/>
    </clipPath>
  </defs>
  <g id="Group_3291" data-name="Group 3291" clip-path="url(#clip-path)">
    <path id="Path_9394" data-name="Path 9394" d="M493.919,636.013a1.371,1.371,0,0,0,.6-2.454,3.6,3.6,0,0,1-1.189-2.432c0-.855-.445-1.056-1.1-1.261a1,1,0,0,0-1.212.278c-1.386,1.445-2.836,1.43-4.24.024-.116-.115-.23-.231-.346-.346-.09-.089-.168-.167-.326-.107a14.919,14.919,0,0,0-2.029.749c-.18.1-.391.19-.421.454a4.888,4.888,0,0,1-1.472,2.888,1.35,1.35,0,0,0,.616,2.139c.531.177,1.067.343,1.589.543A3.635,3.635,0,0,1,486.7,638.7c.309.961.779,1.311,1.728,1.058.29,0,.582-.021.869,0,.37.034.549-.059.663-.468a4.169,4.169,0,0,1,2.771-2.9c.39-.141.79-.255,1.184-.389" transform="translate(-454.929 -594.505)" fill="#fff"/>
    <path id="Path_9395" data-name="Path 9395" d="M166.857,635.932a1.345,1.345,0,0,0,.547-2.369,3.513,3.513,0,0,1-1.152-2.044c-.083-.915-.635-1.213-1.351-1.442a7.629,7.629,0,0,1-.874-.287.681.681,0,0,0-.927.214,2.837,2.837,0,0,1-2.345,1.15,3.223,3.223,0,0,1-2.25-1.265c-.112-.119-.2-.313-.441-.21a7.267,7.267,0,0,0-1.536.594c-.019.014-.011.069-.011.106a4.69,4.69,0,0,1-1.488,3.379,1.349,1.349,0,0,0,.6,2.143c.531.176,1.067.343,1.59.542a3.535,3.535,0,0,1,2.319,2.211c.3,1.053.9,1.2,1.784,1.065a6.828,6.828,0,0,1,.869.007c.382.049.508-.106.61-.464a4.2,4.2,0,0,1,2.77-2.9c.424-.155.856-.286,1.284-.43" transform="translate(-146.057 -594.463)" fill="#fff"/>
    <path id="Path_9396" data-name="Path 9396" d="M247.691,6.1a2.512,2.512,0,0,0,2.473-.977,2.324,2.324,0,0,1,1.9-.772c2.1,0,4.2.06,6.3-.019a3.706,3.706,0,0,1,3.309,1.354.975.975,0,0,0,.791.408c.668,0,1.336,0,2.012,0a9.485,9.485,0,0,0-17.714,0,7.008,7.008,0,0,1,.927.006" transform="translate(-232.974 0)" fill="#fff"/>
    <path id="Path_9397" data-name="Path 9397" d="M12.141,774.914a2.762,2.762,0,0,0-2.127-2.208,1.642,1.642,0,0,0-2.143.41,2.319,2.319,0,0,1-3.408.093,1.785,1.785,0,0,0-2.47-.4c-.08.039-.174.049-.258.081a2.616,2.616,0,0,0-1.723,2.46c-.008.761.022,1.522-.012,2.281-.017.378.122.435.457.432,1.865-.015,3.731-.007,5.6-.007,1.9,0,3.8,0,5.705-.007.156,0,.44.15.438-.208a24.563,24.563,0,0,0-.056-2.928" transform="translate(0 -729.32)" fill="#fff"/>
    <path id="Path_9398" data-name="Path 9398" d="M339.3,774.78a2.788,2.788,0,0,0-2.146-2.255,1.646,1.646,0,0,0-2.14.421,2.338,2.338,0,0,1-3.413.082,1.735,1.735,0,0,0-2.418-.413,2.12,2.12,0,0,1-.258.08,2.63,2.63,0,0,0-1.763,2.489c-.008.742.02,1.486-.011,2.227-.016.373.075.484.466.479,1.865-.023,3.731-.01,5.6-.01,1.9,0,3.8,0,5.705-.006.158,0,.433.141.43-.219a25.923,25.923,0,0,0-.048-2.875" transform="translate(-308.862 -729.143)" fill="#fff"/>
    <path id="Path_9399" data-name="Path 9399" d="M666.391,774.544c-.24-1.242-1.178-1.741-2.273-2.146a1.48,1.48,0,0,0-1.9.41,2.352,2.352,0,0,1-3.452.174,1.875,1.875,0,0,0-2.568-.4c-.048.023-.1.028-.155.046a2.63,2.63,0,0,0-1.757,2.493c-.008.742.022,1.486-.011,2.227-.018.384.093.477.473.472,1.865-.021,3.731-.01,5.6-.01,1.9,0,3.8,0,5.705-.007.144,0,.421.139.415-.171a18.187,18.187,0,0,0-.073-3.086" transform="translate(-617.708 -729.071)" fill="#fff"/>
    <path id="Path_9400" data-name="Path 9400" d="M264.194,232.158a11.148,11.148,0,0,0-3.223.075c-.754.24-1.293,1.159-1.929,1.773a2.643,2.643,0,0,1-1.915.763q-2.258-.006-4.514,0a2.651,2.651,0,0,1-1.951-.808q-.713-.709-1.423-1.422a.968.968,0,0,0-.642-.371c-.715-.013-1.431,0-2.162,0a9.521,9.521,0,0,0,17.76-.007" transform="translate(-232.662 -219.104)" fill="#fff"/>
    <path id="Path_9401" data-name="Path 9401" d="M202.429,393.788c-.031.293.083.4.363.35.433-.081.554.1.519.522a2.9,2.9,0,0,0,.81,2.54,3.377,3.377,0,0,1,.813,3.412c-.047.255-.415.477-.105.777a4.678,4.678,0,0,0,.637.584.773.773,0,0,0,1.042-.105c.275-.289.724-.434.5-1.079a3.14,3.14,0,0,1,.681-3.559,2.609,2.609,0,0,0,.832-1.717c.027-.36.016-.724.007-1.086,0-.191.029-.338.259-.285.64.146.654-.241.618-.695a3.02,3.02,0,0,1,0-.651c.05-.357-.108-.448-.424-.4s-.45-.038-.5-.406a2.319,2.319,0,0,0-1.279-1.842.622.622,0,0,1-.411-.75c.072-.426-.113-.548-.5-.484a2.124,2.124,0,0,1-.326,0,1.809,1.809,0,0,1-.325,0c-.509-.1-.663.131-.6.609.028.2.043.393-.234.525a2.547,2.547,0,0,0-1.481,2.064c-.025.181-.037.337-.269.284-.623-.141-.671.217-.625.687a3.541,3.541,0,0,1,0,.705" transform="translate(-191.106 -367.16)" fill="#fff"/>
    <path id="Path_9402" data-name="Path 9402" d="M549.8,390.093a.4.4,0,0,1-.273-.4c-.029-.742-.04-.741-.775-.741a2.391,2.391,0,0,1-.38,0c-.459-.077-.667.07-.587.568.034.213.062.428-.242.573a2.548,2.548,0,0,0-1.475,2.069c-.02.146-.005.322-.223.271-.784-.184-.681.343-.665.809a4.84,4.84,0,0,1,0,.6c-.021.245.043.395.319.336.515-.109.6.15.56.59a2.793,2.793,0,0,0,.784,2.442,3.372,3.372,0,0,1,.848,3.4c-.048.255-.359.473-.172.744a2.718,2.718,0,0,0,.614.61.786.786,0,0,0,1.09-.031c.291-.29.765-.451.524-1.116a2.984,2.984,0,0,1,.45-3.263,3.469,3.469,0,0,0,1.075-2.936c-.037-.349.074-.506.436-.44s.5-.071.442-.433a2.871,2.871,0,0,1,0-.434,1.493,1.493,0,0,1,0-.217c.072-.466-.019-.777-.6-.658-.257.053-.27-.11-.3-.311a2.574,2.574,0,0,0-1.452-2.03" transform="translate(-514.706 -367.198)" fill="#fff"/>
    <path id="Path_9403" data-name="Path 9403" d="M46.6,534c-.027.277.062.416.353.358.495-.1.561.155.527.568a2.846,2.846,0,0,0,.806,2.488,3.056,3.056,0,0,1,.773,3.4,1.014,1.014,0,0,0,.436,1.289.849.849,0,0,0,1.1.069c.609-.4.69-.668.542-1.194a3.125,3.125,0,0,1,.471-3.223,3.522,3.522,0,0,0,1.086-2.987c-.036-.344.086-.468.416-.405.386.073.524-.09.463-.467a2.394,2.394,0,0,1,0-.38,1.434,1.434,0,0,1,0-.163c.055-.472.04-.877-.629-.734-.239.051-.238-.118-.263-.291a2.613,2.613,0,0,0-1.435-2.045c-.14-.073-.293-.1-.293-.329,0-.262.139-.632-.072-.763s-.558-.045-.846-.052a4.019,4.019,0,0,1-.434,0c-.306-.041-.393.074-.4.383,0,.249.174.557-.22.745a2.547,2.547,0,0,0-1.492,2.116c-.021.182-.075.277-.257.238-.665-.142-.681.256-.633.733a3.378,3.378,0,0,1,0,.651" transform="translate(-43.977 -499.545)" fill="#fff"/>
    <path id="Path_9404" data-name="Path 9404" d="M380.146,534.259c.58.118.656-.2.6-.661a2.559,2.559,0,0,1,0-.65c.049-.365-.1-.487-.445-.433-.286.045-.427-.016-.472-.373a2.374,2.374,0,0,0-1.3-1.888.589.589,0,0,1-.4-.7c.076-.429-.1-.587-.521-.518a1.98,1.98,0,0,1-.326,0,1.465,1.465,0,0,1-.271,0c-.526-.1-.719.108-.629.63a.411.411,0,0,1-.254.514,2.545,2.545,0,0,0-1.466,2.074c-.021.156-.022.308-.232.263-.694-.149-.7.276-.658.762a3.679,3.679,0,0,1,0,.652c-.023.259.066.384.329.327.536-.117.583.18.55.6a2.806,2.806,0,0,0,.791,2.439,3.287,3.287,0,0,1,.828,3.4c-.157.714-.12.955.46,1.357a.8.8,0,0,0,1.094-.046c.292-.291.749-.452.515-1.119a3.133,3.133,0,0,1,.7-3.554,2.645,2.645,0,0,0,.777-1.4,6.854,6.854,0,0,0,.047-1.354c0-.206.015-.374.281-.32" transform="translate(-352.87 -499.445)" fill="#fff"/>
    <path id="Path_9405" data-name="Path 9405" d="M700.95,534.166c-.034.3.1.394.367.345.443-.082.549.119.515.528a2.9,2.9,0,0,0,.813,2.539,3.373,3.373,0,0,1,.809,3.412c-.048.254-.415.477-.1.776a4.668,4.668,0,0,0,.638.583.775.775,0,0,0,1.042-.109c.276-.289.723-.443.49-1.081a2.988,2.988,0,0,1,.443-3.265,3.485,3.485,0,0,0,1.081-2.934c-.035-.334.05-.521.426-.447.406.08.5-.122.45-.479a2.6,2.6,0,0,1,0-.38,1.752,1.752,0,0,1,0-.271c.074-.467-.07-.715-.588-.611-.248.049-.278-.093-.309-.3a2.569,2.569,0,0,0-1.444-2.034.4.4,0,0,1-.281-.393c-.032-.749-.045-.749-.82-.749a4.124,4.124,0,0,1-.543,0c-.327-.044-.376.107-.382.4-.006.25.168.553-.231.741a2.531,2.531,0,0,0-1.478,2.067c-.025.186-.046.332-.273.279-.633-.146-.659.231-.621.691a3.626,3.626,0,0,1,0,.705" transform="translate(-661.769 -499.7)" fill="#fff"/>
    <path id="Path_9406" data-name="Path 9406" d="M234.46,113.852c.724-.017,1.45,0,2.175-.007a2.672,2.672,0,0,1,2,.825c.472.476.952.945,1.42,1.424a1.134,1.134,0,0,0,.868.367q2.175-.015,4.351,0a1.134,1.134,0,0,0,.872-.356c.379-.39.759-.779,1.156-1.15.191-.178.193-.3,0-.476-.422-.4-.825-.815-1.235-1.226-.748-.748-.748-.748-1.548-.033-.054.049-.108.1-.165.141a2.7,2.7,0,0,1-3.194.129,2.734,2.734,0,0,1-1.115-2.95,4.194,4.194,0,0,1,1.329-1.86,2.592,2.592,0,0,0-2.8.892,2.272,2.272,0,0,1-1.892.792c-.725,0-1.45.011-2.175-.006-.282-.006-.407.05-.448.37a10.779,10.779,0,0,0,0,2.763c.036.276.124.366.4.359" transform="translate(-220.894 -102.533)" fill="#fff"/>
    <path id="Path_9407" data-name="Path 9407" d="M381.307,113.115c.786,0,1.312-.01,1.837,0,.244.007.346-.061.377-.323a11.132,11.132,0,0,0,.085-2.059c-.07-1.1-.073-1.1-1.193-1.1a5.323,5.323,0,0,0-.6,0,3.525,3.525,0,0,1-3.405-1.367.841.841,0,0,0-.642-.367,12.947,12.947,0,0,0-3.3.068c-.669.174-1.159,1.033-1.729,1.586-.052.05-.1.1-.153.154a.984.984,0,1,0,1.387,1.367c.517-.507,1.037-1.013,1.533-1.541.21-.224.333-.228.55,0,.729.757,1.533,1.446,2.211,2.244.885,1.043,1.87,1.693,3.035,1.337" transform="translate(-351.401 -101.802)" fill="#fff"/>
    <path id="Path_9408" data-name="Path 9408" d="M62.5,215.937c0,1.193,0,1.166,1.2,1.2.467.015.551-.126.549-.565-.019-3.8-.012-7.609-.01-11.414,0-.781.3-1.084,1.08-1.089.653,0,1.3,0,1.957,0,1.346,0,1.328,0,1.326-1.351,0-.37-.14-.4-.44-.4-.96.016-1.921,0-2.881.006a2.615,2.615,0,0,0-2.784,2.789q0,2.826,0,5.652Z" transform="translate(-59.006 -191.019)" fill="#fff"/>
    <path id="Path_9409" data-name="Path 9409" d="M716.95,204.148c.634-.018,1.269-.006,1.9-.006.914,0,1.182.273,1.182,1.207q0,5.272,0,10.544c0,1.321,0,1.307,1.306,1.314.357,0,.446-.094.444-.446-.018-1.957-.008-3.913-.009-5.87s.011-3.913,0-5.869a2.6,2.6,0,0,0-2.624-2.619c-.416-.006-.833,0-1.25,0-1.387,0-1.374,0-1.355,1.375,0,.331.122.38.407.371" transform="translate(-676.496 -191.088)" fill="#fff"/>
    <path id="Path_9410" data-name="Path 9410" d="M602.555,124.472c-.23,0-.257.066-.211.281a11.3,11.3,0,0,1-.059,4.944c.786,0,1.543-.005,2.3,0,.2,0,.268-.067.318-.263a9.428,9.428,0,0,0,.008-4.67c-.052-.207-.113-.3-.346-.3-.67.015-1.34.012-2.01,0" transform="translate(-568.626 -117.514)" fill="#fff"/>
    <path id="Path_9411" data-name="Path 9411" d="M528.672,248.993c-.725,0-1.372.02-2.017-.008a.545.545,0,0,0-.607.388,10.534,10.534,0,0,1-1.8,2.765,17.24,17.24,0,0,1-1.917,1.789,9.511,9.511,0,0,0,6.338-4.935" transform="translate(-493.144 -235.069)" fill="#fff"/>
    <path id="Path_9412" data-name="Path 9412" d="M525.454,9.607c.044.1.094.2.229.2h2.307A9.575,9.575,0,0,0,521.6,4.854a11.858,11.858,0,0,1,3.85,4.753" transform="translate(-492.455 -4.583)" fill="#fff"/>
  </g>
</svg>
