<svg id="Group_4966" data-name="Group 4966" xmlns="http://www.w3.org/2000/svg" xmlns:xlink="http://www.w3.org/1999/xlink" width="25.195" height="29.324" viewBox="0 0 25.195 29.324">
  <defs>
    <clipPath id="clip-path">
      <rect id="Rectangle_2308" data-name="Rectangle 2308" width="25.195" height="29.324" fill="#637ce0" stroke="#637ce0" stroke-width="0.4"/>
    </clipPath>
  </defs>
  <g id="Group_4965" data-name="Group 4965" clip-path="url(#clip-path)">
    <path id="Path_11567" data-name="Path 11567" d="M9.668,25.064c-2.523.012-5.045,0-7.568.017-.426,0-.531-.109-.531-.532q.02-11.267,0-22.533c0-.359.067-.477.455-.476q5.056.025,10.111,0c.393,0,.459.13.455.484-.017,1.837-.01,3.674-.007,5.511,0,.861.212,1.078,1.056,1.078,1.877,0,3.754.013,5.632-.009.413,0,.556.091.545.527-.03,1.171-.012,2.341-.01,3.513,0,.483-.144,1.055.064,1.424.219.386.888.228,1.321.437.027.012.07-.013.131-.027q0-3.353,0-6.716a.747.747,0,0,0-.382-.705,2.783,2.783,0,0,1-.6-.5Q17.7,3.979,15.063,1.4c-.489-.476-1-.931-1.5-1.4H1.09C.658.265.185.491.106,1.078Q.113,5.7.12,10.327q0,7.256-.006,14.511c0,.2.125.444-.114.608v.12a2.247,2.247,0,0,0,2.237.93c2.28-.04,4.561-.013,6.842-.013h1.6a2.893,2.893,0,0,1-.324-.895c.006-.549-.291-.527-.684-.525M14.095,2.692l4.7,4.4c-1.583,0-3,0-4.423,0-.21,0-.274-.109-.274-.3,0-1.32,0-2.64,0-4.1" fill="#637ce0" stroke="#637ce0" stroke-width="0.4"/>
    <path id="Path_11568" data-name="Path 11568" d="M111.834,138.217a6.583,6.583,0,1,0-8.026,7.491c.136.036.34-.013.4.194h1.938c.356-.095.718-.17,1.066-.287a6.493,6.493,0,0,0,4.538-4.885c.043-.177-.013-.413.211-.523v-1.7c-.172-.041-.108-.188-.129-.294m-6.506,6.472a5.391,5.391,0,1,1,5.413-5.345,5.393,5.393,0,0,1-5.413,5.345" transform="translate(-86.767 -116.578)" fill="#637ce0" stroke="#637ce0" stroke-width="0.4"/>
    <path id="Path_11569" data-name="Path 11569" d="M36.8,108.055c1.433-.016,2.866-.006,4.3-.006,1.473,0,2.946-.006,4.42,0,.442,0,.716-.185.714-.625s-.293-.618-.725-.617q-4.36.007-8.719,0c-.446,0-.777.161-.776.639s.34.61.787.6" transform="translate(-31.638 -93.841)" fill="#637ce0" stroke="#637ce0" stroke-width="0.4"/>
    <path id="Path_11570" data-name="Path 11570" d="M36.807,140.85c-.455,0-.772.176-.778.639-.007.48.329.628.777.625,1.893-.008,3.787,0,5.68,0a.44.44,0,0,0,.457-.2c.2-.34.446-.657.721-1.054-2.348,0-4.6,0-6.857,0" transform="translate(-31.654 -123.748)" fill="#637ce0" stroke="#637ce0" stroke-width="0.4"/>
    <path id="Path_11571" data-name="Path 11571" d="M36.731,74.052c.845-.018,1.691,0,2.538,0s1.691-.015,2.537,0c.449.011.724-.2.716-.617s-.279-.628-.725-.625c-1.691.011-3.383.008-5.074,0-.44,0-.709.209-.713.634s.282.614.721.606" transform="translate(-31.637 -63.969)" fill="#637ce0" stroke="#637ce0" stroke-width="0.4"/>
    <path id="Path_11572" data-name="Path 11572" d="M38.913,176.059h1.871c.913,0,.913-.013.929-.928,0-.268-.068-.342-.331-.341-1.549.011-3.1.007-4.648,0-.436,0-.712.216-.714.64s.287.63.72.625c.725-.006,1.449,0,2.173,0" transform="translate(-31.646 -153.566)" fill="#637ce0" stroke="#637ce0" stroke-width="0.4"/>
    <path id="Path_11573" data-name="Path 11573" d="M147.231,164.909c-.585-.013-1.171-.05-1.755-.038-.384.008-.465-.142-.436-.5.049-.6.034-1.211.07-1.815.03-.5-.138-.838-.662-.892-.465-.049-.742.283-.756.873-.011.484,0,.968,0,1.452h-.114c0,.464,0,.928,0,1.392,0,.625.23.862.872.883.907.028,1.814.046,2.722.07.472.013.792-.18.809-.679s-.26-.737-.748-.748" transform="translate(-126.142 -142.032)" fill="#637ce0" stroke="#637ce0" stroke-width="0.4"/>
  </g>
</svg>
