<svg xmlns="http://www.w3.org/2000/svg" width="27.679" height="22.401" viewBox="0 0 27.679 22.401">
  <g id="Group_4590" data-name="Group 4590" transform="translate(0.2 0.2)">
    <g id="Group_4590-2" data-name="Group 4590" transform="translate(0 0)">
      <path id="Path_10457" data-name="Path 10457" d="M27.207,7.706a6.444,6.444,0,0,0-5.2-5.511c-.3-.062-.581-.064-.542-.542s.324-.291.533-.308a.646.646,0,0,0,.685-.694A.623.623,0,0,0,21.97,0c-.766,0-1.535.007-2.3,0-.467,0-.747.222-.74.681,0,.425.275.645.714.667.192.011.48-.156.5.28.015.372-.106.485-.456.555a6.428,6.428,0,0,0-5.244,5.282c-.084.434.165,1.051-.218,1.262-.366.2-.929.024-1.4.062-.359.029-.487-.093-.586-.438A2.97,2.97,0,0,0,6.5,8.393c-.086.3-.2.4-.518.394C4.3,8.77,2.614,8.779.934,8.781.17,8.781,0,8.948,0,9.717c0,3.033,0,8.27,0,11.305C0,21.848.159,22,1,22q4.2,0,8.391,0,4.222,0,8.446,0c.707,0,.914-.211.918-.91,0-.769,0-3.738,0-4.506,0-.454-.229-.747-.694-.742-.438,0-.65.289-.656.718-.007.476-.029,3.156.007,3.627.029.39-.1.482-.482.482q-7.569-.02-15.138,0c-.4,0-.471-.112-.469-.485.018-2.449.022-7.1,0-9.55,0-.44.126-.526.54-.526q6.089.023,12.177,0a.584.584,0,0,1,.678.476A6.441,6.441,0,0,0,27.207,7.706M10.581,8.785c-.4-.022-.8,0-1.2,0s-.8-.013-1.2,0c-.33.015-.447-.057-.258-.385a1.646,1.646,0,0,1,2.9-.018c.163.282.148.425-.236.4M20.769,13.62a5.1,5.1,0,1,1,5.136-5.094,5.114,5.114,0,0,1-5.136,5.094" transform="translate(0 0)" fill="#506bda" stroke="#4f6bd9" stroke-width="0.4"/>
      <path id="Path_10458" data-name="Path 10458" d="M94.365,25.463c-.436-.015-.877-.018-1.313,0-.267.011-.346-.077-.339-.339.018-.6.013-1.2,0-1.806a.64.64,0,0,0-.659-.718c-.471-.007-.687.286-.7.736s0,.877,0,1.313c0,.476-.011.949,0,1.425a.674.674,0,0,0,.711.736c.766.015,1.533.013,2.3,0a.619.619,0,0,0,.692-.674.63.63,0,0,0-.7-.672" transform="translate(-71.233 -17.622)" fill="#506bda" stroke="#4f6bd9" stroke-width="0.4"/>
    </g>
  </g>
</svg>
