<svg id="Group_4149" data-name="Group 4149" xmlns="http://www.w3.org/2000/svg" xmlns:xlink="http://www.w3.org/1999/xlink" width="24.429" height="17.167" viewBox="0 0 24.429 17.167">
  <defs>
    <clipPath id="clip-path">
      <rect id="Rectangle_2016" data-name="Rectangle 2016" width="24.429" height="17.167" fill="#516ddd" stroke="#516dde" stroke-width="0.4"/>
    </clipPath>
  </defs>
  <g id="Group_4148" data-name="Group 4148" clip-path="url(#clip-path)">
    <path id="Path_10453" data-name="Path 10453" d="M24.426,2.221A2.147,2.147,0,0,0,22.218,0Q12.214,0,2.21,0A2.147,2.147,0,0,0,0,2.221Q0,8.584,0,14.948a2.171,2.171,0,0,0,2.255,2.218q4.973,0,9.945,0t9.968,0a2.151,2.151,0,0,0,2.255-2.218q.007-6.363,0-12.727m-2.469-.778c-.061.065-.1.114-.151.161l-7.98,7.934a2.152,2.152,0,0,1-2.715.409,2.264,2.264,0,0,1-.483-.385Q6.61,5.57,2.6,1.578c-.036-.036-.072-.075-.128-.135ZM1.55,14.762l-.1-.079V2.493l.054-.052a1.093,1.093,0,0,0,.126.194q2.9,2.894,5.817,5.78c.141.14.14.2,0,.345q-2.956,2.994-5.9,6m.959.96-.044-.046a1.694,1.694,0,0,0,.185-.141q2.9-2.88,5.8-5.766c.154-.153.225-.138.365.006A12.826,12.826,0,0,0,10,10.917a3.567,3.567,0,0,0,4.77-.3c.285-.276.574-.551.843-.842.137-.148.211-.16.365-.007,1.51,1.513,3.031,3.016,4.547,4.524.471.469.935.946,1.412,1.429Zm20.48-1.014c-.07-.063-.12-.105-.166-.151q-2.927-2.905-5.854-5.81c-.1-.1-.17-.153-.028-.293q2.974-2.941,5.937-5.9c.026-.027.054-.052.111-.1Z" transform="translate(0 -0.001)" fill="#516ddd" stroke="#516dde" stroke-width="0.4"/>
  </g>
</svg>
