<svg id="Group_4953" data-name="Group 4953" xmlns="http://www.w3.org/2000/svg" xmlns:xlink="http://www.w3.org/1999/xlink" width="35.9" height="36.755" viewBox="0 0 35.9 36.755">
  <defs>
    <clipPath id="clip-path">
      <rect id="Rectangle_2302" data-name="Rectangle 2302" width="35.9" height="36.755" fill="#fff"/>
    </clipPath>
  </defs>
  <g id="Group_4952" data-name="Group 4952" clip-path="url(#clip-path)">
    <path id="Path_11537" data-name="Path 11537" d="M36.383,4.434c-.861-.079-1.064-.333-1.069-1.167C35.3,1.089,34.195.015,32.061.009q-8.7-.016-17.408.005a2.953,2.953,0,0,0-3.26,3.266c-.011,2.418-.1,4.842.026,7.252.116,2.239-.05,4.25-2.123,5.639a1.406,1.406,0,0,0-.457,1.779,1.5,1.5,0,0,0,1.56.993c.43-.029.829-.048,1,.388.193.5-.322.668-.581.913-1.624,1.544-3.276,3.057-4.9,4.6-1.077,1.024-1.2,2.244-.356,3.1.913.932,2.159.81,3.223-.325.8-.858,1.592-1.732,2.608-2.838,0,.523-.013.694,0,.861.224,2.373-.908,5.129,1.906,6.774.029.018.037.079.045.121.383,2.357,2.194,2.542,4.058,2.706,5.248.47,10.5.932,15.742,1.468,2.635.269,3.891-.8,4.124-3.469q1.081-12.41,2.281-24.8c.235-2.447-.689-3.78-3.165-4.007M10.71,17.644a1.534,1.534,0,0,1-.338.187c-.4-.114-.721-.348-.378-.721,1.032-1.117,2.115-2.183,3.192-3.255a.443.443,0,0,1,.689.063.4.4,0,0,1-.034.583c-1.04,1.048-2.083,2.1-3.131,3.142M17.375,19.8c-1.769,2.009-1.753,2.025-3.7.132-.061-.061-.14-.106-.2-.172-.488-.591-1.61-1.119-1.4-1.713.293-.821,1.251-1.407,1.927-2.091.061-.061.137-.106.259-.2a5.764,5.764,0,0,1,.478.385c.874.863,1.721,1.748,2.611,2.592.407.385.407.631.024,1.067m1.605-.026c.2-.193.428-.322.684-.082a.437.437,0,0,1,.013.686q-1.564,1.584-3.152,3.147a1.452,1.452,0,0,1-.4.185,1.622,1.622,0,0,1-.364-.317c-.143-.222-.008-.422.148-.578q1.529-1.529,3.07-3.041M7.911,26.884c-.454.488-.961.876-1.544.24-.523-.568-.153-1.043.293-1.46l5.29-4.923c.216-.2.407-.52.744-.174.174.177.327.37.5.568-.177.209-.314.378-.462.539q-2.408,2.606-4.821,5.211m6.307,3.868c-.018.562-.3.554-.689.351a1.93,1.93,0,0,1-1.016-1.856c-.013-1.668.029-3.34-.018-5.008-.026-1.011.731-1.484,1.325-2,.517-.451.826.145.8.557a1.629,1.629,0,0,0,1.032,1.9c.953.356,1.576-.243,2.178-.847.808-.808,1.6-1.629,2.423-2.418a1.74,1.74,0,0,0,.581-2.006,1.434,1.434,0,0,0-1.661-.987c-.56.09-.8-.251-1.1-.549-.686-.678-1.36-1.37-2.049-2.046a2.358,2.358,0,0,1-.964-1.88c.026-1.069-.884-1.457-2.55-1.275,0-3.165-.024-6.328.011-9.488.016-1.423.7-2.051,2.152-2.054q8.7-.024,17.395,0c1.513,0,2.157.655,2.159,2.178q.02,12.917,0,25.832c0,1.463-.657,2.123-2.07,2.144-1.8.029-3.6-.021-5.4.024-.708.018-.9-.232-.89-.908s.327-1.563-.84-1.734c-.325-.048-.187-.438-.23-.678a1.917,1.917,0,0,0-2.083-1.769c-1.8,0-3.6-.008-5.4,0a1.893,1.893,0,0,0-2.017,1.687c-.045.211-.026.594-.108.615-1.288.33-.942,1.354-.966,2.21m9.839-.871c.576-.005.76.214.75.779-.011.541-.253.668-.729.663-1.362-.013-2.724-.005-4.087,0-1.317,0-2.635-.029-3.952.011-.615.018-.718-.256-.721-.784s.206-.671.7-.668q4.019.028,8.039,0M16.4,28.27c.018-.507.259-.895.755-.905q2.887-.055,5.776,0a.836.836,0,0,1,.781.9c.021.62-.475.5-.847.51-.964.011-1.927,0-2.888,0-.919,0-1.84.011-2.759,0-.359-.005-.84.153-.818-.507M38.453,7.816Q37.289,20.4,36.145,32.993c-.216,2.342-.655,2.732-2.97,2.529-5.6-.488-11.191-1.014-16.787-1.521a2.063,2.063,0,0,1-1.127-.3c-.359-.267-.789-.6-.681-1.043.121-.5.678-.24,1.03-.24C21.056,32.4,26.5,32.4,31.948,32.4c2.321,0,3.379-1.045,3.387-3.374.016-3.733.005-7.468.005-11.2,0-3.6-.016-7.2.018-10.805.005-.5-.38-1.381.335-1.447a2.342,2.342,0,0,1,2.476.855,2.2,2.2,0,0,1,.282,1.389" transform="translate(-3.684)" fill="#fff"/>
    <path id="Path_11538" data-name="Path 11538" d="M3.018,18.621c.969-1.629,1.874-3.215,1.624-5.272A38.929,38.929,0,0,1,4.6,8.605q0-3.164,0-6.331C4.6.63,4.032.057,2.408.044.687.028.069.609.064,2.291.059,5.984.2,9.685.009,13.368-.1,15.427.774,16.99,1.7,18.624c.428.755.85.789,1.323,0m-.6-1.04c-.348-.628-.866-.919-.581-1.357a.735.735,0,0,1,.953-.04c.473.51-.243.737-.372,1.4M1.191,1.847c.048-.781.715-.671,1.2-.671s1.159-.066,1.13.742c-.034.911-.781.42-1.185.576-.467-.1-1.2.275-1.146-.647M1.183,14.239q.059-4.938,0-9.876c-.013-1.04.647-.8,1.23-.837.673-.04,1.172-.026,1.122.929C3.451,6.076,3.512,7.7,3.512,9.326s-.053,3.252.018,4.873c.04.935-.512.85-1.082.8-.528-.048-1.278.335-1.265-.763" transform="translate(0 -0.032)" fill="#fff"/>
    <path id="Path_11539" data-name="Path 11539" d="M58.026,21.886c3.31-2.437,5.045-5.731,5.5-10.182.121-.576-.2-1.03-1.272-1.093A7.745,7.745,0,0,1,58.42,9.343a1.915,1.915,0,0,0-2.373.013,8.654,8.654,0,0,1-3.968,1.28c-.892.061-1.1.457-1.045,1.257a12.938,12.938,0,0,0,5.372,9.945,1.164,1.164,0,0,0,1.621.048M52.205,12.7c-.092-.634.045-1.024.76-1.045.172-.005.338-.1.512-.114,1.447-.158,2.685-1.547,4-1.267,1.352.285,2.653,1.077,4.071,1.4.4.09,1.014.008.715.7a11.8,11.8,0,0,1-4.461,8.274.75.75,0,0,1-1.127-.013,12.022,12.022,0,0,1-4.475-7.93" transform="translate(-37.556 -6.578)" fill="#fff"/>
    <path id="Path_11540" data-name="Path 11540" d="M80.557,80.666c.032-.541-.436-.573-.834-.576-1.312-.011-2.624-.005-3.934-.005-1.354,0-2.711-.011-4.066.005-.417.005-.966-.079-.919.6.037.523.465.549.882.549q4,0,8,0c.433,0,.845-.092.874-.576" transform="translate(-52.111 -58.941)" fill="#fff"/>
    <path id="Path_11541" data-name="Path 11541" d="M74.211,68.107c.018.533.475.546.874.549,1.18.008,2.363,0,3.543,0s2.36,0,3.54,0c.407,0,.871-.024.908-.52s-.383-.626-.816-.628q-3.607,0-7.215,0c-.4,0-.855.045-.834.591" transform="translate(-54.619 -49.69)" fill="#fff"/>
    <path id="Path_11542" data-name="Path 11542" d="M88.869,93.715c.409,0,.869-.026.9-.531s-.393-.62-.824-.623c-1.624,0-3.244-.005-4.865.005-.37,0-.747.1-.771.541-.029.554.425.591.826.6.787.016,1.576.005,2.365.005s1.579,0,2.368,0" transform="translate(-61.315 -68.125)" fill="#fff"/>
    <path id="Path_11543" data-name="Path 11543" d="M95.991,105.034a8.115,8.115,0,0,0-1.433.011c-.665.119-1.866-.454-1.885.494-.021,1.177,1.259.356,1.782.628.6,0,1.077.008,1.558,0a.591.591,0,0,0,.652-.649c-.024-.338-.335-.475-.673-.48" transform="translate(-68.207 -77.266)" fill="#fff"/>
    <path id="Path_11544" data-name="Path 11544" d="M69.545,24.357a.476.476,0,0,0-.045-.7.5.5,0,0,0-.8.029c-.689.676-1.4,1.325-2.049,2.038-.47.517-.855.89-1.412.121a.561.561,0,0,0-.808-.174c-.124.082-.269.317-.235.422a4.093,4.093,0,0,0,1.613,1.771c.172-.058.327-.066.409-.148,1.117-1.109,2.228-2.223,3.324-3.355" transform="translate(-47.247 -17.273)" fill="#fff"/>
  </g>
</svg>
