<svg xmlns="http://www.w3.org/2000/svg" xmlns:xlink="http://www.w3.org/1999/xlink" width="41.696" height="41.065" viewBox="0 0 41.696 41.065">
  <defs>
    <clipPath id="clip-path">
      <rect id="Rectangle_2386" data-name="Rectangle 2386" width="41.696" height="41.065" fill="#fff"/>
    </clipPath>
  </defs>
  <g id="Group_5326" data-name="Group 5326" transform="translate(0 0)">
    <g id="Group_5326-2" data-name="Group 5326" transform="translate(0 0.001)" clip-path="url(#clip-path)">
      <path id="Path_11730" data-name="Path 11730" d="M28.406,23.5a1.763,1.763,0,0,0-1.921,1.042c-.05.113-.088.226-.151.377a1.77,1.77,0,0,0-1.645-1.444,1.719,1.719,0,0,0-1.168.377,1.9,1.9,0,0,0-.653,1.08,1.754,1.754,0,0,0-1.745-1.444A1.89,1.89,0,0,0,19.366,24.7v-.439c0-2.775.013-5.537,0-8.312a1.743,1.743,0,0,0-3.39-.64,2.533,2.533,0,0,0-.113.866q.019,6.328.013,12.656c0,.565,0,.565-.552.427-1.318-.326-2.21.1-2.561,1.23a2.073,2.073,0,0,0,.766,2.323c.954.7,1.871,1.444,2.775,2.2l.226.188a9.024,9.024,0,0,0,6.73,2.247,6.821,6.821,0,0,0,6.579-6.441c.1-1.984.025-3.968,0-5.951A1.7,1.7,0,0,0,28.406,23.5" transform="translate(3.235 3.611)" fill="#fff"/>
      <path id="Path_11731" data-name="Path 11731" d="M10.958,21.587c.4.4.816.816,1.23,1.218a.67.67,0,0,0,1.092.038,2.1,2.1,0,0,1,2.122-.477c.314.1.314-.025.314-.264-.013-.891-.013-1.8,0-2.7a.85.85,0,0,0-.314-.716,4.772,4.772,0,0,1,4.319-8.174,4.583,4.583,0,0,1,3.528,3.428A4.636,4.636,0,0,1,21.844,18.7c-.126.126-.276.2-.276.439.013,1.08.013,2.16.013,3.315a2.279,2.279,0,0,1,2.524.49.623.623,0,0,0,.917-.075c.439-.439.879-.879,1.306-1.318a.646.646,0,0,0,.025-1,2.206,2.206,0,0,1,1.532-3.729c.49-.025.7-.276.7-.766.013-.578,0-1.143,0-1.72s-.188-.778-.728-.816a2.214,2.214,0,0,1-1.519-3.729.642.642,0,0,0-.038-1.03c-.389-.4-.791-.8-1.18-1.193-.465-.452-.691-.452-1.193-.038a2.146,2.146,0,0,1-1.808.5,2.174,2.174,0,0,1-1.833-2.059c-.05-.578-.264-.766-.841-.766H17.8c-.578,0-.791.188-.829.766a2.21,2.21,0,0,1-3.7,1.494A.659.659,0,0,0,12.2,7.5L11.033,8.667c-.465.465-.465.691-.063,1.193a2.088,2.088,0,0,1,.515,1.8A2.155,2.155,0,0,1,9.476,13.5c-.64.063-.8.239-.8.866-.013.552-.013,1.1,0,1.645s.2.778.741.8a2.209,2.209,0,0,1,1.519,3.7.665.665,0,0,0,.025,1.067" transform="translate(2.214 1.329)" fill="#fff"/>
      <path id="Path_11732" data-name="Path 11732" d="M36.244,12.571c.452.251.854.49,1.243.7s.753.163.917-.151.063-.64-.326-.866c-.665-.389-1.331-.778-2.009-1.155a.966.966,0,0,1-.465-.552A16.4,16.4,0,0,0,18.4.116,16.192,16.192,0,0,0,5.734,8.553a16.709,16.709,0,0,0-1.381,3.315c-.276-.465-.5-.866-.728-1.256s-.527-.477-.841-.3-.4.5-.176.9c.377.653.753,1.318,1.143,1.959a1.086,1.086,0,0,1,.163.8,8.494,8.494,0,0,0-.176,1.595,16.292,16.292,0,0,0,7.885,15,8.293,8.293,0,0,0,1.03.578.532.532,0,0,0,.753-.264.542.542,0,0,0-.213-.766,2.147,2.147,0,0,0-.289-.163,14.576,14.576,0,0,1-3.566-2.674A15.166,15.166,0,0,1,5.068,14.128a.529.529,0,0,1,.314-.452C6.06,13.3,6.738,12.9,7.416,12.5c.389-.213.49-.515.326-.829-.176-.339-.5-.4-.9-.188-.427.239-.841.49-1.343.766l.063-.251A15.268,15.268,0,0,1,22.6,1.384,15.015,15.015,0,0,1,34.423,10.75a.861.861,0,0,1-.05.929c-.414.64-.778,1.306-1.143,1.971a.549.549,0,0,0,.2.8.555.555,0,0,0,.8-.213c.113-.163.2-.364.314-.54a3.812,3.812,0,0,1,.552-.829,15.607,15.607,0,0,1,.264,5.9,15.243,15.243,0,0,1-2.9,6.918c-.276.364-.251.7.038.929a.613.613,0,0,0,.879-.188,16.358,16.358,0,0,0,3.29-8.827,16.788,16.788,0,0,0-.427-5.035" transform="translate(0.633 -0.001)" fill="#fff"/>
      <path id="Path_11733" data-name="Path 11733" d="M15.106,25.357a2.911,2.911,0,0,0-.465-.013c-2.285-.013-4.558-.013-6.843-.013s-4.583,0-6.88.013a2.72,2.72,0,0,0-.452.013A.549.549,0,0,0,0,25.884a.518.518,0,0,0,.389.578,1.429,1.429,0,0,0,.465.05c4.62.013,9.253.013,13.874,0a2.228,2.228,0,0,0,.414-.025.575.575,0,0,0-.038-1.13" transform="translate(0 6.473)" fill="#fff"/>
      <path id="Path_11734" data-name="Path 11734" d="M34.483,25.953c-.439-.452-.891-.891-1.331-1.343-.364-.352-.716-.728-1.08-1.067a.591.591,0,1,0-.841.829c.126.126.264.251.389.389.339.339.678.665,1.092,1.08H28.67c-.3.013-.59,0-.891.013a.536.536,0,0,0-.527.552.549.549,0,0,0,.49.6,2.252,2.252,0,0,0,.414.013c1.482.013,2.951.013,4.432.013.013.025.038.063.05.088-.465.452-.929.891-1.369,1.343a.577.577,0,0,0-.063.866.593.593,0,0,0,.891-.038c.8-.791,1.607-1.582,2.386-2.386a.581.581,0,0,0,0-.954" transform="translate(6.964 5.965)" fill="#fff"/>
    </g>
  </g>
</svg>
