<svg id="Group_5330" data-name="Group 5330" xmlns="http://www.w3.org/2000/svg" xmlns:xlink="http://www.w3.org/1999/xlink" width="44.771" height="37.873" viewBox="0 0 44.771 37.873">
  <defs>
    <clipPath id="clip-path">
      <rect id="Rectangle_2389" data-name="Rectangle 2389" width="44.771" height="37.873" fill="#fff"/>
    </clipPath>
  </defs>
  <g id="Group_5330-2" data-name="Group 5330" transform="translate(0 0)" clip-path="url(#clip-path)">
    <path id="Path_11753" data-name="Path 11753" d="M31.248,14.06A11.031,11.031,0,1,0,42.242,25.116,11,11,0,0,0,31.248,14.06M37.254,22.7q-3.779,3.762-7.547,7.536c-.067.067-.141.129-.225.208l-.208-.191q-2.05-2.058-4.111-4.105c-.169-.169-.152-.253.006-.411.484-.461.962-.934,1.423-1.423.186-.2.287-.191.472,0,.692.714,1.412,1.395,2.092,2.115.247.259.377.3.658.011,1.816-1.85,3.661-3.667,5.483-5.511.253-.253.382-.231.6.011.439.467.894.917,1.361,1.355.169.163.146.253-.006.4" transform="translate(-8.831 -6.153)" fill="#fff"/>
    <path id="Path_11754" data-name="Path 11754" d="M38.744,48.19a.794.794,0,0,0-.686.337A13.272,13.272,0,0,1,25.6,53.454a13.075,13.075,0,0,1-8.762-5c-.112-.141-.2-.264-.416-.264-1.547.011-3.087.006-4.628.006-.045.056-.09.112-.135.163.371.326.742.652,1.114.973a5.586,5.586,0,0,1,1.293,1.788c.669,1.338,1.378,2.66,2.064,3.987a.532.532,0,0,0,.444.337c1.181.18,2.351.416,3.532.585a10.052,10.052,0,0,1,3.639,1.13c1.1.619,2.261,1.13,3.386,1.71a.657.657,0,0,0,.68-.006c1.53-.776,3.065-1.53,4.6-2.3a2.634,2.634,0,0,1,.737-.242c1.653-.276,3.3-.557,4.955-.815a.913.913,0,0,0,.782-.557c.635-1.277,1.333-2.519,1.968-3.8A6.271,6.271,0,0,1,42.2,49.3c.349-.326.669-.692,1.074-1.108-1.592,0-3.065.011-4.533-.006" transform="translate(-5.103 -21.089)" fill="#fff"/>
    <path id="Path_11755" data-name="Path 11755" d="M16.435,10.769a.5.5,0,0,0,.416-.253,13.561,13.561,0,0,1,21.275-.022.651.651,0,0,0,.585.276c1.1-.011,2.188-.006,3.279-.006h1.265a1.759,1.759,0,0,0-.157-.2,11.825,11.825,0,0,1-2.952-4.156c-.388-.844-.866-1.648-1.271-2.48a.738.738,0,0,0-.619-.45c-1.293-.2-2.593-.4-3.88-.647a6.726,6.726,0,0,1-2.025-.478c-1.5-.776-3.014-1.5-4.516-2.266a.67.67,0,0,0-.68.006c-1.507.765-3.02,1.5-4.527,2.261a3.391,3.391,0,0,1-.99.315c-1.665.276-3.329.562-5,.832a.585.585,0,0,0-.484.354c-.489.956-1.029,1.89-1.479,2.863a10.9,10.9,0,0,1-2.711,3.751,3.3,3.3,0,0,0-.264.292c1.648,0,3.189-.006,4.735.006" transform="translate(-5.12 0)" fill="#fff"/>
    <path id="Path_11756" data-name="Path 11756" d="M9.752,34.477a13.544,13.544,0,0,1-.692-8.222A18.1,18.1,0,0,1,9.9,23.679a1.86,1.86,0,0,0-.253-.034c-3.1,0-6.209.006-9.319-.006-.36,0-.315.146-.242.382.472,1.614.934,3.234,1.412,4.853a1.292,1.292,0,0,1,.006.8C1,31.4.5,33.133,0,34.859a.776.776,0,0,0,.444.056c3,0,6.006-.006,9.015.011.4,0,.444-.079.292-.45" transform="translate(0 -10.345)" fill="#fff"/>
    <path id="Path_11757" data-name="Path 11757" d="M70.5,28.358c.517-1.541.962-3.1,1.445-4.69-.169-.011-.292-.022-.422-.022-3.02,0-6.04.011-9.06-.006-.439-.006-.416.118-.281.456a13.489,13.489,0,0,1,0,10.376c-.141.354-.141.456.287.456,3-.017,6.006-.011,9.015-.011a.853.853,0,0,0,.45-.051c-.472-1.552-.917-3.121-1.434-4.662a2.768,2.768,0,0,1,0-1.845" transform="translate(-27.175 -10.345)" fill="#fff"/>
  </g>
</svg>
