<svg id="Group_3294" data-name="Group 3294" xmlns="http://www.w3.org/2000/svg" xmlns:xlink="http://www.w3.org/1999/xlink" width="50.137" height="50.225" viewBox="0 0 50.137 50.225">
  <defs>
    <clipPath id="clip-path">
      <rect id="Rectangle_1532" data-name="Rectangle 1532" width="50.137" height="50.225" fill="none"/>
    </clipPath>
  </defs>
  <g id="Group_3293" data-name="Group 3293" clip-path="url(#clip-path)">
    <path id="Path_9413" data-name="Path 9413" d="M29.4,168.319a8.059,8.059,0,0,1,2.176-2.918,6.547,6.547,0,0,0,1.465-7.925c-.659-1.245-1.461-2.43-3.12-2.467a1.564,1.564,0,0,1-.436-.065,1.392,1.392,0,0,0-1.673.631c-3.03,3.842-6.091,7.656-9.144,11.478-.5.631-.7.684-1.476.427-2.043-.678-4.091-1.339-6.122-2.045a1.237,1.237,0,0,0-1.412.315c-1.357,1.278-2.745,2.526-4.119,3.787-1.817,1.669-3.633,3.336-5.538,5.088H24.6a.925.925,0,0,1,.147,0c.214.033.273-.063.285-.269a4.554,4.554,0,0,1,.311-1.431,6.1,6.1,0,0,1,2.436-2.68,4.441,4.441,0,0,0,1.618-1.925" transform="translate(0 -124.414)" fill="#fff"/>
    <path id="Path_9414" data-name="Path 9414" d="M172.511,92.374a7.363,7.363,0,0,1,1.482,5.159,7.81,7.81,0,0,0,.216,2.524,5.177,5.177,0,0,0,3.842,4.262,4.26,4.26,0,0,0,4.889-1.543c.391-.523.824-1.016,1.252-1.51a5.32,5.32,0,0,1,3.979-2.021c.4-.01.462-.171.462-.529q-.015-11.177-.008-22.354v-.387l-.085-.006c-.729,1.707-1.467,3.411-2.182,5.125a1.106,1.106,0,0,1-1.17.765c-.8-.024-1.6-.008-2.4-.006-.875,0-1.127.242-1.229,1.1q-.295,2.486-.619,4.968c-.088.678-.332.906-1,1-1.471.206-2.941.421-4.416.611a1.968,1.968,0,0,0-1.278.635c-.541.59-1.111,1.156-1.7,1.7-.218.2-.181.307-.031.507" transform="translate(-138.497 -61.034)" fill="#fff"/>
    <path id="Path_9415" data-name="Path 9415" d="M44.642,8.191c1.665,1.736,3.126,3.661,4.777,5.4,2.367,2.495,4.728,4.988,6.883,7.669a40.3,40.3,0,0,1,4.545,6.793c.226.442.429.9.641,1.347a14.759,14.759,0,0,0-1.305-7.331A36.378,36.378,0,0,0,54.352,12.7c-.539-.653-.529-.653.049-1.248a1.689,1.689,0,0,0,.45-1.8,1.657,1.657,0,0,0-1.427-1.182,1.833,1.833,0,0,0-1.648.694c-.226.244-.366.246-.608-.006A42.673,42.673,0,0,0,46.926,5.3,26.5,26.5,0,0,0,38.657.633,11.487,11.487,0,0,0,34.8,0c.576.346,1.054.611,1.51.908a47.857,47.857,0,0,1,8.332,7.28" transform="translate(-27.958 0)" fill="#fff"/>
    <path id="Path_9416" data-name="Path 9416" d="M172.917,210.874a6.565,6.565,0,0,0-4.624-.769,6.957,6.957,0,0,1-5.969-1.946,7.312,7.312,0,0,1-1.7-2.829,15.5,15.5,0,0,1-2.247,2.556,3.107,3.107,0,0,0-.537,4.258c.167.3.344.594.525.885a4.347,4.347,0,0,1,.661,1.673c.055.385.189.482.578.48,5.147-.016,10.3-.01,15.443-.01h.49a6.413,6.413,0,0,0-2.617-4.3" transform="translate(-126.322 -164.962)" fill="#fff"/>
    <path id="Path_9417" data-name="Path 9417" d="M15.4,85.071c1.311-1.209,2.607-2.436,3.908-3.653q5.733-5.367,11.472-10.725c.309-.287.309-.434,0-.7a11.7,11.7,0,0,1-1.669-1.858c-.232-.315-.368-.313-.651-.047Q24,72.295,19.511,76.475q-3.191,2.984-6.38,5.969a1.965,1.965,0,0,0-.745,1.608,2.184,2.184,0,0,0,.067.35,1.727,1.727,0,0,0,2.947.668" transform="translate(-9.95 -54.544)" fill="#fff"/>
    <path id="Path_9418" data-name="Path 9418" d="M234.933,202.954a3.763,3.763,0,0,0-2.161.82,25.822,25.822,0,0,0-2.226,2.477c-.073.079-.181.153-.138.291a7.331,7.331,0,0,1,4.825,3.808c0-2.371,0-4.74,0-7.111,0-.24-.063-.307-.3-.285" transform="translate(-185.103 -163.05)" fill="#fff"/>
    <path id="Path_9419" data-name="Path 9419" d="M113.094,128.723a7.933,7.933,0,0,0,.018,3.551c1.638-1.052,3.15-2.216,5.161-2.609a10.72,10.72,0,0,0-4.024-1.679.948.948,0,0,0-1.154.737" transform="translate(-90.701 -102.813)" fill="#fff"/>
    <path id="Path_9420" data-name="Path 9420" d="M138.794,237.58c-.609.486-1.166.91-1.7,1.364a2.748,2.748,0,0,0-.946,1.665c-.051.3-.063.5.383.486,1.109-.041,2.218-.014,3.328-.014.6,0,.621-.01.381-.584a26.345,26.345,0,0,1-1.449-2.918" transform="translate(-109.363 -190.871)" fill="#fff"/>
    <path id="Path_9421" data-name="Path 9421" d="M184.63,105.92a6.109,6.109,0,0,0,2.125.195c1.164-.077,1.585-.771,1.13-1.842a6.991,6.991,0,0,0-2.365-2.642c.484,1.626-.171,2.939-.891,4.29" transform="translate(-148.331 -81.649)" fill="#fff"/>
    <path id="Path_9422" data-name="Path 9422" d="M180.981,74.052a.767.767,0,0,0,.67-.342,13.212,13.212,0,0,0,.989-1.964.835.835,0,0,0-.413-1.044.805.805,0,0,0-1.077.279,10.2,10.2,0,0,0-.995,2.013.825.825,0,0,0,.826,1.058" transform="translate(-144.702 -56.722)" fill="#fff"/>
    <path id="Path_9423" data-name="Path 9423" d="M167.645,65.291a.871.871,0,0,0,.832-.865c.018-.277,0-.554,0-.832h0c0-.311.018-.621,0-.93a.828.828,0,0,0-.8-.82.8.8,0,0,0-.879.729,7.785,7.785,0,0,0,0,1.948.844.844,0,0,0,.857.769" transform="translate(-133.949 -49.685)" fill="#fff"/>
  </g>
</svg>
