<svg xmlns="http://www.w3.org/2000/svg" width="49.105" height="50.854" viewBox="0 0 49.105 50.854">
  <g id="Group_4191" data-name="Group 4191" transform="translate(0 0)">
    <g id="Group_4531" data-name="Group 4531" transform="translate(0 0)">
      <path id="Path_10463" data-name="Path 10463" d="M18.97,12.035a11.594,11.594,0,0,0-1.252,2.08L12.4,13.091a.534.534,0,0,1-.425-.512.542.542,0,0,1,.523-.544Z" transform="translate(1.066 1.07)" fill="#4E6CD9"/>
      <path id="Path_10464" data-name="Path 10464" d="M23.987,10.041a4.46,4.46,0,0,0-2.668,0l.163-2.428a.615.615,0,0,1,.588-.588h1.165a.608.608,0,0,1,.588.588Z" transform="translate(1.897 0.625)" fill="#4E6CD9"/>
      <path id="Path_10465" data-name="Path 10465" d="M33.668,12.46a.526.526,0,0,1-.414.632l-5.3,1.024a12.264,12.264,0,0,0-1.252-2.08h6.458a.536.536,0,0,1,.512.425" transform="translate(2.376 1.07)" fill="#4E6CD9"/>
      <path id="Path_10466" data-name="Path 10466" d="M37.251,13.324l-.033-.229a2.727,2.727,0,0,0-2.646-2.167H27.385c-.087-.065-.185-.131-.272-.207l-.174-2.537a2.8,2.8,0,0,0-2.766-2.712h-1.22a2.76,2.76,0,0,0-2.7,2.624l-.185,2.635-.261.2h-7.22a2.672,2.672,0,0,0-1.8.73A4.51,4.51,0,0,1,11.8,9.164a4.467,4.467,0,0,1,2.755-1.655,3.34,3.34,0,0,1,.457-.076c.207,0,.229-.065.174-.25A4.744,4.744,0,0,1,14.927,5.4,5.462,5.462,0,0,1,17,1.236,5.317,5.317,0,0,1,19.577.071,5.413,5.413,0,0,1,23.889,1.2a5.15,5.15,0,0,1,1.644,2.145c.087.229.174.283.446.185a4.035,4.035,0,0,1,4.04.664,3.909,3.909,0,0,1,1.4,2.2c.033.131.065.218.24.185a4.777,4.777,0,0,1,3.811.9,4.89,4.89,0,0,1,2.047,3.43,4.737,4.737,0,0,1-.272,2.407" transform="translate(0.96 0)" fill="#4E6CD9"/>
      <path id="Path_10467" data-name="Path 10467" d="M40.139,27.788a1.641,1.641,0,0,0-1.547-1.117h-8.6a1.64,1.64,0,0,0-1.55,1.116Z" transform="translate(2.53 2.373)" fill="#4E6CD9" fill-rule="evenodd"/>
      <path id="Path_10468" data-name="Path 10468" d="M28.091,15.682c-.947-2.548-2.864-4.977-5.075-4.977s-4.127,2.428-5.075,4.966a9.166,9.166,0,0,0-.642,3.147,5.717,5.717,0,1,0,11.434,0,9.109,9.109,0,0,0-.642-3.136m-2.374.6h-5.4a.6.6,0,0,1-.6-.6.59.59,0,0,1,.6-.6h5.4a.6.6,0,0,1,.6.6.6.6,0,0,1-.6.6" transform="translate(1.539 0.952)" fill="#4E6CD9" fill-rule="evenodd"/>
      <path id="Path_10469" data-name="Path 10469" d="M17.936,16.11H.525a.53.53,0,0,0-.1,1.05L18,20.563a7.614,7.614,0,0,1-.066-4.453" transform="translate(0 1.433)" fill="#4E6CD9" fill-rule="evenodd"/>
      <path id="Path_10470" data-name="Path 10470" d="M28.565,20.2v0h0Z" transform="translate(2.541 1.797)" fill="#4E6CD9" fill-rule="evenodd"/>
      <path id="Path_10471" data-name="Path 10471" d="M46.553,16.535a.531.531,0,0,0-.513-.424H28.631a7.607,7.607,0,0,1-.066,4.451l17.575-3.4a.53.53,0,0,0,.413-.626" transform="translate(2.542 1.433)" fill="#4E6CD9" fill-rule="evenodd"/>
      <path id="Path_10472" data-name="Path 10472" d="M23.775,9.8h0Z" transform="translate(2.115 0.871)" fill="#4E6CD9" fill-rule="evenodd"/>
      <path id="Path_10473" data-name="Path 10473" d="M23.987,10.041a4.46,4.46,0,0,0-2.668,0l.163-2.428a.615.615,0,0,1,.588-.588h1.165a.608.608,0,0,1,.588.588Z" transform="translate(1.897 0.625)" fill="#4E6CD9" fill-rule="evenodd"/>
      <path id="Path_10474" data-name="Path 10474" d="M27.845,13.947h0Z" transform="translate(2.477 1.24)" fill="#4E6CD9" fill-rule="evenodd"/>
      <path id="Path_10475" data-name="Path 10475" d="M33.255,13.091l-5.3,1.024a12.264,12.264,0,0,0-1.252-2.08h6.458a.536.536,0,0,1,.512.425.526.526,0,0,1-.414.632" transform="translate(2.376 1.07)" fill="#4E6CD9" fill-rule="evenodd"/>
      <path id="Path_10476" data-name="Path 10476" d="M11.979,12.579a.542.542,0,0,1,.523-.544H18.97a11.594,11.594,0,0,0-1.252,2.08L12.4,13.091a.534.534,0,0,1-.425-.512" transform="translate(1.066 1.07)" fill="#4E6CD9" fill-rule="evenodd"/>
      <path id="Path_10477" data-name="Path 10477" d="M21.319,10.041l.163-2.428a.615.615,0,0,1,.588-.588h1.165a.608.608,0,0,1,.588.588l.163,2.428a4.46,4.46,0,0,0-2.668,0" transform="translate(1.897 0.625)" fill="#4E6CD9" fill-rule="evenodd"/>
      <path id="Path_10478" data-name="Path 10478" d="M27.951,14.115a12.264,12.264,0,0,0-1.252-2.08h6.458a.536.536,0,0,1,.512.425.526.526,0,0,1-.414.632Z" transform="translate(2.376 1.07)" fill="#4E6CD9" fill-rule="evenodd"/>
      <path id="Path_10479" data-name="Path 10479" d="M18.97,12.035a11.594,11.594,0,0,0-1.252,2.08L12.4,13.091a.534.534,0,0,1-.425-.512.542.542,0,0,1,.523-.544Z" transform="translate(1.066 1.07)" fill="#4E6CD9" fill-rule="evenodd"/>
      <path id="Path_10480" data-name="Path 10480" d="M5.908,26.671H19.886a.562.562,0,0,1,.56.56v1.5a.562.562,0,0,1-.56.56H5.908a.562.562,0,0,1-.56-.56v-1.5a.562.562,0,0,1,.56-.56Z" transform="translate(0.476 2.373)" fill="#4E6CD9" fill-rule="evenodd"/>
      <path id="Path_10481" data-name="Path 10481" d="M2.324,42.164a.6.6,0,1,1,.8-.89,4.81,4.81,0,0,0,6.425,0,.6.6,0,0,1,.8,0,4.813,4.813,0,0,0,6.425,0,.6.6,0,0,1,.8,0,4.813,4.813,0,0,0,6.425,0,.6.6,0,1,1,.8.89,6,6,0,0,1-7.623.327,6,6,0,0,1-7.226,0,6,6,0,0,1-7.623-.327Z" transform="translate(0.189 3.658)" fill="#4E6CD9" fill-rule="evenodd"/>
      <path id="Path_10482" data-name="Path 10482" d="M2.324,45.374a.6.6,0,0,1,.8-.889,4.81,4.81,0,0,0,6.425,0,.6.6,0,0,1,.8,0,4.812,4.812,0,0,0,6.425,0,.6.6,0,0,1,.8,0,4.812,4.812,0,0,0,6.425,0,.6.6,0,1,1,.8.889,6,6,0,0,1-7.623.327,6,6,0,0,1-7.226,0,6,6,0,0,1-7.623-.327Z" transform="translate(0.189 3.944)" fill="#4E6CD9" fill-rule="evenodd"/>
      <path id="Path_10483" data-name="Path 10483" d="M5.163,41.907a3.613,3.613,0,0,0,3.475-.762,1.8,1.8,0,0,1,2.4,0,3.613,3.613,0,0,0,4.822,0,1.8,1.8,0,0,1,2.4,0,3.6,3.6,0,0,0,2.622.915,11.662,11.662,0,0,0,1.863-5.91A14.094,14.094,0,0,1,13.071,32.6a14.094,14.094,0,0,1-9.683,3.553,11.5,11.5,0,0,0,1.776,5.757Z" transform="translate(0.301 2.9)" fill="#4E6CD9" fill-rule="evenodd"/>
      <path id="Path_10484" data-name="Path 10484" d="M18.984,34.751a11.293,11.293,0,0,1-5.35-2.787l-.847-.847-.847.847a11.293,11.293,0,0,1-5.35,2.787V30.177H18.983v4.574Z" transform="translate(0.586 2.685)" fill="#4E6CD9" fill-rule="evenodd"/>
      <path id="Path_10485" data-name="Path 10485" d="M42.752,28.805H26.407a1.194,1.194,0,0,0-1.2,1.2V44.181a1.194,1.194,0,0,0,1.2,1.2H42.752a1.194,1.194,0,0,0,1.2-1.2V30a1.194,1.194,0,0,0-1.2-1.2M28.149,43.55a.971.971,0,0,1-.969-.969V41.045h1.4a2.763,2.763,0,0,1,2.733,2.5Zm13.819-.969a.962.962,0,0,1-.969.958v.011H37.83a2.757,2.757,0,0,1,2.744-2.5h1.394Zm0-4.051H27.191V30.776H41.968Z" transform="translate(2.243 2.562)" fill="#4E6CD9" fill-rule="evenodd"/>
      <path id="Path_10486" data-name="Path 10486" d="M27.951,46.244H29.9a1.236,1.236,0,0,0,1.226-1.115h-4.4a1.236,1.236,0,0,0,1.226,1.115Z" transform="translate(2.378 4.015)" fill="#4E6CD9" fill-rule="evenodd"/>
      <path id="Path_10487" data-name="Path 10487" d="M37.609,46.244h1.954a1.236,1.236,0,0,0,1.226-1.115h-4.4a1.236,1.236,0,0,0,1.226,1.115Z" transform="translate(3.237 4.015)" fill="#4E6CD9" fill-rule="evenodd"/>
    </g>
  </g>
</svg>
