<svg id="Group_4930" data-name="Group 4930" xmlns="http://www.w3.org/2000/svg" xmlns:xlink="http://www.w3.org/1999/xlink" width="38.592" height="38.592" viewBox="0 0 38.592 38.592">
  <defs>
    <clipPath id="clip-path">
      <rect id="Rectangle_414" data-name="Rectangle 414" width="38.592" height="38.592" fill="#fff"/>
    </clipPath>
  </defs>
  <g id="Group_1336" data-name="Group 1336" clip-path="url(#clip-path)">
    <path id="Path_6442" data-name="Path 6442" d="M38.141,133.545c.027.628-.489.548-.9.548-1.658,0-3.318.018-4.976-.005a3.552,3.552,0,0,1-3.6-3.61c-.021-1.2-.005-2.405-.005-3.864-.484.582-.811.979-1.14,1.372-.246.29-.516.541-.893.21-.318-.279-.2-.582.027-.859.674-.825,1.345-1.653,2.026-2.473a.6.6,0,0,1,1.041.016q1.025,1.228,2.028,2.471c.224.279.3.6-.012.865-.34.288-.6.076-.829-.187-.342-.4-.674-.811-1.164-1.4,0,1.487-.032,2.727.007,3.964a2.469,2.469,0,0,0,2.464,2.416c1.66.028,3.318.007,4.978.011.411,0,.916-.069.943.527" transform="translate(-21.734 -102.406)" fill="#fff"/>
    <path id="Path_6443" data-name="Path 6443" d="M23.259,55.536c-.046.422-.407.509-.793.493-.37-.016-.63-.155-.617-.56.014-.475.354-.541.683-.527.461-.007.774.164.728.594" transform="translate(-17.961 -45.166)" fill="#fff"/>
    <path id="Path_6444" data-name="Path 6444" d="M32.822,32.216c-.075.336-.26.6-.592.541a.866.866,0,0,1-.761-.842.467.467,0,0,1,.519-.489.994.994,0,0,1,.834.79" transform="translate(-25.87 -25.833)" fill="#fff"/>
    <path id="Path_6445" data-name="Path 6445" d="M32.821,77.544a.967.967,0,0,1-.827.777.461.461,0,0,1-.525-.477.852.852,0,0,1,.76-.834c.338-.059.525.189.592.534" transform="translate(-25.87 -63.302)" fill="#fff"/>
    <path id="Path_6446" data-name="Path 6446" d="M56.014,22.475c0,.5-.167.822-.6.785s-.509-.4-.494-.785c.016-.37.144-.635.551-.626.47.009.548.342.539.626" transform="translate(-45.151 -17.962)" fill="#fff"/>
    <path id="Path_6447" data-name="Path 6447" d="M56.027,86.833c-.006.391-.1.712-.573.7-.425-.011-.516-.306-.514-.662-.02-.39.076-.749.521-.761s.571.322.566.724" transform="translate(-45.164 -70.789)" fill="#fff"/>
    <path id="Path_6448" data-name="Path 6448" d="M78.34,31.992a.914.914,0,0,1-.809.77.475.475,0,0,1-.516-.569.872.872,0,0,1,.754-.756c.331-.052.536.183.571.555" transform="translate(-63.308 -25.839)" fill="#fff"/>
    <path id="Path_6449" data-name="Path 6449" d="M78.336,77.714a.444.444,0,0,1-.5.484.832.832,0,0,1-.8-.774c-.041-.352.24-.487.527-.564.432.155.763.383.777.854" transform="translate(-63.324 -63.186)" fill="#fff"/>
    <path id="Path_6450" data-name="Path 6450" d="M87.537,55.506c-.011.425-.31.514-.767.527a.552.552,0,0,1-.655-.534c-.021-.448.327-.559.721-.559s.713.087.7.566" transform="translate(-70.794 -45.166)" fill="#fff"/>
    <path id="Path_6451" data-name="Path 6451" d="M10.352,0A10.315,10.315,0,1,0,20.633,10.306,10.347,10.347,0,0,0,10.352,0M10.3,19.547a9.231,9.231,0,1,1,9.248-9.178A9.3,9.3,0,0,1,10.3,19.547M10.343,2.1A8.142,8.142,0,0,0,2.1,10.285a8.146,8.146,0,0,0,8.182,8.244,8.162,8.162,0,0,0,8.246-8.186A8.146,8.146,0,0,0,10.343,2.1m-.025,15.343A7.073,7.073,0,0,1,3.184,10.3,7.073,7.073,0,0,1,10.35,3.179a7.132,7.132,0,0,1-.032,14.265" transform="translate(0 0)" fill="#fff"/>
    <path id="Path_6452" data-name="Path 6452" d="M124.73,39.421c.009-.619.536-.511.936-.512,1.626,0,3.254-.014,4.88,0a3.582,3.582,0,0,1,3.652,3.645c.021,1.178,0,2.357,0,3.811.5-.6.833-1.007,1.172-1.407.224-.265.479-.477.827-.2s.258.573.032.852q-1.03,1.278-2.082,2.537a.57.57,0,0,1-.977-.009q-1.057-1.254-2.083-2.535a.548.548,0,0,1,.057-.856c.31-.238.559-.076.767.162.361.415.708.84,1.188,1.413,0-1.509.068-2.827-.02-4.135A2.449,2.449,0,0,0,130.592,40c-1.626-.02-3.254,0-4.88-.007-.429,0-.991.107-.982-.568" transform="translate(-102.539 -31.981)" fill="#fff"/>
    <path id="Path_6453" data-name="Path 6453" d="M145.827,119.42a2.842,2.842,0,0,0-2.859,2.781,2.845,2.845,0,1,0,2.859-2.781m.057,4.574a1.739,1.739,0,1,1,1.692-1.783,1.743,1.743,0,0,1-1.692,1.783" transform="translate(-117.532 -98.174)" fill="#fff"/>
    <path id="Path_6454" data-name="Path 6454" d="M138.84,157.419a5.546,5.546,0,0,0-10.922.041,2.249,2.249,0,0,0,1.5,2.836,10.735,10.735,0,0,0,4.145.7,10.329,10.329,0,0,0,3.827-.719,2.242,2.242,0,0,0,1.454-2.859m-1.877,1.87a10.706,10.706,0,0,1-3.579.642,10.94,10.94,0,0,1-3.528-.623,1.306,1.306,0,0,1-.891-1.6,4.472,4.472,0,0,1,8.837.03,1.28,1.28,0,0,1-.838,1.548" transform="translate(-105.101 -125.665)" fill="#fff"/>
    <path id="Path_6455" data-name="Path 6455" d="M111.279,100.95a10.316,10.316,0,1,0,10.312,10.363,10.375,10.375,0,0,0-10.312-10.363m-.062,19.548a9.228,9.228,0,1,1,9.29-9.21,9.263,9.263,0,0,1-9.29,9.21" transform="translate(-82.998 -82.99)" fill="#fff"/>
    <path id="Path_6456" data-name="Path 6456" d="M23.259,55.536c-.046.422-.407.509-.793.493-.37-.016-.63-.155-.617-.56.014-.475.354-.541.683-.527.461-.007.774.164.728.594" transform="translate(-17.961 -45.166)" fill="#fff"/>
    <path id="Path_6457" data-name="Path 6457" d="M32.822,32.216c-.075.336-.26.6-.592.541a.866.866,0,0,1-.761-.842.467.467,0,0,1,.519-.489.994.994,0,0,1,.834.79" transform="translate(-25.87 -25.833)" fill="#fff"/>
    <path id="Path_6458" data-name="Path 6458" d="M32.821,77.544a.967.967,0,0,1-.827.777.461.461,0,0,1-.525-.477.852.852,0,0,1,.76-.834c.338-.059.525.189.592.534" transform="translate(-25.87 -63.302)" fill="#fff"/>
    <path id="Path_6459" data-name="Path 6459" d="M56.014,22.475c0,.5-.167.822-.6.785s-.509-.4-.494-.785c.016-.37.144-.635.551-.626.47.009.548.342.539.626" transform="translate(-45.151 -17.962)" fill="#fff"/>
    <path id="Path_6460" data-name="Path 6460" d="M56.027,86.833c-.006.391-.1.712-.573.7-.425-.011-.516-.306-.514-.662-.02-.39.076-.749.521-.761s.571.322.566.724" transform="translate(-45.164 -70.789)" fill="#fff"/>
    <path id="Path_6461" data-name="Path 6461" d="M78.34,31.992a.914.914,0,0,1-.809.77.475.475,0,0,1-.516-.569.872.872,0,0,1,.754-.756c.331-.052.536.183.571.555" transform="translate(-63.308 -25.839)" fill="#fff"/>
    <path id="Path_6462" data-name="Path 6462" d="M78.336,77.714a.444.444,0,0,1-.5.484.832.832,0,0,1-.8-.774c-.041-.352.24-.487.527-.564.432.155.763.383.777.854" transform="translate(-63.324 -63.186)" fill="#fff"/>
    <path id="Path_6463" data-name="Path 6463" d="M87.537,55.506c-.011.425-.31.514-.767.527a.552.552,0,0,1-.655-.534c-.021-.448.327-.559.721-.559s.713.087.7.566" transform="translate(-70.794 -45.166)" fill="#fff"/>
    <path id="Path_6464" data-name="Path 6464" d="M10.352,0A10.315,10.315,0,1,0,20.633,10.306,10.347,10.347,0,0,0,10.352,0M10.3,19.547a9.231,9.231,0,1,1,9.248-9.178A9.3,9.3,0,0,1,10.3,19.547M10.343,2.1A8.142,8.142,0,0,0,2.1,10.285a8.146,8.146,0,0,0,8.182,8.244,8.162,8.162,0,0,0,8.246-8.186A8.146,8.146,0,0,0,10.343,2.1m-.025,15.343A7.073,7.073,0,0,1,3.184,10.3,7.073,7.073,0,0,1,10.35,3.179a7.132,7.132,0,0,1-.032,14.265" transform="translate(0 0)" fill="#fff"/>
    <path id="Path_6465" data-name="Path 6465" d="M145.827,119.42a2.842,2.842,0,0,0-2.859,2.781,2.845,2.845,0,1,0,2.859-2.781m.057,4.574a1.739,1.739,0,1,1,1.692-1.783,1.743,1.743,0,0,1-1.692,1.783" transform="translate(-117.532 -98.174)" fill="#fff"/>
    <path id="Path_6466" data-name="Path 6466" d="M138.84,157.419a5.546,5.546,0,0,0-10.922.041,2.249,2.249,0,0,0,1.5,2.836,10.735,10.735,0,0,0,4.145.7,10.329,10.329,0,0,0,3.827-.719,2.242,2.242,0,0,0,1.454-2.859m-1.877,1.87a10.706,10.706,0,0,1-3.579.642,10.94,10.94,0,0,1-3.528-.623,1.306,1.306,0,0,1-.891-1.6,4.472,4.472,0,0,1,8.837.03,1.28,1.28,0,0,1-.838,1.548" transform="translate(-105.101 -125.665)" fill="#fff"/>
    <path id="Path_6467" data-name="Path 6467" d="M111.279,100.95a10.316,10.316,0,1,0,10.312,10.363,10.375,10.375,0,0,0-10.312-10.363m-.062,19.548a9.228,9.228,0,1,1,9.29-9.21,9.263,9.263,0,0,1-9.29,9.21" transform="translate(-82.998 -82.99)" fill="#fff"/>
    <path id="Path_6468" data-name="Path 6468" d="M38.141,133.545c.027.628-.489.548-.9.548-1.658,0-3.318.018-4.976-.005a3.552,3.552,0,0,1-3.6-3.61c-.021-1.2-.005-2.405-.005-3.864-.484.582-.811.979-1.14,1.372-.246.29-.516.541-.893.21-.318-.279-.2-.582.027-.859.674-.825,1.345-1.653,2.026-2.473a.6.6,0,0,1,1.041.016q1.025,1.228,2.028,2.471c.224.279.3.6-.012.865-.34.288-.6.076-.829-.187-.342-.4-.674-.811-1.164-1.4,0,1.487-.032,2.727.007,3.964a2.469,2.469,0,0,0,2.464,2.416c1.66.028,3.318.007,4.978.011.411,0,.916-.069.943.527" transform="translate(-21.734 -102.406)" fill="#fff"/>
    <path id="Path_6469" data-name="Path 6469" d="M136.233,45.607q-1.03,1.278-2.082,2.537a.57.57,0,0,1-.977-.009q-1.057-1.254-2.083-2.535a.548.548,0,0,1,.057-.856c.31-.238.559-.076.767.162.361.415.708.84,1.188,1.413,0-1.509.068-2.827-.02-4.135A2.449,2.449,0,0,0,130.592,40c-1.626-.02-3.254,0-4.88-.007-.429,0-.991.107-.982-.568.009-.619.536-.511.936-.512,1.626,0,3.254-.014,4.88,0a3.582,3.582,0,0,1,3.652,3.645c.021,1.178,0,2.357,0,3.811.5-.6.833-1.007,1.172-1.407.224-.265.479-.477.827-.2s.258.573.032.852" transform="translate(-102.539 -31.981)" fill="#fff"/>
    <path id="Path_6470" data-name="Path 6470" d="M23.259,55.536c-.046.422-.407.509-.793.493-.37-.016-.63-.155-.617-.56.014-.475.354-.541.683-.527.461-.007.774.164.728.594" transform="translate(-17.961 -45.166)" fill="#fff"/>
    <path id="Path_6471" data-name="Path 6471" d="M32.822,32.216c-.075.336-.26.6-.592.541a.866.866,0,0,1-.761-.842.467.467,0,0,1,.519-.489.994.994,0,0,1,.834.79" transform="translate(-25.87 -25.833)" fill="#fff"/>
    <path id="Path_6472" data-name="Path 6472" d="M32.821,77.544a.967.967,0,0,1-.827.777.461.461,0,0,1-.525-.477.852.852,0,0,1,.76-.834c.338-.059.525.189.592.534" transform="translate(-25.87 -63.302)" fill="#fff"/>
    <path id="Path_6473" data-name="Path 6473" d="M56.014,22.475c0,.5-.167.822-.6.785s-.509-.4-.494-.785c.016-.37.144-.635.551-.626.47.009.548.342.539.626" transform="translate(-45.151 -17.962)" fill="#fff"/>
    <path id="Path_6474" data-name="Path 6474" d="M56.027,86.833c-.006.391-.1.712-.573.7-.425-.011-.516-.306-.514-.662-.02-.39.076-.749.521-.761s.571.322.566.724" transform="translate(-45.164 -70.789)" fill="#fff"/>
    <path id="Path_6475" data-name="Path 6475" d="M78.34,31.992a.914.914,0,0,1-.809.77.475.475,0,0,1-.516-.569.872.872,0,0,1,.754-.756c.331-.052.536.183.571.555" transform="translate(-63.308 -25.839)" fill="#fff"/>
    <path id="Path_6476" data-name="Path 6476" d="M78.336,77.714a.444.444,0,0,1-.5.484.832.832,0,0,1-.8-.774c-.041-.352.24-.487.527-.564.432.155.763.383.777.854" transform="translate(-63.324 -63.186)" fill="#fff"/>
    <path id="Path_6477" data-name="Path 6477" d="M87.537,55.506c-.011.425-.31.514-.767.527a.552.552,0,0,1-.655-.534c-.021-.448.327-.559.721-.559s.713.087.7.566" transform="translate(-70.794 -45.166)" fill="#fff"/>
    <path id="Path_6478" data-name="Path 6478" d="M20.052,11.81a8.214,8.214,0,1,0,8.186,8.242,8.142,8.142,0,0,0-8.186-8.242m-.025,15.343a7.132,7.132,0,1,1,7.125-7.163,7.073,7.073,0,0,1-7.125,7.163" transform="translate(-9.709 -9.709)" fill="#fff"/>
    <path id="Path_6479" data-name="Path 6479" d="M145.827,119.42a2.842,2.842,0,0,0-2.859,2.781,2.845,2.845,0,1,0,2.859-2.781m.057,4.574a1.739,1.739,0,1,1,1.692-1.783,1.743,1.743,0,0,1-1.692,1.783" transform="translate(-117.532 -98.174)" fill="#fff"/>
    <path id="Path_6480" data-name="Path 6480" d="M138.84,157.419a5.546,5.546,0,0,0-10.922.041,2.249,2.249,0,0,0,1.5,2.836,10.735,10.735,0,0,0,4.145.7,10.329,10.329,0,0,0,3.827-.719,2.242,2.242,0,0,0,1.454-2.859m-1.877,1.87a10.706,10.706,0,0,1-3.579.642,10.94,10.94,0,0,1-3.528-.623,1.306,1.306,0,0,1-.891-1.6,4.472,4.472,0,0,1,8.837.03,1.28,1.28,0,0,1-.838,1.548" transform="translate(-105.101 -125.665)" fill="#fff"/>
    <path id="Path_6481" data-name="Path 6481" d="M23.259,55.536c-.046.422-.407.509-.793.493-.37-.016-.63-.155-.617-.56.014-.475.354-.541.683-.527.461-.007.774.164.728.594" transform="translate(-17.961 -45.166)" fill="#fff"/>
    <path id="Path_6482" data-name="Path 6482" d="M32.822,32.216c-.075.336-.26.6-.592.541a.866.866,0,0,1-.761-.842.467.467,0,0,1,.519-.489.994.994,0,0,1,.834.79" transform="translate(-25.87 -25.833)" fill="#fff"/>
    <path id="Path_6483" data-name="Path 6483" d="M32.821,77.544a.967.967,0,0,1-.827.777.461.461,0,0,1-.525-.477.852.852,0,0,1,.76-.834c.338-.059.525.189.592.534" transform="translate(-25.87 -63.302)" fill="#fff"/>
    <path id="Path_6484" data-name="Path 6484" d="M56.014,22.475c0,.5-.167.822-.6.785s-.509-.4-.494-.785c.016-.37.144-.635.551-.626.47.009.548.342.539.626" transform="translate(-45.151 -17.962)" fill="#fff"/>
    <path id="Path_6485" data-name="Path 6485" d="M56.027,86.833c-.006.391-.1.712-.573.7-.425-.011-.516-.306-.514-.662-.02-.39.076-.749.521-.761s.571.322.566.724" transform="translate(-45.164 -70.789)" fill="#fff"/>
    <path id="Path_6486" data-name="Path 6486" d="M78.34,31.992a.914.914,0,0,1-.809.77.475.475,0,0,1-.516-.569.872.872,0,0,1,.754-.756c.331-.052.536.183.571.555" transform="translate(-63.308 -25.839)" fill="#fff"/>
    <path id="Path_6487" data-name="Path 6487" d="M78.336,77.714a.444.444,0,0,1-.5.484.832.832,0,0,1-.8-.774c-.041-.352.24-.487.527-.564.432.155.763.383.777.854" transform="translate(-63.324 -63.186)" fill="#fff"/>
    <path id="Path_6488" data-name="Path 6488" d="M87.537,55.506c-.011.425-.31.514-.767.527a.552.552,0,0,1-.655-.534c-.021-.448.327-.559.721-.559s.713.087.7.566" transform="translate(-70.794 -45.166)" fill="#fff"/>
    <path id="Path_6489" data-name="Path 6489" d="M20.052,11.81a8.214,8.214,0,1,0,8.186,8.242,8.142,8.142,0,0,0-8.186-8.242m-.025,15.343a7.132,7.132,0,1,1,7.125-7.163,7.073,7.073,0,0,1-7.125,7.163" transform="translate(-9.709 -9.709)" fill="#fff"/>
    <path id="Path_6490" data-name="Path 6490" d="M138.84,157.419a5.546,5.546,0,0,0-10.922.041,2.249,2.249,0,0,0,1.5,2.836,10.735,10.735,0,0,0,4.145.7,10.329,10.329,0,0,0,3.827-.719,2.242,2.242,0,0,0,1.454-2.859m-1.877,1.87a10.706,10.706,0,0,1-3.579.642,10.94,10.94,0,0,1-3.528-.623,1.306,1.306,0,0,1-.891-1.6,4.472,4.472,0,0,1,8.837.03,1.28,1.28,0,0,1-.838,1.548" transform="translate(-105.101 -125.665)" fill="#fff"/>
    <path id="Path_6491" data-name="Path 6491" d="M145.827,119.42a2.842,2.842,0,0,0-2.859,2.781,2.845,2.845,0,1,0,2.859-2.781m.057,4.574a1.739,1.739,0,1,1,1.692-1.783,1.743,1.743,0,0,1-1.692,1.783" transform="translate(-117.532 -98.174)" fill="#fff"/>
    <path id="Path_6492" data-name="Path 6492" d="M23.259,55.536c-.046.422-.407.509-.793.493-.37-.016-.63-.155-.617-.56.014-.475.354-.541.683-.527.461-.007.774.164.728.594" transform="translate(-17.961 -45.166)" fill="#fff"/>
    <path id="Path_6493" data-name="Path 6493" d="M32.822,32.216c-.075.336-.26.6-.592.541a.866.866,0,0,1-.761-.842.467.467,0,0,1,.519-.489.994.994,0,0,1,.834.79" transform="translate(-25.87 -25.833)" fill="#fff"/>
    <path id="Path_6494" data-name="Path 6494" d="M32.821,77.544a.967.967,0,0,1-.827.777.461.461,0,0,1-.525-.477.852.852,0,0,1,.76-.834c.338-.059.525.189.592.534" transform="translate(-25.87 -63.302)" fill="#fff"/>
    <path id="Path_6495" data-name="Path 6495" d="M56.014,22.475c0,.5-.167.822-.6.785s-.509-.4-.494-.785c.016-.37.144-.635.551-.626.47.009.548.342.539.626" transform="translate(-45.151 -17.962)" fill="#fff"/>
    <path id="Path_6496" data-name="Path 6496" d="M56.027,86.833c-.006.391-.1.712-.573.7-.425-.011-.516-.306-.514-.662-.02-.39.076-.749.521-.761s.571.322.566.724" transform="translate(-45.164 -70.789)" fill="#fff"/>
    <path id="Path_6497" data-name="Path 6497" d="M78.34,31.992a.914.914,0,0,1-.809.77.475.475,0,0,1-.516-.569.872.872,0,0,1,.754-.756c.331-.052.536.183.571.555" transform="translate(-63.308 -25.839)" fill="#fff"/>
    <path id="Path_6498" data-name="Path 6498" d="M78.336,77.714a.444.444,0,0,1-.5.484.832.832,0,0,1-.8-.774c-.041-.352.24-.487.527-.564.432.155.763.383.777.854" transform="translate(-63.324 -63.186)" fill="#fff"/>
    <path id="Path_6499" data-name="Path 6499" d="M87.537,55.506c-.011.425-.31.514-.767.527a.552.552,0,0,1-.655-.534c-.021-.448.327-.559.721-.559s.713.087.7.566" transform="translate(-70.794 -45.166)" fill="#fff"/>
    <path id="Path_6500" data-name="Path 6500" d="M78.34,31.992a.914.914,0,0,1-.809.77.475.475,0,0,1-.516-.569.872.872,0,0,1,.754-.756c.331-.052.536.183.571.555" transform="translate(-63.308 -25.839)" fill="#fff"/>
    <path id="Path_6501" data-name="Path 6501" d="M32.821,77.544a.967.967,0,0,1-.827.777.461.461,0,0,1-.525-.477.852.852,0,0,1,.76-.834c.338-.059.525.189.592.534" transform="translate(-25.87 -63.302)" fill="#fff"/>
    <path id="Path_6502" data-name="Path 6502" d="M78.336,77.714a.444.444,0,0,1-.5.484.832.832,0,0,1-.8-.774c-.041-.352.24-.487.527-.564.432.155.763.383.777.854" transform="translate(-63.324 -63.186)" fill="#fff"/>
    <path id="Path_6503" data-name="Path 6503" d="M87.537,55.506c-.011.425-.31.514-.767.527a.552.552,0,0,1-.655-.534c-.021-.448.327-.559.721-.559s.713.087.7.566" transform="translate(-70.794 -45.166)" fill="#fff"/>
    <path id="Path_6504" data-name="Path 6504" d="M56.027,86.833c-.006.391-.1.712-.573.7-.425-.011-.516-.306-.514-.662-.02-.39.076-.749.521-.761s.571.322.566.724" transform="translate(-45.164 -70.789)" fill="#fff"/>
    <path id="Path_6505" data-name="Path 6505" d="M32.822,32.216c-.075.336-.26.6-.592.541a.866.866,0,0,1-.761-.842.467.467,0,0,1,.519-.489.994.994,0,0,1,.834.79" transform="translate(-25.87 -25.833)" fill="#fff"/>
    <path id="Path_6506" data-name="Path 6506" d="M56.014,22.475c0,.5-.167.822-.6.785s-.509-.4-.494-.785c.016-.37.144-.635.551-.626.47.009.548.342.539.626" transform="translate(-45.151 -17.962)" fill="#fff"/>
    <path id="Path_6507" data-name="Path 6507" d="M23.259,55.536c-.046.422-.407.509-.793.493-.37-.016-.63-.155-.617-.56.014-.475.354-.541.683-.527.461-.007.774.164.728.594" transform="translate(-17.961 -45.166)" fill="#fff"/>
    <path id="Path_6508" data-name="Path 6508" d="M51.6,43.443a1.258,1.258,0,0,1-.909,1.221c-.262.085-.352.2-.313.449.058.363-.156.389-.437.38s-.55.03-.479-.38c.045-.256-.078-.345-.308-.4a1.349,1.349,0,0,1-1.078-1.136c-.037-.206-.083-.5.234-.483.272.013.7-.253.793.288a.613.613,0,0,0,.619.545c.345.028.688-.007.8-.407s-.164-.6-.488-.739-.669-.249-.987-.408a1.359,1.359,0,0,1-.812-1.429,1.3,1.3,0,0,1,.989-1.21c.234-.069.235-.187.239-.367.008-.444.013-.444.5-.444.316-.069.484.07.416.439-.047.252.085.339.3.417a1.321,1.321,0,0,1,.875,1.21c.03.261-.076.362-.337.365-.365,0-.7.047-.771-.48-.035-.281-.327-.379-.607-.365a.552.552,0,0,0-.239,1.052c.321.152.663.261.988.407A1.452,1.452,0,0,1,51.6,43.443" transform="translate(-39.506 -31.981)" fill="#fff"/>
  </g>
</svg>
