<svg id="Group_4968" data-name="Group 4968" xmlns="http://www.w3.org/2000/svg" xmlns:xlink="http://www.w3.org/1999/xlink" width="32.561" height="32.571" viewBox="0 0 32.561 32.571">
  <defs>
    <clipPath id="clip-path">
      <rect id="Rectangle_2309" data-name="Rectangle 2309" width="32.561" height="32.571" fill="#637ce0" stroke="#637ce1" stroke-width="0.4"/>
    </clipPath>
  </defs>
  <g id="Group_4967" data-name="Group 4967" clip-path="url(#clip-path)">
    <path id="Path_11574" data-name="Path 11574" d="M32.559,10.742a1.892,1.892,0,0,0-.181-.891Q30.051,5.214,27.742.564a.9.9,0,0,0-1.048-.55A4.462,4.462,0,0,0,22.96,5.961c.195.61.386,1.221.6,1.822a.547.547,0,0,1-.2.673c-.136.114-.246.276-.456.119A12.039,12.039,0,0,0,18.735,6.75c1.688-1.935,1.754-4.109.216-5.628a3.78,3.78,0,0,0-5.222-.114c-1.66,1.493-1.637,3.559.077,5.761A12.3,12.3,0,0,0,9.722,8.506c-.264.184-.4.085-.576-.1-.394-.406-.792-.808-1.2-1.2a1.107,1.107,0,0,0-1.8.006c-.391.372-.772.755-1.147,1.143-.216.221-.457.471-.388.8.144.686-.264.662-.726.638a3.471,3.471,0,0,0-2.789.831c-.15.144-.568.3-.23.573.229.182.446.733.917.247a2.3,2.3,0,0,1,1.763-.618c.9.006,1.8,0,2.7,0a2.209,2.209,0,1,1,.054,4.4c-.8.02-1.594,0-2.39,0-1.907,0-2.5-.485-2.823-2.366-.091-.533-.5-.338-.78-.4C-.06,12.38,0,12.713,0,12.925a2.918,2.918,0,0,0,.9,2.295c.514.451.394.636-.023,1.069a2.962,2.962,0,0,0-.757,2.983,3.428,3.428,0,0,0,2.363,2.378c-1.458,2.1-1.007,4.019,1.223,5.29a3.241,3.241,0,0,0-.656,3.749,3.283,3.283,0,0,0,3.338,1.878c.951-.02,1.9.012,2.854-.008A3.183,3.183,0,0,0,12.3,30.282c.148-.537.323-.479.727-.361a11.609,11.609,0,0,0,5.184.312A11.976,11.976,0,0,0,27,13.2c-.27-.567-.945-1.109-.8-1.644s.838-.928,1.285-1.39a1.138,1.138,0,0,0,.023-1.861c-.195-.205-.392-.408-.6-.6-.355-.326-.627-.761-1.119-.913s-.892.164-1.308.412c-.219-.673-.44-1.275-.61-1.89a3.409,3.409,0,0,1,2.179-4.073c.531-.184.806-.1,1.065.429,1.334,2.741,2.7,5.465,4.076,8.187a2.653,2.653,0,0,1,.293,1.246q-.016,7.057-.008,14.115a5.976,5.976,0,0,1-6.235,6.26q-6.054,0-12.109,0c-.375,0-.669-.046-.659.527.009.516.19.567.625.565,4.164-.014,8.329.011,12.493-.014a7.077,7.077,0,0,0,6.961-7.007c.017-4.937,0-9.873.008-14.808M7.589,9.98c-.176-.028-.344-.094-.519-.127-.483-.088-1.246.028-1.277-.553s.758-.874,1.129-1.345a.208.208,0,0,1,.13-.063A7.521,7.521,0,0,1,8.51,9.378c-.293.19-.411.681-.92.6m6.451-7.66a2.629,2.629,0,0,1,4.475,0A2.529,2.529,0,0,1,17.941,5.9c-.019-.076-.071-.179-.045-.208.893-.965.38-2.139.491-3.219a.738.738,0,0,0-.587-.293q-1.524.007-3.047,0a.738.738,0,0,0-.587.293,9.853,9.853,0,0,1-.037,1.839c-.133.656.417,1.028.6,1.68a2.57,2.57,0,0,1-.692-3.667m2.923,2.038c-.332-.029-.669.015-1-.011-.351-.028-.818.224-.834-.519-.015-.766.452-.562.848-.582.1,0,.205,0,.307,0a6.1,6.1,0,0,0,.693,0c.435-.049.432.216.428.523s.056.636-.442.593m-.7,1.036c.525-.029.556.193.571.619.015.479-.184.517-.584.53-.466.012-.6-.161-.5-.584-.116-.446.077-.54.511-.565M1.081,18.541A2.17,2.17,0,0,1,3.2,16.27a26.835,26.835,0,0,1,3.38,0,2.164,2.164,0,0,1,2.1,2.285,2.212,2.212,0,0,1-2.233,2.094c-.537.023-1.076,0-1.614,0-.513,0-1.027.022-1.538,0a2.226,2.226,0,0,1-2.22-2.109M2.7,23.9a2.16,2.16,0,0,1,2.048-2.182,31.383,31.383,0,0,1,3.534,0A2.141,2.141,0,0,1,10.327,23.9a2.221,2.221,0,0,1-2.16,2.168c-.562.026-1.127,0-1.691,0-.539,0-1.078.02-1.615,0A2.215,2.215,0,0,1,2.7,23.9m6.589,7.574q-1.691.046-3.383,0a2.169,2.169,0,0,1-.036-4.336c.588-.028,1.18,0,1.77,0,.564,0,1.129-.023,1.691,0a2.169,2.169,0,0,1-.042,4.336M24.488,8.8a9.927,9.927,0,0,0,.948-1.133,13.144,13.144,0,0,1,1.326,1.451c.219.33-.247.494-.435.689-.888.923-.868.88-1.836.039-.483-.42-.445-.658,0-1.045M26.8,15.931A10.8,10.8,0,0,1,16.287,29.317a11.8,11.8,0,0,1-2.438-.281c-.823-.161-1.589-.352-1.808-1.326a1.276,1.276,0,0,0-.2-.326c-.332-.542-1.231-.738-1.292-1.186s.615-.973.752-1.6a2.948,2.948,0,0,0-.179-1.949c-.176-.374-.167-.605.253-.75.435-.151.4-.383.2-.758-.23-.446-.442-.361-.771-.154a1.936,1.936,0,0,1-1.782-.241.267.267,0,0,1-.046-.059,4.349,4.349,0,0,1,1.2-1.7c.357,0,.667.076.672-.514s-.276-.627-.692-.564c-.372.057-.491-.142-.574-.446a2.528,2.528,0,0,0-.9-1.4c-.389-.289-.236-.408.031-.664a3.154,3.154,0,0,0,.372-4.317c-.283-.378-.278-.547.076-.843A10.836,10.836,0,0,1,26.8,15.931" transform="translate(0 0)" fill="#637ce0" stroke="#637ce1" stroke-width="0.4"/>
    <path id="Path_11575" data-name="Path 11575" d="M65.9,58.277c-.489.346-.4.547-.066.925.437.5.639-.026.868-.176a8.338,8.338,0,0,1,9.431-.338,8.211,8.211,0,0,1,4.16,8.605,8.6,8.6,0,0,1-11.647,6.928c-.6-.225-.6.119-.775.428-.287.494.157.511.4.6A9.75,9.75,0,1,0,65.9,58.277" transform="translate(-55.433 -47.671)" fill="#637ce0" stroke="#637ce1" stroke-width="0.4"/>
    <path id="Path_11576" data-name="Path 11576" d="M95.311,95.8a1.466,1.466,0,0,0-.3,1.706,1.539,1.539,0,0,0,1.354.993,1.6,1.6,0,0,0,1.714-1.417.947.947,0,0,1,.593-.863c1.377-.791,2.742-1.6,4.127-2.379.375-.21.443-.383.213-.755-.21-.338-.343-.442-.743-.2-1.353.829-2.753,1.581-4.109,2.406a.992.992,0,0,1-1.11.1,1.394,1.394,0,0,0-1.739.4m1.187.53c.317.045.527.208.528.542a.49.49,0,0,1-.581.542.48.48,0,0,1-.491-.556.53.53,0,0,1,.544-.528" transform="translate(-80.213 -78.43)" fill="#637ce0" stroke="#637ce1" stroke-width="0.4"/>
    <path id="Path_11577" data-name="Path 11577" d="M101.905,72.323c.193.13.741.116.8,0a4.721,4.721,0,0,0,.122-1.871c.014-.213-.167-.191-.32-.222-1-.2-.709.537-.761,1.065.107.32-.2.778.164,1.024" transform="translate(-86.013 -59.36)" fill="#637ce0" stroke="#637ce1" stroke-width="0.4"/>
    <path id="Path_11578" data-name="Path 11578" d="M142.7,116.421c0-.357-.034-.59-.488-.55a10.558,10.558,0,0,1-1.308,0c-.267-.009-.315.1-.355.354-.168,1.018.567.686,1.03.733a4.825,4.825,0,0,1,.636,0c.451.06.486-.184.485-.545" transform="translate(-118.824 -97.976)" fill="#637ce0" stroke="#637ce1" stroke-width="0.4"/>
    <path id="Path_11579" data-name="Path 11579" d="M102.366,154.656c-.789,0-.5.5-.534.863-.031.3.014.611-.011.916-.04.463.273.384.545.384s.588.079.544-.384c-.022-.227,0-.459,0-.687a1.41,1.41,0,0,0,0-.229c-.06-.355.25-.863-.539-.863" transform="translate(-86.087 -130.775)" fill="#637ce0" stroke="#637ce1" stroke-width="0.4"/>
    <path id="Path_11580" data-name="Path 11580" d="M79.706,77.528c.2.449.414.422.818.212.486-.25.284-.479.11-.766-.2-.329-.389-.662-.581-.994-.074-.13-.116-.287-.246-.293a.655.655,0,0,0-.625.9c.171.315.38.611.523.937" transform="translate(-66.903 -63.999)" fill="#637ce0" stroke="#637ce1" stroke-width="0.4"/>
    <path id="Path_11581" data-name="Path 11581" d="M121.3,77.857a11.937,11.937,0,0,0,1.005-1.626c-.1-.321-.429-.344-.639-.51s-.31-.009-.409.165c-.238.423-.5.835-.727,1.263-.074.134-.238.324.049.431.252.091.537.494.721.276" transform="translate(-101.821 -63.975)" fill="#637ce0" stroke="#637ce1" stroke-width="0.4"/>
    <path id="Path_11582" data-name="Path 11582" d="M63.31,93.04c-.315-.17-.618-.361-.933-.53-.145-.079-.312-.292-.466-.125a4.112,4.112,0,0,0-.439.709.442.442,0,0,0,.253.272,11.282,11.282,0,0,1,1.059.618c.381.269.559.207.809-.208.276-.46.026-.568-.284-.735" transform="translate(-51.98 -78.068)" fill="#637ce0" stroke="#637ce1" stroke-width="0.4"/>
    <path id="Path_11583" data-name="Path 11583" d="M134.938,135.062c-.159.258-.318.485.088.669.233.1.448.247.67.375.857.5.857.5,1.36-.431-.5-.3-1.013-.582-1.5-.9-.386-.249-.468.045-.615.284" transform="translate(-113.959 -113.887)" fill="#637ce0" stroke="#637ce1" stroke-width="0.4"/>
    <path id="Path_11584" data-name="Path 11584" d="M79.945,151.222c-.031,0,.019-.144.09-.267.2-.354.381-.72.615-1.05.264-.375.216-.559-.2-.8-.44-.256-.571-.06-.738.269-.148.292-.323.573-.483.86-.253.452-.019.9.721.991" transform="translate(-66.908 -125.98)" fill="#637ce0" stroke="#637ce1" stroke-width="0.4"/>
    <path id="Path_11585" data-name="Path 11585" d="M120.733,149.007c-.238.071-.246.224-.137.411.264.46.534.919.794,1.384.116.205.252.21.415.073.193-.164.516-.182.6-.469a13.3,13.3,0,0,0-.95-1.6c-.23-.292-.473.133-.718.205" transform="translate(-101.918 -125.739)" fill="#637ce0" stroke="#637ce1" stroke-width="0.4"/>
  </g>
</svg>
