<svg id="Group_4908" data-name="Group 4908" xmlns="http://www.w3.org/2000/svg" xmlns:xlink="http://www.w3.org/1999/xlink" width="91.596" height="41.571" viewBox="0 0 91.596 41.571">
  <defs>
    <clipPath id="clip-path">
      <rect id="Rectangle_2289" data-name="Rectangle 2289" width="91.596" height="41.571" fill="#516ddd"/>
    </clipPath>
  </defs>
  <g id="Group_4908-2" data-name="Group 4908" clip-path="url(#clip-path)">
    <path id="Path_11477" data-name="Path 11477" d="M286.967,214.225a29.33,29.33,0,0,0-8.636-6.544c-.323-.174-.466-.134-.705.136a9.634,9.634,0,0,1-14.561.138c-.156-.173-.258-.367-.58-.23a29.04,29.04,0,0,0-7.35,4.293,14.361,14.361,0,0,0-5.566,11.267.529.529,0,0,0,.372.608,52.741,52.741,0,0,0,19.89,3.977c.512,0,1.025.014,1.536,0a56.879,56.879,0,0,0,18.685-3.927.674.674,0,0,0,.5-.783,13.96,13.96,0,0,0-3.584-8.934" transform="translate(-223.993 -186.305)" fill="#516ddd"/>
    <path id="Path_11478" data-name="Path 11478" d="M642.219,212.035a22.8,22.8,0,0,0-7.028-5.457c-.3-.164-.406-.024-.575.167a7.532,7.532,0,0,1-11.3.11c-.127-.136-.2-.347-.489-.224a22.033,22.033,0,0,0-6.385,3.9c-.235.214-.138.31.037.472.527.485,1.06.966,1.553,1.484a14.184,14.184,0,0,1,4.252,9.067c.023.349.225.358.467.391a38.136,38.136,0,0,0,5.48.423,43.7,43.7,0,0,0,16.118-3.073.523.523,0,0,0,.4-.6,10.72,10.72,0,0,0-2.524-6.669" transform="translate(-553.147 -185.345)" fill="#516ddd"/>
    <path id="Path_11479" data-name="Path 11479" d="M28.2,211.191c.308-.27.281-.395,0-.648a22.56,22.56,0,0,0-6.227-3.781c-.268-.115-.361.014-.5.17a7.5,7.5,0,0,1-11.334-.078c-.207-.235-.347-.285-.627-.13a26.929,26.929,0,0,0-5.335,3.684A11.608,11.608,0,0,0,0,218.778a.546.546,0,0,0,.4.641,43.7,43.7,0,0,0,15.988,3.068A40.3,40.3,0,0,0,22,222.071c.34-.047.457-.169.472-.5a11.886,11.886,0,0,1,.753-3.54,16.807,16.807,0,0,1,4.972-6.839" transform="translate(0 -185.461)" fill="#516ddd"/>
    <path id="Path_11480" data-name="Path 11480" d="M379.827,18.88c4.232-4.208,4.245-12.26.028-16.481a7.333,7.333,0,0,0-10.849,0,11.443,11.443,0,0,0-3.187,8.129,12.139,12.139,0,0,0,2.445,7.5c3.06,3.932,8.1,4.3,11.563.855" transform="translate(-328.333 0.001)" fill="#516ddd"/>
    <path id="Path_11481" data-name="Path 11481" d="M683.9,58.474a9.739,9.739,0,0,0-.214-11.826,5.791,5.791,0,0,0-8.932-.287,8.659,8.659,0,0,0-2.383,5.874,9.9,9.9,0,0,0,1.625,5.879,5.909,5.909,0,0,0,9.905.361" transform="translate(-603.47 -39.846)" fill="#516ddd"/>
    <path id="Path_11482" data-name="Path 11482" d="M101.592,59.019a9.653,9.653,0,0,0,.018-12.594,5.8,5.8,0,0,0-8.968.224,9.073,9.073,0,0,0-2.133,5.919,9.638,9.638,0,0,0,1.642,5.576,5.879,5.879,0,0,0,9.442.875" transform="translate(-81.234 -39.861)" fill="#516ddd"/>
  </g>
</svg>
