<svg xmlns="http://www.w3.org/2000/svg" xmlns:xlink="http://www.w3.org/1999/xlink" width="35.942" height="37.639" viewBox="0 0 35.942 37.639">
  <defs>
    <clipPath id="clip-path">
      <rect id="Rectangle_2387" data-name="Rectangle 2387" width="35.942" height="37.639" fill="#fff"/>
    </clipPath>
  </defs>
  <g id="Group_5328" data-name="Group 5328" transform="translate(0 0)">
    <g id="Group_5327" data-name="Group 5327" transform="translate(0 0)" clip-path="url(#clip-path)">
      <path id="Path_11735" data-name="Path 11735" d="M9.732,54.6c.029.059.065.118.088.171.012.142-.1.159-.177.2-.407.224-.831.425-1.22.666-.248.153-.377.112-.566-.106-1.987-2.347-3.992-4.687-5.99-7.022C1.277,47.822.7,47.132.1,46.454c-.142-.159-.153-.236.059-.348,1.22-.643,2.429-1.3,3.638-1.957.183-.1.265-.083.366.106Q6.943,49.438,9.732,54.6" transform="translate(0 -18.094)" fill="#fff"/>
      <path id="Path_11736" data-name="Path 11736" d="M46.8,4.352c.006-.224-.059-.324-.318-.348A16.493,16.493,0,0,1,37,.16c-.242-.206-.377-.218-.631-.006a16.475,16.475,0,0,1-9.363,3.838c-.36.029-.448.142-.46.472a20.035,20.035,0,0,0,.943,7.4,21.341,21.341,0,0,0,8.992,11.244.316.316,0,0,0,.425-.012c.542-.4,1.108-.755,1.633-1.167,5.289-4.115,8.213-9.446,8.278-16.22V4.6c0-.083-.012-.165-.012-.248M44.2,8.32c-2.329,2.2-4.64,4.41-6.963,6.621-.466.442-.932.89-1.4,1.333-.071.065-.142.124-.224.195-.065-.059-.13-.106-.183-.165q-2.308-2.308-4.623-4.611c-.171-.171-.112-.248.024-.383.489-.478.985-.955,1.45-1.45.183-.2.277-.159.442.012.884.9,1.787,1.775,2.665,2.683.23.236.342.2.56-.012,2.134-2.046,4.281-4.08,6.415-6.126.212-.206.33-.236.537.006.413.472.855.926,1.3,1.368.212.206.224.318-.006.531" transform="translate(-10.882 0)" fill="#fff"/>
      <path id="Path_11737" data-name="Path 11737" d="M40.12,43.368c.006.094,0,.189,0,.289a2.3,2.3,0,0,1-1.533,2.317c-3.915,1.663-7.842,3.308-11.745,5.006a2.943,2.943,0,0,1-1.781.147c-2.718-.466-5.442-.914-8.166-1.368a.942.942,0,0,0-.737.136c-.466.3-.967.56-1.439.855-.195.124-.283.124-.4-.094q-2.025-3.794-4.074-7.571c-.106-.195-.071-.265.112-.36,2.123-1.044,4.222-2.123,6.256-3.331a.509.509,0,0,1,.425-.012q3.838,1.008,7.683,2.011c.6.159,1.191.312,1.781.466a2.089,2.089,0,0,1,1.25,2.919c-.029.059-.077.136-.13.147a2.972,2.972,0,0,1-1.462.236c-1.474-.4-2.966-.743-4.452-1.108-.513-.124-.855.029-.961.419s.136.719.666.849c1.627.407,3.255.808,4.882,1.22a1.161,1.161,0,0,0,.637-.041l12.506-3.626c.619-.177.649-.159.684.5" transform="translate(-4.18 -16.145)" fill="#fff"/>
      <path id="Path_11738" data-name="Path 11738" d="M46.8,4.352c.006-.224-.059-.324-.318-.348A16.493,16.493,0,0,1,37,.16c-.242-.206-.377-.218-.631-.006a16.475,16.475,0,0,1-9.363,3.838c-.36.029-.448.142-.46.472a20.035,20.035,0,0,0,.943,7.4,21.341,21.341,0,0,0,8.992,11.244.316.316,0,0,0,.425-.012c.542-.4,1.108-.755,1.633-1.167,5.289-4.115,8.213-9.446,8.278-16.22V4.6c0-.083-.012-.165-.012-.248M44.2,8.32c-2.329,2.2-4.64,4.41-6.963,6.621-.466.442-.932.89-1.4,1.333-.071.065-.142.124-.224.195-.065-.059-.13-.106-.183-.165q-2.308-2.308-4.623-4.611c-.171-.171-.112-.248.024-.383.489-.478.985-.955,1.45-1.45.183-.2.277-.159.442.012.884.9,1.787,1.775,2.665,2.683.23.236.342.2.56-.012,2.134-2.046,4.281-4.08,6.415-6.126.212-.206.33-.236.537.006.413.472.855.926,1.3,1.368.212.206.224.318-.006.531" transform="translate(-10.882 0)" fill="#fff"/>
      <path id="Path_11739" data-name="Path 11739" d="M40.12,43.368c.006.094,0,.189,0,.289a2.3,2.3,0,0,1-1.533,2.317c-3.915,1.663-7.842,3.308-11.745,5.006a2.943,2.943,0,0,1-1.781.147c-2.718-.466-5.442-.914-8.166-1.368a.942.942,0,0,0-.737.136c-.466.3-.967.56-1.439.855-.195.124-.283.124-.4-.094q-2.025-3.794-4.074-7.571c-.106-.195-.071-.265.112-.36,2.123-1.044,4.222-2.123,6.256-3.331a.509.509,0,0,1,.425-.012q3.838,1.008,7.683,2.011c.6.159,1.191.312,1.781.466a2.089,2.089,0,0,1,1.25,2.919c-.029.059-.077.136-.13.147a2.972,2.972,0,0,1-1.462.236c-1.474-.4-2.966-.743-4.452-1.108-.513-.124-.855.029-.961.419s.136.719.666.849c1.627.407,3.255.808,4.882,1.22a1.161,1.161,0,0,0,.637-.041l12.506-3.626c.619-.177.649-.159.684.5" transform="translate(-4.18 -16.145)" fill="#fff"/>
      <path id="Path_11740" data-name="Path 11740" d="M9.82,54.774c.012.142-.1.159-.177.2-.407.224-.831.425-1.22.666-.248.153-.377.112-.566-.106-1.987-2.347-3.992-4.687-5.99-7.022C1.277,47.822.7,47.132.1,46.454c-.142-.159-.153-.236.059-.348,1.22-.643,2.429-1.3,3.638-1.957.183-.1.265-.083.366.106Q6.943,49.438,9.732,54.6c.029.059.065.118.088.171" transform="translate(0 -18.094)" fill="#fff"/>
    </g>
  </g>
</svg>
