<svg xmlns="http://www.w3.org/2000/svg" width="20.091" height="20.196" viewBox="0 0 20.091 20.196">
  <g id="Group_4586" data-name="Group 4586" transform="translate(0.5 0.566)">
    <g id="Group_4586-2" data-name="Group 4586" transform="translate(0 0)">
      <path id="Path_10454" data-name="Path 10454" d="M18.386,13.875q-1.223-1.245-2.468-2.467a1.78,1.78,0,0,0-1.615-.531,2.165,2.165,0,0,0-1.158.67q-.628.626-1.252,1.254c-.057.058-.1.117-.2.055-.277-.165-.57-.3-.842-.475a13.586,13.586,0,0,1-2.614-2.209A11.08,11.08,0,0,1,6.243,7.42a.2.2,0,0,1,.05-.283A18.766,18.766,0,0,0,7.787,5.624a1.786,1.786,0,0,0-.007-2.4c-.472-.546-1.007-1.032-1.512-1.548C5.859,1.259,5.461.83,5.012.454A1.82,1.82,0,0,0,2.621.442C2.039.921,1.548,1.5,1,2.017A3.115,3.115,0,0,0,0,4.378,6.053,6.053,0,0,0,.1,5.553,13.111,13.111,0,0,0,1.555,9.382a20.436,20.436,0,0,0,2.921,4.039,20.049,20.049,0,0,0,5.759,4.4,10.887,10.887,0,0,0,4.029,1.292,3.087,3.087,0,0,0,2.405-.676A18.933,18.933,0,0,0,18.5,16.577a1.843,1.843,0,0,0-.114-2.7m-.644,2.118c-.513.559-1.041,1.105-1.589,1.629a2.283,2.283,0,0,1-1.929.524A9.732,9.732,0,0,1,10.945,17.1a18.865,18.865,0,0,1-5.593-4.156A18.247,18.247,0,0,1,1.517,6.98,7.338,7.338,0,0,1,.968,4.331a2.231,2.231,0,0,1,.745-1.653c.451-.437.886-.891,1.335-1.33a.948.948,0,0,1,1.091-.3,1.325,1.325,0,0,1,.419.3L6.866,3.664l.013.013a.934.934,0,0,1,0,1.52c-.442.456-.889.907-1.354,1.337A.843.843,0,0,0,5.3,7.685a11.472,11.472,0,0,0,2.161,3.085,14.327,14.327,0,0,0,3.161,2.622c.255.153.52.289.786.425a.794.794,0,0,0,1.018-.162c.468-.464.931-.933,1.4-1.4a2.072,2.072,0,0,1,.281-.244.827.827,0,0,1,1.12.084q1.257,1.238,2.494,2.494a.9.9,0,0,1,.027,1.4" transform="translate(0 0)" fill="#516ddd" stroke="#506bda" stroke-width="1"/>
    </g>
  </g>
</svg>
