<svg xmlns="http://www.w3.org/2000/svg" xmlns:xlink="http://www.w3.org/1999/xlink" width="32.126" height="28.708" viewBox="0 0 32.126 28.708">
  <defs>
    <clipPath id="clip-path">
      <rect id="Rectangle_2298" data-name="Rectangle 2298" width="32.126" height="28.708" transform="translate(0 0)" fill="#516bda"/>
    </clipPath>
  </defs>
  <g id="Group_4940" data-name="Group 4940" transform="translate(0 0)">
    <g id="Group_4939" data-name="Group 4939" transform="translate(0 0)" clip-path="url(#clip-path)">
      <path id="Path_11518" data-name="Path 11518" d="M21.243,72.211a23.246,23.246,0,0,0-2.485,1.535.432.432,0,0,0-.176.646c.179.281.439.209.669.066.577-.358,1.154-.715,1.714-1.1.575-.4,1.18-.684,1.637.061s-.115,1.139-.684,1.507c-1.926,1.244-3.867,2.47-5.752,3.772a1.784,1.784,0,0,1-1.767.232c-1.571-.516-3.172-.948-4.758-1.417-.774-.23-1.545-.547-2.317,0-.375.268-.524-.02-.69-.271-.232-.355-.457-.718-.692-1.07-1.433-2.153-1.433-2.153.748-3.525.782-.493,1.5-1.131,2.562-.766,2.087.72,4.184,1.41,6.28,2.1.582.194,1.017.511.83,1.19s-.73.738-1.331.57c-.94-.263-1.885-.511-2.822-.787-.365-.11-.715-.148-.82.286-.089.378.268.48.557.562.937.271,1.872.559,2.82.789a1.881,1.881,0,0,0,2.49-1.137c.3-1.039-.281-1.923-1.561-2.355-1.808-.613-3.634-1.175-5.42-1.844a4.056,4.056,0,0,0-4.069.562c-.8.559-1.509,1.841-2.853.927-.072-.049-.3.112-.444.2-.822.526-1.64,1.065-2.46,1.594-.406.261-.623.529-.283,1.027.743,1.088,1.446,2.2,2.163,3.3.181.276.411.472.733.253.352-.243.14-.511-.023-.766-.345-.536-.679-1.078-1.029-1.609-1.014-1.543-.986-1.5.508-2.521.695-.475.955-.309,1.333.345.636,1.1,1.41,2.122,2.076,3.208.248.406.914.863.557,1.285a4.562,4.562,0,0,1-2.041,1.308c-.34-.243-.639-.368-.83-.01s.077.636.281.907a.586.586,0,0,0,.891.1Q6.117,80.5,7.436,79.61c.174-.117.378-.271.324-.508-.34-1.527.713-.986,1.323-.825,1.721.457,3.42,1,5.121,1.527a2.058,2.058,0,0,0,1.734.059c2.4-1.525,4.791-3.065,7.123-4.694a1.557,1.557,0,0,0,.291-2.283,1.6,1.6,0,0,0-2.11-.674" transform="translate(0 -52.827)" fill="#516bda"/>
      <path id="Path_11519" data-name="Path 11519" d="M28.41,16.981c.36-.115.317-.442.207-.748-.8-2.283.066-4.132,1.492-5.854,1.162-1.407,2.324-2.817,3.435-4.263.4-.524.707-1.042,1.5-.886.263.051.661.061.682-.365.026-.5-.383-.516-.715-.478a1.323,1.323,0,0,1-1.52-.83c-.286-.605-.644-1.175-1.062-1.923.93.031,1.691.355,2.24-.1,1.341-1.126,2.48-.115,3.92.1-.9,1-.871,2.306-2.046,2.912-.4.2.041.472.232.751,1.372,2.007,3.31,3.537,4.671,5.537s1.87,4.171.695,6.482c-.179.347-.72.756-.2,1.068.534.322.82-.291,1.014-.687a7.016,7.016,0,0,0-.465-6.929A17.032,17.032,0,0,0,39.8,7.538c-2.148-2.25-2.145-2.253-.8-5.014.843-1.719.84-1.706-.988-1.982A9.288,9.288,0,0,1,36.673.17a1.523,1.523,0,0,0-1.466.041A3.029,3.029,0,0,1,32.2.581c-.815-.261-.868.2-.733.815A5.223,5.223,0,0,0,32.5,3.564c.828,1.011.626,1.79-.146,2.743a54.884,54.884,0,0,0-3.91,4.86,5.9,5.9,0,0,0-.692,5.238c.107.322.2.725.659.575" transform="translate(-20.422 0)" fill="#516bda"/>
      <path id="Path_11520" data-name="Path 11520" d="M84.01,4.336a6.91,6.91,0,0,0-9.051,2.444c-.156.273-.48.585-.074.884s.6-.064.8-.335c.125-.171.217-.365.345-.534a6.011,6.011,0,0,1,9.647.128c2.886,4.03.442,9.016-4.735,9.675-.335.041-.907-.146-.912.416-.01.672.6.455.968.447,3.724-.074,6.755-3.2,6.743-7.69A6.455,6.455,0,0,0,84.01,4.336" transform="translate(-55.612 -2.649)" fill="#516bda"/>
      <path id="Path_11521" data-name="Path 11521" d="M50.759,40.089c-.434.087-.672-.329-.8-.674-.148-.388-.158-.978-.756-.687-.49.24-.2.759-.066,1.142.375,1.068,1.6,1.292,2.217,2.245.37.572.327-.973,1.062-.968a1.6,1.6,0,0,0,.784-.383,1.982,1.982,0,0,0-.153-3.527c-1.494-.6-1.157-1.568-1.1-2.7a1.145,1.145,0,0,1,.991.919c.074.327.232.608.593.5.424-.128.391-.511.263-.845a3.237,3.237,0,0,0-.409-.779c-.475-.641-1.571-.631-1.716-1.658-.023-.169-.49-.161-.506.046-.066.907-.925,1-1.4,1.466A1.763,1.763,0,0,0,50,37.1c1.129.5,1.037,1.264,1,2.128-.013.3.227.766-.24.861m1.379-2.283c.327-.072.539.174.741.391.751.807.414,1.583-1.011,2.094,0-.613-.018-1.188.008-1.757.013-.258-.158-.636.263-.728m-1.285-1.341c-.174.153-.4-.043-.531-.212a.959.959,0,0,1-.046-1.269,5.437,5.437,0,0,1,.654-.587,7.6,7.6,0,0,1,.082.994c-.028.365.163.794-.158,1.075" transform="translate(-36.429 -24.237)" fill="#516bda"/>
      <path id="Path_11522" data-name="Path 11522" d="M95.248,18.163a2.3,2.3,0,0,1,2.051-.669c.457.031,1-.194,1.006-.536.013-.544-.582-.314-.914-.324-2.15-.069-2.457-.373-2.449-2.536a4.4,4.4,0,0,0,0-.636c-.056-.416.215-1.116-.478-1.088-.661.028-.4.715-.427,1.137-.066,1.022.209,2.064-.746,2.929a1.119,1.119,0,0,0,.238,1.6,1.182,1.182,0,0,0,1.721.123m-1.254-1.111a.451.451,0,0,1,.457-.485.486.486,0,0,1,.524.432.492.492,0,1,1-.981.054" transform="translate(-69.279 -9.212)" fill="#516bda"/>
    </g>
  </g>
</svg>
