<svg id="Group_4695" data-name="Group 4695" xmlns="http://www.w3.org/2000/svg" xmlns:xlink="http://www.w3.org/1999/xlink" width="39.586" height="37.139" viewBox="0 0 39.586 37.139">
  <defs>
    <clipPath id="clip-path">
      <rect id="Rectangle_2264" data-name="Rectangle 2264" width="39.586" height="37.139" fill="#fff"/>
    </clipPath>
  </defs>
  <g id="Group_4695-2" data-name="Group 4695" clip-path="url(#clip-path)">
    <path id="Path_11415" data-name="Path 11415" d="M39.412,124.6a1.583,1.583,0,0,0-2.106-.673,7.865,7.865,0,0,0-1.228.49,49.2,49.2,0,0,0-5.573,3.2,7.721,7.721,0,0,1-3.193,1.271c-2.258.377-4.534.554-6.812.779-.785,0-1.569,0-2.354,0-.4,0-.937.086-.96-.472s.5-.519.915-.558c2.682-.252,5.364-.5,8.044-.779A1.817,1.817,0,0,0,28,125.978c-.029-1.072-.808-1.751-2.075-1.77-1.909-.027-3.82-.059-5.731-.045a18.732,18.732,0,0,1-4.952-.564,11.389,11.389,0,0,0-7.136.322c-.65.252-1.267.6-1.878-.156-.25-.308-.755-.258-1.169-.232-1.021.068-2.042.123-3.063.2a2,2,0,0,0-1.989,2.329q.252,3.47.511,6.939a1.982,1.982,0,0,0,2.26,2.055c.648-.016,1.3-.037,1.942-.088,1.036-.084,2.155.055,2.844-1.025.148-.232.441-.129.671-.119,4.7.205,9.408.359,14.106.648A9.462,9.462,0,0,0,28,133.167c2.479-1.489,4.987-2.932,7.482-4.4,1.087-.638,2.19-1.247,3.246-1.932a1.717,1.717,0,0,0,.681-2.235M3.98,133.31A1.043,1.043,0,0,1,2.8,132.195c0-.687.474-1.007,1.134-1.1.636.088,1.095.39,1.118,1.089A1.028,1.028,0,0,1,3.98,133.31" transform="translate(0 -97.919)" fill="#fff"/>
    <path id="Path_11416" data-name="Path 11416" d="M45.564,13.67a.453.453,0,0,0,.3.029c1.349-.32,1.893.385,2.065,1.593a.991.991,0,0,0,.2.468,1.468,1.468,0,0,1-.342,2.426.79.79,0,0,0,.014,1.382c.73.523,1.349,2.2,2.241,1.29,1.249-1.275,2.135-.814,3.271-.228a2.279,2.279,0,0,0,.773.25c.586.062.773.322.769.929-.016,1.778.016,1.778,1.821,1.778.306,0,.613,0,.921,0,.638,0,1.021-.332.91-.945-.232-1.277.334-1.858,1.53-2.022a1.223,1.223,0,0,0,.562-.236A1.457,1.457,0,0,1,63,20.732a.79.79,0,0,0,1.382,0c.533-.728,1.848-1.015,1.392-2.331a.32.32,0,0,0-.127-.158c-1.257-.738-1-1.669-.349-2.66a1.183,1.183,0,0,0,.185-.472c.135-1.134.689-1.653,1.884-1.427.506.1,1.054-.123,1.007-.726-.078-.968.5-2.048-.42-2.889a.377.377,0,0,0-.3-.047c-1.567.4-2.044-.564-2.34-1.817A2.8,2.8,0,0,0,64.843,7.2a.674.674,0,0,1,.152-1.1,6.406,6.406,0,0,0,.582-.574c.486-.476.513-1.025-.016-1.4-.734-.523-1.007-1.87-2.334-1.382a.325.325,0,0,0-.154.133c-.712,1.179-1.6,1.072-2.588.377a1.11,1.11,0,0,0-.47-.193c-1.2-.152-1.761-.732-1.513-2.007A.755.755,0,0,0,57.609.1c-.927.148-2.087-.615-2.756.636a.162.162,0,0,0-.014.1c.4,1.593-.574,2.1-1.862,2.391a2.66,2.66,0,0,0-.915.441c-.486.349-.818.248-1.2-.187-.322-.367-.6-.853-1.081-.88-.681,0-2.387,1.757-2.336,2.311.014.16.062.388.172.455,1.439.876.98,1.93.316,3.016a.721.721,0,0,0-.09.291c-.1,1.189-.759,1.577-1.9,1.384-.6-.1-1.089.211-.984.845.152.931-.607,2.081.607,2.77m8.12.113c.773.035,1.706-.377,1.928.947.1.593.75.714,1.337.691a.905.905,0,0,0,.894-.828,1.23,1.23,0,0,0-.625-1.4c-.8-.441-1.653-.792-2.457-1.232a2.533,2.533,0,0,1-1.423-2.206,2.746,2.746,0,0,1,2.02-3.039c.509-.168.853-.322.734-.947-.135-.707.25-.833.882-.849.7-.016.843.31.744.867-.107.6.191.822.707,1a2.7,2.7,0,0,1,1.536,1.423c.627,1.28.431,1.616-1.009,1.634-.383-.09-1,.3-1.107-.57a.967.967,0,0,0-1.06-.9.857.857,0,0,0-.923.65,1.247,1.247,0,0,0,.457,1.542c.851.494,1.753.9,2.6,1.4a2.528,2.528,0,0,1,1.3,2.284,2.568,2.568,0,0,1-1.866,2.822c-.568.2-.738.482-.656,1.017.092.607-.215.757-.769.746s-.984-.035-.867-.748c.1-.6-.162-.789-.744-.927a3,3,0,0,1-2.338-2.545c-.059-.558.113-.861.7-.835" transform="translate(-35.661 0)" fill="#fff"/>
    <path id="Path_11417" data-name="Path 11417" d="M145.224,123.44a42.831,42.831,0,0,1,6.211-3.418,1.776,1.776,0,0,0-1.841-.1c-1.2.539-2.405,1.083-3.593,1.655-1.14.55-1.132.566-.777,1.864" transform="translate(-115.278 -95.164)" fill="#fff"/>
    <path id="Path_11418" data-name="Path 11418" d="M137.372,117.418c.324.361.6.874.908.7,1.247-.72,2.653-1.091,3.88-1.868-1.782-.381-3.158.716-4.788,1.171" transform="translate(-109.203 -92.347)" fill="#fff"/>
  </g>
</svg>
