<svg xmlns="http://www.w3.org/2000/svg" width="38.926" height="47.326" viewBox="0 0 38.926 47.326">
  <path id="Union_8" data-name="Union 8" d="M14696.688-12626.673a2.137,2.137,0,0,1-1.96-2.288l.58-9.6a17.415,17.415,0,0,0,3.41-.664l.727,1.477-.509,9.083a2.145,2.145,0,0,1-2.1,1.992Zm-7.038,0a2.138,2.138,0,0,1-1.96-2.288l.653-10.78a13.281,13.281,0,0,0,4.138,1.107l-.583,9.969a2.143,2.143,0,0,1-2.1,1.992Zm-11.242,0a2.161,2.161,0,0,1-2.1-2.066l-.51-14.4h-.218l-.5,14.4a2.157,2.157,0,0,1-2.1,2.066h-.073a2.126,2.126,0,0,1-2.03-2.214l.436-14.25a.758.758,0,0,1-.291-.517l-.288-4.063a11.459,11.459,0,0,0,2.321,1.11,2.059,2.059,0,0,0,2.684-1.258,2.089,2.089,0,0,0-1.233-2.731c-1.668-.591-4.351-2.067-3.989-5.094a2.177,2.177,0,0,0-.361-1.476c-.8,3.174-.148,5.609,4.133,7.233a1.319,1.319,0,0,1,.8,1.771,1.336,1.336,0,0,1-1.742.813c-9.936-3.691-5.729-13.364-3.624-14.988,6.6-5.167,12.112-.517,12.33.738a17.891,17.891,0,0,0,2.9,7.09c-.58,1.181.218,2.952.724,3.912-2.1-.591-3.555-2.657-4.569-4.8l-.8,11.74a.554.554,0,0,1-.361.517l.579,14.25a2.176,2.176,0,0,1-2.029,2.214Zm26.474-1.7a.386.386,0,0,1-.287-.222c-1.451-3.1-6.965-14.472-8.415-17.571a1.289,1.289,0,0,0-1.595-.665.573.573,0,0,0,.144-.295c0-.222.074-.369.074-.517a1.847,1.847,0,0,1,2.03,1.107c-.074-.074,8.341,17.424,8.341,17.719a.359.359,0,0,1-.144.443Zm-18.712-13.217,1.3-6.795a12.741,12.741,0,0,0,4.791,2.588,3.563,3.563,0,0,0,.506,1.919,1.061,1.061,0,0,0,1.38.517,1.1,1.1,0,0,0,.506-1.4c-.07-.147-.8-1.033,0-1.4a.668.668,0,0,1,.871.295l1.307,2.657,1.594,3.322a14.188,14.188,0,0,1-4.206.643A15.729,15.729,0,0,1,14686.17-12641.587Zm11.172-5.167a2.687,2.687,0,0,0-2.687-1.55,2.144,2.144,0,0,0-1.377-1.48c-4.5-1.55-4.425-3.838-4.717-4.429l.147-.738v-3.174c-1.812,4.355-.509,7.312,4.352,9.009a1.474,1.474,0,0,1,.871,1.771,1.4,1.4,0,0,1-1.742.886c-8.123-2.809-8.776-9.6-4.134-16.095a2.411,2.411,0,0,1,.288-.369,2.066,2.066,0,0,1,.436-.373v-.073a10.287,10.287,0,0,1,10.593-.07,1.314,1.314,0,0,1,.8.738.07.07,0,0,1,.074.069l5.584,14.254a1.567,1.567,0,0,1-.941,1.993,1.412,1.412,0,0,1-1.815-.812c-.033-.087-.05-.13-.055-.146-.205-.517-1-2.535-3.644-9.307v1.7l2.609,13.512c-.506.3-1.085.591-1.668.886Zm5.737-.431Zm-9.656,3.015a2.909,2.909,0,0,1-.436-1.624.878.878,0,0,0,.653-.226c-.218.668.217,1.185.361,1.554a.359.359,0,0,1-.145.443.278.278,0,0,1-.127.028A.352.352,0,0,1,14693.423-12644.17Zm-21.905-25.548a4.171,4.171,0,0,1,4.134-4.207,4.172,4.172,0,0,1,4.138,4.207,4.173,4.173,0,0,1-4.138,4.208A4.172,4.172,0,0,1,14671.518-12669.718Zm18.494-.073a4.17,4.17,0,0,1,4.134-4.208,4.172,4.172,0,0,1,4.138,4.208,4.115,4.115,0,0,1-4.138,4.207A4.074,4.074,0,0,1,14690.012-12669.791Z" transform="translate(-14667 12673.999)" fill="#4E6CD9"/>
</svg>
