<svg id="Group_5325" data-name="Group 5325" xmlns="http://www.w3.org/2000/svg" xmlns:xlink="http://www.w3.org/1999/xlink" width="42.975" height="26.996" viewBox="0 0 42.975 26.996">
  <defs>
    <clipPath id="clip-path">
      <rect id="Rectangle_2385" data-name="Rectangle 2385" width="42.975" height="26.996" fill="#fff"/>
    </clipPath>
  </defs>
  <g id="Group_5324" data-name="Group 5324" clip-path="url(#clip-path)">
    <path id="Path_11722" data-name="Path 11722" d="M37.908,18.89c-3.033-1.758-6.083-3.485-9.095-5.28a3.006,3.006,0,0,0-2.95-.175c-.309.135-.61.294-.923.421a.845.845,0,0,0-.457.468c-.271.584-.551,1.166-.857,1.732a3.355,3.355,0,0,1-2.14,1.7c-1.409.394-2.268-.257-2.216-1.713.048-1.341.133-2.682.183-4.023a.912.912,0,0,1,.306-.63c.588-.6,1.165-1.212,1.774-1.848-1.4-.5-2.832-1-4.257-1.524-.244-.09-.341,0-.452.2q-2.419,4.195-4.849,8.384a.346.346,0,0,0,.033.466q1.395,1.713,2.762,3.446c.2.257.287.2.438-.033.293-.444.6-.881.926-1.3a2.075,2.075,0,0,1,2.929-.478,2.4,2.4,0,0,1,.927,1.226,2.086,2.086,0,0,1,2.586-.252,2.164,2.164,0,0,1,1.105,2.273,2.337,2.337,0,0,1,2.211,1.05,2.122,2.122,0,0,1-.074,2.444,2.224,2.224,0,0,1,2.138,3.021c-.084.177-.022.255.13.341.744.423,1.472.879,2.229,1.275a1.3,1.3,0,0,0,1.752-.563,1.318,1.318,0,0,0-.386-1.834c-.146-.1-.3-.187-.456-.277-.727-.423-1.453-.842-2.179-1.267-.22-.13-.338-.31-.179-.563a.373.373,0,0,1,.583-.109c.082.051.168.1.251.144,1.006.585,2.011,1.167,3.016,1.756a1.319,1.319,0,0,0,1.547-.01A1.364,1.364,0,0,0,34.2,25c-1.021-.62-2.064-1.2-3.1-1.8-.216-.127-.362-.3-.226-.554.146-.273.372-.277.618-.126.112.066.224.129.335.193,1.259.729,2.511,1.468,3.775,2.185a1.337,1.337,0,0,0,1.975-.657,1.3,1.3,0,0,0-.622-1.771c-1.237-.731-2.485-1.446-3.73-2.165-.255-.146-.5-.316-.305-.643s.454-.185.708-.036c.962.563,1.927,1.119,2.893,1.676a1.353,1.353,0,0,0,1.014.22,1.5,1.5,0,0,0,1.14-1.244,1.326,1.326,0,0,0-.767-1.388" transform="translate(-4.968 -3.333)" fill="#fff"/>
    <path id="Path_11723" data-name="Path 11723" d="M41.917,8.121a.344.344,0,0,0-.464-.2,14.634,14.634,0,0,1-7.629.1,5.026,5.026,0,0,0-5.11,1.383c-.8.8-1.623,1.581-2.442,2.364a.552.552,0,0,0-.2.413c-.02.678-.058,1.357-.09,2.035l.006,0c-.033.661-.086,1.323-.094,1.986s.312.9.965.775a2.54,2.54,0,0,0,1.8-1.183c.417-.676.726-1.4,1.081-2.109a.821.821,0,0,1,.4-.46c.581-.244,1.146-.527,1.733-.744a3.292,3.292,0,0,1,2.974.277c2.938,1.728,5.9,3.418,8.842,5.128a.55.55,0,0,0,.618.062c.737-.4,1.489-.778,2.243-1.144.228-.113.267-.2.133-.433q-2.4-4.122-4.771-8.256" transform="translate(-10.811 -3.269)" fill="#fff"/>
    <path id="Path_11724" data-name="Path 11724" d="M11.775,3.266A1.226,1.226,0,0,0,11.128,2.1C10.037,1.469,8.951.83,7.854.213A1.141,1.141,0,0,0,6.131.7Q3.167,5.8.22,10.919a1.138,1.138,0,0,0,.46,1.725q1.605.947,3.228,1.865a1.144,1.144,0,0,0,1.735-.45Q8.618,8.932,11.578,3.8a1.16,1.16,0,0,0,.2-.53" transform="translate(0 -0.001)" fill="#fff"/>
    <path id="Path_11725" data-name="Path 11725" d="M65.128,10.947Q62.161,5.788,59.17.641A1.121,1.121,0,0,0,57.51.2c-1.127.633-2.241,1.284-3.358,1.933a1.164,1.164,0,0,0-.6,1.072,1.133,1.133,0,0,0,.2.6q2.967,5.131,5.935,10.263a1.139,1.139,0,0,0,1.7.456q1.643-.927,3.27-1.888a1.133,1.133,0,0,0,.466-1.69" transform="translate(-22.358 0)" fill="#fff"/>
    <path id="Path_11726" data-name="Path 11726" d="M25.97,29.1a1.29,1.29,0,0,0-1.883.284c-1.049,1.45-2.072,2.92-3.1,4.387a1.22,1.22,0,0,0-.089,1.368,1.442,1.442,0,0,0,1.249.783,1.191,1.191,0,0,0,1.086-.527c1.049-1.471,2.1-2.943,3.118-4.432A1.3,1.3,0,0,0,25.97,29.1" transform="translate(-8.655 -12.032)" fill="#fff"/>
    <path id="Path_11727" data-name="Path 11727" d="M30.72,33.557a1.313,1.313,0,0,0-1.92.329c-.849,1.18-1.68,2.374-2.512,3.567a1.234,1.234,0,0,0-.09,1.411,1.437,1.437,0,0,0,1.265.762,1.248,1.248,0,0,0,1.109-.589c.84-1.187,1.686-2.37,2.508-3.57a1.315,1.315,0,0,0-.361-1.91" transform="translate(-10.862 -13.893)" fill="#fff"/>
    <path id="Path_11728" data-name="Path 11728" d="M20.941,29.307a1.394,1.394,0,0,0,.308-.85,1.454,1.454,0,0,0-.965-1.327,1.276,1.276,0,0,0-1.547.477c-.612.834-1.2,1.684-1.789,2.536a1.336,1.336,0,0,0,.3,1.961,1.354,1.354,0,0,0,1.984-.38c.577-.8,1.14-1.61,1.707-2.417" transform="translate(-6.952 -11.288)" fill="#fff"/>
    <path id="Path_11729" data-name="Path 11729" d="M34.276,39.317a1.3,1.3,0,0,0-1,.511c-.353.481-.709.961-1.031,1.463a1.389,1.389,0,0,0,2.278,1.577c.355-.458.684-.937,1-1.425a1.22,1.22,0,0,0,.033-1.37,1.533,1.533,0,0,0-1.28-.756" transform="translate(-13.369 -16.415)" fill="#fff"/>
  </g>
</svg>
