<svg id="Group_4951" data-name="Group 4951" xmlns="http://www.w3.org/2000/svg" xmlns:xlink="http://www.w3.org/1999/xlink" width="43.642" height="31.228" viewBox="0 0 43.642 31.228">
  <defs>
    <clipPath id="clip-path">
      <rect id="Rectangle_2301" data-name="Rectangle 2301" width="43.642" height="31.228" fill="#fff"/>
    </clipPath>
  </defs>
  <g id="Group_4950" data-name="Group 4950" clip-path="url(#clip-path)">
    <path id="Path_11529" data-name="Path 11529" d="M40.385,5.046c-4.275,0-8.55-.024-12.824.013-.853.007-.915-.215-.552-.893a19.551,19.551,0,0,0,.856-1.92c.282-.7.061-1.047-.69-1.086-.58-.031-1.161-.015-1.74,0-.317.006-.515-.048-.5-.444.022-.565-.35-.71-.842-.708C22.6.012,21.1.026,19.6,0c-.679-.011-.928.284-.915.935.022,1.009-.053,2.021.026,3.022.066.855-.147,1.12-1.064,1.109C12.8,5.016,7.94,5.04,3.086,5.049.992,5.051,0,6.047,0,8.136Q0,18.118,0,28.1c0,2.147.974,3.123,3.127,3.123q9.345.006,18.687,0t18.687,0c2.169,0,3.138-.957,3.138-3.11q0-9.892,0-19.784c0-2.353-.922-3.285-3.255-3.286M24.992,2.7c.141-.624.84-.079,1.242-.339l.116.209L25.216,5.051A3.684,3.684,0,0,1,24.992,2.7M19.958,2c-.013-.51.05-.787.673-.745.97.068,2.243-.323,2.839.16.622.5.134,1.827.2,2.789.018.273,0,.55,0,.825,0,1.067-.018,2.138.009,3.206.011.444-.143.622-.578.559a.729.729,0,0,0-.092,0c-.972-.02-2.237.325-2.837-.158-.635-.508-.169-1.827-.193-2.788-.033-1.282.009-2.567-.022-3.849m22.393,26.4c0,1.122-.5,1.535-1.783,1.535q-15.019,0-30.043,0-3.708,0-7.418,0c-1.388,0-1.821-.422-1.821-1.779,0-6.686.006-13.371-.013-20.057A1.721,1.721,0,0,1,2.2,6.37c.213-.02.425-.057.638-.057q7.92.006,15.839.015c.006.915.037,1.832.009,2.747-.02.69.229,1.018.95,1.007,1.465-.024,2.931-.017,4.4,0,.664.006.944-.288.919-.946s.035-1.346-.018-2.014c-.053-.642.165-.818.809-.812,3.846.029,7.693.015,11.541.015,1.159,0,2.32-.013,3.479,0,1.078.017,1.588.5,1.59,1.566q.014,10.258,0,20.514" transform="translate(0 0)" fill="#fff"/>
    <path id="Path_11530" data-name="Path 11530" d="M40.641,61.633a2.827,2.827,0,0,0-.528-.1q-5.521-.005-11.04,0a2.736,2.736,0,0,0-.53.1,1.59,1.59,0,0,0-1.408,1.654c-.05,3.262-.044,6.527-.009,9.789a1.756,1.756,0,0,0,1.828,1.784q5.625.033,11.253,0a1.781,1.781,0,0,0,1.885-1.823q.047-4.85,0-9.7a1.618,1.618,0,0,0-1.447-1.717m-.889,11.973a1.351,1.351,0,0,0-.365,0c-.926.161-1.311-.169-1.183-1.148a3.123,3.123,0,0,0-.414-1.85c-.55-1.04-.823-1.135-1.915-.734a3.267,3.267,0,0,1-2.753-.112.938.938,0,0,0-1.386.358,3.984,3.984,0,0,0-.715,2.771c.039.556-.136.723-.708.726-1.926.009-1.926.035-1.926-1.861,0-2.624.009-5.249-.007-7.873,0-.5.07-.906.561-1.133l11.5.051a1.124,1.124,0,0,1,.392.968c-.013,2.931-.026,5.859.006,8.788.009.807-.306,1.13-1.086,1.049" transform="translate(-22.129 -50.244)" fill="#fff"/>
    <path id="Path_11531" data-name="Path 11531" d="M129.187,85.812q3.207,0,6.415,0,3.254,0,6.508,0c.491,0,1.093.057,1.111-.625s-.561-.678-1.067-.677H129.14c-.5,0-1.087-.013-1.066.679s.624.623,1.113.623" transform="translate(-104.587 -69.012)" fill="#fff"/>
    <path id="Path_11532" data-name="Path 11532" d="M129.092,105.5q3.254,0,6.507,0,3.3,0,6.6,0c.473,0,1.007.024,1.027-.605s-.471-.682-.97-.68q-6.6.005-13.195,0c-.49,0-.992.046-.981.671.011.646.547.616,1.016.614" transform="translate(-104.588 -85.101)" fill="#fff"/>
    <path id="Path_11533" data-name="Path 11533" d="M129.09,66.177q6.552,0,13.1,0c.48,0,1.01-.009,1.031-.622.02-.7-.556-.671-1.06-.671q-3.207,0-6.413,0c-2.23,0-4.46,0-6.688,0-.491,0-1,.037-.987.658s.53.638,1.014.636" transform="translate(-104.588 -52.983)" fill="#fff"/>
    <path id="Path_11534" data-name="Path 11534" d="M142.211,124.016q-6.506,0-13.011,0c-.493,0-1.091-.059-1.1.627s.569.664,1.073.662q3.207,0,6.415,0,3.389,0,6.78,0a.8.8,0,0,0,.842-.415.555.555,0,0,0-.079-.6c-.231-.33-.583-.275-.915-.275" transform="translate(-104.604 -101.27)" fill="#fff"/>
    <path id="Path_11535" data-name="Path 11535" d="M115.613,14.341a.7.7,0,0,0,.7-.779c-.007-.5-.3-.756-.856-.779a.731.731,0,0,0-.69.834.717.717,0,0,0,.847.724" transform="translate(-93.717 -10.438)" fill="#fff"/>
    <path id="Path_11536" data-name="Path 11536" d="M55.961,74a2.73,2.73,0,0,0-2.808,2.661,2.776,2.776,0,0,0,2.7,2.789,2.745,2.745,0,0,0,2.747-2.637A2.7,2.7,0,0,0,55.961,74" transform="translate(-43.406 -60.427)" fill="#fff"/>
  </g>
</svg>
