<svg id="Group_4171" data-name="Group 4171" xmlns="http://www.w3.org/2000/svg" xmlns:xlink="http://www.w3.org/1999/xlink" width="52.662" height="52.077" viewBox="0 0 52.662 52.077">
  <defs>
    <clipPath id="clip-path">
      <rect id="Rectangle_1472" data-name="Rectangle 1472" width="44.332" height="38.059" fill="#24315f"/>
    </clipPath>
  </defs>
  <path id="Path_10446" data-name="Path 10446" d="M2.513,60.966s-27.413-.457-31.5-.457c-5.209,0-9.449-3.846-9.449-8.57V32.915c0-4.724,4.24-8.568,9.449-8.568H-6.937c5.209,0,9.449,3.845,9.449,8.568Z" transform="translate(38.435 -24.347)" fill="#24315f" opacity="0.21"/>
  <g id="Group_4134" data-name="Group 4134" transform="translate(8.33 14.018)">
    <g id="Group_3195" data-name="Group 3195" clip-path="url(#clip-path)">
      <path id="Path_9055" data-name="Path 9055" d="M4.527,34.566c.536.154.884.348,1.14-.428.364-1.093,1.433-1.284,2.5-1.085a1.633,1.633,0,0,1,1.488,1.782c-.074.923.417,1.105,1.211,1.21a62.692,62.692,0,0,0,8.936.523,1.834,1.834,0,0,0,1.892-1.105,10.345,10.345,0,0,1,8.247-5.491,11.863,11.863,0,0,1,8.033,1.966c0-1.742,0-3.231,0-4.719-.005-2.026-.586-2.569-2.753-2.571q-11.341,0-22.683,0c-3.341,0-6.682,0-10.023,0-1.874.007-2.5.62-2.51,2.414,0,.58,0,1.162,0,1.742,0,4.455,0,4.45,4.521,5.754" transform="translate(-0.004 -18.513)" fill="#24315f"/>
      <path id="Path_9056" data-name="Path 9056" d="M26.346,77.854c-4.447-2.407-6.339-6.026-5.7-10.8.1-.7-.14-.752-.739-.729a47.369,47.369,0,0,1-9.311-.577c-.552-.09-.858-.072-1.037.545a1.907,1.907,0,0,1-2.375,1.282,1.772,1.772,0,0,1-1.681-2.014c.018-.4.113-.851-.457-1.038C3.4,63.98,1.76,63.435,0,62.858c0,4.323,0,8.577,0,12.83,0,2.036.583,2.6,2.713,2.6q10.146,0,20.287,0h3.6c.069-.3-.116-.356-.261-.436" transform="translate(0 -47.213)" fill="#24315f"/>
      <path id="Path_9057" data-name="Path 9057" d="M103.1,61.767a8.741,8.741,0,0,0-17.45-.129c-.058,4.627,3.787,8.305,8.706,8.33a8.506,8.506,0,0,0,8.743-8.2M94.4,68.46a6.856,6.856,0,0,1-7.17-6.75,6.929,6.929,0,0,1,7.081-6.742,7.017,7.017,0,0,1,7.213,6.78A6.947,6.947,0,0,1,94.4,68.46" transform="translate(-63.044 -40.174)" fill="#24315f"/>
      <path id="Path_9058" data-name="Path 9058" d="M142.521,119.275q-1.928-2.038-3.827-4.1c-1.744-1.882-1.742-1.884-3.832-.431a.606.606,0,0,1-.113.06c-.359.159-.391.383-.2.7,1.359,2.312,2.65,4.662,4.091,6.927a2.381,2.381,0,0,0,2.906.869,2.306,2.306,0,0,0,1.742-2.233,2.341,2.341,0,0,0-.763-1.794" transform="translate(-98.954 -85.406)" fill="#24315f"/>
      <path id="Path_9059" data-name="Path 9059" d="M43.8,5.458c1.024.05,1-.46,1-1.14.016-1.8.755-2.491,2.626-2.5,2.153-.01,4.307-.02,6.46.007a2.093,2.093,0,0,1,2.378,2.233c.013.289.013.58,0,.871-.021.49.327.548.7.48.417-.075.995.286,1.217-.371.752-2.25-1.2-4.883-3.758-5.01C53.148-.03,51.871.019,50.6.019V.009H47.564c-3.228.007-4.758,1.506-4.716,4.522.011.692.2.889.947.926" transform="translate(-31.539 0)" fill="#24315f"/>
      <path id="Path_9060" data-name="Path 9060" d="M25.553,65.832c.863-.022,1.1-.523,1.09-1.234-.011-.66.016-1.319-.018-1.976s-.494-.938-1.143-.933-1.1.264-1.143.933c-.024.371-.005.742-.005,1.113h-.005c0,.289.008.577,0,.864-.026.8.317,1.259,1.227,1.234" transform="translate(-17.905 -46.334)" fill="#24315f"/>
    </g>
  </g>
</svg>
