<svg id="Group_4135" data-name="Group 4135" xmlns="http://www.w3.org/2000/svg" xmlns:xlink="http://www.w3.org/1999/xlink" width="53.723" height="65.893" viewBox="0 0 53.723 65.893">
  <defs>
    <clipPath id="clip-path">
      <rect id="Rectangle_2294" data-name="Rectangle 2294" width="38.598" height="51.392" fill="#506bd9"/>
    </clipPath>
  </defs>
  <path id="Path_10446" data-name="Path 10446" d="M2.513,60.966s-27.413-.457-31.5-.457c-5.209,0-9.449-3.846-9.449-8.57V32.915c0-4.724,4.24-8.568,9.449-8.568H-6.937c5.209,0,9.449,3.845,9.449,8.568Z" transform="translate(38.435 -24.347)" fill="#516ddd" opacity="0.2"/>
  <g id="Group_4926" data-name="Group 4926" transform="translate(15.125 14.501)">
    <g id="Group_4926-2" data-name="Group 4926" clip-path="url(#clip-path)">
      <path id="Path_11495" data-name="Path 11495" d="M38.574,5.576C38.769,2.893,37.806.941,35.166,0H7.757C5.191.9,4.216,2.717,4.284,5.41c.12,4.525.034,9.052.034,13.58,0,2.39,0,2.39-2.369,2.455A1.71,1.71,0,0,0,.025,23.323C-.006,24.464.059,25.608,0,26.746A2.125,2.125,0,0,0,.8,28.52C5.169,32.594,9.5,36.7,13.873,40.767a2.124,2.124,0,0,1,.746,1.767c-.043,2.47,0,4.944-.028,7.418a1.907,1.907,0,0,0,.475,1.44h.685a18.852,18.852,0,0,1,2.446-2.02,6.165,6.165,0,0,0,3.235-7.014,1.542,1.542,0,0,1,.611-1.474c3.969-3.71,7.859-7.513,11.911-11.131a5.583,5.583,0,0,0,2.082-4.913c-.179-3.279-.108-3.346-3.427-3.4a.7.7,0,0,0-.114,0c-.592.1-.771-.142-.768-.74q.042-5.246,0-10.493c-.006-.623.133-.86.8-.836,1.517.049,3.041-.031,4.558.031,1.076.046,1.561-.333,1.487-1.437a17.709,17.709,0,0,1,0-2.393M31.851,3.43A2.637,2.637,0,0,1,34.4,1.7a2.548,2.548,0,0,1,2.378,2.07,21.986,21.986,0,0,1,.111,3.4c.022.444-.16.6-.6.586-.645-.028-1.289-.006-1.934-.006-2.612,0-2.619,0-2.606-2.628a4.951,4.951,0,0,1,.1-1.69M9.015,1.675c7.226-.022,14.45-.009,21.876-.009A6.159,6.159,0,0,0,30,5.413c.012,4.944-.015,9.888.025,14.832.009.894-.136,1.231-1.144,1.224q-10.9-.074-21.8-.006c-.9.006-1.138-.219-1.129-1.123C6,15.168,5.974,9.993,5.98,4.821c0-2.079.984-3.14,3.035-3.146M13.8,38.343c-3.639-3.161-7.057-6.569-10.767-10.064A6.418,6.418,0,0,0,4.21,28.27c.9-.207,2.526.62,2.523-.833,0-1.53-1.656-.7-2.581-.879a6.464,6.464,0,0,0-1.709-.009c-.623.052-.743-.21-.759-.786C1.613,23.1,1.595,23.1,4.213,23.1c9.629,0,19.258.012,28.884-.025.928,0,1.224.182,1.191,1.16-.077,2.3-.022,2.307-2.292,2.307q-10.789,0-21.577,0a6.277,6.277,0,0,0-1.129.077.742.742,0,0,0-.654.8.757.757,0,0,0,.679.79,6.019,6.019,0,0,0,1.132.065c7.421,0,14.841,0,22.425,0-.879,1-1.579,1.881-3.023,1.724a31.289,31.289,0,0,0-3.649-.025c-.632,0-1.323.043-1.3.9.025.756.663.82,1.261.823.978,0,1.955,0,3.023,0a3.591,3.591,0,0,1-3.806,1.74,23.8,23.8,0,0,0-2.967-.012c-.5.009-.913.222-.938.786-.028.629.4.882.95.9,1.009.028,2.023.006,3.164.006-.944,1.215-1.872,1.98-3.411,1.755a21.337,21.337,0,0,0-3.078-.025c-.549,0-1.027.173-1.055.793-.028.688.469.888,1.07.888.9,0,1.8,0,2.714,0-.028.157-.015.259-.052.281-2.1,1.24-2.282,3.226-2.042,5.345a2.582,2.582,0,0,1-1.258,2.773,23.483,23.483,0,0,0-2.227,1.832,35.9,35.9,0,0,1,.034-4.666c.342-2.489-.629-4.142-2.48-5.749" transform="translate(0)" fill="#506bd9"/>
      <path id="Path_11496" data-name="Path 11496" d="M40.677,28.481a7.236,7.236,0,1,0-7.248-7.22,7.238,7.238,0,0,0,7.248,7.22m2.162-2.427c-.191.8-.956.567-1.484.734a2.264,2.264,0,0,1-.679.012v.012c-.077,0-.154.006-.228,0-.66-.071-1.542.077-1.82-.6a2.014,2.014,0,0,1,.558-2.193,2.054,2.054,0,0,1,2.2-.515,2.278,2.278,0,0,1,1.45,2.551m-3.43-5.626A1.222,1.222,0,0,1,40.655,19.1c.793-.037,1.191.518,1.369,1.255a1.338,1.338,0,0,1-1.289,1.32,1.219,1.219,0,0,1-1.326-1.249m-2.8-2.961a5.561,5.561,0,0,1,7.877-.318c2.276,2.094,2.363,5.5.111,8.056a4.724,4.724,0,0,0-1.45-2.609c-.33-.262-.019-.463.086-.679a2.97,2.97,0,0,0-.694-3.886,3.077,3.077,0,0,0-3.7.025,2.936,2.936,0,0,0-.629,3.889c.194.389.176.571-.136.848a3.657,3.657,0,0,0-1.157,2.421,5.461,5.461,0,0,1-.305-7.748" transform="translate(-23.119 -9.689)" fill="#506bd9"/>
    </g>
  </g>
</svg>
