<svg id="Group_1330" data-name="Group 1330" xmlns="http://www.w3.org/2000/svg" xmlns:xlink="http://www.w3.org/1999/xlink" width="52.923" height="52.951" viewBox="0 0 52.923 52.951">
  <defs>
    <clipPath id="clip-path">
      <rect id="Rectangle_413" data-name="Rectangle 413" width="52.923" height="52.951" fill="#19296a"/>
    </clipPath>
  </defs>
  <g id="Group_1329" data-name="Group 1329" clip-path="url(#clip-path)">
    <path id="Path_6426" data-name="Path 6426" d="M38.748,147.975c0,.871-.674,1.479-1.755,1.486q-4.17.032-8.344,0c-1.183-.009-1.859-.6-1.793-1.547.078-1.1.833-1.422,1.793-1.429,1.41-.012,2.82,0,4.23,0,1.372,0,2.742-.024,4.114.007,1.117.026,1.755.6,1.755,1.486" transform="translate(-20.499 -111.822)" fill="#19296a"/>
    <path id="Path_6427" data-name="Path 6427" d="M38.739,116c-.071,1.074-.778,1.469-1.762,1.471q-4.173.011-8.346,0c-.97,0-1.7-.364-1.772-1.453-.059-.942.62-1.5,1.814-1.521,1.372-.021,2.744,0,4.114,0s2.744-.014,4.116,0c1.164.014,1.9.6,1.836,1.507" transform="translate(-20.502 -87.4)" fill="#19296a"/>
    <path id="Path_6428" data-name="Path 6428" d="M40.7,181.562q-6.338,0-12.678-.009a1.332,1.332,0,0,1-1.15-1.713c.163-.868.835-1.143,1.668-1.14q5.859.011,11.717,0c.828,0,1.481.286,1.63,1.178a1.329,1.329,0,0,1-1.188,1.682" transform="translate(-20.487 -136.425)" fill="#19296a"/>
    <path id="Path_6429" data-name="Path 6429" d="M41.923,84.071c-.052,1.119-.811,1.424-1.767,1.427-3.835.007-7.667.014-11.5,0-1.207,0-1.841-.575-1.807-1.514s.669-1.422,1.9-1.427c1.878-.007,3.754,0,5.633,0,1.916,0,3.832-.009,5.751,0,1.206.007,1.836.542,1.793,1.516" transform="translate(-20.494 -63.019)" fill="#19296a"/>
    <path id="Path_6430" data-name="Path 6430" d="M32.85,25.417a6.7,6.7,0,1,0,6.662,6.754,6.7,6.7,0,0,0-6.662-6.754m0,0a6.7,6.7,0,1,0,6.662,6.754,6.7,6.7,0,0,0-6.662-6.754m0,0a6.7,6.7,0,1,0,6.662,6.754,6.7,6.7,0,0,0-6.662-6.754m0,0a6.7,6.7,0,1,0,6.662,6.754,6.7,6.7,0,0,0-6.662-6.754m0,0a6.7,6.7,0,1,0,6.662,6.754,6.7,6.7,0,0,0-6.662-6.754m0,0a6.7,6.7,0,1,0,6.662,6.754,6.7,6.7,0,0,0-6.662-6.754m0,0a6.7,6.7,0,1,0,6.662,6.754,6.7,6.7,0,0,0-6.662-6.754m0,0a6.7,6.7,0,1,0,6.662,6.754,6.7,6.7,0,0,0-6.662-6.754M50.557,44.78c-2.016-1.968-3.977-4-5.995-5.962a1.2,1.2,0,0,1-.329-1.6A12.176,12.176,0,0,0,41.62,23.193,1.957,1.957,0,0,1,41,21.651c.024-2.9,0-5.794.017-8.692a2.157,2.157,0,0,0-.636-1.682C36.817,7.748,33.283,4.2,29.734.662,29.488.419,29.2.22,28.93,0H3.53A5.792,5.792,0,0,0,.073,3.144c-.026.05-.05.1-.073.149V49.656a6.493,6.493,0,0,0,3.293,3.3H37.4c2.87-.9,3.918-2.943,3.79-5.969.525.53,1.046,1.062,1.576,1.587,1.11,1.1,2.231,2.186,3.329,3.3a8.345,8.345,0,0,0,1.89,1.083H49.63a.654.654,0,0,1,.423-.154h0a5.368,5.368,0,0,0,2.725-2.626v0a.745.745,0,0,1,.142-.279V48.009a9.162,9.162,0,0,0-2.366-3.229M29.917,5.394c1.907,1.916,3.783,3.8,5.656,5.678-1.594,0-3.272,0-4.947,0-.369,0-.714-.007-.712-.525.007-1.739,0-3.478,0-5.155M38.076,48.52a1.4,1.4,0,0,1-1.386,1.462,9.23,9.23,0,0,1-1.055.031q-15.11,0-30.219,0c-2.2,0-2.491-.3-2.491-2.534q0-21,0-42c0-2.276.289-2.562,2.586-2.562,6.782,0,13.563.017,20.343-.019.889,0,1.214.182,1.188,1.152-.073,2.7-.033,5.41-.021,8.117.007,1.36.464,1.848,1.831,1.862,2.7.026,5.41.052,8.112-.014.96-.024,1.178.3,1.145,1.192-.066,1.76-.019,3.525-.019,5.389-7.178-1.982-12.179-.554-15.63,4.4a12.512,12.512,0,0,0,.137,14.421c3.423,4.776,8.493,6.167,15.488,4.19,0,1.658.021,3.288-.007,4.916m-5.065-6.759a9.64,9.64,0,1,1,9.432-9.837,9.668,9.668,0,0,1-9.432,9.837m16.278,8.11a1.323,1.323,0,0,1-1.481-.423q-2.36-2.378-4.734-4.738c-.528-.528-1.065-1.043-1.578-1.583a1.424,1.424,0,0,1,.459-2.4c.371-.161.5.111.677.286q3.414,3.4,6.818,6.813a1.543,1.543,0,0,1,.5,1.027,1.064,1.064,0,0,1-.665,1.02M32.85,25.417a6.7,6.7,0,1,0,6.662,6.754,6.7,6.7,0,0,0-6.662-6.754m0,0a6.7,6.7,0,1,0,6.662,6.754,6.7,6.7,0,0,0-6.662-6.754m0,0a6.7,6.7,0,1,0,6.662,6.754,6.7,6.7,0,0,0-6.662-6.754m0,0a6.7,6.7,0,1,0,6.662,6.754,6.7,6.7,0,0,0-6.662-6.754m0,0a6.7,6.7,0,1,0,6.662,6.754,6.7,6.7,0,0,0-6.662-6.754m0,0a6.7,6.7,0,1,0,6.662,6.754,6.7,6.7,0,0,0-6.662-6.754m0,0a6.7,6.7,0,1,0,6.662,6.754,6.7,6.7,0,0,0-6.662-6.754m0,0a6.7,6.7,0,1,0,6.662,6.754,6.7,6.7,0,0,0-6.662-6.754m0,0a6.7,6.7,0,1,0,6.662,6.754,6.7,6.7,0,0,0-6.662-6.754" fill="#19296a"/>
    <path id="Path_6431" data-name="Path 6431" d="M38.748,147.975c0,.871-.674,1.479-1.755,1.486q-4.17.032-8.344,0c-1.183-.009-1.859-.6-1.793-1.547.078-1.1.833-1.422,1.793-1.429,1.41-.012,2.82,0,4.23,0,1.372,0,2.742-.024,4.114.007,1.117.026,1.755.6,1.755,1.486" transform="translate(-20.499 -111.822)" fill="#19296a"/>
    <path id="Path_6432" data-name="Path 6432" d="M38.739,116c-.071,1.074-.778,1.469-1.762,1.471q-4.173.011-8.346,0c-.97,0-1.7-.364-1.772-1.453-.059-.942.62-1.5,1.814-1.521,1.372-.021,2.744,0,4.114,0s2.744-.014,4.116,0c1.164.014,1.9.6,1.836,1.507" transform="translate(-20.502 -87.4)" fill="#19296a"/>
    <path id="Path_6433" data-name="Path 6433" d="M40.7,181.562q-6.338,0-12.678-.009a1.332,1.332,0,0,1-1.15-1.713c.163-.868.835-1.143,1.668-1.14q5.859.011,11.717,0c.828,0,1.481.286,1.63,1.178a1.329,1.329,0,0,1-1.188,1.682" transform="translate(-20.487 -136.425)" fill="#19296a"/>
    <path id="Path_6434" data-name="Path 6434" d="M41.923,84.071c-.052,1.119-.811,1.424-1.767,1.427-3.835.007-7.667.014-11.5,0-1.207,0-1.841-.575-1.807-1.514s.669-1.422,1.9-1.427c1.878-.007,3.754,0,5.633,0,1.916,0,3.832-.009,5.751,0,1.206.007,1.836.542,1.793,1.516" transform="translate(-20.494 -63.019)" fill="#19296a"/>
    <path id="Path_6435" data-name="Path 6435" d="M123.779,114.194a6.7,6.7,0,1,1-6.662-6.754,6.752,6.752,0,0,1,6.662,6.754" transform="translate(-84.268 -82.023)" fill="#19296a"/>
    <path id="Path_6436" data-name="Path 6436" d="M41.923,84.071c-.052,1.119-.811,1.424-1.767,1.427-3.835.007-7.667.014-11.5,0-1.207,0-1.841-.575-1.807-1.514s.669-1.422,1.9-1.427c1.878-.007,3.754,0,5.633,0,1.916,0,3.832-.009,5.751,0,1.206.007,1.836.542,1.793,1.516" transform="translate(-20.494 -63.019)" fill="#19296a"/>
    <path id="Path_6437" data-name="Path 6437" d="M40.7,181.562c-4.225-.123-8.45-.106-12.678-.009a1.332,1.332,0,0,1-1.15-1.713c.163-.868.835-1.143,1.668-1.14q5.859.011,11.717,0c.828,0,1.481.286,1.63,1.178a1.329,1.329,0,0,1-1.188,1.682" transform="translate(-20.487 -136.425)" fill="#19296a"/>
    <path id="Path_6438" data-name="Path 6438" d="M38.739,116c-.071,1.074-.778,1.469-1.762,1.471q-4.173.011-8.346,0c-.97,0-1.7-.364-1.772-1.453-.059-.942.62-1.5,1.814-1.521,1.372-.021,2.744,0,4.114,0s2.744-.014,4.116,0c1.164.014,1.9.6,1.836,1.507" transform="translate(-20.502 -87.4)" fill="#19296a"/>
    <path id="Path_6439" data-name="Path 6439" d="M38.748,147.975c0,.871-.674,1.479-1.755,1.486q-4.17.032-8.344,0c-1.183-.009-1.859-.6-1.793-1.547.078-1.1.833-1.422,1.793-1.429,1.41-.012,2.82,0,4.23,0,1.372,0,2.742-.024,4.114.007,1.117.026,1.755.6,1.755,1.486" transform="translate(-20.499 -111.822)" fill="#19296a"/>
    <path id="Path_6440" data-name="Path 6440" d="M44.538,190.191q-6.338,0-12.678-.009A1.929,1.929,0,0,1,32.882,190q5.319,0,10.639,0a1.781,1.781,0,0,1,1.017.187" transform="translate(-24.323 -145.054)" fill="#19296a"/>
    <path id="Path_6441" data-name="Path 6441" d="M123.779,114.194a6.7,6.7,0,1,1-6.662-6.754,6.752,6.752,0,0,1,6.662,6.754" transform="translate(-84.268 -82.023)" fill="#19296a"/>
  </g>
</svg>
