<svg xmlns="http://www.w3.org/2000/svg" xmlns:xlink="http://www.w3.org/1999/xlink" width="33.136" height="33.749" viewBox="0 0 33.136 33.749">
  <defs>
    <clipPath id="clip-path">
      <rect id="Rectangle_2263" data-name="Rectangle 2263" width="33.136" height="33.749" fill="#fff"/>
    </clipPath>
  </defs>
  <g id="Group_4694" data-name="Group 4694" transform="translate(-2 -10)">
    <g id="Group_4694-2" data-name="Group 4694" transform="translate(2 10)" clip-path="url(#clip-path)">
      <path id="Path_11408" data-name="Path 11408" d="M233.089,144.3q-.335,2.812-.656,5.625a.51.51,0,0,0,.553.614q.681,0,1.361,0a.525.525,0,0,0,.584-.521q.353-2.83.707-5.66a2.193,2.193,0,0,0-.907-2.171c-.65-.489-1.292-.989-1.941-1.48a.2.2,0,0,1-.1-.231q.4-1.816.8-3.633c.026-.12.06-.136.163-.065.434.3.873.591,1.31.885a1.6,1.6,0,0,0,1.723.119q2.152-1.084,4.3-2.174a.5.5,0,0,0,.23-.789c-.21-.356-.423-.71-.636-1.065-.243-.407-.432-.464-.856-.262q-1.894.905-3.788,1.813a.264.264,0,0,1-.322-.028c-.39-.3-.791-.59-1.188-.884a1.956,1.956,0,0,0-.837-.361q-2.029-.359-4.058-.718a2.015,2.015,0,0,0-1.14.082c-.983.4-1.968.787-2.953,1.182a2.121,2.121,0,0,0-1.013.816c-.524.805-1.037,1.616-1.55,2.428a.476.476,0,0,0,.2.737c.329.177.661.347.991.523a.5.5,0,0,0,.761-.2l1.21-1.91a.293.293,0,0,1,.168-.157c.805-.233,1.608-.473,2.435-.718a.665.665,0,0,1-.008.091q-1.161,3.828-2.321,7.655a.53.53,0,0,1-.143.234q-.827.8-1.651,1.6-1.033,1.005-2.065,2.011a.477.477,0,0,0-.079.695q.6.722,1.226,1.426a.465.465,0,0,0,.651.044,2.71,2.71,0,0,0,.205-.191q1.907-1.828,3.816-3.655a.956.956,0,0,0,.248-.376c.449-1.234.906-2.466,1.354-3.7.045-.123.072-.157.195-.067q1.433,1.057,2.877,2.1a.3.3,0,0,1,.144.33" transform="translate(-213.355 -127.93)" fill="#fff"/>
      <path id="Path_11409" data-name="Path 11409" d="M641.393,450.748a1.226,1.226,0,0,0-1.337-1.329q-2.512,0-5.025,0a1.238,1.238,0,0,0-1.387,1.379v6.987h0c0,2.389,0,4.778,0,7.167,0,.181.049.215.22.215q3.653-.008,7.307,0c.178,0,.232-.038.231-.225q-.008-7.1-.005-14.194" transform="translate(-608.262 -431.419)" fill="#fff"/>
      <path id="Path_11410" data-name="Path 11410" d="M430.243,570.565h0V565.34c0-.33,0-.33-.339-.33H423.78a1.208,1.208,0,0,0-1.286,1.271q0,4.825,0,9.649c0,.151.031.2.193.2q3.673-.008,7.347,0c.179,0,.218-.047.218-.22-.007-1.781,0-3.563,0-5.345" transform="translate(-405.569 -542.381)" fill="#fff"/>
      <path id="Path_11411" data-name="Path 11411" d="M218.755,651.6c-2.1,0-4.2,0-6.305,0a1.212,1.212,0,0,0-1.277,1.286c0,2.055,0,4.11,0,6.165,0,.161.046.2.2.2,1.228-.006,2.456,0,3.683,0s2.469,0,3.7,0c.125,0,.171-.024.171-.161q-.007-3.663,0-7.326c0-.139-.046-.163-.171-.163" transform="translate(-202.712 -625.503)" fill="#fff"/>
      <path id="Path_11412" data-name="Path 11412" d="M7.581,716.72c-2.1,0-4.2,0-6.306.005A1.207,1.207,0,0,0,0,718c0,1.194,0,2.389,0,3.584,0,.158.049.183.193.183,1.228-.006,2.456,0,3.684,0h0c1.235,0,2.469,0,3.7,0,.141,0,.176-.039.175-.177q-.007-2.342,0-4.685c0-.137-.032-.18-.175-.18" transform="translate(0 -688.015)" fill="#fff"/>
      <path id="Path_11413" data-name="Path 11413" d="M411.916,5.215a2.607,2.607,0,1,0-2.616-2.6,2.61,2.61,0,0,0,2.616,2.6" transform="translate(-392.907)" fill="#fff"/>
      <path id="Path_11414" data-name="Path 11414" d="M615.208,258.518c-.083.3-.148.541-.219.783a.392.392,0,0,0,.042.363.335.335,0,0,0,.332.143.342.342,0,0,0,.3-.263c.151-.539.308-1.077.454-1.617a.352.352,0,0,0-.286-.467q-.759-.216-1.521-.426c-.258-.071-.441.008-.505.215s.044.392.308.469c.219.065.44.126.7.2-.086.049-.137.08-.189.107l-3.81,2.037c-.323.173-.65.341-.969.52a.346.346,0,0,0-.147.48.358.358,0,0,0,.483.144c.048-.022.1-.049.142-.074l2.858-1.528,2.037-1.087" transform="translate(-585.227 -246.717)" fill="#fff"/>
    </g>
  </g>
</svg>
