<svg xmlns="http://www.w3.org/2000/svg" width="16.98" height="24.031" viewBox="0 0 16.98 24.031">
  <g id="Group_4589" data-name="Group 4589" transform="translate(0.2 0.221)">
    <g id="Group_4589-2" data-name="Group 4589" transform="translate(0 0)">
      <path id="Path_10455" data-name="Path 10455" d="M16.441,6.729A8.3,8.3,0,0,0,.115,9.691a14.811,14.811,0,0,0,1.474,4.26A44.91,44.91,0,0,0,5.12,19.6Q6.4,21.418,7.674,23.235a.7.7,0,0,0,1.242,0c.1-.139.189-.279.285-.418,1.31-1.91,2.707-3.76,3.965-5.707a25.644,25.644,0,0,0,2.757-5.31,9.631,9.631,0,0,0,.517-5.067M14.3,12.152a29.333,29.333,0,0,1-2.967,5.2c-.964,1.4-1.956,2.788-2.936,4.181-.054.076-.085.194-.2.031C6.708,19.42,5.13,17.331,3.789,15.082a19.159,19.159,0,0,1-2.055-4.475,7.137,7.137,0,0,1,.61-5.819A6.9,6.9,0,0,1,15.026,6.753a7.387,7.387,0,0,1,.181,1.592,10.178,10.178,0,0,1-.9,3.808" transform="translate(0 0)" fill="#516dde" stroke="#516ddd" stroke-width="0.4"/>
      <path id="Path_10456" data-name="Path 10456" d="M49.042,44.951A4.149,4.149,0,1,0,53.185,49.1a4.156,4.156,0,0,0-4.143-4.148m-.03,6.915A2.766,2.766,0,1,1,51.8,49.121a2.777,2.777,0,0,1-2.791,2.745" transform="translate(-40.745 -40.799)" fill="#516dde" stroke="#516ddd" stroke-width="0.4"/>
    </g>
  </g>
</svg>
