<svg id="Group_4959" data-name="Group 4959" xmlns="http://www.w3.org/2000/svg" xmlns:xlink="http://www.w3.org/1999/xlink" width="34.501" height="34.547" viewBox="0 0 34.501 34.547">
  <defs>
    <clipPath id="clip-path">
      <rect id="Rectangle_2305" data-name="Rectangle 2305" width="34.501" height="34.547" fill="#516ddd" stroke="#516ddc" stroke-width="1"/>
    </clipPath>
  </defs>
  <g id="Group_4958" data-name="Group 4958" clip-path="url(#clip-path)">
    <path id="Path_11550" data-name="Path 11550" d="M44.279,35.041a1.951,1.951,0,0,1-.3-1.518A12.808,12.808,0,1,0,33.709,43.971a1.436,1.436,0,0,1,1.148.213,6.677,6.677,0,0,0,9.422-9.143M19.827,32.835a11.643,11.643,0,1,1,23.114-.141c-.093.686-.277.581-.748.312a6.5,6.5,0,0,0-7.609.438.67.67,0,0,1-.788.072,5.917,5.917,0,0,0-5.442.114,8.753,8.753,0,0,1-1.489.689c-2.146.748-3.862,1.954-4.431,4.462a10.751,10.751,0,0,1-2.607-5.947M32.789,42.956c-.478.048-.957.077-1.321.1A12.1,12.1,0,0,1,24.1,40.487a1.347,1.347,0,0,1-.49-1.611,4.565,4.565,0,0,1,3.062-3.223c.9-.345,1.739-.8,2.605-1.205,1.131-.525,2.419-.24,3.635-.134.306.027.442.323.2.707a6.582,6.582,0,0,0-.012,7.386c.294.478.027.517-.316.55m5.849,1.294a5.531,5.531,0,1,1,.178-11.06,5.531,5.531,0,0,1-.178,11.06" transform="translate(-14.732 -14.717)" fill="#516ddd" stroke="#516ddc" stroke-width="1"/>
    <path id="Path_11551" data-name="Path 11551" d="M7.328,134.828c-1.683,0-3.366-.039-5.047.017-.883.029-1.135-.318-1.114-1.145.041-1.716-.006-3.434.023-5.15.008-.5-.147-.639-.639-.635s-.554.2-.55.616c.017,1.855-.017,3.709.012,5.564A1.739,1.739,0,0,0,1.946,136c.891.025,1.784,0,2.678,0s1.786,0,2.678,0c.4,0,.823.116.825-.571,0-.655-.372-.606-.8-.6" transform="translate(0 -101.466)" fill="#516ddd" stroke="#516ddc" stroke-width="1"/>
    <path id="Path_11552" data-name="Path 11552" d="M135.706,131.366h0c0-.891,0-1.784,0-2.676,0-.387.151-.8-.552-.819-.765-.019-.61.44-.61.864,0,1.681-.027,3.362.008,5.045.014.751-.252,1.04-1.019,1.023-1.749-.037-3.5,0-5.252-.014-.453,0-.689.085-.676.62.01.482.213.567.627.562,1.888-.012,3.775.021,5.661-.014a1.706,1.706,0,0,0,1.813-1.811c.033-.926.006-1.855.006-2.781" transform="translate(-101.216 -101.432)" fill="#516ddd" stroke="#516ddc" stroke-width="1"/>
    <path id="Path_11553" data-name="Path 11553" d="M128.353,1.173c1.615,0,3.232,0,4.847,0,1.346,0,1.346,0,1.346,1.4,0,1.65.012,3.3-.006,4.95,0,.43.1.6.573.6.445,0,.614-.13.61-.577-.014-1.958.025-3.918-.031-5.876A1.621,1.621,0,0,0,133.946.017c-.926-.035-1.857-.006-2.783-.006S129.306.028,128.377,0c-.459-.012-.775-.021-.767.618.008.614.368.55.742.55" transform="translate(-101.225 0)" fill="#516ddd" stroke="#516ddc" stroke-width="1"/>
    <path id="Path_11554" data-name="Path 11554" d="M.671,8.117c.649,0,.507-.418.509-.759.012-1.582.006-3.161.008-4.741,0-1.443,0-1.443,1.4-1.443,1.613,0,3.228-.008,4.842,0,.432,0,.695-.048.689-.6C8.106,0,7.819,0,7.4.01,6.473.031,5.547.016,4.618.016V.01c-.893,0-1.786-.017-2.678,0a1.705,1.705,0,0,0-1.917,1.9C0,3.734.028,5.555.01,7.375c-.006.486.064.746.662.742" transform="translate(-0.007 -0.003)" fill="#516ddd" stroke="#516ddc" stroke-width="1"/>
    <path id="Path_11555" data-name="Path 11555" d="M64.31,48.03a3.746,3.746,0,0,0,3.654-3.166c.118-.782.2-1.569.273-2.355a3.752,3.752,0,0,0-3.827-4.243c-2.527-.066-4.235,1.6-4.127,4.369.074.6.136,1.53.316,2.438A3.673,3.673,0,0,0,64.31,48.03m-.2-8.694a2.72,2.72,0,0,1,3.062,3.122c-.087.751-.143,1.505-.265,2.25a2.641,2.641,0,0,1-2.663,2.248,2.676,2.676,0,0,1-2.651-2.272c-.105-.678-.17-1.365-.236-2.047a2.729,2.729,0,0,1,2.752-3.3" transform="translate(-47.815 -30.353)" fill="#516ddd" stroke="#516ddc" stroke-width="1"/>
    <path id="Path_11556" data-name="Path 11556" d="M105.233,104.358c-.273-.178-.519-.031-.726.176-.728.728-1.451,1.456-2.179,2.181-.484.484-.9,1.212-1.476,1.383-.686.2-1-.744-1.52-1.137-.287-.217-.54-.285-.825-.043-.351.3-.236.608.025.883.5.521,1.03,1.007,1.509,1.542s.885.469,1.365-.025c1.241-1.276,2.514-2.52,3.773-3.778a1.078,1.078,0,0,0,.395-.769,1.625,1.625,0,0,0-.341-.414" transform="translate(-77.965 -82.718)" fill="#516ddd" stroke="#516ddc" stroke-width="1"/>
  </g>
</svg>
