<svg xmlns="http://www.w3.org/2000/svg" xmlns:xlink="http://www.w3.org/1999/xlink" width="179.402" height="43.983" viewBox="0 0 179.402 43.983">
  <defs>
    <clipPath id="clip-path">
      <rect id="Rectangle_2" data-name="Rectangle 2" width="179.402" height="43.983" transform="translate(0 0)" fill="#4e6cd9"/>
    </clipPath>
  </defs>
  <g id="Group_3" data-name="Group 3" transform="translate(0 0)" clip-path="url(#clip-path)">
    <path id="Path_19" data-name="Path 19" d="M57.463,33.594V21.087a1.5,1.5,0,0,1,1.683-1.658h4.067c3.2,0,4.814,2.315,4.814,4.978s-1.613,4.956-4.814,4.956H60.595v4.23a1.568,1.568,0,1,1-3.136,0Zm5.378-11.433H60.595v4.488h2.246A2.018,2.018,0,0,0,64.83,24.4a2.017,2.017,0,0,0-1.989-2.245Z" transform="translate(-12.94 -4.376)" fill="#4e6cd9"/>
    <path id="Path_20" data-name="Path 20" d="M81.41,35.182a1.591,1.591,0,0,1-1.381-.841l-2.686-4.977h-1.87v4.23a1.568,1.568,0,1,1-3.136,0V21.087a1.5,1.5,0,0,1,1.682-1.657h4.136A4.617,4.617,0,0,1,82.9,24.362c0,2.523-1.261,3.858-2.454,4.373l2.266,4.137a1.331,1.331,0,0,1,.232.772A1.554,1.554,0,0,1,81.4,35.187Zm-5.937-8.534h2.221A2.019,2.019,0,0,0,79.7,24.4a2.021,2.021,0,0,0-2.009-2.245H75.473v4.491Z" transform="translate(-16.291 -4.376)" fill="#4e6cd9"/>
    <path id="Path_21" data-name="Path 21" d="M88.062,33.546V20.806a1.568,1.568,0,1,1,3.136,0v12.74a1.568,1.568,0,1,1-3.136,0" transform="translate(-19.833 -4.328)" fill="#4e6cd9"/>
    <path id="Path_22" data-name="Path 22" d="M100.744,19.092c4.092,0,6.521,3.438,6.521,8.064s-2.429,8.065-6.521,8.065-6.5-3.414-6.5-8.065,2.43-8.064,6.5-8.064m0,2.781c-2.128,0-3.27,2.266-3.27,5.283s1.147,5.284,3.27,5.284,3.32-2.315,3.32-5.284-1.168-5.283-3.32-5.283" transform="translate(-21.225 -4.3)" fill="#4e6cd9"/>
    <path id="Path_23" data-name="Path 23" d="M121.694,35.182a1.591,1.591,0,0,1-1.381-.841l-2.686-4.977h-1.87v4.23a1.568,1.568,0,1,1-3.136,0V21.087A1.5,1.5,0,0,1,114.3,19.43h4.136a4.617,4.617,0,0,1,4.745,4.932c0,2.523-1.261,3.858-2.454,4.373L123,32.872a1.331,1.331,0,0,1,.232.772,1.554,1.554,0,0,1-1.543,1.543Zm-5.937-8.534h2.221a2.019,2.019,0,0,0,2.009-2.246,2.021,2.021,0,0,0-2.009-2.245h-2.221v4.491Z" transform="translate(-25.363 -4.376)" fill="#4e6cd9"/>
    <path id="Path_24" data-name="Path 24" d="M128.041,33.546V20.806a1.568,1.568,0,1,1,3.136,0v12.74a1.568,1.568,0,1,1-3.136,0" transform="translate(-28.836 -4.328)" fill="#4e6cd9"/>
    <path id="Path_25" data-name="Path 25" d="M137.337,33.593V22.184h-2.246a1.38,1.38,0,1,1,0-2.76h7.6a1.38,1.38,0,0,1,0,2.76h-2.221V33.593a1.568,1.568,0,1,1-3.136,0Z" transform="translate(-30.113 -4.374)" fill="#4e6cd9"/>
    <path id="Path_26" data-name="Path 26" d="M158.84,21.479l-3.879,7.085v4.977a1.568,1.568,0,1,1-3.136,0V28.584l-3.9-7.1a1.407,1.407,0,0,1-.212-.747,1.516,1.516,0,0,1,1.519-1.519,1.479,1.479,0,0,1,1.331.865l2.83,5.655,2.83-5.679a1.485,1.485,0,0,1,1.331-.841,1.511,1.511,0,0,1,1.495,1.519,1.225,1.225,0,0,1-.213.747Z" transform="translate(-33.266 -4.327)" fill="#4e6cd9"/>
    <path id="Path_27" data-name="Path 27" d="M179.546,33.566V28.332h-5.165v5.214a1.568,1.568,0,1,1-3.136,0V20.806a1.568,1.568,0,1,1,3.136,0v4.77h5.165V20.781a1.578,1.578,0,0,1,3.156,0V33.57a1.589,1.589,0,0,1-1.588,1.568,1.568,1.568,0,0,1-1.568-1.568Z" transform="translate(-38.566 -4.327)" fill="#4e6cd9"/>
    <path id="Path_28" data-name="Path 28" d="M188.388,33.546V20.806a1.568,1.568,0,1,1,3.136,0v12.74a1.568,1.568,0,1,1-3.136,0" transform="translate(-42.427 -4.328)" fill="#4e6cd9"/>
    <path id="Path_29" data-name="Path 29" d="M203.854,35.182a1.591,1.591,0,0,1-1.381-.841l-2.686-4.977h-1.87v4.23a1.568,1.568,0,1,1-3.136,0V21.087a1.5,1.5,0,0,1,1.682-1.657H200.6a4.617,4.617,0,0,1,4.745,4.932c0,2.523-1.261,3.858-2.454,4.373l2.266,4.137a1.331,1.331,0,0,1,.232.772,1.554,1.554,0,0,1-1.543,1.543Zm-5.937-8.534h2.221a2.019,2.019,0,0,0,2.009-2.246,2.021,2.021,0,0,0-2.009-2.245h-2.221v4.491Z" transform="translate(-43.867 -4.376)" fill="#4e6cd9"/>
    <path id="Path_30" data-name="Path 30" d="M210.2,33.356V21.082a1.5,1.5,0,0,1,1.682-1.657h6.031a1.378,1.378,0,0,1,1.38,1.355,1.4,1.4,0,0,1-1.38,1.381h-4.581v3.576h4.418a1.356,1.356,0,1,1,0,2.711h-4.418v3.834h4.581a1.4,1.4,0,0,1,1.38,1.38,1.379,1.379,0,0,1-1.38,1.356h-6.031A1.5,1.5,0,0,1,210.2,33.36Z" transform="translate(-47.34 -4.375)" fill="#4e6cd9"/>
    <path id="Path_31" data-name="Path 31" d="M27.554,19.951a4.777,4.777,0,1,1,4.777-4.777,4.783,4.783,0,0,1-4.777,4.777m0-8.231a3.454,3.454,0,1,0,3.454,3.454,3.461,3.461,0,0,0-3.454-3.454" transform="translate(-5.13 -2.342)" fill="#4e6cd9"/>
    <path id="Path_32" data-name="Path 32" d="M41.189,21.9a3.324,3.324,0,1,1,3.324-3.324A3.327,3.327,0,0,1,41.189,21.9m0-5.324a2,2,0,1,0,2,2,2,2,0,0,0-2-2" transform="translate(-8.528 -3.436)" fill="#4e6cd9"/>
    <path id="Path_33" data-name="Path 33" d="M41.773,36.319V35a2.014,2.014,0,0,0,2.013-2.013V27.813A2.015,2.015,0,0,0,41.773,25.8H40.621a2.014,2.014,0,0,0-2.013,2.013V36.27H37.285V27.813a3.34,3.34,0,0,1,3.336-3.335h1.151a3.34,3.34,0,0,1,3.336,3.335v5.169a3.337,3.337,0,0,1-3.336,3.336" transform="translate(-8.397 -5.513)" fill="#4e6cd9"/>
    <path id="Path_34" data-name="Path 34" d="M14.206,21.9a3.324,3.324,0,1,1,3.324-3.324A3.327,3.327,0,0,1,14.206,21.9m0-5.324a2,2,0,1,0,2,2,2,2,0,0,0-2-2" transform="translate(-2.451 -3.436)" fill="#4e6cd9"/>
    <path id="Path_35" data-name="Path 35" d="M13.285,36.319a3.34,3.34,0,0,1-3.336-3.336V27.813a3.34,3.34,0,0,1,3.336-3.335h1.151a3.34,3.34,0,0,1,3.336,3.335V36.27H16.449V27.813A2.014,2.014,0,0,0,14.437,25.8H13.285a2.015,2.015,0,0,0-2.013,2.013v5.169A2.014,2.014,0,0,0,13.285,35Z" transform="translate(-2.241 -5.513)" fill="#4e6cd9"/>
    <path id="Path_36" data-name="Path 36" d="M32.61,41.635H31.286V29.006a3.342,3.342,0,0,0-3.335-3.336H26.224a3.34,3.34,0,0,0-3.336,3.336v7.721a3.337,3.337,0,0,0,3.336,3.336v1.323a4.665,4.665,0,0,1-4.659-4.66V29.006a4.665,4.665,0,0,1,4.659-4.659h1.727a4.665,4.665,0,0,1,4.659,4.659Z" transform="translate(-4.857 -5.483)" fill="#4e6cd9"/>
  </g>
</svg>
